<svg xmlns="http://www.w3.org/2000/svg" viewBox="0 0 20.51 32.02"><defs><style>.cls-1{fill:#1cb0e6;}</style></defs><title>Asset 4</title><g id="Layer_2" data-name="Layer 2"><g id="Layer_1-2" data-name="Layer 1"><path class="cls-1" d="M17.59,2.8l-.23-.19a11.43,11.43,0,0,0-7-2.61h-.13a11.43,11.43,0,0,0-7,2.61l-.23.19c-4.2,3.75-3.24,9.71-1,14.27,2.49,5.14,5.69,9.9,8.36,15,2.68-5.05,5.88-9.81,8.37-15C20.83,12.51,21.79,6.55,17.59,2.8ZM10.25,14.91a4.42,4.42,0,1,1,4.43-4.42A4.42,4.42,0,0,1,10.25,14.91Z"/></g></g></svg>