<svg xmlns="http://www.w3.org/2000/svg" viewBox="0 0 168.61 168.73"><defs><style>.cls-1{fill:#1cb0e6;}</style></defs><title>Asset 19</title><g id="Layer_2" data-name="Layer 2"><g id="Layer_1-2" data-name="Layer 1"><path class="cls-1" d="M125.85,16a26.79,26.79,0,0,1,26.76,26.76V126a26.79,26.79,0,0,1-26.76,26.77H42.76A26.8,26.8,0,0,1,16,126V42.76A26.8,26.8,0,0,1,42.76,16h83.09m0-16H42.76A42.77,42.77,0,0,0,0,42.76V126a42.77,42.77,0,0,0,42.76,42.77h83.09A42.76,42.76,0,0,0,168.61,126V42.76A42.76,42.76,0,0,0,125.85,0Z"/><path class="cls-1" d="M115.33,25.84h-62a27.5,27.5,0,0,0-27.5,27.5v62a27.5,27.5,0,0,0,27.5,27.5h62a27.5,27.5,0,0,0,27.5-27.5v-62A27.5,27.5,0,0,0,115.33,25.84Zm-31,94.63a36,36,0,1,1,36-36A36,36,0,0,1,84.3,120.47ZM123,52.11a6.95,6.95,0,1,1,6.95-7A6.95,6.95,0,0,1,123,52.11Z"/><circle class="cls-1" cx="84.31" cy="84.36" r="25.79"/></g></g></svg>