<svg xmlns="http://www.w3.org/2000/svg" viewBox="0 0 27.67 34.21"><defs><style>.cls-1{fill:#1cb0e6;}</style></defs><title>Asset 1</title><g id="Layer_2" data-name="Layer 2"><g id="Layer_1-2" data-name="Layer 1"><path class="cls-1" d="M0,6S.14,19.06,13.58,30.07A17.26,17.26,0,0,0,22,34.18s1.84.56,4.9-3.12c1.34-1.61.66-3.5-.54-4.95-1.52-1.82-3.57-3.9-6.06-2.68a7.8,7.8,0,0,0-1.25.8c-.28.21-.58.64-.93.73a1,1,0,0,1-.52-.06,10.65,10.65,0,0,1-5.13-4A38.59,38.59,0,0,1,7.85,13l-.09-.21s-.82-1.8.69-2.67c0,0,2.72-1.52,2.3-4.08S7.49.51,7.48.51c-1-1.06-2.94-.24-4,.39A7,7,0,0,0,0,6Z"/></g></g></svg>