<svg xmlns="http://www.w3.org/2000/svg" viewBox="0 0 167.56 170.75"><defs><style>.cls-1,.cls-2,.cls-3{fill:#b90f0f;}.cls-2{font-size:52px;font-family:MyriadPro-Regular, Myriad Pro;}.cls-3{font-size:18.42px;font-family:MyriadPro-Semibold, Myriad Pro;font-weight:600;}</style></defs><title>Asset 1</title><g id="Layer_2" data-name="Layer 2"><g id="Layer_1-2" data-name="Layer 1"><path class="cls-1" d="M41.38,30.36s20-20,40-18l5.5,8.5,5-9s24-1,40,16l-3,10,10-2s15,9,16,38l-10,6,10,5s4,17-18,41l8,8s46-44,7-102c0,0-28-38-76-31,0,0-24,4-42,22Z"/><path class="cls-1" d="M44.09,93.77a75.46,75.46,0,0,0,27.68,30.45,60.31,60.31,0,0,0,12.61,6.14c7.5,2.5,12.12,1.13,14.87-.87a10.11,10.11,0,0,0,3.88-6.27c.53-2.74,2-7.84,5.75-6.36,0,0,21,5,30,31,0,0,.73,4.41-2.84,6.3a21.48,21.48,0,0,0-4.67,3.17c-6.26,5.83-23.15,19.3-37.49,10.53,0,0-54-26-83.43-76.24-.87-1.48-1.76-3-2.7-4.4-3.32-5-12.33-20.76-4.87-32.36C8.66,45.86,12,41,13.59,38.66c.66-.94,1.29-1.91,1.87-2.91,1.31-2.27,4.76-7,9.42-3.89,0,0,21,8,27,26,0,0,4,7-3,9,0,0-9,1-10,9C38.88,75.86,38.39,82.23,44.09,93.77Z"/><text class="cls-2" transform="translate(70.26 81.36)">24</text><text class="cls-3" transform="translate(68.11 99.97)">HOURS</text></g></g></svg>