<svg xmlns="http://www.w3.org/2000/svg" viewBox="0 0 137.99 149.56"><defs><style>.cls-1{fill:#b90f0f;}</style></defs><title>Asset 2</title><g id="Layer_2" data-name="Layer 2"><g id="Layer_1-2" data-name="Layer 1"><path class="cls-1" d="M115.51,113.87c-4.62,2.92-8.31,6.89-13.13,9.65a61.72,61.72,0,0,1-14.21,6c-14.34,4-30.21,1.23-43-6.45-18.65-11.22-29-34.59-25.87-55.92,3.09-21.08,19-40.69,39.87-46.06a64.77,64.77,0,0,1,26.63-.87c7.09,1.17,14.38,3.58,19.11,9-3.85-.69-8.21-.46-11.11,2.18a8.76,8.76,0,0,0-2.52,8.3,9.61,9.61,0,0,0,5.75,6.59,20.11,20.11,0,0,0,7.38.94l21.23,0c3.85,0,8.29-.27,10.61-3.34,1.61-2.14,1.68-5,1.68-7.71q0-10.34,0-20.65c0-3.73-.05-7.68-2-10.87A9.67,9.67,0,0,0,129.66.2a8.66,8.66,0,0,0-7.43,2.07C119.16,5.14,118.8,9.85,119,14,108.92,7.86,97.82,3.1,86.14,1,64-2.9,40.92,4.73,24,19.21c-10.37,8.86-17.29,21-21.06,34C-5.82,83.38,5.52,118,31.29,136c25.07,17.53,60,18.29,85.46.89a64.33,64.33,0,0,0,12.15-10.67c2-2.28,2-7.1.71-9.63a8.77,8.77,0,0,0-6.71-4.71A11.61,11.61,0,0,0,115.51,113.87Z"/></g></g></svg>