<svg xmlns="http://www.w3.org/2000/svg" viewBox="0 0 102 102"><defs><style>.cls-1{fill:#b90f0f;}</style></defs><title>Asset 4</title><g id="Layer_2" data-name="Layer 2"><g id="Layer_1-2" data-name="Layer 1"><path class="cls-1" d="M51,0a51,51,0,1,0,51,51A51,51,0,0,0,51,0Zm1.92,78.35c3.33-1.67,6.67-5.49,6.88-5.73-.21.44-7.08,14.31-19.52,12.62,0,0-7.46-1.15-2.29-14.36a228.28,228.28,0,0,0,7.46-21.82S46,41.6,40,42.46l21.24-2.87L50,76.05S49.47,80.07,52.92,78.35Zm5.45-46.8a7.47,7.47,0,1,1,7.47-7.47A7.47,7.47,0,0,1,58.37,31.55Z"/></g></g></svg>