<svg xmlns="http://www.w3.org/2000/svg" viewBox="0 0 37.69 37.85"><defs><style>.cls-1{fill:#1cb0e6;}</style></defs><title>Asset 5</title><g id="Layer_2" data-name="Layer 2"><g id="Layer_1-2" data-name="Layer 1"><path class="cls-1" d="M32.28,0H5.41A5.41,5.41,0,0,0,0,5.41v27a5.41,5.41,0,0,0,5.41,5.41H32.28a5.41,5.41,0,0,0,5.41-5.41v-27A5.41,5.41,0,0,0,32.28,0ZM11.2,31.2a2.07,2.07,0,0,1-2.07,2.07H7A2.07,2.07,0,0,1,5,31.2V15.33A2.07,2.07,0,0,1,7,13.26h2.1a2.07,2.07,0,0,1,2.07,2.07ZM8.08,11.57a3.86,3.86,0,1,1,3.84-3.86A3.85,3.85,0,0,1,8.08,11.57ZM33.4,31.68c.06.49.09,1.15-.39,1.44a5.44,5.44,0,0,1-2.13.33,22.58,22.58,0,0,1-2.47,0A1.39,1.39,0,0,1,26.89,32c0-1.06,0-2.11,0-3.17,0-1.88.07-3.78,0-5.66,0-.22,0-.44,0-.67a7.63,7.63,0,0,0-.44-2.08A3.21,3.21,0,0,0,25,18.71a3,3,0,0,0-3.82,1.42,10,10,0,0,0-1,2.5v8.69a2.07,2.07,0,0,1-2.07,2.07H16A2.07,2.07,0,0,1,14,31.32V15.45A2.07,2.07,0,0,1,16,13.38h2.1a2.07,2.07,0,0,1,2.07,2.07v.49a7.14,7.14,0,0,1,9.09-2.09,7.06,7.06,0,0,1,1.25.78c2.21,1.74,2.76,4.44,2.85,7.1.06,1.76.07,3.52.06,5.28l0,2.64A19.64,19.64,0,0,0,33.4,31.68Z"/></g></g></svg>