<svg xmlns="http://www.w3.org/2000/svg" viewBox="0 0 40 39.51"><defs><style>.cls-1{fill:#5b5bd9;}</style></defs><title>Asset 8</title><g id="Layer_2" data-name="Layer 2"><g id="Layer_1-2" data-name="Layer 1"><path class="cls-1" d="M27.33,2.8l-.22-.19a11.43,11.43,0,0,0-7-2.61h-.12a11.43,11.43,0,0,0-7,2.61l-.22.19c-4.21,3.75-3.24,9.71-1,14.27,2.49,5.14,5.7,9.9,8.37,15,2.67-5.05,5.88-9.81,8.37-15C30.57,12.51,31.54,6.55,27.33,2.8ZM20,14.91a4.42,4.42,0,1,1,4.42-4.42A4.42,4.42,0,0,1,20,14.91Z"/><path class="cls-1" d="M23.66,28.3S39.76,29.43,40,34c0,0,.33,3.31-11.41,5a61.79,61.79,0,0,1-17.18,0C-.33,37.26,0,34,0,34c.24-4.52,16.34-5.65,16.34-5.65S4,29.33,3.85,33c0,0-.27,2.62,8.93,4a49.21,49.21,0,0,0,14.44,0c9.2-1.34,8.93-4,8.93-4C36,29.33,23.66,28.3,23.66,28.3Z"/></g></g></svg>