<svg xmlns="http://www.w3.org/2000/svg" viewBox="0 0 43.99 43.27"><defs><style>.cls-1{fill:#5b5bd9;}</style></defs><title>Asset 4</title><g id="Layer_2" data-name="Layer 2"><g id="Layer_1-2" data-name="Layer 1"><path class="cls-1" d="M0,9.54s3.1,17.81,24.37,29.94c0,0,4.64,3.41,12.76,3.79,0,0,2.71.38,6.19-5.31,1.52-2.48.15-4.92-1.85-6.63C39,29.16,35.62,26.77,32.4,29a10.82,10.82,0,0,0-1.58,1.35c-.35.36-.68,1-1.15,1.2a1.33,1.33,0,0,1-.74,0c-3.2-.41-5.77-2.32-8.09-4.39a53.54,53.54,0,0,1-8.25-9.78l-.19-.27s-1.55-2.27.39-3.79c0,0,3.48-2.65,2.32-6.06S9.32.46,9.31.45C7.65-.77,5.13.76,3.85,1.84,1.59,3.74-.23,6.54,0,9.54Z"/></g></g></svg>