<svg width="330" height="457" viewBox="0 0 330 457" fill="none" xmlns="http://www.w3.org/2000/svg">
<rect width="330" height="456.286" fill="url(#paint0_linear_63_46)" fill-opacity="0.71"/>
<rect x="1" y="1" width="328" height="454.286" stroke="white" stroke-opacity="0.42" stroke-width="2"/>
<g filter="url(#filter0_d_63_46)">
<path d="M94.4375 49V26.25H101.875C104.344 26.25 106.198 26.7604 107.438 27.7812C108.688 28.8021 109.312 30.3125 109.312 32.3125C109.312 33.375 109.01 34.3177 108.406 35.1406C107.802 35.9531 106.979 36.5833 105.938 37.0312C107.167 37.375 108.135 38.0312 108.844 39C109.562 39.9583 109.922 41.1042 109.922 42.4375C109.922 44.4792 109.26 46.0833 107.938 47.25C106.615 48.4167 104.745 49 102.328 49H94.4375ZM97.4375 38.3594V46.5469H102.391C103.786 46.5469 104.885 46.1875 105.688 45.4688C106.5 44.7396 106.906 43.7396 106.906 42.4688C106.906 39.7292 105.417 38.3594 102.438 38.3594H97.4375ZM97.4375 35.9531H101.969C103.281 35.9531 104.328 35.625 105.109 34.9688C105.901 34.3125 106.297 33.4219 106.297 32.2969C106.297 31.0469 105.932 30.1406 105.203 29.5781C104.474 29.0052 103.365 28.7188 101.875 28.7188H97.4375V35.9531ZM130.391 26.25V41.7188C130.38 43.8646 129.703 45.6198 128.359 46.9844C127.026 48.349 125.214 49.1146 122.922 49.2812L122.125 49.3125C119.635 49.3125 117.651 48.6406 116.172 47.2969C114.693 45.9531 113.943 44.1042 113.922 41.75V26.25H116.891V41.6562C116.891 43.3021 117.344 44.5833 118.25 45.5C119.156 46.4062 120.448 46.8594 122.125 46.8594C123.823 46.8594 125.12 46.4062 126.016 45.5C126.922 44.5938 127.375 43.3177 127.375 41.6719V26.25H130.391ZM141.828 38.8594C139.255 38.1198 137.38 37.2135 136.203 36.1406C135.036 35.0573 134.453 33.724 134.453 32.1406C134.453 30.349 135.167 28.8698 136.594 27.7031C138.031 26.526 139.896 25.9375 142.188 25.9375C143.75 25.9375 145.141 26.2396 146.359 26.8438C147.589 27.4479 148.536 28.2812 149.203 29.3438C149.88 30.4062 150.219 31.5677 150.219 32.8281H147.203C147.203 31.4531 146.766 30.375 145.891 29.5938C145.016 28.8021 143.781 28.4062 142.188 28.4062C140.708 28.4062 139.552 28.7344 138.719 29.3906C137.896 30.0365 137.484 30.9375 137.484 32.0938C137.484 33.0208 137.875 33.8073 138.656 34.4531C139.448 35.0885 140.786 35.6719 142.672 36.2031C144.568 36.7344 146.047 37.3229 147.109 37.9688C148.182 38.6042 148.974 39.349 149.484 40.2031C150.005 41.0573 150.266 42.0625 150.266 43.2188C150.266 45.0625 149.547 46.5417 148.109 47.6562C146.672 48.7604 144.75 49.3125 142.344 49.3125C140.781 49.3125 139.323 49.0156 137.969 48.4219C136.615 47.8177 135.568 46.9948 134.828 45.9531C134.099 44.9115 133.734 43.7292 133.734 42.4062H136.75C136.75 43.7812 137.255 44.8698 138.266 45.6719C139.286 46.4635 140.646 46.8594 142.344 46.8594C143.927 46.8594 145.141 46.5365 145.984 45.8906C146.828 45.2448 147.25 44.3646 147.25 43.25C147.25 42.1354 146.859 41.276 146.078 40.6719C145.297 40.0573 143.88 39.4531 141.828 38.8594ZM157.344 49H154.344V26.25H157.344V49ZM180.328 49H177.312L165.859 31.4688V49H162.844V26.25H165.859L177.344 43.8594V26.25H180.328V49ZM198.516 38.4844H188.656V46.5469H200.109V49H185.656V26.25H199.953V28.7188H188.656V36.0312H198.516V38.4844ZM210.547 38.8594C207.974 38.1198 206.099 37.2135 204.922 36.1406C203.755 35.0573 203.172 33.724 203.172 32.1406C203.172 30.349 203.885 28.8698 205.312 27.7031C206.75 26.526 208.615 25.9375 210.906 25.9375C212.469 25.9375 213.859 26.2396 215.078 26.8438C216.307 27.4479 217.255 28.2812 217.922 29.3438C218.599 30.4062 218.938 31.5677 218.938 32.8281H215.922C215.922 31.4531 215.484 30.375 214.609 29.5938C213.734 28.8021 212.5 28.4062 210.906 28.4062C209.427 28.4062 208.271 28.7344 207.438 29.3906C206.615 30.0365 206.203 30.9375 206.203 32.0938C206.203 33.0208 206.594 33.8073 207.375 34.4531C208.167 35.0885 209.505 35.6719 211.391 36.2031C213.286 36.7344 214.766 37.3229 215.828 37.9688C216.901 38.6042 217.693 39.349 218.203 40.2031C218.724 41.0573 218.984 42.0625 218.984 43.2188C218.984 45.0625 218.266 46.5417 216.828 47.6562C215.391 48.7604 213.469 49.3125 211.062 49.3125C209.5 49.3125 208.042 49.0156 206.688 48.4219C205.333 47.8177 204.286 46.9948 203.547 45.9531C202.818 44.9115 202.453 43.7292 202.453 42.4062H205.469C205.469 43.7812 205.974 44.8698 206.984 45.6719C208.005 46.4635 209.365 46.8594 211.062 46.8594C212.646 46.8594 213.859 46.5365 214.703 45.8906C215.547 45.2448 215.969 44.3646 215.969 43.25C215.969 42.1354 215.578 41.276 214.797 40.6719C214.016 40.0573 212.599 39.4531 210.547 38.8594ZM229.547 38.8594C226.974 38.1198 225.099 37.2135 223.922 36.1406C222.755 35.0573 222.172 33.724 222.172 32.1406C222.172 30.349 222.885 28.8698 224.312 27.7031C225.75 26.526 227.615 25.9375 229.906 25.9375C231.469 25.9375 232.859 26.2396 234.078 26.8438C235.307 27.4479 236.255 28.2812 236.922 29.3438C237.599 30.4062 237.938 31.5677 237.938 32.8281H234.922C234.922 31.4531 234.484 30.375 233.609 29.5938C232.734 28.8021 231.5 28.4062 229.906 28.4062C228.427 28.4062 227.271 28.7344 226.438 29.3906C225.615 30.0365 225.203 30.9375 225.203 32.0938C225.203 33.0208 225.594 33.8073 226.375 34.4531C227.167 35.0885 228.505 35.6719 230.391 36.2031C232.286 36.7344 233.766 37.3229 234.828 37.9688C235.901 38.6042 236.693 39.349 237.203 40.2031C237.724 41.0573 237.984 42.0625 237.984 43.2188C237.984 45.0625 237.266 46.5417 235.828 47.6562C234.391 48.7604 232.469 49.3125 230.062 49.3125C228.5 49.3125 227.042 49.0156 225.688 48.4219C224.333 47.8177 223.286 46.9948 222.547 45.9531C221.818 44.9115 221.453 43.7292 221.453 42.4062H224.469C224.469 43.7812 224.974 44.8698 225.984 45.6719C227.005 46.4635 228.365 46.8594 230.062 46.8594C231.646 46.8594 232.859 46.5365 233.703 45.8906C234.547 45.2448 234.969 44.3646 234.969 43.25C234.969 42.1354 234.578 41.276 233.797 40.6719C233.016 40.0573 231.599 39.4531 229.547 38.8594Z" fill="#DCAC65"/>
</g>
<path d="M328.299 321.363L112.268 443.696L99.5103 454.651H328.299V321.363Z" fill="url(#paint1_linear_63_46)"/>
<path d="M165 454.651L1.70105 381.056V454.651H165Z" fill="url(#paint2_linear_63_46)"/>
<line x1="62.0876" y1="60.8286" x2="267.912" y2="60.8286" stroke="white"/>
<path d="M83.4238 85.7705H76.6455V91.3135H84.5195V93H74.583V77.3594H84.4121V79.0566H76.6455V84.084H83.4238V85.7705ZM98.5918 88.0371C98.3984 89.6914 97.7861 90.9697 96.7549 91.8721C95.7308 92.7673 94.3665 93.2148 92.6621 93.2148C90.8145 93.2148 89.332 92.5524 88.2148 91.2275C87.1048 89.9027 86.5498 88.1302 86.5498 85.9102V84.4062C86.5498 82.9525 86.8076 81.6742 87.3232 80.5713C87.846 79.4684 88.5837 78.6234 89.5361 78.0361C90.4886 77.4417 91.5915 77.1445 92.8447 77.1445C94.5062 77.1445 95.8382 77.61 96.8408 78.541C97.8434 79.4648 98.4271 80.7467 98.5918 82.3867H96.5186C96.3395 81.1406 95.9492 80.2383 95.3477 79.6797C94.7533 79.1211 93.9189 78.8418 92.8447 78.8418C91.527 78.8418 90.4922 79.3288 89.7402 80.3027C88.9954 81.2767 88.623 82.6624 88.623 84.46V85.9746C88.623 87.6719 88.9775 89.0218 89.6865 90.0244C90.3955 91.027 91.3874 91.5283 92.6621 91.5283C93.8079 91.5283 94.6852 91.2705 95.2939 90.7549C95.9098 90.2321 96.318 89.3262 96.5186 88.0371H98.5918ZM113.448 85.6846C113.448 87.2171 113.19 88.5563 112.675 89.7021C112.159 90.8408 111.429 91.7109 110.483 92.3125C109.538 92.9141 108.435 93.2148 107.175 93.2148C105.943 93.2148 104.851 92.9141 103.898 92.3125C102.946 91.7038 102.205 90.8408 101.675 89.7236C101.152 88.5993 100.883 87.2995 100.869 85.8242V84.6963C100.869 83.1924 101.131 81.8639 101.653 80.7109C102.176 79.5579 102.914 78.6771 103.866 78.0684C104.826 77.4525 105.922 77.1445 107.153 77.1445C108.407 77.1445 109.509 77.4489 110.462 78.0576C111.422 78.6592 112.159 79.5365 112.675 80.6895C113.19 81.8353 113.448 83.1709 113.448 84.6963V85.6846ZM111.396 84.6748C111.396 82.82 111.024 81.3984 110.279 80.4102C109.535 79.4147 108.493 78.917 107.153 78.917C105.85 78.917 104.822 79.4147 104.07 80.4102C103.326 81.3984 102.942 82.7734 102.921 84.5352V85.6846C102.921 87.4821 103.297 88.8965 104.049 89.9277C104.808 90.9518 105.85 91.4639 107.175 91.4639C108.507 91.4639 109.538 90.9805 110.269 90.0137C110.999 89.0397 111.375 87.6468 111.396 85.835V84.6748ZM119.206 77.3594L124.319 90.1211L129.433 77.3594H132.107V93H130.045V86.9092L130.238 80.335L125.104 93H123.524L118.4 80.3672L118.604 86.9092V93H116.542V77.3594H119.206ZM138.413 77.3594L143.526 90.1211L148.64 77.3594H151.314V93H149.252V86.9092L149.445 80.335L144.311 93H142.731L137.607 80.3672L137.812 86.9092V93H135.749V77.3594H138.413ZM163.797 85.7705H157.019V91.3135H164.893V93H154.956V77.3594H164.785V79.0566H157.019V84.084H163.797V85.7705ZM173.196 86.6729H169.522V93H167.449V77.3594H172.627C174.389 77.3594 175.742 77.7604 176.688 78.5625C177.64 79.3646 178.116 80.5319 178.116 82.0645C178.116 83.0384 177.851 83.887 177.321 84.6104C176.799 85.3337 176.068 85.8743 175.13 86.2324L178.804 92.8711V93H176.591L173.196 86.6729ZM169.522 84.9863H172.691C173.715 84.9863 174.528 84.7214 175.13 84.1914C175.739 83.6615 176.043 82.9525 176.043 82.0645C176.043 81.0977 175.753 80.3564 175.173 79.8408C174.6 79.3252 173.769 79.0638 172.681 79.0566H169.522V84.9863ZM192.521 88.0371C192.328 89.6914 191.716 90.9697 190.685 91.8721C189.66 92.7673 188.296 93.2148 186.592 93.2148C184.744 93.2148 183.262 92.5524 182.145 91.2275C181.035 89.9027 180.479 88.1302 180.479 85.9102V84.4062C180.479 82.9525 180.737 81.6742 181.253 80.5713C181.776 79.4684 182.513 78.6234 183.466 78.0361C184.418 77.4417 185.521 77.1445 186.774 77.1445C188.436 77.1445 189.768 77.61 190.771 78.541C191.773 79.4648 192.357 80.7467 192.521 82.3867H190.448C190.269 81.1406 189.879 80.2383 189.277 79.6797C188.683 79.1211 187.849 78.8418 186.774 78.8418C185.457 78.8418 184.422 79.3288 183.67 80.3027C182.925 81.2767 182.553 82.6624 182.553 84.46V85.9746C182.553 87.6719 182.907 89.0218 183.616 90.0244C184.325 91.027 185.317 91.5283 186.592 91.5283C187.738 91.5283 188.615 91.2705 189.224 90.7549C189.84 90.2321 190.248 89.3262 190.448 88.0371H192.521ZM204.188 85.7705H197.409V91.3135H205.283V93H195.347V77.3594H205.176V79.0566H197.409V84.084H204.188V85.7705ZM216.681 88.0693L216.981 90.1318L217.422 88.2734L220.516 77.3594H222.256L225.274 88.2734L225.704 90.1641L226.037 88.0586L228.465 77.3594H230.538L226.746 93H224.866L221.644 81.6025L221.396 80.4102L221.149 81.6025L217.809 93H215.929L212.147 77.3594H214.21L216.681 88.0693ZM241.678 85.7705H234.899V91.3135H242.773V93H232.837V77.3594H242.666V79.0566H234.899V84.084H241.678V85.7705ZM245.341 93V77.3594H250.454C252.151 77.3594 253.426 77.7103 254.278 78.4121C255.138 79.1139 255.567 80.1523 255.567 81.5273C255.567 82.2578 255.36 82.9059 254.944 83.4717C254.529 84.0303 253.963 84.4635 253.247 84.7715C254.092 85.0078 254.758 85.459 255.245 86.125C255.739 86.7839 255.986 87.5716 255.986 88.4883C255.986 89.8919 255.532 90.9948 254.622 91.7969C253.713 92.599 252.427 93 250.766 93H245.341ZM247.403 85.6846V91.3135H250.809C251.768 91.3135 252.524 91.0664 253.075 90.5723C253.634 90.071 253.913 89.3835 253.913 88.5098C253.913 86.6263 252.889 85.6846 250.841 85.6846H247.403ZM247.403 84.0303H250.519C251.421 84.0303 252.141 83.8047 252.678 83.3535C253.222 82.9023 253.494 82.29 253.494 81.5166C253.494 80.6572 253.243 80.0342 252.742 79.6475C252.241 79.2536 251.478 79.0566 250.454 79.0566H247.403V84.0303Z" fill="white"/>
<path d="M225.465 411.426H228.451C230.327 411.397 231.803 410.903 232.877 409.943C233.951 408.984 234.488 407.688 234.488 406.055C234.488 402.388 232.662 400.555 229.01 400.555C227.291 400.555 225.916 401.049 224.885 402.037C223.868 403.011 223.359 404.307 223.359 405.926H219.385C219.385 403.448 220.287 401.393 222.092 399.76C223.911 398.113 226.217 397.289 229.01 397.289C231.96 397.289 234.273 398.07 235.949 399.631C237.625 401.192 238.463 403.362 238.463 406.141C238.463 407.501 238.019 408.819 237.131 410.094C236.257 411.368 235.061 412.321 233.543 412.951C235.262 413.495 236.587 414.398 237.518 415.658C238.463 416.919 238.936 418.458 238.936 420.277C238.936 423.085 238.019 425.312 236.186 426.959C234.352 428.606 231.967 429.43 229.031 429.43C226.095 429.43 223.703 428.635 221.855 427.045C220.022 425.455 219.105 423.357 219.105 420.75H223.102C223.102 422.397 223.639 423.715 224.713 424.703C225.787 425.691 227.227 426.186 229.031 426.186C230.951 426.186 232.419 425.684 233.436 424.682C234.452 423.679 234.961 422.24 234.961 420.363C234.961 418.544 234.402 417.148 233.285 416.174C232.168 415.2 230.557 414.699 228.451 414.67H225.465V411.426ZM259.625 415.25C258.794 416.238 257.799 417.033 256.639 417.635C255.493 418.236 254.232 418.537 252.857 418.537C251.053 418.537 249.477 418.093 248.131 417.205C246.799 416.317 245.768 415.071 245.037 413.467C244.307 411.848 243.941 410.065 243.941 408.117C243.941 406.026 244.335 404.143 245.123 402.467C245.925 400.791 247.057 399.509 248.518 398.621C249.979 397.733 251.683 397.289 253.631 397.289C256.725 397.289 259.16 398.449 260.936 400.77C262.726 403.076 263.621 406.227 263.621 410.223V411.383C263.621 417.47 262.418 421.917 260.012 424.725C257.605 427.518 253.975 428.95 249.119 429.021H248.346V425.67H249.184C252.464 425.613 254.984 424.76 256.746 423.113C258.508 421.452 259.467 418.831 259.625 415.25ZM253.502 415.25C254.834 415.25 256.059 414.842 257.176 414.025C258.307 413.209 259.131 412.199 259.646 410.996V409.406C259.646 406.799 259.081 404.68 257.949 403.047C256.818 401.414 255.385 400.598 253.652 400.598C251.905 400.598 250.501 401.271 249.441 402.617C248.382 403.949 247.852 405.711 247.852 407.902C247.852 410.036 248.36 411.798 249.377 413.188C250.408 414.562 251.783 415.25 253.502 415.25ZM284.332 415.25C283.501 416.238 282.506 417.033 281.346 417.635C280.2 418.236 278.939 418.537 277.564 418.537C275.76 418.537 274.184 418.093 272.838 417.205C271.506 416.317 270.475 415.071 269.744 413.467C269.014 411.848 268.648 410.065 268.648 408.117C268.648 406.026 269.042 404.143 269.83 402.467C270.632 400.791 271.764 399.509 273.225 398.621C274.686 397.733 276.39 397.289 278.338 397.289C281.432 397.289 283.867 398.449 285.643 400.77C287.433 403.076 288.328 406.227 288.328 410.223V411.383C288.328 417.47 287.125 421.917 284.719 424.725C282.312 427.518 278.682 428.95 273.826 429.021H273.053V425.67H273.891C277.171 425.613 279.691 424.76 281.453 423.113C283.215 421.452 284.174 418.831 284.332 415.25ZM278.209 415.25C279.541 415.25 280.766 414.842 281.883 414.025C283.014 413.209 283.838 412.199 284.354 410.996V409.406C284.354 406.799 283.788 404.68 282.656 403.047C281.525 401.414 280.092 400.598 278.359 400.598C276.612 400.598 275.208 401.271 274.148 402.617C273.089 403.949 272.559 405.711 272.559 407.902C272.559 410.036 273.067 411.798 274.084 413.188C275.115 414.562 276.49 415.25 278.209 415.25ZM309.598 420.943C309.598 419.626 309.132 418.516 308.201 417.613C307.285 416.711 305.73 415.895 303.539 415.164C300.488 414.233 298.261 413.023 296.857 411.533C295.468 410.029 294.773 408.124 294.773 405.818C294.773 403.469 295.454 401.543 296.814 400.039C298.189 398.535 300.073 397.64 302.465 397.354V392.648H305.666V397.375C308.072 397.704 309.941 398.714 311.273 400.404C312.62 402.094 313.293 404.408 313.293 407.344H309.34C309.34 405.324 308.86 403.72 307.9 402.531C306.941 401.342 305.645 400.748 304.012 400.748C302.307 400.748 301.004 401.192 300.102 402.08C299.199 402.954 298.748 404.178 298.748 405.754C298.748 407.215 299.221 408.382 300.166 409.256C301.126 410.115 302.694 410.903 304.871 411.619C307.062 412.321 308.767 413.102 309.984 413.961C311.216 414.806 312.118 415.794 312.691 416.926C313.279 418.057 313.572 419.382 313.572 420.9C313.572 423.321 312.842 425.269 311.381 426.744C309.934 428.219 307.9 429.093 305.279 429.365V433.469H302.1V429.365C299.436 429.122 297.344 428.176 295.826 426.529C294.322 424.868 293.57 422.619 293.57 419.783H297.545C297.545 421.774 298.068 423.307 299.113 424.381C300.159 425.455 301.641 425.992 303.561 425.992C305.437 425.992 306.912 425.541 307.986 424.639C309.061 423.736 309.598 422.505 309.598 420.943Z" fill="#DCAC65"/>
<path d="M32.3228 348H29.689V330.541L24.4072 332.48V330.102L31.9121 327.284H32.3228V348ZM53.5063 348H39.9976V346.117L47.1343 338.187C48.1916 336.988 48.9185 336.016 49.3149 335.27C49.7209 334.515 49.9238 333.736 49.9238 332.934C49.9238 331.857 49.5981 330.975 48.9468 330.286C48.2954 329.597 47.4269 329.252 46.3413 329.252C45.0386 329.252 44.0238 329.625 43.2969 330.371C42.5794 331.107 42.2207 332.136 42.2207 333.458H39.6011C39.6011 331.56 40.21 330.026 41.4277 328.855C42.6549 327.685 44.2928 327.1 46.3413 327.1C48.2576 327.1 49.7728 327.605 50.8867 328.615C52.0007 329.615 52.5576 330.951 52.5576 332.622C52.5576 334.652 51.2643 337.068 48.6777 339.872L43.1553 345.862H53.5063V348ZM66.8735 339.929V348H64.1548V327.383H71.7588C74.015 327.383 75.7803 327.959 77.0547 329.11C78.3385 330.262 78.9805 331.787 78.9805 333.684C78.9805 335.685 78.3527 337.229 77.0972 338.314C75.8511 339.391 74.0622 339.929 71.7305 339.929H66.8735ZM66.8735 337.706H71.7588C73.2126 337.706 74.3265 337.366 75.1006 336.686C75.8747 335.997 76.2617 335.006 76.2617 333.712C76.2617 332.485 75.8747 331.503 75.1006 330.767C74.3265 330.031 73.2645 329.648 71.9146 329.62H66.8735V337.706ZM91.8804 342.619H83.2427L81.3027 348H78.499L86.3721 327.383H88.751L96.6382 348H93.8486L91.8804 342.619ZM84.064 340.382H91.0732L87.5615 330.739L84.064 340.382ZM114.466 345.295C113.767 346.296 112.79 347.047 111.535 347.547C110.289 348.038 108.835 348.283 107.173 348.283C105.493 348.283 104.001 347.891 102.699 347.108C101.396 346.315 100.386 345.192 99.6685 343.738C98.9604 342.284 98.597 340.599 98.5781 338.683V336.884C98.5781 333.778 99.3003 331.371 100.745 329.663C102.198 327.954 104.237 327.1 106.862 327.1C109.014 327.1 110.746 327.652 112.059 328.756C113.371 329.851 114.173 331.409 114.466 333.429H111.747C111.237 330.701 109.614 329.337 106.876 329.337C105.054 329.337 103.671 329.979 102.727 331.263C101.792 332.537 101.32 334.387 101.311 336.813V338.499C101.311 340.811 101.84 342.652 102.897 344.021C103.954 345.38 105.384 346.06 107.188 346.06C108.207 346.06 109.099 345.947 109.864 345.72C110.628 345.494 111.261 345.111 111.761 344.573V339.943H106.989V337.734H114.466V345.295ZM130.665 338.47H121.73V345.777H132.109V348H119.011V327.383H131.968V329.62H121.73V336.247H130.665V338.47ZM141.568 338.81C139.237 338.14 137.537 337.319 136.471 336.346C135.413 335.364 134.885 334.156 134.885 332.721C134.885 331.097 135.531 329.757 136.825 328.7C138.127 327.633 139.817 327.1 141.894 327.1C143.31 327.1 144.57 327.373 145.675 327.921C146.789 328.468 147.648 329.224 148.252 330.187C148.866 331.149 149.172 332.202 149.172 333.344H146.439C146.439 332.098 146.043 331.121 145.25 330.413C144.457 329.696 143.338 329.337 141.894 329.337C140.554 329.337 139.506 329.634 138.75 330.229C138.005 330.814 137.632 331.631 137.632 332.679C137.632 333.519 137.986 334.232 138.694 334.817C139.411 335.393 140.624 335.921 142.333 336.403C144.051 336.884 145.392 337.418 146.354 338.003C147.327 338.579 148.044 339.254 148.507 340.028C148.979 340.802 149.215 341.713 149.215 342.761C149.215 344.432 148.563 345.772 147.261 346.782C145.958 347.783 144.216 348.283 142.036 348.283C140.62 348.283 139.298 348.014 138.071 347.476C136.844 346.929 135.895 346.183 135.225 345.239C134.564 344.295 134.233 343.223 134.233 342.024H136.966C136.966 343.271 137.424 344.257 138.34 344.984C139.265 345.701 140.497 346.06 142.036 346.06C143.471 346.06 144.57 345.767 145.335 345.182C146.1 344.597 146.482 343.799 146.482 342.789C146.482 341.779 146.128 341 145.42 340.453C144.712 339.896 143.428 339.348 141.568 338.81Z" fill="#DCAC65"/>
<path d="M87.5879 134.536H84.415V140H82.6245V126.492H87.0962C88.6177 126.492 89.7866 126.839 90.603 127.531C91.4256 128.224 91.8369 129.232 91.8369 130.556C91.8369 131.397 91.6081 132.13 91.1504 132.754C90.6989 133.379 90.068 133.846 89.2578 134.155L92.4307 139.889V140H90.5195L87.5879 134.536ZM84.415 133.079H87.1519C88.0363 133.079 88.7383 132.85 89.2578 132.393C89.7835 131.935 90.0464 131.323 90.0464 130.556C90.0464 129.721 89.7959 129.081 89.2949 128.635C88.8001 128.19 88.0827 127.964 87.1426 127.958H84.415V133.079ZM98.2383 140.186C96.8776 140.186 95.7705 139.74 94.917 138.85C94.0635 137.953 93.6367 136.756 93.6367 135.259V134.944C93.6367 133.948 93.8254 133.061 94.2026 132.281C94.5861 131.496 95.118 130.883 95.7983 130.444C96.4849 129.999 97.2271 129.776 98.0249 129.776C99.3299 129.776 100.344 130.206 101.068 131.066C101.792 131.926 102.153 133.156 102.153 134.758V135.473H95.353C95.3778 136.462 95.6654 137.263 96.2158 137.875C96.7725 138.482 97.4775 138.785 98.3311 138.785C98.9372 138.785 99.4505 138.661 99.8711 138.414C100.292 138.166 100.66 137.838 100.975 137.43L102.023 138.247C101.182 139.539 99.9206 140.186 98.2383 140.186ZM98.0249 131.187C97.3322 131.187 96.7508 131.44 96.2808 131.947C95.8107 132.448 95.52 133.153 95.4087 134.062H100.437V133.933C100.388 133.061 100.153 132.386 99.7319 131.91C99.3114 131.428 98.7424 131.187 98.0249 131.187ZM109.993 137.337C109.993 136.874 109.816 136.515 109.464 136.261C109.118 136.001 108.508 135.779 107.636 135.593C106.77 135.408 106.081 135.185 105.567 134.925C105.06 134.666 104.683 134.356 104.436 133.998C104.194 133.639 104.074 133.212 104.074 132.717C104.074 131.895 104.42 131.199 105.113 130.63C105.812 130.061 106.702 129.776 107.785 129.776C108.923 129.776 109.844 130.07 110.549 130.658C111.261 131.245 111.616 131.997 111.616 132.912H109.891C109.891 132.442 109.69 132.037 109.288 131.697C108.892 131.357 108.391 131.187 107.785 131.187C107.16 131.187 106.671 131.323 106.319 131.595C105.966 131.867 105.79 132.222 105.79 132.662C105.79 133.076 105.954 133.388 106.282 133.599C106.61 133.809 107.2 134.01 108.054 134.202C108.913 134.393 109.609 134.622 110.141 134.888C110.673 135.154 111.066 135.476 111.319 135.853C111.579 136.224 111.709 136.679 111.709 137.217C111.709 138.114 111.35 138.834 110.633 139.378C109.915 139.917 108.985 140.186 107.84 140.186C107.036 140.186 106.325 140.043 105.707 139.759C105.088 139.474 104.603 139.078 104.25 138.571C103.904 138.058 103.73 137.504 103.73 136.911H105.447C105.478 137.486 105.707 137.944 106.133 138.284C106.566 138.618 107.135 138.785 107.84 138.785C108.49 138.785 109.009 138.655 109.399 138.395C109.795 138.129 109.993 137.777 109.993 137.337ZM122.424 135.092C122.424 136.62 122.075 137.851 121.376 138.785C120.677 139.719 119.731 140.186 118.537 140.186C117.319 140.186 116.36 139.799 115.661 139.026V143.859H113.945V129.962H115.513L115.596 131.075C116.295 130.209 117.266 129.776 118.509 129.776C119.715 129.776 120.668 130.231 121.367 131.14C122.072 132.049 122.424 133.314 122.424 134.935V135.092ZM120.708 134.897C120.708 133.766 120.467 132.872 119.984 132.216C119.502 131.561 118.84 131.233 117.999 131.233C116.96 131.233 116.181 131.694 115.661 132.615V137.412C116.174 138.327 116.96 138.785 118.018 138.785C118.84 138.785 119.493 138.46 119.975 137.811C120.464 137.155 120.708 136.184 120.708 134.897ZM124.159 134.888C124.159 133.905 124.351 133.02 124.734 132.235C125.124 131.449 125.662 130.843 126.349 130.417C127.041 129.99 127.83 129.776 128.714 129.776C130.081 129.776 131.185 130.25 132.026 131.196C132.874 132.142 133.297 133.401 133.297 134.972V135.092C133.297 136.069 133.109 136.948 132.731 137.727C132.36 138.5 131.825 139.103 131.126 139.536C130.434 139.969 129.636 140.186 128.733 140.186C127.372 140.186 126.268 139.712 125.421 138.766C124.58 137.82 124.159 136.567 124.159 135.009V134.888ZM125.885 135.092C125.885 136.206 126.141 137.099 126.655 137.773C127.174 138.448 127.867 138.785 128.733 138.785C129.605 138.785 130.298 138.444 130.811 137.764C131.324 137.078 131.581 136.119 131.581 134.888C131.581 133.787 131.318 132.897 130.792 132.216C130.273 131.53 129.58 131.187 128.714 131.187C127.867 131.187 127.184 131.524 126.664 132.198C126.145 132.872 125.885 133.837 125.885 135.092ZM137.073 129.962L137.129 131.224C137.896 130.259 138.898 129.776 140.135 129.776C142.256 129.776 143.326 130.973 143.345 133.367V140H141.628V133.357C141.622 132.634 141.455 132.099 141.127 131.752C140.806 131.406 140.302 131.233 139.615 131.233C139.059 131.233 138.57 131.381 138.149 131.678C137.729 131.975 137.401 132.365 137.166 132.847V140H135.45V129.962H137.073ZM151.778 137.337C151.778 136.874 151.602 136.515 151.249 136.261C150.903 136.001 150.293 135.779 149.421 135.593C148.556 135.408 147.866 135.185 147.353 134.925C146.845 134.666 146.468 134.356 146.221 133.998C145.979 133.639 145.859 133.212 145.859 132.717C145.859 131.895 146.205 131.199 146.898 130.63C147.597 130.061 148.487 129.776 149.57 129.776C150.708 129.776 151.629 130.07 152.334 130.658C153.046 131.245 153.401 131.997 153.401 132.912H151.676C151.676 132.442 151.475 132.037 151.073 131.697C150.677 131.357 150.176 131.187 149.57 131.187C148.945 131.187 148.457 131.323 148.104 131.595C147.751 131.867 147.575 132.222 147.575 132.662C147.575 133.076 147.739 133.388 148.067 133.599C148.395 133.809 148.985 134.01 149.839 134.202C150.699 134.393 151.394 134.622 151.926 134.888C152.458 135.154 152.851 135.476 153.104 135.853C153.364 136.224 153.494 136.679 153.494 137.217C153.494 138.114 153.135 138.834 152.418 139.378C151.701 139.917 150.77 140.186 149.625 140.186C148.821 140.186 148.11 140.043 147.492 139.759C146.873 139.474 146.388 139.078 146.035 138.571C145.689 138.058 145.516 137.504 145.516 136.911H147.232C147.263 137.486 147.492 137.944 147.918 138.284C148.351 138.618 148.92 138.785 149.625 138.785C150.275 138.785 150.794 138.655 151.184 138.395C151.58 138.129 151.778 137.777 151.778 137.337ZM157.595 140H155.878V129.962H157.595V140ZM155.739 127.299C155.739 127.021 155.823 126.786 155.99 126.594C156.163 126.403 156.417 126.307 156.75 126.307C157.084 126.307 157.338 126.403 157.511 126.594C157.684 126.786 157.771 127.021 157.771 127.299C157.771 127.578 157.684 127.81 157.511 127.995C157.338 128.181 157.084 128.273 156.75 128.273C156.417 128.273 156.163 128.181 155.99 127.995C155.823 127.81 155.739 127.578 155.739 127.299ZM163.662 137.671L166.148 129.962H167.902L164.302 140H162.994L159.357 129.962H161.111L163.662 137.671ZM173.589 140.186C172.228 140.186 171.121 139.74 170.268 138.85C169.414 137.953 168.987 136.756 168.987 135.259V134.944C168.987 133.948 169.176 133.061 169.553 132.281C169.937 131.496 170.469 130.883 171.149 130.444C171.835 129.999 172.578 129.776 173.375 129.776C174.681 129.776 175.695 130.206 176.418 131.066C177.142 131.926 177.504 133.156 177.504 134.758V135.473H170.704C170.728 136.462 171.016 137.263 171.566 137.875C172.123 138.482 172.828 138.785 173.682 138.785C174.288 138.785 174.801 138.661 175.222 138.414C175.642 138.166 176.01 137.838 176.326 137.43L177.374 138.247C176.533 139.539 175.271 140.186 173.589 140.186ZM173.375 131.187C172.683 131.187 172.101 131.44 171.631 131.947C171.161 132.448 170.871 133.153 170.759 134.062H175.788V133.933C175.738 133.061 175.503 132.386 175.083 131.91C174.662 131.428 174.093 131.187 173.375 131.187ZM187.394 135.742L187.653 137.523L188.034 135.918L190.706 126.492H192.208L194.815 135.918L195.187 137.551L195.474 135.732L197.571 126.492H199.361L196.086 140H194.463L191.68 130.157L191.466 129.127L191.253 130.157L188.368 140H186.744L183.479 126.492H185.26L187.394 135.742ZM204.946 140.186C203.586 140.186 202.479 139.74 201.625 138.85C200.771 137.953 200.345 136.756 200.345 135.259V134.944C200.345 133.948 200.533 133.061 200.911 132.281C201.294 131.496 201.826 130.883 202.506 130.444C203.193 129.999 203.935 129.776 204.733 129.776C206.038 129.776 207.052 130.206 207.776 131.066C208.5 131.926 208.861 133.156 208.861 134.758V135.473H202.061C202.086 136.462 202.373 137.263 202.924 137.875C203.48 138.482 204.186 138.785 205.039 138.785C205.645 138.785 206.159 138.661 206.579 138.414C207 138.166 207.368 137.838 207.683 137.43L208.731 138.247C207.89 139.539 206.629 140.186 204.946 140.186ZM204.733 131.187C204.04 131.187 203.459 131.44 202.989 131.947C202.519 132.448 202.228 133.153 202.117 134.062H207.145V133.933C207.096 133.061 206.861 132.386 206.44 131.91C206.019 131.428 205.45 131.187 204.733 131.187ZM219.354 135.092C219.354 136.626 219.001 137.86 218.296 138.794C217.591 139.722 216.645 140.186 215.458 140.186C214.19 140.186 213.209 139.737 212.517 138.84L212.433 140H210.856V125.75H212.572V131.066C213.265 130.206 214.221 129.776 215.439 129.776C216.657 129.776 217.613 130.237 218.306 131.159C219.005 132.08 219.354 133.342 219.354 134.944V135.092ZM217.638 134.897C217.638 133.729 217.412 132.826 216.96 132.188C216.509 131.551 215.86 131.233 215.012 131.233C213.88 131.233 213.067 131.759 212.572 132.81V137.152C213.098 138.203 213.917 138.729 215.031 138.729C215.853 138.729 216.493 138.41 216.951 137.773C217.409 137.136 217.638 136.178 217.638 134.897ZM227.37 137.337C227.37 136.874 227.193 136.515 226.841 136.261C226.494 136.001 225.885 135.779 225.013 135.593C224.147 135.408 223.458 135.185 222.944 134.925C222.437 134.666 222.06 134.356 221.812 133.998C221.571 133.639 221.451 133.212 221.451 132.717C221.451 131.895 221.797 131.199 222.49 130.63C223.189 130.061 224.079 129.776 225.162 129.776C226.3 129.776 227.221 130.07 227.926 130.658C228.638 131.245 228.993 131.997 228.993 132.912H227.268C227.268 132.442 227.067 132.037 226.665 131.697C226.269 131.357 225.768 131.187 225.162 131.187C224.537 131.187 224.048 131.323 223.696 131.595C223.343 131.867 223.167 132.222 223.167 132.662C223.167 133.076 223.331 133.388 223.659 133.599C223.986 133.809 224.577 134.01 225.431 134.202C226.29 134.393 226.986 134.622 227.518 134.888C228.05 135.154 228.443 135.476 228.696 135.853C228.956 136.224 229.086 136.679 229.086 137.217C229.086 138.114 228.727 138.834 228.01 139.378C227.292 139.917 226.361 140.186 225.217 140.186C224.413 140.186 223.702 140.043 223.083 139.759C222.465 139.474 221.979 139.078 221.627 138.571C221.281 138.058 221.107 137.504 221.107 136.911H222.824C222.855 137.486 223.083 137.944 223.51 138.284C223.943 138.618 224.512 138.785 225.217 138.785C225.867 138.785 226.386 138.655 226.776 138.395C227.172 138.129 227.37 137.777 227.37 137.337ZM233.187 140H231.47V129.962H233.187V140ZM231.331 127.299C231.331 127.021 231.415 126.786 231.582 126.594C231.755 126.403 232.008 126.307 232.342 126.307C232.676 126.307 232.93 126.403 233.103 126.594C233.276 126.786 233.363 127.021 233.363 127.299C233.363 127.578 233.276 127.81 233.103 127.995C232.93 128.181 232.676 128.273 232.342 128.273C232.008 128.273 231.755 128.181 231.582 127.995C231.415 127.81 231.331 127.578 231.331 127.299ZM238.271 127.531V129.962H240.145V131.289H238.271V137.514C238.271 137.916 238.354 138.219 238.521 138.423C238.688 138.621 238.972 138.72 239.375 138.72C239.572 138.72 239.845 138.683 240.191 138.608V140C239.739 140.124 239.3 140.186 238.874 140.186C238.107 140.186 237.528 139.954 237.139 139.49C236.749 139.026 236.554 138.367 236.554 137.514V131.289H234.727V129.962H236.554V127.531H238.271ZM246.323 140.186C244.963 140.186 243.855 139.74 243.002 138.85C242.148 137.953 241.722 136.756 241.722 135.259V134.944C241.722 133.948 241.91 133.061 242.288 132.281C242.671 131.496 243.203 130.883 243.883 130.444C244.57 129.999 245.312 129.776 246.11 129.776C247.415 129.776 248.429 130.206 249.153 131.066C249.876 131.926 250.238 133.156 250.238 134.758V135.473H243.438C243.463 136.462 243.75 137.263 244.301 137.875C244.857 138.482 245.562 138.785 246.416 138.785C247.022 138.785 247.535 138.661 247.956 138.414C248.377 138.166 248.745 137.838 249.06 137.43L250.108 138.247C249.267 139.539 248.006 140.186 246.323 140.186ZM246.11 131.187C245.417 131.187 244.836 131.44 244.366 131.947C243.896 132.448 243.605 133.153 243.494 134.062H248.522V133.933C248.472 133.061 248.237 132.386 247.817 131.91C247.396 131.428 246.827 131.187 246.11 131.187Z" fill="white"/>
<path d="M87.0117 169V155.492H90.8247C91.9998 155.492 93.0389 155.752 93.9419 156.271C94.8449 156.791 95.5407 157.53 96.0293 158.489C96.5241 159.447 96.7746 160.548 96.7808 161.792V162.654C96.7808 163.928 96.5334 165.045 96.0386 166.003C95.55 166.962 94.848 167.698 93.9326 168.211C93.0234 168.725 91.9627 168.988 90.7505 169H87.0117ZM88.793 156.958V167.543H90.667C92.04 167.543 93.1069 167.117 93.8677 166.263C94.6346 165.41 95.0181 164.194 95.0181 162.617V161.829C95.0181 160.295 94.6562 159.104 93.9326 158.257C93.2152 157.403 92.1947 156.97 90.8711 156.958H88.793ZM98.7568 163.888C98.7568 162.905 98.9486 162.02 99.332 161.235C99.7217 160.449 100.26 159.843 100.946 159.417C101.639 158.99 102.428 158.776 103.312 158.776C104.679 158.776 105.783 159.25 106.624 160.196C107.471 161.142 107.895 162.401 107.895 163.972V164.092C107.895 165.069 107.706 165.948 107.329 166.727C106.958 167.5 106.423 168.103 105.724 168.536C105.031 168.969 104.234 169.186 103.331 169.186C101.97 169.186 100.866 168.712 100.019 167.766C99.1774 166.82 98.7568 165.567 98.7568 164.009V163.888ZM100.482 164.092C100.482 165.206 100.739 166.099 101.252 166.773C101.772 167.448 102.465 167.785 103.331 167.785C104.203 167.785 104.895 167.444 105.409 166.764C105.922 166.078 106.179 165.119 106.179 163.888C106.179 162.787 105.916 161.897 105.39 161.216C104.871 160.53 104.178 160.187 103.312 160.187C102.465 160.187 101.781 160.524 101.262 161.198C100.742 161.872 100.482 162.837 100.482 164.092ZM111.662 158.962L111.708 160.075C112.444 159.209 113.437 158.776 114.686 158.776C116.09 158.776 117.046 159.314 117.553 160.391C117.887 159.908 118.32 159.519 118.852 159.222C119.39 158.925 120.024 158.776 120.753 158.776C122.955 158.776 124.075 159.942 124.112 162.274V169H122.396V162.376C122.396 161.659 122.232 161.124 121.904 160.771C121.576 160.412 121.026 160.233 120.252 160.233C119.615 160.233 119.087 160.425 118.666 160.808C118.245 161.185 118.001 161.696 117.933 162.339V169H116.208V162.422C116.208 160.963 115.493 160.233 114.064 160.233C112.939 160.233 112.169 160.712 111.754 161.671V169H110.038V158.962H111.662ZM132.907 169C132.808 168.802 132.727 168.45 132.666 167.942C131.868 168.771 130.915 169.186 129.808 169.186C128.819 169.186 128.005 168.907 127.368 168.351C126.737 167.788 126.422 167.076 126.422 166.217C126.422 165.172 126.818 164.361 127.609 163.786C128.407 163.205 129.527 162.914 130.968 162.914H132.638V162.125C132.638 161.526 132.458 161.049 132.1 160.697C131.741 160.338 131.212 160.159 130.513 160.159C129.901 160.159 129.388 160.313 128.973 160.623C128.559 160.932 128.352 161.306 128.352 161.745H126.626C126.626 161.244 126.802 160.762 127.155 160.298C127.514 159.828 127.996 159.457 128.602 159.185C129.214 158.912 129.885 158.776 130.615 158.776C131.772 158.776 132.678 159.067 133.333 159.648C133.989 160.224 134.329 161.018 134.354 162.033V166.653C134.354 167.574 134.472 168.307 134.707 168.852V169H132.907ZM130.059 167.692C130.597 167.692 131.107 167.553 131.589 167.274C132.072 166.996 132.421 166.634 132.638 166.189V164.129H131.292C129.19 164.129 128.138 164.745 128.138 165.976C128.138 166.514 128.318 166.934 128.676 167.237C129.035 167.54 129.496 167.692 130.059 167.692ZM138.909 169H137.193V158.962H138.909V169ZM137.054 156.299C137.054 156.021 137.137 155.786 137.304 155.594C137.477 155.403 137.731 155.307 138.065 155.307C138.399 155.307 138.653 155.403 138.826 155.594C138.999 155.786 139.085 156.021 139.085 156.299C139.085 156.578 138.999 156.81 138.826 156.995C138.653 157.181 138.399 157.273 138.065 157.273C137.731 157.273 137.477 157.181 137.304 156.995C137.137 156.81 137.054 156.578 137.054 156.299ZM143.288 158.962L143.344 160.224C144.111 159.259 145.113 158.776 146.35 158.776C148.471 158.776 149.541 159.973 149.56 162.367V169H147.843V162.357C147.837 161.634 147.67 161.099 147.342 160.752C147.021 160.406 146.517 160.233 145.83 160.233C145.273 160.233 144.785 160.381 144.364 160.678C143.944 160.975 143.616 161.365 143.381 161.847V169H141.665V158.962H143.288ZM167.511 169H165.721L158.92 158.591V169H157.13V155.492H158.92L165.739 165.948V155.492H167.511V169ZM176.603 169C176.504 168.802 176.424 168.45 176.362 167.942C175.564 168.771 174.611 169.186 173.504 169.186C172.515 169.186 171.701 168.907 171.064 168.351C170.434 167.788 170.118 167.076 170.118 166.217C170.118 165.172 170.514 164.361 171.306 163.786C172.104 163.205 173.223 162.914 174.664 162.914H176.334V162.125C176.334 161.526 176.155 161.049 175.796 160.697C175.437 160.338 174.908 160.159 174.209 160.159C173.597 160.159 173.084 160.313 172.669 160.623C172.255 160.932 172.048 161.306 172.048 161.745H170.322C170.322 161.244 170.499 160.762 170.851 160.298C171.21 159.828 171.692 159.457 172.298 159.185C172.911 158.912 173.582 158.776 174.312 158.776C175.468 158.776 176.374 159.067 177.03 159.648C177.685 160.224 178.026 161.018 178.05 162.033V166.653C178.05 167.574 178.168 168.307 178.403 168.852V169H176.603ZM173.755 167.692C174.293 167.692 174.803 167.553 175.286 167.274C175.768 166.996 176.118 166.634 176.334 166.189V164.129H174.989C172.886 164.129 171.834 164.745 171.834 165.976C171.834 166.514 172.014 166.934 172.373 167.237C172.731 167.54 173.192 167.692 173.755 167.692ZM182.355 158.962L182.401 160.075C183.137 159.209 184.13 158.776 185.379 158.776C186.783 158.776 187.739 159.314 188.246 160.391C188.58 159.908 189.013 159.519 189.545 159.222C190.083 158.925 190.717 158.776 191.447 158.776C193.649 158.776 194.768 159.942 194.805 162.274V169H193.089V162.376C193.089 161.659 192.925 161.124 192.597 160.771C192.269 160.412 191.719 160.233 190.946 160.233C190.309 160.233 189.78 160.425 189.359 160.808C188.939 161.185 188.694 161.696 188.626 162.339V169H186.901V162.422C186.901 160.963 186.187 160.233 184.758 160.233C183.632 160.233 182.862 160.712 182.448 161.671V169H180.731V158.962H182.355ZM201.568 169.186C200.208 169.186 199.101 168.74 198.247 167.85C197.394 166.953 196.967 165.756 196.967 164.259V163.944C196.967 162.948 197.155 162.061 197.533 161.281C197.916 160.496 198.448 159.883 199.128 159.444C199.815 158.999 200.557 158.776 201.355 158.776C202.66 158.776 203.674 159.206 204.398 160.066C205.122 160.926 205.483 162.156 205.483 163.758V164.473H198.683C198.708 165.462 198.995 166.263 199.546 166.875C200.103 167.482 200.808 167.785 201.661 167.785C202.267 167.785 202.781 167.661 203.201 167.414C203.622 167.166 203.99 166.838 204.305 166.43L205.354 167.247C204.512 168.539 203.251 169.186 201.568 169.186ZM201.355 160.187C200.662 160.187 200.081 160.44 199.611 160.947C199.141 161.448 198.85 162.153 198.739 163.062H203.767V162.933C203.718 162.061 203.483 161.386 203.062 160.91C202.641 160.428 202.072 160.187 201.355 160.187ZM219.91 163.035H214.241V169H212.46V155.492H220.828V156.958H214.241V161.578H219.91V163.035ZM227.304 160.502C227.044 160.459 226.763 160.437 226.459 160.437C225.334 160.437 224.57 160.916 224.168 161.875V169H222.452V158.962H224.122L224.149 160.122C224.712 159.225 225.51 158.776 226.543 158.776C226.877 158.776 227.131 158.82 227.304 158.906V160.502ZM232.87 169.186C231.509 169.186 230.402 168.74 229.549 167.85C228.695 166.953 228.269 165.756 228.269 164.259V163.944C228.269 162.948 228.457 162.061 228.834 161.281C229.218 160.496 229.75 159.883 230.43 159.444C231.117 158.999 231.859 158.776 232.657 158.776C233.962 158.776 234.976 159.206 235.7 160.066C236.423 160.926 236.785 162.156 236.785 163.758V164.473H229.985C230.01 165.462 230.297 166.263 230.848 166.875C231.404 167.482 232.109 167.785 232.963 167.785C233.569 167.785 234.082 167.661 234.503 167.414C234.924 167.166 235.292 166.838 235.607 166.43L236.655 167.247C235.814 168.539 234.552 169.186 232.87 169.186ZM232.657 160.187C231.964 160.187 231.383 160.44 230.913 160.947C230.443 161.448 230.152 162.153 230.041 163.062H235.069V162.933C235.019 162.061 234.784 161.386 234.364 160.91C233.943 160.428 233.374 160.187 232.657 160.187ZM242.945 169.186C241.585 169.186 240.478 168.74 239.624 167.85C238.771 166.953 238.344 165.756 238.344 164.259V163.944C238.344 162.948 238.532 162.061 238.91 161.281C239.293 160.496 239.825 159.883 240.505 159.444C241.192 158.999 241.934 158.776 242.732 158.776C244.037 158.776 245.051 159.206 245.775 160.066C246.499 160.926 246.86 162.156 246.86 163.758V164.473H240.06C240.085 165.462 240.372 166.263 240.923 166.875C241.479 167.482 242.185 167.785 243.038 167.785C243.644 167.785 244.158 167.661 244.578 167.414C244.999 167.166 245.367 166.838 245.682 166.43L246.73 167.247C245.889 168.539 244.628 169.186 242.945 169.186ZM242.732 160.187C242.039 160.187 241.458 160.44 240.988 160.947C240.518 161.448 240.227 162.153 240.116 163.062H245.144V162.933C245.095 162.061 244.86 161.386 244.439 160.91C244.018 160.428 243.449 160.187 242.732 160.187Z" fill="white"/>
<path d="M106.197 184.492L110.613 195.514L115.029 184.492H117.339V198H115.558V192.74L115.725 187.062L111.291 198H109.927L105.501 187.09L105.678 192.74V198H103.896V184.492H106.197ZM119.761 192.888C119.761 191.905 119.952 191.02 120.336 190.235C120.726 189.449 121.264 188.843 121.95 188.417C122.643 187.99 123.431 187.776 124.316 187.776C125.683 187.776 126.787 188.25 127.628 189.196C128.475 190.142 128.899 191.401 128.899 192.972V193.092C128.899 194.069 128.71 194.948 128.333 195.727C127.962 196.5 127.427 197.103 126.728 197.536C126.035 197.969 125.237 198.186 124.334 198.186C122.974 198.186 121.87 197.712 121.022 196.766C120.181 195.82 119.761 194.567 119.761 193.009V192.888ZM121.486 193.092C121.486 194.206 121.743 195.099 122.256 195.773C122.776 196.448 123.469 196.785 124.334 196.785C125.207 196.785 125.899 196.444 126.413 195.764C126.926 195.078 127.183 194.119 127.183 192.888C127.183 191.787 126.92 190.897 126.394 190.216C125.875 189.53 125.182 189.187 124.316 189.187C123.469 189.187 122.785 189.524 122.266 190.198C121.746 190.872 121.486 191.837 121.486 193.092ZM139.549 193.092C139.549 194.626 139.197 195.86 138.492 196.794C137.787 197.722 136.84 198.186 135.653 198.186C134.385 198.186 133.405 197.737 132.712 196.84L132.628 198H131.051V183.75H132.768V189.066C133.46 188.206 134.416 187.776 135.634 187.776C136.853 187.776 137.808 188.237 138.501 189.159C139.2 190.08 139.549 191.342 139.549 192.944V193.092ZM137.833 192.897C137.833 191.729 137.607 190.826 137.156 190.188C136.704 189.551 136.055 189.233 135.208 189.233C134.076 189.233 133.262 189.759 132.768 190.81V195.152C133.293 196.203 134.113 196.729 135.226 196.729C136.049 196.729 136.689 196.41 137.146 195.773C137.604 195.136 137.833 194.178 137.833 192.897ZM143.585 198H141.869V187.962H143.585V198ZM141.729 185.299C141.729 185.021 141.813 184.786 141.98 184.594C142.153 184.403 142.407 184.307 142.741 184.307C143.075 184.307 143.328 184.403 143.501 184.594C143.675 184.786 143.761 185.021 143.761 185.299C143.761 185.578 143.675 185.81 143.501 185.995C143.328 186.181 143.075 186.273 142.741 186.273C142.407 186.273 142.153 186.181 141.98 185.995C141.813 185.81 141.729 185.578 141.729 185.299ZM148.205 198H146.489V183.75H148.205V198ZM155.126 198.186C153.765 198.186 152.658 197.74 151.805 196.85C150.951 195.953 150.524 194.756 150.524 193.259V192.944C150.524 191.948 150.713 191.061 151.09 190.281C151.474 189.496 152.006 188.883 152.686 188.444C153.373 187.999 154.115 187.776 154.913 187.776C156.218 187.776 157.232 188.206 157.956 189.066C158.679 189.926 159.041 191.156 159.041 192.758V193.473H152.241C152.265 194.462 152.553 195.263 153.104 195.875C153.66 196.482 154.365 196.785 155.219 196.785C155.825 196.785 156.338 196.661 156.759 196.414C157.179 196.166 157.547 195.838 157.863 195.43L158.911 196.247C158.07 197.539 156.808 198.186 155.126 198.186ZM154.913 189.187C154.22 189.187 153.639 189.44 153.168 189.947C152.698 190.448 152.408 191.153 152.296 192.062H157.325V191.933C157.275 191.061 157.04 190.386 156.62 189.91C156.199 189.428 155.63 189.187 154.913 189.187ZM173.467 192.035H167.799V198H166.018V184.492H174.386V185.958H167.799V190.578H173.467V192.035ZM180.861 189.502C180.602 189.459 180.32 189.437 180.017 189.437C178.891 189.437 178.128 189.916 177.726 190.875V198H176.009V187.962H177.679L177.707 189.122C178.27 188.225 179.068 187.776 180.101 187.776C180.435 187.776 180.688 187.82 180.861 187.906V189.502ZM184.312 198H182.596V187.962H184.312V198ZM182.457 185.299C182.457 185.021 182.541 184.786 182.708 184.594C182.881 184.403 183.134 184.307 183.468 184.307C183.802 184.307 184.056 184.403 184.229 184.594C184.402 184.786 184.489 185.021 184.489 185.299C184.489 185.578 184.402 185.81 184.229 185.995C184.056 186.181 183.802 186.273 183.468 186.273C183.134 186.273 182.881 186.181 182.708 185.995C182.541 185.81 182.457 185.578 182.457 185.299ZM191.233 198.186C189.873 198.186 188.766 197.74 187.912 196.85C187.059 195.953 186.632 194.756 186.632 193.259V192.944C186.632 191.948 186.82 191.061 187.198 190.281C187.581 189.496 188.113 188.883 188.793 188.444C189.48 187.999 190.222 187.776 191.02 187.776C192.325 187.776 193.339 188.206 194.063 189.066C194.787 189.926 195.148 191.156 195.148 192.758V193.473H188.348C188.373 194.462 188.66 195.263 189.211 195.875C189.768 196.482 190.473 196.785 191.326 196.785C191.932 196.785 192.446 196.661 192.866 196.414C193.287 196.166 193.655 195.838 193.97 195.43L195.019 196.247C194.177 197.539 192.916 198.186 191.233 198.186ZM191.02 189.187C190.327 189.187 189.746 189.44 189.276 189.947C188.806 190.448 188.515 191.153 188.404 192.062H193.432V191.933C193.383 191.061 193.148 190.386 192.727 189.91C192.306 189.428 191.737 189.187 191.02 189.187ZM198.767 187.962L198.822 189.224C199.589 188.259 200.591 187.776 201.828 187.776C203.95 187.776 205.02 188.973 205.038 191.367V198H203.322V191.357C203.316 190.634 203.149 190.099 202.821 189.752C202.499 189.406 201.995 189.233 201.309 189.233C200.752 189.233 200.263 189.381 199.843 189.678C199.422 189.975 199.094 190.365 198.859 190.847V198H197.143V187.962H198.767ZM207.209 192.897C207.209 191.357 207.574 190.12 208.304 189.187C209.034 188.246 209.989 187.776 211.17 187.776C212.346 187.776 213.276 188.178 213.963 188.982V183.75H215.679V198H214.102L214.019 196.924C213.332 197.765 212.376 198.186 211.152 198.186C209.989 198.186 209.04 197.709 208.304 196.757C207.574 195.804 207.209 194.561 207.209 193.027V192.897ZM208.925 193.092C208.925 194.23 209.16 195.121 209.63 195.764C210.1 196.407 210.75 196.729 211.579 196.729C212.667 196.729 213.462 196.24 213.963 195.263V190.652C213.45 189.706 212.661 189.233 211.597 189.233C210.756 189.233 210.1 189.558 209.63 190.207C209.16 190.856 208.925 191.818 208.925 193.092ZM220.216 198H218.5V183.75H220.216V198ZM226.255 195.486L228.593 187.962H230.43L226.395 199.549C225.77 201.219 224.777 202.054 223.417 202.054L223.092 202.026L222.452 201.906V200.514L222.916 200.551C223.497 200.551 223.948 200.434 224.27 200.199C224.598 199.964 224.867 199.534 225.077 198.909L225.458 197.889L221.876 187.962H223.75L226.255 195.486Z" fill="white"/>
<path d="M97.8208 222.742L98.0806 224.523L98.4609 222.918L101.133 213.492H102.636L105.243 222.918L105.614 224.551L105.901 222.732L107.998 213.492H109.789L106.514 227H104.89L102.107 217.157L101.894 216.127L101.68 217.157L98.7949 227H97.1714L93.9058 213.492H95.687L97.8208 222.742ZM115.374 227.186C114.013 227.186 112.906 226.74 112.052 225.85C111.199 224.953 110.772 223.756 110.772 222.259V221.944C110.772 220.948 110.961 220.061 111.338 219.281C111.721 218.496 112.253 217.883 112.934 217.444C113.62 216.999 114.362 216.776 115.16 216.776C116.465 216.776 117.479 217.206 118.203 218.066C118.927 218.926 119.289 220.156 119.289 221.758V222.473H112.488C112.513 223.462 112.801 224.263 113.351 224.875C113.908 225.482 114.613 225.785 115.466 225.785C116.072 225.785 116.586 225.661 117.006 225.414C117.427 225.166 117.795 224.838 118.11 224.43L119.159 225.247C118.318 226.539 117.056 227.186 115.374 227.186ZM115.16 218.187C114.467 218.187 113.886 218.44 113.416 218.947C112.946 219.448 112.655 220.153 112.544 221.062H117.572V220.933C117.523 220.061 117.288 219.386 116.867 218.91C116.447 218.428 115.878 218.187 115.16 218.187ZM129.781 222.092C129.781 223.626 129.429 224.86 128.724 225.794C128.019 226.722 127.072 227.186 125.885 227.186C124.617 227.186 123.637 226.737 122.944 225.84L122.86 227H121.283V212.75H123V218.066C123.692 217.206 124.648 216.776 125.866 216.776C127.085 216.776 128.04 217.237 128.733 218.159C129.432 219.08 129.781 220.342 129.781 221.944V222.092ZM128.065 221.897C128.065 220.729 127.839 219.826 127.388 219.188C126.936 218.551 126.287 218.233 125.439 218.233C124.308 218.233 123.494 218.759 123 219.81V224.152C123.525 225.203 124.345 225.729 125.458 225.729C126.281 225.729 126.921 225.41 127.378 224.773C127.836 224.136 128.065 223.178 128.065 221.897ZM133.566 216.962L133.613 218.075C134.349 217.209 135.341 216.776 136.591 216.776C137.995 216.776 138.95 217.314 139.458 218.391C139.792 217.908 140.224 217.519 140.756 217.222C141.294 216.925 141.928 216.776 142.658 216.776C144.86 216.776 145.979 217.942 146.017 220.274V227H144.3V220.376C144.3 219.659 144.136 219.124 143.809 218.771C143.481 218.412 142.93 218.233 142.157 218.233C141.52 218.233 140.991 218.425 140.571 218.808C140.15 219.185 139.906 219.696 139.838 220.339V227H138.112V220.422C138.112 218.963 137.398 218.233 135.969 218.233C134.844 218.233 134.074 218.712 133.659 219.671V227H131.943V216.962H133.566ZM154.812 227C154.713 226.802 154.632 226.45 154.57 225.942C153.772 226.771 152.82 227.186 151.713 227.186C150.723 227.186 149.91 226.907 149.273 226.351C148.642 225.788 148.327 225.076 148.327 224.217C148.327 223.172 148.722 222.361 149.514 221.786C150.312 221.205 151.431 220.914 152.873 220.914H154.542V220.125C154.542 219.526 154.363 219.049 154.004 218.697C153.646 218.338 153.117 218.159 152.418 218.159C151.806 218.159 151.292 218.313 150.878 218.623C150.464 218.932 150.256 219.306 150.256 219.745H148.531C148.531 219.244 148.707 218.762 149.06 218.298C149.418 217.828 149.901 217.457 150.507 217.185C151.119 216.912 151.79 216.776 152.52 216.776C153.677 216.776 154.583 217.067 155.238 217.648C155.894 218.224 156.234 219.018 156.259 220.033V224.653C156.259 225.574 156.376 226.307 156.611 226.852V227H154.812ZM151.963 225.692C152.501 225.692 153.012 225.553 153.494 225.274C153.977 224.996 154.326 224.634 154.542 224.189V222.129H153.197C151.094 222.129 150.043 222.745 150.043 223.976C150.043 224.514 150.222 224.934 150.581 225.237C150.94 225.54 151.401 225.692 151.963 225.692ZM160.814 227H159.098V216.962H160.814V227ZM158.958 214.299C158.958 214.021 159.042 213.786 159.209 213.594C159.382 213.403 159.636 213.307 159.97 213.307C160.304 213.307 160.557 213.403 160.73 213.594C160.904 213.786 160.99 214.021 160.99 214.299C160.99 214.578 160.904 214.81 160.73 214.995C160.557 215.181 160.304 215.273 159.97 215.273C159.636 215.273 159.382 215.181 159.209 214.995C159.042 214.81 158.958 214.578 158.958 214.299ZM165.434 227H163.718V212.75H165.434V227ZM177.151 220.979C175.624 220.54 174.51 220.002 173.812 219.365C173.119 218.722 172.772 217.93 172.772 216.99C172.772 215.926 173.196 215.048 174.043 214.355C174.897 213.656 176.004 213.307 177.365 213.307C178.292 213.307 179.118 213.486 179.842 213.845C180.572 214.203 181.134 214.698 181.53 215.329C181.932 215.96 182.133 216.65 182.133 217.398H180.343C180.343 216.582 180.083 215.941 179.563 215.478C179.044 215.007 178.311 214.772 177.365 214.772C176.486 214.772 175.8 214.967 175.305 215.357C174.817 215.74 174.572 216.275 174.572 216.962C174.572 217.512 174.804 217.979 175.268 218.363C175.738 218.74 176.533 219.086 177.652 219.402C178.778 219.717 179.656 220.067 180.287 220.45C180.924 220.827 181.394 221.27 181.697 221.777C182.007 222.284 182.161 222.881 182.161 223.567C182.161 224.662 181.734 225.54 180.881 226.202C180.027 226.858 178.886 227.186 177.458 227.186C176.53 227.186 175.664 227.009 174.86 226.657C174.056 226.298 173.434 225.809 172.995 225.191C172.562 224.572 172.346 223.87 172.346 223.085H174.136C174.136 223.901 174.436 224.548 175.036 225.024C175.642 225.494 176.449 225.729 177.458 225.729C178.398 225.729 179.118 225.537 179.619 225.154C180.12 224.77 180.371 224.248 180.371 223.586C180.371 222.924 180.139 222.414 179.675 222.055C179.211 221.69 178.37 221.332 177.151 220.979ZM190.381 226.007C189.713 226.793 188.733 227.186 187.44 227.186C186.37 227.186 185.554 226.876 184.991 226.258C184.434 225.633 184.153 224.712 184.146 223.493V216.962H185.863V223.447C185.863 224.968 186.481 225.729 187.718 225.729C189.029 225.729 189.902 225.24 190.334 224.263V216.962H192.051V227H190.418L190.381 226.007ZM203.146 222.092C203.146 223.62 202.797 224.851 202.098 225.785C201.399 226.719 200.453 227.186 199.259 227.186C198.041 227.186 197.082 226.799 196.383 226.026V230.859H194.667V216.962H196.235L196.318 218.075C197.017 217.209 197.988 216.776 199.231 216.776C200.438 216.776 201.39 217.231 202.089 218.14C202.794 219.049 203.146 220.314 203.146 221.935V222.092ZM201.43 221.897C201.43 220.766 201.189 219.872 200.707 219.216C200.224 218.561 199.562 218.233 198.721 218.233C197.682 218.233 196.903 218.694 196.383 219.615V224.412C196.897 225.327 197.682 225.785 198.74 225.785C199.562 225.785 200.215 225.46 200.697 224.811C201.186 224.155 201.43 223.184 201.43 221.897ZM213.815 222.092C213.815 223.62 213.466 224.851 212.767 225.785C212.068 226.719 211.122 227.186 209.928 227.186C208.71 227.186 207.751 226.799 207.052 226.026V230.859H205.336V216.962H206.904L206.987 218.075C207.686 217.209 208.657 216.776 209.9 216.776C211.106 216.776 212.059 217.231 212.758 218.14C213.463 219.049 213.815 220.314 213.815 221.935V222.092ZM212.099 221.897C212.099 220.766 211.858 219.872 211.375 219.216C210.893 218.561 210.231 218.233 209.39 218.233C208.351 218.233 207.572 218.694 207.052 219.615V224.412C207.566 225.327 208.351 225.785 209.409 225.785C210.231 225.785 210.884 225.46 211.366 224.811C211.855 224.155 212.099 223.184 212.099 221.897ZM215.55 221.888C215.55 220.905 215.742 220.02 216.125 219.235C216.515 218.449 217.053 217.843 217.74 217.417C218.432 216.99 219.221 216.776 220.105 216.776C221.472 216.776 222.576 217.25 223.417 218.196C224.265 219.142 224.688 220.401 224.688 221.972V222.092C224.688 223.069 224.5 223.948 224.123 224.727C223.751 225.5 223.216 226.103 222.518 226.536C221.825 226.969 221.027 227.186 220.124 227.186C218.763 227.186 217.659 226.712 216.812 225.766C215.971 224.82 215.55 223.567 215.55 222.009V221.888ZM217.276 222.092C217.276 223.206 217.533 224.099 218.046 224.773C218.565 225.448 219.258 225.785 220.124 225.785C220.996 225.785 221.689 225.444 222.202 224.764C222.715 224.078 222.972 223.119 222.972 221.888C222.972 220.787 222.709 219.897 222.184 219.216C221.664 218.53 220.971 218.187 220.105 218.187C219.258 218.187 218.575 218.524 218.055 219.198C217.536 219.872 217.276 220.837 217.276 222.092ZM231.693 218.502C231.433 218.459 231.152 218.437 230.849 218.437C229.723 218.437 228.959 218.916 228.557 219.875V227H226.841V216.962H228.511L228.539 218.122C229.101 217.225 229.899 216.776 230.932 216.776C231.266 216.776 231.52 216.82 231.693 216.906V218.502ZM236.072 214.531V216.962H237.946V218.289H236.072V224.514C236.072 224.916 236.155 225.219 236.322 225.423C236.489 225.621 236.774 225.72 237.176 225.72C237.374 225.72 237.646 225.683 237.992 225.608V227C237.541 227.124 237.102 227.186 236.675 227.186C235.908 227.186 235.33 226.954 234.94 226.49C234.55 226.026 234.355 225.367 234.355 224.514V218.289H232.528V216.962H234.355V214.531H236.072Z" fill="white"/>
<path d="M77.9951 280.714C77.8281 282.143 77.2993 283.247 76.4087 284.026C75.5243 284.799 74.346 285.186 72.874 285.186C71.2783 285.186 69.998 284.613 69.0332 283.469C68.0745 282.325 67.5952 280.794 67.5952 278.877V277.578C67.5952 276.323 67.8179 275.219 68.2632 274.266C68.7147 273.314 69.3517 272.584 70.1743 272.077C70.9969 271.563 71.9494 271.307 73.0317 271.307C74.4666 271.307 75.617 271.709 76.4829 272.513C77.3488 273.311 77.8529 274.418 77.9951 275.834H76.2046C76.05 274.758 75.7129 273.979 75.1934 273.496C74.68 273.014 73.9595 272.772 73.0317 272.772C71.8937 272.772 71 273.193 70.3506 274.034C69.7074 274.875 69.3857 276.072 69.3857 277.625V278.933C69.3857 280.398 69.6919 281.564 70.3042 282.43C70.9165 283.296 71.7731 283.729 72.874 283.729C73.8636 283.729 74.6213 283.506 75.147 283.061C75.6789 282.61 76.0314 281.827 76.2046 280.714H77.9951ZM86.3633 284.007C85.6953 284.793 84.715 285.186 83.4224 285.186C82.3524 285.186 81.536 284.876 80.9731 284.258C80.4165 283.633 80.1351 282.712 80.1289 281.493V274.962H81.8452V281.447C81.8452 282.968 82.4637 283.729 83.7007 283.729C85.0119 283.729 85.884 283.24 86.3169 282.263V274.962H88.0332V285H86.4004L86.3633 284.007ZM96.4941 282.337C96.4941 281.874 96.3179 281.515 95.9653 281.261C95.619 281.001 95.0098 280.779 94.1377 280.593C93.2718 280.408 92.5822 280.185 92.0688 279.925C91.5617 279.666 91.1844 279.356 90.937 278.998C90.6958 278.639 90.5752 278.212 90.5752 277.717C90.5752 276.895 90.9215 276.199 91.6143 275.63C92.3132 275.061 93.2038 274.776 94.2861 274.776C95.4242 274.776 96.3457 275.07 97.0508 275.658C97.762 276.245 98.1177 276.997 98.1177 277.912H96.3921C96.3921 277.442 96.1911 277.037 95.7891 276.697C95.3932 276.357 94.8923 276.187 94.2861 276.187C93.6615 276.187 93.1729 276.323 92.8203 276.595C92.4678 276.867 92.2915 277.222 92.2915 277.662C92.2915 278.076 92.4554 278.388 92.7832 278.599C93.111 278.809 93.7017 279.01 94.5552 279.202C95.4149 279.393 96.1107 279.622 96.6426 279.888C97.1745 280.154 97.5672 280.476 97.8208 280.853C98.0806 281.224 98.2104 281.679 98.2104 282.217C98.2104 283.114 97.8517 283.834 97.1343 284.378C96.4168 284.917 95.486 285.186 94.3418 285.186C93.5378 285.186 92.8265 285.043 92.208 284.759C91.5895 284.474 91.104 284.078 90.7515 283.571C90.4051 283.058 90.2319 282.504 90.2319 281.911H91.9482C91.9792 282.486 92.208 282.944 92.6348 283.284C93.0677 283.618 93.6367 283.785 94.3418 283.785C94.9912 283.785 95.5107 283.655 95.9004 283.395C96.2962 283.129 96.4941 282.777 96.4941 282.337ZM102.775 272.531V274.962H104.649V276.289H102.775V282.514C102.775 282.916 102.858 283.219 103.025 283.423C103.192 283.621 103.477 283.72 103.879 283.72C104.077 283.72 104.349 283.683 104.695 283.608V285C104.244 285.124 103.805 285.186 103.378 285.186C102.611 285.186 102.033 284.954 101.643 284.49C101.253 284.026 101.059 283.367 101.059 282.514V276.289H99.231V274.962H101.059V272.531H102.775ZM106.022 279.888C106.022 278.905 106.214 278.02 106.597 277.235C106.987 276.449 107.525 275.843 108.211 275.417C108.904 274.99 109.693 274.776 110.577 274.776C111.944 274.776 113.048 275.25 113.889 276.196C114.736 277.142 115.16 278.401 115.16 279.972V280.092C115.16 281.069 114.972 281.948 114.594 282.727C114.223 283.5 113.688 284.103 112.989 284.536C112.297 284.969 111.499 285.186 110.596 285.186C109.235 285.186 108.131 284.712 107.284 283.766C106.443 282.82 106.022 281.567 106.022 280.009V279.888ZM107.748 280.092C107.748 281.206 108.004 282.099 108.518 282.773C109.037 283.448 109.73 283.785 110.596 283.785C111.468 283.785 112.16 283.444 112.674 282.764C113.187 282.078 113.444 281.119 113.444 279.888C113.444 278.787 113.181 277.897 112.655 277.216C112.136 276.53 111.443 276.187 110.577 276.187C109.73 276.187 109.046 276.524 108.527 277.198C108.007 277.872 107.748 278.837 107.748 280.092ZM118.927 274.962L118.973 276.075C119.709 275.209 120.702 274.776 121.951 274.776C123.355 274.776 124.311 275.314 124.818 276.391C125.152 275.908 125.585 275.519 126.117 275.222C126.655 274.925 127.289 274.776 128.019 274.776C130.22 274.776 131.34 275.942 131.377 278.274V285H129.661V278.376C129.661 277.659 129.497 277.124 129.169 276.771C128.841 276.412 128.291 276.233 127.518 276.233C126.881 276.233 126.352 276.425 125.931 276.808C125.511 277.185 125.266 277.696 125.198 278.339V285H123.473V278.422C123.473 276.963 122.758 276.233 121.33 276.233C120.204 276.233 119.434 276.712 119.02 277.671V285H117.303V274.962H118.927ZM138.14 285.186C136.779 285.186 135.672 284.74 134.819 283.85C133.965 282.953 133.539 281.756 133.539 280.259V279.944C133.539 278.948 133.727 278.061 134.104 277.281C134.488 276.496 135.02 275.883 135.7 275.444C136.387 274.999 137.129 274.776 137.927 274.776C139.232 274.776 140.246 275.206 140.97 276.066C141.693 276.926 142.055 278.156 142.055 279.758V280.473H135.255C135.28 281.462 135.567 282.263 136.118 282.875C136.674 283.482 137.379 283.785 138.233 283.785C138.839 283.785 139.352 283.661 139.773 283.414C140.194 283.166 140.562 282.838 140.877 282.43L141.925 283.247C141.084 284.539 139.822 285.186 138.14 285.186ZM137.927 276.187C137.234 276.187 136.653 276.44 136.183 276.947C135.713 277.448 135.422 278.153 135.311 279.062H140.339V278.933C140.289 278.061 140.054 277.386 139.634 276.91C139.213 276.428 138.644 276.187 137.927 276.187ZM148.902 276.502C148.642 276.459 148.361 276.437 148.058 276.437C146.932 276.437 146.168 276.916 145.766 277.875V285H144.05V274.962H145.72L145.748 276.122C146.31 275.225 147.108 274.776 148.141 274.776C148.475 274.776 148.729 274.82 148.902 274.906V276.502ZM159.45 278.979C157.923 278.54 156.809 278.002 156.11 277.365C155.418 276.722 155.071 275.93 155.071 274.99C155.071 273.926 155.495 273.048 156.342 272.355C157.196 271.656 158.303 271.307 159.664 271.307C160.591 271.307 161.417 271.486 162.141 271.845C162.87 272.203 163.433 272.698 163.829 273.329C164.231 273.96 164.432 274.65 164.432 275.398H162.642C162.642 274.582 162.382 273.941 161.862 273.478C161.343 273.007 160.61 272.772 159.664 272.772C158.785 272.772 158.099 272.967 157.604 273.357C157.115 273.74 156.871 274.275 156.871 274.962C156.871 275.512 157.103 275.979 157.567 276.363C158.037 276.74 158.832 277.086 159.951 277.402C161.077 277.717 161.955 278.067 162.586 278.45C163.223 278.827 163.693 279.27 163.996 279.777C164.305 280.284 164.46 280.881 164.46 281.567C164.46 282.662 164.033 283.54 163.18 284.202C162.326 284.858 161.185 285.186 159.756 285.186C158.829 285.186 157.963 285.009 157.159 284.657C156.355 284.298 155.733 283.809 155.294 283.191C154.861 282.572 154.645 281.87 154.645 281.085H156.435C156.435 281.901 156.735 282.548 157.335 283.024C157.941 283.494 158.748 283.729 159.756 283.729C160.696 283.729 161.417 283.537 161.918 283.154C162.419 282.77 162.669 282.248 162.669 281.586C162.669 280.924 162.438 280.414 161.974 280.055C161.51 279.69 160.669 279.332 159.45 278.979ZM172.68 284.007C172.012 284.793 171.031 285.186 169.739 285.186C168.669 285.186 167.852 284.876 167.29 284.258C166.733 283.633 166.451 282.712 166.445 281.493V274.962H168.162V281.447C168.162 282.968 168.78 283.729 170.017 283.729C171.328 283.729 172.2 283.24 172.633 282.263V274.962H174.35V285H172.717L172.68 284.007ZM185.445 280.092C185.445 281.62 185.096 282.851 184.397 283.785C183.698 284.719 182.752 285.186 181.558 285.186C180.34 285.186 179.381 284.799 178.682 284.026V288.859H176.966V274.962H178.534L178.617 276.075C179.316 275.209 180.287 274.776 181.53 274.776C182.736 274.776 183.689 275.231 184.388 276.14C185.093 277.049 185.445 278.314 185.445 279.935V280.092ZM183.729 279.897C183.729 278.766 183.488 277.872 183.005 277.216C182.523 276.561 181.861 276.233 181.02 276.233C179.981 276.233 179.202 276.694 178.682 277.615V282.412C179.195 283.327 179.981 283.785 181.039 283.785C181.861 283.785 182.514 283.46 182.996 282.811C183.485 282.155 183.729 281.184 183.729 279.897ZM196.114 280.092C196.114 281.62 195.765 282.851 195.066 283.785C194.367 284.719 193.421 285.186 192.227 285.186C191.009 285.186 190.05 284.799 189.351 284.026V288.859H187.635V274.962H189.203L189.286 276.075C189.985 275.209 190.956 274.776 192.199 274.776C193.405 274.776 194.358 275.231 195.057 276.14C195.762 277.049 196.114 278.314 196.114 279.935V280.092ZM194.398 279.897C194.398 278.766 194.157 277.872 193.674 277.216C193.192 276.561 192.53 276.233 191.689 276.233C190.65 276.233 189.871 276.694 189.351 277.615V282.412C189.864 283.327 190.65 283.785 191.708 283.785C192.53 283.785 193.183 283.46 193.665 282.811C194.154 282.155 194.398 281.184 194.398 279.897ZM197.849 279.888C197.849 278.905 198.041 278.02 198.424 277.235C198.814 276.449 199.352 275.843 200.039 275.417C200.731 274.99 201.52 274.776 202.404 274.776C203.771 274.776 204.875 275.25 205.716 276.196C206.564 277.142 206.987 278.401 206.987 279.972V280.092C206.987 281.069 206.799 281.948 206.421 282.727C206.05 283.5 205.515 284.103 204.816 284.536C204.124 284.969 203.326 285.186 202.423 285.186C201.062 285.186 199.958 284.712 199.111 283.766C198.27 282.82 197.849 281.567 197.849 280.009V279.888ZM199.575 280.092C199.575 281.206 199.831 282.099 200.345 282.773C200.864 283.448 201.557 283.785 202.423 283.785C203.295 283.785 203.988 283.444 204.501 282.764C205.014 282.078 205.271 281.119 205.271 279.888C205.271 278.787 205.008 277.897 204.482 277.216C203.963 276.53 203.27 276.187 202.404 276.187C201.557 276.187 200.874 276.524 200.354 277.198C199.834 277.872 199.575 278.837 199.575 280.092ZM213.992 276.502C213.732 276.459 213.451 276.437 213.147 276.437C212.022 276.437 211.258 276.916 210.856 277.875V285H209.14V274.962H210.81L210.837 276.122C211.4 275.225 212.198 274.776 213.231 274.776C213.565 274.776 213.819 274.82 213.992 274.906V276.502ZM218.371 272.531V274.962H220.245V276.289H218.371V282.514C218.371 282.916 218.454 283.219 218.621 283.423C218.788 283.621 219.073 283.72 219.475 283.72C219.673 283.72 219.945 283.683 220.291 283.608V285C219.84 285.124 219.4 285.186 218.974 285.186C218.207 285.186 217.628 284.954 217.239 284.49C216.849 284.026 216.654 283.367 216.654 282.514V276.289H214.827V274.962H216.654V272.531H218.371ZM235.645 285H226.794V283.766L231.47 278.571C232.163 277.785 232.639 277.148 232.899 276.66C233.165 276.165 233.298 275.655 233.298 275.129C233.298 274.424 233.084 273.846 232.658 273.394C232.231 272.943 231.662 272.717 230.951 272.717C230.097 272.717 229.432 272.961 228.956 273.45C228.486 273.932 228.251 274.606 228.251 275.472H226.535C226.535 274.229 226.934 273.224 227.731 272.457C228.535 271.69 229.609 271.307 230.951 271.307C232.206 271.307 233.199 271.638 233.929 272.299C234.659 272.955 235.023 273.83 235.023 274.925C235.023 276.255 234.176 277.838 232.481 279.675L228.863 283.599H235.645V285ZM244.709 280.463H246.583V281.864H244.709V285H242.983V281.864H236.833V280.853L242.881 271.492H244.709V280.463ZM238.781 280.463H242.983V273.839L242.779 274.21L238.781 280.463ZM248.652 286.16H247.177L252.817 271.492H254.283L248.652 286.16ZM264.683 272.457L259.089 285H257.289L262.865 272.902H255.554V271.492H264.683V272.457Z" fill="white"/>
<path d="M80.0083 256V242.492H83.8213C84.9964 242.492 86.0355 242.752 86.9385 243.271C87.8415 243.791 88.5373 244.53 89.0259 245.489C89.5207 246.447 89.7712 247.548 89.7773 248.792V249.654C89.7773 250.928 89.5299 252.045 89.0352 253.003C88.5465 253.962 87.8446 254.698 86.9292 255.211C86.02 255.725 84.9593 255.988 83.7471 256H80.0083ZM81.7896 243.958V254.543H83.6636C85.0366 254.543 86.1035 254.117 86.8643 253.263C87.6312 252.41 88.0146 251.194 88.0146 249.617V248.829C88.0146 247.295 87.6528 246.104 86.9292 245.257C86.2118 244.403 85.1912 243.97 83.8677 243.958H81.7896ZM96.3735 256.186C95.0129 256.186 93.9058 255.74 93.0522 254.85C92.1987 253.953 91.772 252.756 91.772 251.259V250.944C91.772 249.948 91.9606 249.061 92.3379 248.281C92.7214 247.496 93.2533 246.883 93.9336 246.444C94.6201 245.999 95.3623 245.776 96.1602 245.776C97.4652 245.776 98.4795 246.206 99.2031 247.066C99.9268 247.926 100.289 249.156 100.289 250.758V251.473H93.4883C93.513 252.462 93.8006 253.263 94.3511 253.875C94.9077 254.482 95.6128 254.785 96.4663 254.785C97.0724 254.785 97.5858 254.661 98.0063 254.414C98.4269 254.166 98.7949 253.838 99.1104 253.43L100.159 254.247C99.3175 255.539 98.0558 256.186 96.3735 256.186ZM96.1602 247.187C95.4674 247.187 94.8861 247.44 94.416 247.947C93.946 248.448 93.6553 249.153 93.5439 250.062H98.5723V249.933C98.5228 249.061 98.2878 248.386 97.8672 247.91C97.4466 247.428 96.8776 247.187 96.1602 247.187ZM104.148 256H102.432V241.75H104.148V256ZM108.768 256H107.052V245.962H108.768V256ZM106.913 243.299C106.913 243.021 106.996 242.786 107.163 242.594C107.336 242.403 107.59 242.307 107.924 242.307C108.258 242.307 108.511 242.403 108.685 242.594C108.858 242.786 108.944 243.021 108.944 243.299C108.944 243.578 108.858 243.81 108.685 243.995C108.511 244.181 108.258 244.273 107.924 244.273C107.59 244.273 107.336 244.181 107.163 243.995C106.996 243.81 106.913 243.578 106.913 243.299ZM114.835 253.671L117.322 245.962H119.075L115.476 256H114.167L110.531 245.962H112.284L114.835 253.671ZM124.762 256.186C123.402 256.186 122.294 255.74 121.441 254.85C120.587 253.953 120.161 252.756 120.161 251.259V250.944C120.161 249.948 120.349 249.061 120.727 248.281C121.11 247.496 121.642 246.883 122.322 246.444C123.009 245.999 123.751 245.776 124.549 245.776C125.854 245.776 126.868 246.206 127.592 247.066C128.315 247.926 128.677 249.156 128.677 250.758V251.473H121.877C121.902 252.462 122.189 253.263 122.74 253.875C123.296 254.482 124.001 254.785 124.855 254.785C125.461 254.785 125.974 254.661 126.395 254.414C126.816 254.166 127.184 253.838 127.499 253.43L128.547 254.247C127.706 255.539 126.444 256.186 124.762 256.186ZM124.549 247.187C123.856 247.187 123.275 247.44 122.805 247.947C122.335 248.448 122.044 249.153 121.933 250.062H126.961V249.933C126.911 249.061 126.676 248.386 126.256 247.91C125.835 247.428 125.266 247.187 124.549 247.187ZM135.524 247.502C135.264 247.459 134.983 247.437 134.68 247.437C133.554 247.437 132.79 247.916 132.388 248.875V256H130.672V245.962H132.342L132.37 247.122C132.932 246.225 133.73 245.776 134.763 245.776C135.097 245.776 135.351 245.82 135.524 245.906V247.502ZM140.562 253.486L142.899 245.962H144.736L140.701 257.549C140.076 259.219 139.083 260.054 137.723 260.054L137.398 260.026L136.758 259.906V258.514L137.222 258.551C137.803 258.551 138.255 258.434 138.576 258.199C138.904 257.964 139.173 257.534 139.383 256.909L139.764 255.889L136.183 245.962H138.057L140.562 253.486ZM160.22 243.958H155.878V256H154.106V243.958H149.774V242.492H160.22V243.958ZM163.82 256H162.104V245.962H163.82V256ZM161.964 243.299C161.964 243.021 162.048 242.786 162.215 242.594C162.388 242.403 162.642 242.307 162.976 242.307C163.31 242.307 163.563 242.403 163.736 242.594C163.91 242.786 163.996 243.021 163.996 243.299C163.996 243.578 163.91 243.81 163.736 243.995C163.563 244.181 163.31 244.273 162.976 244.273C162.642 244.273 162.388 244.181 162.215 243.995C162.048 243.81 161.964 243.578 161.964 243.299ZM168.189 245.962L168.236 247.075C168.972 246.209 169.965 245.776 171.214 245.776C172.618 245.776 173.573 246.314 174.081 247.391C174.415 246.908 174.847 246.519 175.379 246.222C175.917 245.925 176.551 245.776 177.281 245.776C179.483 245.776 180.603 246.942 180.64 249.274V256H178.923V249.376C178.923 248.659 178.759 248.124 178.432 247.771C178.104 247.412 177.553 247.233 176.78 247.233C176.143 247.233 175.614 247.425 175.194 247.808C174.773 248.185 174.529 248.696 174.461 249.339V256H172.735V249.422C172.735 247.963 172.021 247.233 170.592 247.233C169.467 247.233 168.697 247.712 168.282 248.671V256H166.566V245.962H168.189ZM187.403 256.186C186.042 256.186 184.935 255.74 184.082 254.85C183.228 253.953 182.801 252.756 182.801 251.259V250.944C182.801 249.948 182.99 249.061 183.367 248.281C183.751 247.496 184.283 246.883 184.963 246.444C185.649 245.999 186.392 245.776 187.189 245.776C188.494 245.776 189.509 246.206 190.232 247.066C190.956 247.926 191.318 249.156 191.318 250.758V251.473H184.518C184.542 252.462 184.83 253.263 185.38 253.875C185.937 254.482 186.642 254.785 187.496 254.785C188.102 254.785 188.615 254.661 189.036 254.414C189.456 254.166 189.824 253.838 190.14 253.43L191.188 254.247C190.347 255.539 189.085 256.186 187.403 256.186ZM187.189 247.187C186.497 247.187 185.915 247.44 185.445 247.947C184.975 248.448 184.685 249.153 184.573 250.062H189.602V249.933C189.552 249.061 189.317 248.386 188.896 247.91C188.476 247.428 187.907 247.187 187.189 247.187ZM206.7 256H197.849V254.766L202.525 249.571C203.218 248.785 203.694 248.148 203.954 247.66C204.22 247.165 204.353 246.655 204.353 246.129C204.353 245.424 204.139 244.846 203.712 244.394C203.286 243.943 202.717 243.717 202.005 243.717C201.152 243.717 200.487 243.961 200.011 244.45C199.541 244.932 199.306 245.606 199.306 246.472H197.589C197.589 245.229 197.988 244.224 198.786 243.457C199.59 242.69 200.663 242.307 202.005 242.307C203.261 242.307 204.254 242.638 204.983 243.299C205.713 243.955 206.078 244.83 206.078 245.925C206.078 247.255 205.231 248.838 203.536 250.675L199.918 254.599H206.7V256ZM213.676 256V242.492H217.489C218.664 242.492 219.703 242.752 220.606 243.271C221.509 243.791 222.205 244.53 222.694 245.489C223.189 246.447 223.439 247.548 223.445 248.792V249.654C223.445 250.928 223.198 252.045 222.703 253.003C222.215 253.962 221.513 254.698 220.597 255.211C219.688 255.725 218.627 255.988 217.415 256H213.676ZM215.458 243.958V254.543H217.332C218.705 254.543 219.771 254.117 220.532 253.263C221.299 252.41 221.683 251.194 221.683 249.617V248.829C221.683 247.295 221.321 246.104 220.597 245.257C219.88 244.403 218.859 243.97 217.536 243.958H215.458ZM232.073 256C231.974 255.802 231.894 255.45 231.832 254.942C231.034 255.771 230.082 256.186 228.975 256.186C227.985 256.186 227.172 255.907 226.535 255.351C225.904 254.788 225.588 254.076 225.588 253.217C225.588 252.172 225.984 251.361 226.776 250.786C227.574 250.205 228.693 249.914 230.134 249.914H231.804V249.125C231.804 248.526 231.625 248.049 231.266 247.697C230.907 247.338 230.379 247.159 229.68 247.159C229.067 247.159 228.554 247.313 228.14 247.623C227.725 247.932 227.518 248.306 227.518 248.745H225.792C225.792 248.244 225.969 247.762 226.321 247.298C226.68 246.828 227.162 246.457 227.769 246.185C228.381 245.912 229.052 245.776 229.782 245.776C230.938 245.776 231.844 246.067 232.5 246.648C233.156 247.224 233.496 248.018 233.521 249.033V253.653C233.521 254.574 233.638 255.307 233.873 255.852V256H232.073ZM229.225 254.692C229.763 254.692 230.273 254.553 230.756 254.274C231.238 253.996 231.588 253.634 231.804 253.189V251.129H230.459C228.356 251.129 227.305 251.745 227.305 252.976C227.305 253.514 227.484 253.934 227.843 254.237C228.201 254.54 228.662 254.692 229.225 254.692ZM239.347 253.486L241.685 245.962H243.521L239.486 257.549C238.861 259.219 237.868 260.054 236.508 260.054L236.183 260.026L235.543 259.906V258.514L236.007 258.551C236.588 258.551 237.04 258.434 237.361 258.199C237.689 257.964 237.958 257.534 238.168 256.909L238.549 255.889L234.968 245.962H236.842L239.347 253.486ZM250.906 253.337C250.906 252.874 250.73 252.515 250.377 252.261C250.031 252.001 249.422 251.779 248.55 251.593C247.684 251.408 246.994 251.185 246.481 250.925C245.974 250.666 245.597 250.356 245.349 249.998C245.108 249.639 244.987 249.212 244.987 248.717C244.987 247.895 245.334 247.199 246.026 246.63C246.725 246.061 247.616 245.776 248.698 245.776C249.836 245.776 250.758 246.07 251.463 246.658C252.174 247.245 252.53 247.997 252.53 248.912H250.804C250.804 248.442 250.603 248.037 250.201 247.697C249.805 247.357 249.304 247.187 248.698 247.187C248.074 247.187 247.585 247.323 247.232 247.595C246.88 247.867 246.704 248.222 246.704 248.662C246.704 249.076 246.868 249.388 247.195 249.599C247.523 249.809 248.114 250.01 248.967 250.202C249.827 250.393 250.523 250.622 251.055 250.888C251.587 251.154 251.979 251.476 252.233 251.853C252.493 252.224 252.623 252.679 252.623 253.217C252.623 254.114 252.264 254.834 251.546 255.378C250.829 255.917 249.898 256.186 248.754 256.186C247.95 256.186 247.239 256.043 246.62 255.759C246.002 255.474 245.516 255.078 245.164 254.571C244.817 254.058 244.644 253.504 244.644 252.911H246.36C246.391 253.486 246.62 253.944 247.047 254.284C247.48 254.618 248.049 254.785 248.754 254.785C249.403 254.785 249.923 254.655 250.312 254.395C250.708 254.129 250.906 253.777 250.906 253.337Z" fill="white"/>
<defs>
<filter id="filter0_d_63_46" x="90.4375" y="25.9375" width="151.547" height="31.375" filterUnits="userSpaceOnUse" color-interpolation-filters="sRGB">
<feFlood flood-opacity="0" result="BackgroundImageFix"/>
<feColorMatrix in="SourceAlpha" type="matrix" values="0 0 0 0 0 0 0 0 0 0 0 0 0 0 0 0 0 0 127 0" result="hardAlpha"/>
<feOffset dy="4"/>
<feGaussianBlur stdDeviation="2"/>
<feComposite in2="hardAlpha" operator="out"/>
<feColorMatrix type="matrix" values="0 0 0 0 0 0 0 0 0 0 0 0 0 0 0 0 0 0 0.25 0"/>
<feBlend mode="normal" in2="BackgroundImageFix" result="effect1_dropShadow_63_46"/>
<feBlend mode="normal" in="SourceGraphic" in2="effect1_dropShadow_63_46" result="shape"/>
</filter>
<linearGradient id="paint0_linear_63_46" x1="165" y1="98.1261" x2="165" y2="-268.211" gradientUnits="userSpaceOnUse">
<stop stop-color="#5B5BD9"/>
<stop offset="1" stop-color="#5B5BD9" stop-opacity="0"/>
</linearGradient>
<linearGradient id="paint1_linear_63_46" x1="213.054" y1="321.363" x2="213.447" y2="454.651" gradientUnits="userSpaceOnUse">
<stop offset="0.5" stop-color="#5B5BD9"/>
<stop offset="1" stop-color="#5B5BD9" stop-opacity="0"/>
</linearGradient>
<linearGradient id="paint2_linear_63_46" x1="84.201" y1="511.073" x2="84.201" y2="372.061" gradientUnits="userSpaceOnUse">
<stop offset="0.59375" stop-color="#5656CA"/>
<stop offset="1" stop-color="#5656CA" stop-opacity="0"/>
</linearGradient>
</defs>
</svg>
