<svg width="353" height="495" viewBox="0 0 353 495" fill="none" xmlns="http://www.w3.org/2000/svg">
<rect width="353" height="495" fill="url(#paint0_linear_65_19)" fill-opacity="0.71"/>
<rect x="1" y="1" width="351" height="493" stroke="white" stroke-opacity="0.42" stroke-width="2"/>
<g filter="url(#filter0_d_65_19)">
<path d="M104.227 48.2588V58H100.946V33.1172H110.123C112.846 33.1172 114.977 33.8122 116.515 35.2021C118.064 36.5921 118.839 38.4321 118.839 40.7222C118.839 43.1375 118.081 45.0003 116.566 46.3105C115.062 47.6094 112.903 48.2588 110.089 48.2588H104.227ZM104.227 45.5757H110.123C111.878 45.5757 113.222 45.1655 114.156 44.3452C115.09 43.5135 115.558 42.3172 115.558 40.7563C115.558 39.2752 115.09 38.0903 114.156 37.2017C113.222 36.313 111.94 35.8516 110.311 35.8174H104.227V45.5757ZM132.152 47.9341H126.307V58H123.009V33.1172H131.246C134.049 33.1172 136.202 33.7552 137.706 35.0312C139.221 36.3073 139.979 38.1644 139.979 40.6025C139.979 42.152 139.557 43.5021 138.714 44.6528C137.883 45.8035 136.721 46.6637 135.228 47.2334L141.073 57.7949V58H137.552L132.152 47.9341ZM126.307 45.251H131.349C132.978 45.251 134.271 44.8294 135.228 43.9863C136.196 43.1432 136.681 42.0153 136.681 40.6025C136.681 39.0645 136.219 37.8853 135.296 37.0649C134.385 36.2446 133.063 35.8288 131.332 35.8174H126.307V45.251ZM158.658 46.4985H147.875V55.3169H160.401V58H144.593V33.1172H160.23V35.8174H147.875V43.8154H158.658V46.4985ZM168.724 33.1172L176.859 53.4199L184.994 33.1172H189.249V58H185.968V48.3101L186.275 37.8511L178.106 58H175.594L167.442 37.9023L167.767 48.3101V58H164.486V33.1172H168.724ZM198.563 58H195.282V33.1172H198.563V58ZM222.096 33.1172V50.0361C222.084 52.3831 221.344 54.3029 219.874 55.7954C218.416 57.2879 216.433 58.1253 213.927 58.3076L213.055 58.3418C210.332 58.3418 208.162 57.6069 206.544 56.1372C204.926 54.6675 204.106 52.6452 204.083 50.0703V33.1172H207.33V49.9678C207.33 51.7679 207.826 53.1693 208.817 54.1719C209.808 55.1631 211.221 55.6587 213.055 55.6587C214.912 55.6587 216.331 55.1631 217.311 54.1719C218.302 53.1807 218.797 51.785 218.797 49.9849V33.1172H222.096ZM231.512 33.1172L239.647 53.4199L247.782 33.1172H252.037V58H248.756V48.3101L249.063 37.8511L240.895 58H238.382L230.23 37.9023L230.555 48.3101V58H227.274V33.1172H231.512Z" fill="#DCAC65"/>
</g>
<path d="M351 352.363L120.151 480.523L106.518 492H351V352.363Z" fill="url(#paint1_linear_65_19)"/>
<path d="M176.5 492L2 414.9V492H176.5Z" fill="url(#paint2_linear_65_19)"/>
<line x1="60.8291" y1="70.5" x2="291.004" y2="72.5" stroke="white"/>
<path d="M100.464 106V89.6484H105.08C106.502 89.6484 107.76 89.9629 108.853 90.5918C109.946 91.2207 110.788 92.1154 111.38 93.2759C111.979 94.4364 112.282 95.769 112.29 97.2739V98.3184C112.29 99.8607 111.99 101.212 111.391 102.373C110.8 103.533 109.95 104.424 108.842 105.045C107.741 105.667 106.457 105.985 104.99 106H100.464ZM102.62 91.4229V104.237H104.889C106.551 104.237 107.842 103.72 108.763 102.687C109.692 101.654 110.156 100.183 110.156 98.2734V97.3188C110.156 95.4621 109.718 94.0208 108.842 92.9951C107.973 91.9619 106.738 91.4378 105.136 91.4229H102.62ZM120.05 97.8579L124.317 89.6484H126.766L121.128 99.9019V106H118.972V99.9019L113.334 89.6484H115.805L120.05 97.8579ZM141.444 106H139.276L131.044 93.3994V106H128.877V89.6484H131.044L139.299 102.305V89.6484H141.444V106ZM154.505 101.732H147.654L146.116 106H143.892L150.136 89.6484H152.023L158.278 106H156.066L154.505 101.732ZM148.306 99.958H153.865L151.08 92.3101L148.306 99.958ZM163.265 89.6484L168.61 102.99L173.956 89.6484H176.752V106H174.596V99.6323L174.798 92.7593L169.43 106H167.779L162.422 92.793L162.636 99.6323V106H160.479V89.6484H163.265ZM182.873 106H180.717V89.6484H182.873V106ZM198.854 100.812C198.652 102.541 198.012 103.877 196.934 104.821C195.863 105.757 194.437 106.225 192.655 106.225C190.723 106.225 189.173 105.532 188.005 104.147C186.845 102.762 186.265 100.909 186.265 98.5879V97.0156C186.265 95.4958 186.534 94.1593 187.073 93.0063C187.62 91.8534 188.391 90.9699 189.387 90.356C190.382 89.7345 191.535 89.4238 192.846 89.4238C194.583 89.4238 195.975 89.9105 197.023 90.8838C198.072 91.8496 198.682 93.1898 198.854 94.9043H196.687C196.499 93.6016 196.091 92.6582 195.462 92.0742C194.841 91.4902 193.969 91.1982 192.846 91.1982C191.468 91.1982 190.386 91.7074 189.6 92.7256C188.821 93.7438 188.432 95.1925 188.432 97.0718V98.6553C188.432 100.43 188.803 101.841 189.544 102.889C190.285 103.937 191.322 104.461 192.655 104.461C193.853 104.461 194.77 104.192 195.406 103.653C196.05 103.106 196.477 102.159 196.687 100.812H198.854ZM211.039 100.845L211.354 103.001L211.814 101.059L215.048 89.6484H216.868L220.023 101.059L220.473 103.035L220.821 100.834L223.359 89.6484H225.526L221.562 106H219.597L216.228 94.0845L215.969 92.8379L215.711 94.0845L212.218 106H210.253L206.3 89.6484H208.456L211.039 100.845ZM237.172 98.4419H230.086V104.237H238.318V106H227.93V89.6484H238.206V91.4229H230.086V96.6787H237.172V98.4419ZM241.002 106V89.6484H246.348C248.122 89.6484 249.455 90.0153 250.346 90.749C251.244 91.4827 251.693 92.5684 251.693 94.0059C251.693 94.7695 251.476 95.4471 251.042 96.0386C250.608 96.6226 250.016 97.0755 249.268 97.3975C250.151 97.6445 250.847 98.1162 251.356 98.8125C251.873 99.5013 252.131 100.325 252.131 101.283C252.131 102.751 251.656 103.904 250.705 104.742C249.754 105.581 248.41 106 246.673 106H241.002ZM243.158 98.3521V104.237H246.718C247.722 104.237 248.511 103.979 249.088 103.462C249.672 102.938 249.964 102.219 249.964 101.306C249.964 99.3366 248.893 98.3521 246.752 98.3521H243.158ZM243.158 96.6226H246.415C247.358 96.6226 248.111 96.3867 248.672 95.915C249.241 95.4434 249.526 94.8032 249.526 93.9946C249.526 93.0962 249.264 92.4448 248.74 92.0405C248.216 91.6287 247.418 91.4229 246.348 91.4229H243.158V96.6226Z" fill="white"/>
<path d="M257.583 458H236.622V455.078L247.696 442.773C249.336 440.913 250.464 439.404 251.08 438.247C251.709 437.075 252.024 435.866 252.024 434.621C252.024 432.951 251.519 431.582 250.508 430.512C249.498 429.443 248.15 428.908 246.465 428.908C244.444 428.908 242.869 429.487 241.741 430.644C240.628 431.787 240.071 433.383 240.071 435.434H236.006C236.006 432.49 236.951 430.109 238.841 428.293C240.745 426.477 243.287 425.568 246.465 425.568C249.439 425.568 251.79 426.352 253.519 427.919C255.247 429.472 256.111 431.545 256.111 434.138C256.111 437.287 254.104 441.037 250.091 445.388L241.521 454.682H257.583V458ZM267.801 440.026H270.855C272.774 439.997 274.283 439.492 275.381 438.51C276.48 437.529 277.029 436.203 277.029 434.533C277.029 430.783 275.162 428.908 271.426 428.908C269.668 428.908 268.262 429.414 267.208 430.424C266.167 431.42 265.647 432.746 265.647 434.401H261.583C261.583 431.867 262.505 429.765 264.351 428.095C266.211 426.411 268.57 425.568 271.426 425.568C274.444 425.568 276.81 426.367 278.523 427.963C280.237 429.56 281.094 431.779 281.094 434.621C281.094 436.013 280.64 437.36 279.732 438.664C278.838 439.968 277.615 440.942 276.062 441.586C277.82 442.143 279.175 443.066 280.127 444.355C281.094 445.644 281.578 447.219 281.578 449.079C281.578 451.95 280.64 454.228 278.765 455.913C276.89 457.597 274.451 458.439 271.448 458.439C268.445 458.439 265.999 457.626 264.109 456C262.234 454.375 261.297 452.229 261.297 449.562H265.384C265.384 451.247 265.933 452.595 267.032 453.605C268.13 454.616 269.603 455.122 271.448 455.122C273.411 455.122 274.913 454.609 275.953 453.583C276.993 452.558 277.513 451.086 277.513 449.167C277.513 447.307 276.941 445.878 275.799 444.882C274.656 443.886 273.008 443.374 270.855 443.344H267.801V440.026ZM302.737 443.938C301.888 444.948 300.87 445.761 299.683 446.376C298.511 446.992 297.222 447.299 295.816 447.299C293.97 447.299 292.359 446.845 290.982 445.937C289.62 445.029 288.565 443.754 287.818 442.114C287.071 440.458 286.697 438.635 286.697 436.643C286.697 434.504 287.1 432.578 287.906 430.864C288.726 429.15 289.883 427.839 291.377 426.931C292.872 426.022 294.615 425.568 296.607 425.568C299.771 425.568 302.261 426.755 304.078 429.128C305.909 431.486 306.824 434.709 306.824 438.796V439.982C306.824 446.208 305.594 450.756 303.133 453.627C300.672 456.484 296.958 457.949 291.993 458.022H291.202V454.594H292.059C295.413 454.536 297.991 453.664 299.793 451.979C301.595 450.28 302.576 447.6 302.737 443.938ZM296.475 443.938C297.837 443.938 299.09 443.52 300.232 442.685C301.39 441.85 302.232 440.817 302.759 439.587V437.961C302.759 435.295 302.181 433.127 301.023 431.457C299.866 429.787 298.401 428.952 296.629 428.952C294.842 428.952 293.406 429.641 292.322 431.018C291.238 432.38 290.696 434.182 290.696 436.423C290.696 438.605 291.216 440.407 292.256 441.828C293.311 443.234 294.717 443.938 296.475 443.938ZM328.577 449.76C328.577 448.413 328.101 447.277 327.149 446.354C326.211 445.432 324.622 444.597 322.381 443.85C319.261 442.897 316.983 441.66 315.547 440.136C314.126 438.598 313.416 436.65 313.416 434.292C313.416 431.889 314.112 429.919 315.503 428.381C316.91 426.843 318.836 425.927 321.282 425.634V420.822H324.556V425.656C327.017 425.993 328.929 427.026 330.291 428.754C331.668 430.483 332.356 432.849 332.356 435.852H328.313C328.313 433.786 327.823 432.146 326.841 430.93C325.86 429.714 324.534 429.106 322.864 429.106C321.121 429.106 319.788 429.56 318.865 430.468C317.942 431.362 317.481 432.614 317.481 434.226C317.481 435.72 317.964 436.914 318.931 437.807C319.913 438.686 321.517 439.492 323.743 440.224C325.984 440.942 327.728 441.74 328.973 442.619C330.232 443.483 331.155 444.494 331.741 445.651C332.342 446.809 332.642 448.164 332.642 449.716C332.642 452.192 331.895 454.184 330.401 455.693C328.921 457.202 326.841 458.095 324.161 458.374V462.57H320.909V458.374C318.184 458.125 316.045 457.158 314.493 455.473C312.955 453.774 312.186 451.474 312.186 448.574H316.25C316.25 450.61 316.785 452.177 317.854 453.276C318.924 454.375 320.44 454.924 322.403 454.924C324.322 454.924 325.831 454.462 326.929 453.54C328.028 452.617 328.577 451.357 328.577 449.76Z" fill="#DCAC65"/>
<path d="M40.6875 362.188C40.6875 363.323 40.3854 364.333 39.7812 365.219C39.1875 366.104 38.3802 366.797 37.3594 367.297C38.5469 367.807 39.4844 368.552 40.1719 369.531C40.8698 370.51 41.2188 371.62 41.2188 372.859C41.2188 374.828 40.5521 376.396 39.2188 377.562C37.8958 378.729 36.151 379.312 33.9844 379.312C31.7969 379.312 30.0417 378.729 28.7188 377.562C27.4062 376.385 26.75 374.818 26.75 372.859C26.75 371.63 27.0833 370.521 27.75 369.531C28.4271 368.542 29.3594 367.792 30.5469 367.281C29.5365 366.781 28.7396 366.089 28.1562 365.203C27.5729 364.318 27.2812 363.312 27.2812 362.188C27.2812 360.271 27.8958 358.75 29.125 357.625C30.3542 356.5 31.974 355.938 33.9844 355.938C35.9844 355.938 37.599 356.5 38.8281 357.625C40.0677 358.75 40.6875 360.271 40.6875 362.188ZM38.3281 372.797C38.3281 371.526 37.9219 370.49 37.1094 369.688C36.3073 368.885 35.2552 368.484 33.9531 368.484C32.651 368.484 31.6042 368.88 30.8125 369.672C30.0312 370.464 29.6406 371.505 29.6406 372.797C29.6406 374.089 30.0208 375.104 30.7812 375.844C31.5521 376.583 32.6198 376.953 33.9844 376.953C35.3385 376.953 36.401 376.583 37.1719 375.844C37.9427 375.094 38.3281 374.078 38.3281 372.797ZM33.9844 358.312C32.849 358.312 31.9271 358.667 31.2188 359.375C30.5208 360.073 30.1719 361.026 30.1719 362.234C30.1719 363.391 30.5156 364.328 31.2031 365.047C31.901 365.755 32.8281 366.109 33.9844 366.109C35.1406 366.109 36.0625 365.755 36.75 365.047C37.4479 364.328 37.7969 363.391 37.7969 362.234C37.7969 361.078 37.4375 360.135 36.7188 359.406C36 358.677 35.0885 358.312 33.9844 358.312ZM56.5469 370.094V379H53.5469V356.25H61.9375C64.4271 356.25 66.375 356.885 67.7812 358.156C69.1979 359.427 69.9062 361.109 69.9062 363.203C69.9062 365.411 69.2135 367.115 67.8281 368.312C66.4531 369.5 64.4792 370.094 61.9062 370.094H56.5469ZM56.5469 367.641H61.9375C63.5417 367.641 64.7708 367.266 65.625 366.516C66.4792 365.755 66.9062 364.661 66.9062 363.234C66.9062 361.88 66.4792 360.797 65.625 359.984C64.7708 359.172 63.599 358.75 62.1094 358.719H56.5469V367.641ZM84.1406 373.062H74.6094L72.4688 379H69.375L78.0625 356.25H80.6875L89.3906 379H86.3125L84.1406 373.062ZM75.5156 370.594H83.25L79.375 359.953L75.5156 370.594ZM109.062 376.016C108.292 377.12 107.214 377.948 105.828 378.5C104.453 379.042 102.849 379.312 101.016 379.312C99.1615 379.312 97.5156 378.88 96.0781 378.016C94.6406 377.141 93.526 375.901 92.7344 374.297C91.9531 372.693 91.5521 370.833 91.5312 368.719V366.734C91.5312 363.307 92.3281 360.651 93.9219 358.766C95.526 356.88 97.776 355.938 100.672 355.938C103.047 355.938 104.958 356.547 106.406 357.766C107.854 358.974 108.74 360.693 109.062 362.922H106.062C105.5 359.911 103.708 358.406 100.688 358.406C98.6771 358.406 97.151 359.115 96.1094 360.531C95.0781 361.938 94.5573 363.979 94.5469 366.656V368.516C94.5469 371.068 95.1302 373.099 96.2969 374.609C97.4635 376.109 99.0417 376.859 101.031 376.859C102.156 376.859 103.141 376.734 103.984 376.484C104.828 376.234 105.526 375.812 106.078 375.219V370.109H100.812V367.672H109.062V376.016ZM126.938 368.484H117.078V376.547H128.531V379H114.078V356.25H128.375V358.719H117.078V366.031H126.938V368.484ZM138.969 368.859C136.396 368.12 134.521 367.214 133.344 366.141C132.177 365.057 131.594 363.724 131.594 362.141C131.594 360.349 132.307 358.87 133.734 357.703C135.172 356.526 137.036 355.938 139.328 355.938C140.891 355.938 142.281 356.24 143.5 356.844C144.729 357.448 145.677 358.281 146.344 359.344C147.021 360.406 147.359 361.568 147.359 362.828H144.344C144.344 361.453 143.906 360.375 143.031 359.594C142.156 358.802 140.922 358.406 139.328 358.406C137.849 358.406 136.693 358.734 135.859 359.391C135.036 360.036 134.625 360.938 134.625 362.094C134.625 363.021 135.016 363.807 135.797 364.453C136.589 365.089 137.927 365.672 139.812 366.203C141.708 366.734 143.188 367.323 144.25 367.969C145.323 368.604 146.115 369.349 146.625 370.203C147.146 371.057 147.406 372.062 147.406 373.219C147.406 375.062 146.688 376.542 145.25 377.656C143.812 378.76 141.891 379.312 139.484 379.312C137.922 379.312 136.464 379.016 135.109 378.422C133.755 377.818 132.708 376.995 131.969 375.953C131.24 374.911 130.875 373.729 130.875 372.406H133.891C133.891 373.781 134.396 374.87 135.406 375.672C136.427 376.464 137.786 376.859 139.484 376.859C141.068 376.859 142.281 376.536 143.125 375.891C143.969 375.245 144.391 374.365 144.391 373.25C144.391 372.135 144 371.276 143.219 370.672C142.438 370.057 141.021 369.453 138.969 368.859Z" fill="#DCAC65"/>
<path d="M89.334 153.96H85.8271V160H83.8481V145.07H88.7905C90.4722 145.07 91.7642 145.453 92.6665 146.219C93.5757 146.984 94.0303 148.099 94.0303 149.562C94.0303 150.491 93.7773 151.301 93.2715 151.992C92.7725 152.682 92.0752 153.198 91.1797 153.54L94.6865 159.877V160H92.5742L89.334 153.96ZM85.8271 152.351H88.8521C89.8296 152.351 90.6055 152.098 91.1797 151.592C91.7607 151.086 92.0513 150.409 92.0513 149.562C92.0513 148.639 91.7744 147.931 91.2207 147.439C90.6738 146.947 89.8809 146.697 88.8418 146.69H85.8271V152.351ZM101.105 160.205C99.6016 160.205 98.3779 159.713 97.4346 158.729C96.4912 157.737 96.0195 156.415 96.0195 154.76V154.412C96.0195 153.311 96.228 152.33 96.645 151.469C97.0688 150.601 97.6567 149.924 98.4087 149.438C99.1675 148.946 99.9878 148.7 100.87 148.7C102.312 148.7 103.433 149.175 104.233 150.125C105.033 151.076 105.433 152.436 105.433 154.207V154.996H97.9165C97.9438 156.09 98.2617 156.975 98.8701 157.652C99.4854 158.322 100.265 158.657 101.208 158.657C101.878 158.657 102.445 158.52 102.91 158.247C103.375 157.973 103.782 157.611 104.13 157.16L105.289 158.062C104.359 159.491 102.965 160.205 101.105 160.205ZM100.87 150.259C100.104 150.259 99.4614 150.539 98.9419 151.1C98.4224 151.653 98.1011 152.433 97.978 153.438H103.536V153.294C103.481 152.33 103.221 151.585 102.756 151.059C102.292 150.525 101.663 150.259 100.87 150.259ZM114.097 157.057C114.097 156.544 113.902 156.148 113.513 155.868C113.13 155.581 112.457 155.334 111.493 155.129C110.536 154.924 109.773 154.678 109.206 154.391C108.646 154.104 108.229 153.762 107.955 153.366C107.688 152.969 107.555 152.498 107.555 151.951C107.555 151.042 107.938 150.272 108.704 149.644C109.476 149.015 110.46 148.7 111.657 148.7C112.915 148.7 113.933 149.025 114.712 149.674C115.499 150.324 115.892 151.154 115.892 152.166H113.984C113.984 151.646 113.762 151.199 113.318 150.823C112.88 150.447 112.327 150.259 111.657 150.259C110.966 150.259 110.426 150.409 110.037 150.71C109.647 151.011 109.452 151.404 109.452 151.889C109.452 152.347 109.633 152.692 109.996 152.925C110.358 153.157 111.011 153.379 111.954 153.591C112.904 153.803 113.673 154.056 114.261 154.35C114.849 154.644 115.283 155 115.563 155.417C115.851 155.827 115.994 156.329 115.994 156.924C115.994 157.915 115.598 158.711 114.805 159.313C114.012 159.908 112.983 160.205 111.718 160.205C110.83 160.205 110.043 160.048 109.36 159.733C108.676 159.419 108.14 158.981 107.75 158.421C107.367 157.854 107.176 157.242 107.176 156.585H109.073C109.107 157.221 109.36 157.727 109.832 158.103C110.31 158.472 110.939 158.657 111.718 158.657C112.436 158.657 113.01 158.513 113.441 158.226C113.878 157.932 114.097 157.542 114.097 157.057ZM127.837 154.576C127.837 156.264 127.451 157.625 126.679 158.657C125.906 159.689 124.86 160.205 123.541 160.205C122.194 160.205 121.135 159.778 120.362 158.923V164.266H118.465V148.905H120.198L120.291 150.136C121.063 149.179 122.136 148.7 123.51 148.7C124.843 148.7 125.896 149.203 126.668 150.208C127.448 151.212 127.837 152.61 127.837 154.401V154.576ZM125.94 154.36C125.94 153.109 125.674 152.122 125.141 151.397C124.607 150.672 123.876 150.31 122.946 150.31C121.798 150.31 120.937 150.819 120.362 151.838V157.139C120.93 158.151 121.798 158.657 122.967 158.657C123.876 158.657 124.597 158.298 125.13 157.58C125.67 156.855 125.94 155.782 125.94 154.36ZM129.755 154.35C129.755 153.263 129.967 152.286 130.391 151.417C130.821 150.549 131.416 149.879 132.175 149.408C132.94 148.936 133.812 148.7 134.79 148.7C136.3 148.7 137.521 149.223 138.45 150.269C139.387 151.315 139.855 152.706 139.855 154.442V154.576C139.855 155.656 139.646 156.626 139.229 157.488C138.819 158.342 138.228 159.009 137.456 159.487C136.69 159.966 135.808 160.205 134.81 160.205C133.306 160.205 132.086 159.682 131.149 158.636C130.22 157.59 129.755 156.206 129.755 154.483V154.35ZM131.662 154.576C131.662 155.806 131.946 156.794 132.513 157.539C133.087 158.284 133.853 158.657 134.81 158.657C135.774 158.657 136.54 158.281 137.107 157.529C137.674 156.77 137.958 155.71 137.958 154.35C137.958 153.133 137.667 152.149 137.086 151.397C136.512 150.638 135.747 150.259 134.79 150.259C133.853 150.259 133.098 150.631 132.523 151.376C131.949 152.122 131.662 153.188 131.662 154.576ZM144.028 148.905L144.09 150.3C144.938 149.233 146.045 148.7 147.412 148.7C149.757 148.7 150.939 150.023 150.96 152.668V160H149.063V152.658C149.056 151.858 148.872 151.267 148.509 150.884C148.154 150.501 147.597 150.31 146.838 150.31C146.223 150.31 145.683 150.474 145.218 150.802C144.753 151.13 144.391 151.561 144.131 152.094V160H142.234V148.905H144.028ZM160.281 157.057C160.281 156.544 160.086 156.148 159.696 155.868C159.313 155.581 158.64 155.334 157.676 155.129C156.719 154.924 155.957 154.678 155.39 154.391C154.829 154.104 154.412 153.762 154.139 153.366C153.872 152.969 153.739 152.498 153.739 151.951C153.739 151.042 154.122 150.272 154.887 149.644C155.66 149.015 156.644 148.7 157.84 148.7C159.098 148.7 160.117 149.025 160.896 149.674C161.682 150.324 162.075 151.154 162.075 152.166H160.168C160.168 151.646 159.946 151.199 159.501 150.823C159.064 150.447 158.51 150.259 157.84 150.259C157.15 150.259 156.61 150.409 156.22 150.71C155.831 151.011 155.636 151.404 155.636 151.889C155.636 152.347 155.817 152.692 156.179 152.925C156.542 153.157 157.194 153.379 158.138 153.591C159.088 153.803 159.857 154.056 160.445 154.35C161.033 154.644 161.467 155 161.747 155.417C162.034 155.827 162.178 156.329 162.178 156.924C162.178 157.915 161.781 158.711 160.988 159.313C160.195 159.908 159.167 160.205 157.902 160.205C157.013 160.205 156.227 160.048 155.543 159.733C154.86 159.419 154.323 158.981 153.934 158.421C153.551 157.854 153.359 157.242 153.359 156.585H155.256C155.291 157.221 155.543 157.727 156.015 158.103C156.494 158.472 157.123 158.657 157.902 158.657C158.62 158.657 159.194 158.513 159.625 158.226C160.062 157.932 160.281 157.542 160.281 157.057ZM166.71 160H164.813V148.905H166.71V160ZM164.659 145.962C164.659 145.655 164.751 145.395 164.936 145.183C165.127 144.971 165.408 144.865 165.777 144.865C166.146 144.865 166.426 144.971 166.618 145.183C166.809 145.395 166.905 145.655 166.905 145.962C166.905 146.27 166.809 146.526 166.618 146.731C166.426 146.937 166.146 147.039 165.777 147.039C165.408 147.039 165.127 146.937 164.936 146.731C164.751 146.526 164.659 146.27 164.659 145.962ZM173.416 157.426L176.164 148.905H178.102L174.124 160H172.678L168.658 148.905H170.596L173.416 157.426ZM184.388 160.205C182.884 160.205 181.66 159.713 180.717 158.729C179.773 157.737 179.302 156.415 179.302 154.76V154.412C179.302 153.311 179.51 152.33 179.927 151.469C180.351 150.601 180.939 149.924 181.691 149.438C182.45 148.946 183.27 148.7 184.152 148.7C185.594 148.7 186.715 149.175 187.515 150.125C188.315 151.076 188.715 152.436 188.715 154.207V154.996H181.199C181.226 156.09 181.544 156.975 182.152 157.652C182.768 158.322 183.547 158.657 184.49 158.657C185.16 158.657 185.728 158.52 186.192 158.247C186.657 157.973 187.064 157.611 187.413 157.16L188.571 158.062C187.642 159.491 186.247 160.205 184.388 160.205ZM184.152 150.259C183.386 150.259 182.744 150.539 182.224 151.1C181.705 151.653 181.383 152.433 181.26 153.438H186.818V153.294C186.763 152.33 186.503 151.585 186.039 151.059C185.574 150.525 184.945 150.259 184.152 150.259ZM199.646 155.293L199.933 157.262L200.353 155.488L203.306 145.07H204.967L207.849 155.488L208.259 157.293L208.577 155.283L210.894 145.07H212.873L209.253 160H207.459L204.383 149.121L204.147 147.982L203.911 149.121L200.722 160H198.928L195.318 145.07H197.287L199.646 155.293ZM219.046 160.205C217.542 160.205 216.318 159.713 215.375 158.729C214.432 157.737 213.96 156.415 213.96 154.76V154.412C213.96 153.311 214.168 152.33 214.585 151.469C215.009 150.601 215.597 149.924 216.349 149.438C217.108 148.946 217.928 148.7 218.81 148.7C220.252 148.7 221.374 149.175 222.173 150.125C222.973 151.076 223.373 152.436 223.373 154.207V154.996H215.857C215.884 156.09 216.202 156.975 216.811 157.652C217.426 158.322 218.205 158.657 219.148 158.657C219.818 158.657 220.386 158.52 220.851 158.247C221.315 157.973 221.722 157.611 222.071 157.16L223.229 158.062C222.3 159.491 220.905 160.205 219.046 160.205ZM218.81 150.259C218.044 150.259 217.402 150.539 216.882 151.1C216.363 151.653 216.042 152.433 215.918 153.438H221.476V153.294C221.421 152.33 221.162 151.585 220.697 151.059C220.232 150.525 219.603 150.259 218.81 150.259ZM234.97 154.576C234.97 156.271 234.581 157.635 233.801 158.667C233.022 159.692 231.976 160.205 230.664 160.205C229.262 160.205 228.179 159.709 227.413 158.718L227.321 160H225.578V144.25H227.475V150.125C228.24 149.175 229.296 148.7 230.643 148.7C231.99 148.7 233.046 149.209 233.812 150.228C234.584 151.247 234.97 152.641 234.97 154.412V154.576ZM233.073 154.36C233.073 153.068 232.824 152.07 232.325 151.366C231.826 150.662 231.108 150.31 230.171 150.31C228.92 150.31 228.021 150.891 227.475 152.053V156.852C228.056 158.014 228.961 158.595 230.192 158.595C231.101 158.595 231.809 158.243 232.314 157.539C232.82 156.835 233.073 155.775 233.073 154.36ZM243.83 157.057C243.83 156.544 243.635 156.148 243.245 155.868C242.862 155.581 242.189 155.334 241.225 155.129C240.268 154.924 239.506 154.678 238.938 154.391C238.378 154.104 237.961 153.762 237.688 153.366C237.421 152.969 237.288 152.498 237.288 151.951C237.288 151.042 237.67 150.272 238.436 149.644C239.208 149.015 240.193 148.7 241.389 148.7C242.647 148.7 243.666 149.025 244.445 149.674C245.231 150.324 245.624 151.154 245.624 152.166H243.717C243.717 151.646 243.495 151.199 243.05 150.823C242.613 150.447 242.059 150.259 241.389 150.259C240.699 150.259 240.159 150.409 239.769 150.71C239.379 151.011 239.185 151.404 239.185 151.889C239.185 152.347 239.366 152.692 239.728 152.925C240.09 153.157 240.743 153.379 241.687 153.591C242.637 153.803 243.406 154.056 243.994 154.35C244.582 154.644 245.016 155 245.296 155.417C245.583 155.827 245.727 156.329 245.727 156.924C245.727 157.915 245.33 158.711 244.537 159.313C243.744 159.908 242.715 160.205 241.451 160.205C240.562 160.205 239.776 160.048 239.092 159.733C238.409 159.419 237.872 158.981 237.482 158.421C237.1 157.854 236.908 157.242 236.908 156.585H238.805C238.839 157.221 239.092 157.727 239.564 158.103C240.042 158.472 240.671 158.657 241.451 158.657C242.168 158.657 242.743 158.513 243.173 158.226C243.611 157.932 243.83 157.542 243.83 157.057ZM250.259 160H248.362V148.905H250.259V160ZM248.208 145.962C248.208 145.655 248.3 145.395 248.485 145.183C248.676 144.971 248.957 144.865 249.326 144.865C249.695 144.865 249.975 144.971 250.167 145.183C250.358 145.395 250.454 145.655 250.454 145.962C250.454 146.27 250.358 146.526 250.167 146.731C249.975 146.937 249.695 147.039 249.326 147.039C248.957 147.039 248.676 146.937 248.485 146.731C248.3 146.526 248.208 146.27 248.208 145.962ZM255.878 146.219V148.905H257.949V150.372H255.878V157.252C255.878 157.696 255.97 158.031 256.155 158.257C256.339 158.476 256.654 158.585 257.098 158.585C257.317 158.585 257.618 158.544 258 158.462V160C257.501 160.137 257.016 160.205 256.544 160.205C255.697 160.205 255.058 159.949 254.627 159.436C254.196 158.923 253.981 158.195 253.981 157.252V150.372H251.961V148.905H253.981V146.219H255.878ZM264.778 160.205C263.274 160.205 262.051 159.713 261.107 158.729C260.164 157.737 259.692 156.415 259.692 154.76V154.412C259.692 153.311 259.901 152.33 260.318 151.469C260.742 150.601 261.33 149.924 262.082 149.438C262.84 148.946 263.661 148.7 264.542 148.7C265.985 148.7 267.106 149.175 267.906 150.125C268.706 151.076 269.105 152.436 269.105 154.207V154.996H261.589C261.617 156.09 261.935 156.975 262.543 157.652C263.158 158.322 263.938 158.657 264.881 158.657C265.551 158.657 266.118 158.52 266.583 158.247C267.048 157.973 267.455 157.611 267.803 157.16L268.962 158.062C268.032 159.491 266.638 160.205 264.778 160.205ZM264.542 150.259C263.777 150.259 263.134 150.539 262.615 151.1C262.095 151.653 261.774 152.433 261.651 153.438H267.208V153.294C267.154 152.33 266.894 151.585 266.429 151.059C265.964 150.525 265.335 150.259 264.542 150.259Z" fill="white"/>
<path d="M88.1445 189V174.07H92.3589C93.6577 174.07 94.8062 174.357 95.8042 174.932C96.8022 175.506 97.5713 176.323 98.1113 177.382C98.6582 178.442 98.9351 179.659 98.9419 181.033V181.986C98.9419 183.395 98.6685 184.628 98.1216 185.688C97.5815 186.748 96.8057 187.561 95.7939 188.128C94.7891 188.696 93.6167 188.986 92.2769 189H88.1445ZM90.1133 175.69V187.39H92.1846C93.7021 187.39 94.8813 186.918 95.7222 185.975C96.5698 185.032 96.9937 183.688 96.9937 181.945V181.074C96.9937 179.378 96.5938 178.062 95.7939 177.126C95.001 176.183 93.873 175.704 92.4102 175.69H90.1133ZM101.126 183.35C101.126 182.263 101.338 181.286 101.762 180.417C102.192 179.549 102.787 178.879 103.546 178.408C104.312 177.936 105.183 177.7 106.161 177.7C107.671 177.7 108.892 178.223 109.821 179.269C110.758 180.315 111.226 181.706 111.226 183.442V183.576C111.226 184.656 111.018 185.626 110.601 186.488C110.19 187.342 109.599 188.009 108.827 188.487C108.061 188.966 107.179 189.205 106.181 189.205C104.677 189.205 103.457 188.682 102.521 187.636C101.591 186.59 101.126 185.206 101.126 183.483V183.35ZM103.033 183.576C103.033 184.806 103.317 185.794 103.884 186.539C104.458 187.284 105.224 187.657 106.181 187.657C107.145 187.657 107.911 187.281 108.478 186.529C109.045 185.77 109.329 184.71 109.329 183.35C109.329 182.133 109.039 181.149 108.458 180.397C107.883 179.638 107.118 179.259 106.161 179.259C105.224 179.259 104.469 179.631 103.895 180.376C103.32 181.122 103.033 182.188 103.033 183.576ZM115.389 177.905L115.44 179.136C116.254 178.179 117.351 177.7 118.732 177.7C120.284 177.7 121.34 178.295 121.9 179.484C122.27 178.951 122.748 178.521 123.336 178.192C123.931 177.864 124.631 177.7 125.438 177.7C127.872 177.7 129.109 178.989 129.15 181.566V189H127.253V181.679C127.253 180.886 127.072 180.294 126.709 179.905C126.347 179.508 125.739 179.31 124.884 179.31C124.18 179.31 123.596 179.522 123.131 179.946C122.666 180.363 122.396 180.927 122.321 181.638V189H120.414V181.73C120.414 180.117 119.624 179.31 118.045 179.31C116.801 179.31 115.95 179.84 115.492 180.899V189H113.595V177.905H115.389ZM138.871 189C138.761 188.781 138.672 188.392 138.604 187.831C137.722 188.747 136.669 189.205 135.446 189.205C134.352 189.205 133.453 188.897 132.749 188.282C132.052 187.66 131.703 186.874 131.703 185.924C131.703 184.769 132.141 183.873 133.016 183.237C133.897 182.595 135.135 182.273 136.728 182.273H138.573V181.402C138.573 180.739 138.375 180.212 137.979 179.823C137.582 179.426 136.998 179.228 136.225 179.228C135.548 179.228 134.981 179.399 134.523 179.741C134.065 180.083 133.836 180.496 133.836 180.981H131.929C131.929 180.428 132.124 179.895 132.513 179.382C132.91 178.862 133.443 178.452 134.113 178.151C134.79 177.851 135.531 177.7 136.338 177.7C137.616 177.7 138.618 178.021 139.342 178.664C140.067 179.3 140.443 180.178 140.47 181.299V186.406C140.47 187.424 140.6 188.234 140.86 188.836V189H138.871ZM135.723 187.554C136.317 187.554 136.881 187.4 137.415 187.093C137.948 186.785 138.334 186.385 138.573 185.893V183.617H137.086C134.762 183.617 133.6 184.297 133.6 185.657C133.6 186.252 133.798 186.717 134.195 187.052C134.591 187.387 135.101 187.554 135.723 187.554ZM145.505 189H143.608V177.905H145.505V189ZM143.454 174.962C143.454 174.655 143.546 174.395 143.731 174.183C143.922 173.971 144.203 173.865 144.572 173.865C144.941 173.865 145.221 173.971 145.413 174.183C145.604 174.395 145.7 174.655 145.7 174.962C145.7 175.27 145.604 175.526 145.413 175.731C145.221 175.937 144.941 176.039 144.572 176.039C144.203 176.039 143.922 175.937 143.731 175.731C143.546 175.526 143.454 175.27 143.454 174.962ZM150.345 177.905L150.406 179.3C151.254 178.233 152.361 177.7 153.729 177.7C156.073 177.7 157.256 179.023 157.276 181.668V189H155.379V181.658C155.373 180.858 155.188 180.267 154.826 179.884C154.47 179.501 153.913 179.31 153.154 179.31C152.539 179.31 151.999 179.474 151.534 179.802C151.069 180.13 150.707 180.561 150.447 181.094V189H148.55V177.905H150.345ZM177.118 189H175.139L167.623 177.495V189H165.644V174.07H167.623L175.159 185.626V174.07H177.118V189ZM187.167 189C187.057 188.781 186.968 188.392 186.9 187.831C186.018 188.747 184.965 189.205 183.742 189.205C182.648 189.205 181.749 188.897 181.045 188.282C180.348 187.66 179.999 186.874 179.999 185.924C179.999 184.769 180.437 183.873 181.312 183.237C182.193 182.595 183.431 182.273 185.023 182.273H186.869V181.402C186.869 180.739 186.671 180.212 186.274 179.823C185.878 179.426 185.293 179.228 184.521 179.228C183.844 179.228 183.277 179.399 182.819 179.741C182.361 180.083 182.132 180.496 182.132 180.981H180.225C180.225 180.428 180.419 179.895 180.809 179.382C181.206 178.862 181.739 178.452 182.409 178.151C183.085 177.851 183.827 177.7 184.634 177.7C185.912 177.7 186.914 178.021 187.638 178.664C188.363 179.3 188.739 180.178 188.766 181.299V186.406C188.766 187.424 188.896 188.234 189.156 188.836V189H187.167ZM184.019 187.554C184.613 187.554 185.177 187.4 185.71 187.093C186.244 186.785 186.63 186.385 186.869 185.893V183.617H185.382C183.058 183.617 181.896 184.297 181.896 185.657C181.896 186.252 182.094 186.717 182.491 187.052C182.887 187.387 183.396 187.554 184.019 187.554ZM193.524 177.905L193.575 179.136C194.389 178.179 195.486 177.7 196.867 177.7C198.418 177.7 199.475 178.295 200.035 179.484C200.404 178.951 200.883 178.521 201.471 178.192C202.065 177.864 202.766 177.7 203.573 177.7C206.006 177.7 207.244 178.989 207.285 181.566V189H205.388V181.679C205.388 180.886 205.207 180.294 204.844 179.905C204.482 179.508 203.874 179.31 203.019 179.31C202.315 179.31 201.73 179.522 201.266 179.946C200.801 180.363 200.531 180.927 200.456 181.638V189H198.548V181.73C198.548 180.117 197.759 179.31 196.18 179.31C194.936 179.31 194.084 179.84 193.626 180.899V189H191.729V177.905H193.524ZM214.76 189.205C213.256 189.205 212.032 188.713 211.089 187.729C210.146 186.737 209.674 185.415 209.674 183.76V183.412C209.674 182.311 209.882 181.33 210.299 180.469C210.723 179.601 211.311 178.924 212.063 178.438C212.822 177.946 213.642 177.7 214.524 177.7C215.966 177.7 217.087 178.175 217.887 179.125C218.687 180.076 219.087 181.436 219.087 183.207V183.996H211.571C211.598 185.09 211.916 185.975 212.524 186.652C213.14 187.322 213.919 187.657 214.862 187.657C215.532 187.657 216.1 187.52 216.564 187.247C217.029 186.973 217.436 186.611 217.785 186.16L218.943 187.062C218.014 188.491 216.619 189.205 214.76 189.205ZM214.524 179.259C213.758 179.259 213.116 179.539 212.596 180.1C212.077 180.653 211.755 181.433 211.632 182.438H217.19V182.294C217.135 181.33 216.875 180.585 216.411 180.059C215.946 179.525 215.317 179.259 214.524 179.259ZM235.032 182.407H228.767V189H226.798V174.07H236.047V175.69H228.767V180.797H235.032V182.407ZM243.204 179.607C242.917 179.56 242.606 179.536 242.271 179.536C241.027 179.536 240.183 180.065 239.738 181.125V189H237.841V177.905H239.687L239.718 179.187C240.34 178.196 241.222 177.7 242.363 177.7C242.732 177.7 243.013 177.748 243.204 177.844V179.607ZM249.356 189.205C247.853 189.205 246.629 188.713 245.686 187.729C244.742 186.737 244.271 185.415 244.271 183.76V183.412C244.271 182.311 244.479 181.33 244.896 180.469C245.32 179.601 245.908 178.924 246.66 178.438C247.418 177.946 248.239 177.7 249.121 177.7C250.563 177.7 251.684 178.175 252.484 179.125C253.284 180.076 253.684 181.436 253.684 183.207V183.996H246.167C246.195 185.09 246.513 185.975 247.121 186.652C247.736 187.322 248.516 187.657 249.459 187.657C250.129 187.657 250.696 187.52 251.161 187.247C251.626 186.973 252.033 186.611 252.381 186.16L253.54 187.062C252.61 188.491 251.216 189.205 249.356 189.205ZM249.121 179.259C248.355 179.259 247.712 179.539 247.193 180.1C246.673 180.653 246.352 181.433 246.229 182.438H251.787V182.294C251.732 181.33 251.472 180.585 251.007 180.059C250.542 179.525 249.914 179.259 249.121 179.259ZM260.492 189.205C258.988 189.205 257.765 188.713 256.821 187.729C255.878 186.737 255.406 185.415 255.406 183.76V183.412C255.406 182.311 255.615 181.33 256.032 180.469C256.456 179.601 257.043 178.924 257.795 178.438C258.554 177.946 259.375 177.7 260.256 177.7C261.699 177.7 262.82 178.175 263.62 179.125C264.419 180.076 264.819 181.436 264.819 183.207V183.996H257.303C257.331 185.09 257.648 185.975 258.257 186.652C258.872 187.322 259.651 187.657 260.595 187.657C261.265 187.657 261.832 187.52 262.297 187.247C262.762 186.973 263.168 186.611 263.517 186.16L264.676 187.062C263.746 188.491 262.352 189.205 260.492 189.205ZM260.256 179.259C259.491 179.259 258.848 179.539 258.329 180.1C257.809 180.653 257.488 181.433 257.365 182.438H262.922V182.294C262.868 181.33 262.608 180.585 262.143 180.059C261.678 179.525 261.049 179.259 260.256 179.259Z" fill="white"/>
<path d="M109.35 203.07L114.23 215.252L119.111 203.07H121.665V218H119.696V212.186L119.88 205.911L114.979 218H113.472L108.581 205.941L108.775 212.186V218H106.807V203.07H109.35ZM124.341 212.35C124.341 211.263 124.553 210.286 124.977 209.417C125.407 208.549 126.002 207.879 126.761 207.408C127.526 206.936 128.398 206.7 129.375 206.7C130.886 206.7 132.106 207.223 133.036 208.269C133.973 209.315 134.441 210.706 134.441 212.442V212.576C134.441 213.656 134.232 214.626 133.815 215.488C133.405 216.342 132.814 217.009 132.042 217.487C131.276 217.966 130.394 218.205 129.396 218.205C127.892 218.205 126.672 217.682 125.735 216.636C124.806 215.59 124.341 214.206 124.341 212.483V212.35ZM126.248 212.576C126.248 213.806 126.532 214.794 127.099 215.539C127.673 216.284 128.439 216.657 129.396 216.657C130.36 216.657 131.125 216.281 131.693 215.529C132.26 214.77 132.544 213.71 132.544 212.35C132.544 211.133 132.253 210.149 131.672 209.397C131.098 208.638 130.333 208.259 129.375 208.259C128.439 208.259 127.684 208.631 127.109 209.376C126.535 210.122 126.248 211.188 126.248 212.576ZM146.212 212.576C146.212 214.271 145.823 215.635 145.043 216.667C144.264 217.692 143.218 218.205 141.906 218.205C140.504 218.205 139.421 217.709 138.655 216.718L138.563 218H136.82V202.25H138.717V208.125C139.482 207.175 140.539 206.7 141.885 206.7C143.232 206.7 144.288 207.209 145.054 208.228C145.826 209.247 146.212 210.641 146.212 212.412V212.576ZM144.315 212.36C144.315 211.068 144.066 210.07 143.567 209.366C143.068 208.662 142.35 208.31 141.414 208.31C140.163 208.31 139.264 208.891 138.717 210.053V214.852C139.298 216.014 140.204 216.595 141.434 216.595C142.343 216.595 143.051 216.243 143.557 215.539C144.062 214.835 144.315 213.775 144.315 212.36ZM150.673 218H148.776V206.905H150.673V218ZM148.622 203.962C148.622 203.655 148.714 203.395 148.899 203.183C149.09 202.971 149.371 202.865 149.74 202.865C150.109 202.865 150.389 202.971 150.581 203.183C150.772 203.395 150.868 203.655 150.868 203.962C150.868 204.27 150.772 204.526 150.581 204.731C150.389 204.937 150.109 205.039 149.74 205.039C149.371 205.039 149.09 204.937 148.899 204.731C148.714 204.526 148.622 204.27 148.622 203.962ZM155.779 218H153.882V202.25H155.779V218ZM163.429 218.205C161.925 218.205 160.701 217.713 159.758 216.729C158.814 215.737 158.343 214.415 158.343 212.76V212.412C158.343 211.311 158.551 210.33 158.968 209.469C159.392 208.601 159.98 207.924 160.732 207.438C161.491 206.946 162.311 206.7 163.193 206.7C164.635 206.7 165.756 207.175 166.556 208.125C167.356 209.076 167.756 210.436 167.756 212.207V212.996H160.24C160.267 214.09 160.585 214.975 161.193 215.652C161.809 216.322 162.588 216.657 163.531 216.657C164.201 216.657 164.769 216.52 165.233 216.247C165.698 215.973 166.105 215.611 166.454 215.16L167.612 216.062C166.683 217.491 165.288 218.205 163.429 218.205ZM163.193 208.259C162.427 208.259 161.785 208.539 161.265 209.1C160.746 209.653 160.424 210.433 160.301 211.438H165.859V211.294C165.804 210.33 165.544 209.585 165.08 209.059C164.615 208.525 163.986 208.259 163.193 208.259ZM183.701 211.407H177.436V218H175.467V203.07H184.716V204.69H177.436V209.797H183.701V211.407ZM191.873 208.607C191.586 208.56 191.275 208.536 190.94 208.536C189.696 208.536 188.852 209.065 188.407 210.125V218H186.51V206.905H188.356L188.387 208.187C189.009 207.196 189.891 206.7 191.032 206.7C191.401 206.7 191.682 206.748 191.873 206.844V208.607ZM195.688 218H193.791V206.905H195.688V218ZM193.637 203.962C193.637 203.655 193.729 203.395 193.914 203.183C194.105 202.971 194.385 202.865 194.754 202.865C195.124 202.865 195.404 202.971 195.595 203.183C195.787 203.395 195.882 203.655 195.882 203.962C195.882 204.27 195.787 204.526 195.595 204.731C195.404 204.937 195.124 205.039 194.754 205.039C194.385 205.039 194.105 204.937 193.914 204.731C193.729 204.526 193.637 204.27 193.637 203.962ZM203.337 218.205C201.833 218.205 200.609 217.713 199.666 216.729C198.723 215.737 198.251 214.415 198.251 212.76V212.412C198.251 211.311 198.459 210.33 198.876 209.469C199.3 208.601 199.888 207.924 200.64 207.438C201.399 206.946 202.219 206.7 203.101 206.7C204.543 206.7 205.665 207.175 206.464 208.125C207.264 209.076 207.664 210.436 207.664 212.207V212.996H200.148C200.175 214.09 200.493 214.975 201.102 215.652C201.717 216.322 202.496 216.657 203.439 216.657C204.109 216.657 204.677 216.52 205.142 216.247C205.606 215.973 206.013 215.611 206.362 215.16L207.521 216.062C206.591 217.491 205.196 218.205 203.337 218.205ZM203.101 208.259C202.335 208.259 201.693 208.539 201.173 209.1C200.654 209.653 200.333 210.433 200.209 211.438H205.767V211.294C205.712 210.33 205.453 209.585 204.988 209.059C204.523 208.525 203.894 208.259 203.101 208.259ZM211.663 206.905L211.725 208.3C212.572 207.233 213.68 206.7 215.047 206.7C217.392 206.7 218.574 208.023 218.595 210.668V218H216.698V210.658C216.691 209.858 216.506 209.267 216.144 208.884C215.789 208.501 215.231 208.31 214.473 208.31C213.857 208.31 213.317 208.474 212.853 208.802C212.388 209.13 212.025 209.561 211.766 210.094V218H209.869V206.905H211.663ZM220.994 212.36C220.994 210.658 221.397 209.291 222.204 208.259C223.011 207.22 224.067 206.7 225.373 206.7C226.671 206.7 227.7 207.145 228.459 208.033V202.25H230.356V218H228.613L228.521 216.811C227.762 217.74 226.706 218.205 225.352 218.205C224.067 218.205 223.018 217.679 222.204 216.626C221.397 215.573 220.994 214.199 220.994 212.504V212.36ZM222.891 212.576C222.891 213.833 223.151 214.818 223.67 215.529C224.19 216.24 224.908 216.595 225.824 216.595C227.027 216.595 227.905 216.055 228.459 214.975V209.879C227.892 208.833 227.02 208.31 225.844 208.31C224.915 208.31 224.19 208.669 223.67 209.387C223.151 210.104 222.891 211.167 222.891 212.576ZM235.37 218H233.473V202.25H235.37V218ZM242.045 215.221L244.629 206.905H246.66L242.199 219.712C241.509 221.558 240.412 222.481 238.908 222.481L238.549 222.45L237.841 222.317V220.779L238.354 220.82C238.997 220.82 239.496 220.69 239.851 220.43C240.213 220.17 240.511 219.695 240.743 219.005L241.164 217.877L237.206 206.905H239.277L242.045 215.221Z" fill="white"/>
<path d="M101.144 242.293L101.431 244.262L101.852 242.488L104.805 232.07H106.466L109.347 242.488L109.757 244.293L110.075 242.283L112.393 232.07H114.372L110.752 247H108.958L105.881 236.121L105.646 234.982L105.41 236.121L102.221 247H100.426L96.8169 232.07H98.7856L101.144 242.293ZM120.544 247.205C119.041 247.205 117.817 246.713 116.874 245.729C115.93 244.737 115.458 243.415 115.458 241.76V241.412C115.458 240.311 115.667 239.33 116.084 238.469C116.508 237.601 117.096 236.924 117.848 236.438C118.606 235.946 119.427 235.7 120.309 235.7C121.751 235.7 122.872 236.175 123.672 237.125C124.472 238.076 124.872 239.436 124.872 241.207V241.996H117.355C117.383 243.09 117.701 243.975 118.309 244.652C118.924 245.322 119.704 245.657 120.647 245.657C121.317 245.657 121.884 245.52 122.349 245.247C122.814 244.973 123.221 244.611 123.569 244.16L124.728 245.062C123.798 246.491 122.404 247.205 120.544 247.205ZM120.309 237.259C119.543 237.259 118.9 237.539 118.381 238.1C117.861 238.653 117.54 239.433 117.417 240.438H122.975V240.294C122.92 239.33 122.66 238.585 122.195 238.059C121.73 237.525 121.102 237.259 120.309 237.259ZM136.469 241.576C136.469 243.271 136.079 244.635 135.3 245.667C134.521 246.692 133.475 247.205 132.162 247.205C130.761 247.205 129.677 246.709 128.912 245.718L128.819 247H127.076V231.25H128.973V237.125C129.739 236.175 130.795 235.7 132.142 235.7C133.488 235.7 134.544 236.209 135.31 237.228C136.083 238.247 136.469 239.641 136.469 241.412V241.576ZM134.572 241.36C134.572 240.068 134.322 239.07 133.823 238.366C133.324 237.662 132.606 237.31 131.67 237.31C130.419 237.31 129.52 237.891 128.973 239.053V243.852C129.554 245.014 130.46 245.595 131.69 245.595C132.6 245.595 133.307 245.243 133.813 244.539C134.319 243.835 134.572 242.775 134.572 241.36ZM140.652 235.905L140.704 237.136C141.517 236.179 142.614 235.7 143.995 235.7C145.547 235.7 146.603 236.295 147.164 237.484C147.533 236.951 148.011 236.521 148.599 236.192C149.194 235.864 149.895 235.7 150.701 235.7C153.135 235.7 154.372 236.989 154.413 239.566V247H152.516V239.679C152.516 238.886 152.335 238.294 151.973 237.905C151.61 237.508 151.002 237.31 150.147 237.31C149.443 237.31 148.859 237.522 148.394 237.946C147.929 238.363 147.659 238.927 147.584 239.638V247H145.677V239.73C145.677 238.117 144.887 237.31 143.308 237.31C142.064 237.31 141.213 237.84 140.755 238.899V247H138.858V235.905H140.652ZM164.134 247C164.024 246.781 163.936 246.392 163.867 245.831C162.985 246.747 161.933 247.205 160.709 247.205C159.615 247.205 158.716 246.897 158.012 246.282C157.315 245.66 156.966 244.874 156.966 243.924C156.966 242.769 157.404 241.873 158.279 241.237C159.161 240.595 160.398 240.273 161.991 240.273H163.836V239.402C163.836 238.739 163.638 238.212 163.242 237.823C162.845 237.426 162.261 237.228 161.488 237.228C160.812 237.228 160.244 237.399 159.786 237.741C159.328 238.083 159.099 238.496 159.099 238.981H157.192C157.192 238.428 157.387 237.895 157.776 237.382C158.173 236.862 158.706 236.452 159.376 236.151C160.053 235.851 160.794 235.7 161.601 235.7C162.879 235.7 163.881 236.021 164.605 236.664C165.33 237.3 165.706 238.178 165.733 239.299V244.406C165.733 245.424 165.863 246.234 166.123 246.836V247H164.134ZM160.986 245.554C161.581 245.554 162.145 245.4 162.678 245.093C163.211 244.785 163.597 244.385 163.836 243.893V241.617H162.35C160.025 241.617 158.863 242.297 158.863 243.657C158.863 244.252 159.062 244.717 159.458 245.052C159.854 245.387 160.364 245.554 160.986 245.554ZM170.768 247H168.871V235.905H170.768V247ZM168.717 232.962C168.717 232.655 168.81 232.395 168.994 232.183C169.186 231.971 169.466 231.865 169.835 231.865C170.204 231.865 170.484 231.971 170.676 232.183C170.867 232.395 170.963 232.655 170.963 232.962C170.963 233.27 170.867 233.526 170.676 233.731C170.484 233.937 170.204 234.039 169.835 234.039C169.466 234.039 169.186 233.937 168.994 233.731C168.81 233.526 168.717 233.27 168.717 232.962ZM175.875 247H173.978V231.25H175.875V247ZM188.825 240.345C187.137 239.86 185.906 239.265 185.134 238.561C184.368 237.85 183.985 236.975 183.985 235.936C183.985 234.76 184.454 233.79 185.39 233.024C186.333 232.251 187.557 231.865 189.061 231.865C190.086 231.865 190.999 232.063 191.799 232.46C192.605 232.856 193.228 233.403 193.665 234.101C194.109 234.798 194.332 235.56 194.332 236.387H192.353C192.353 235.485 192.065 234.777 191.491 234.265C190.917 233.745 190.107 233.485 189.061 233.485C188.09 233.485 187.332 233.701 186.785 234.131C186.245 234.555 185.975 235.146 185.975 235.905C185.975 236.514 186.231 237.03 186.744 237.454C187.263 237.871 188.142 238.253 189.379 238.602C190.623 238.951 191.594 239.337 192.291 239.761C192.995 240.178 193.515 240.667 193.85 241.227C194.191 241.788 194.362 242.447 194.362 243.206C194.362 244.416 193.891 245.387 192.947 246.118C192.004 246.843 190.743 247.205 189.164 247.205C188.138 247.205 187.181 247.01 186.292 246.621C185.404 246.224 184.717 245.684 184.231 245C183.753 244.317 183.514 243.541 183.514 242.673H185.493C185.493 243.575 185.824 244.29 186.487 244.816C187.157 245.335 188.049 245.595 189.164 245.595C190.203 245.595 190.999 245.383 191.553 244.959C192.106 244.536 192.383 243.958 192.383 243.227C192.383 242.495 192.127 241.931 191.614 241.535C191.102 241.131 190.172 240.735 188.825 240.345ZM203.447 245.903C202.709 246.771 201.625 247.205 200.197 247.205C199.014 247.205 198.112 246.863 197.49 246.18C196.875 245.489 196.563 244.471 196.557 243.124V235.905H198.454V243.073C198.454 244.754 199.137 245.595 200.504 245.595C201.954 245.595 202.917 245.055 203.396 243.975V235.905H205.293V247H203.488L203.447 245.903ZM217.557 241.576C217.557 243.264 217.17 244.625 216.398 245.657C215.625 246.689 214.58 247.205 213.26 247.205C211.914 247.205 210.854 246.778 210.082 245.923V251.266H208.185V235.905H209.917L210.01 237.136C210.782 236.179 211.855 235.7 213.229 235.7C214.562 235.7 215.615 236.203 216.388 237.208C217.167 238.212 217.557 239.61 217.557 241.401V241.576ZM215.66 241.36C215.66 240.109 215.393 239.122 214.86 238.397C214.327 237.672 213.595 237.31 212.666 237.31C211.517 237.31 210.656 237.819 210.082 238.838V244.139C210.649 245.151 211.517 245.657 212.686 245.657C213.595 245.657 214.316 245.298 214.85 244.58C215.39 243.855 215.66 242.782 215.66 241.36ZM229.349 241.576C229.349 243.264 228.962 244.625 228.19 245.657C227.417 246.689 226.372 247.205 225.052 247.205C223.706 247.205 222.646 246.778 221.874 245.923V251.266H219.977V235.905H221.709L221.802 237.136C222.574 236.179 223.647 235.7 225.021 235.7C226.354 235.7 227.407 236.203 228.18 237.208C228.959 238.212 229.349 239.61 229.349 241.401V241.576ZM227.452 241.36C227.452 240.109 227.185 239.122 226.652 238.397C226.119 237.672 225.387 237.31 224.458 237.31C223.309 237.31 222.448 237.819 221.874 238.838V244.139C222.441 245.151 223.309 245.657 224.478 245.657C225.387 245.657 226.108 245.298 226.642 244.58C227.182 243.855 227.452 242.782 227.452 241.36ZM231.266 241.35C231.266 240.263 231.478 239.286 231.902 238.417C232.333 237.549 232.927 236.879 233.686 236.408C234.452 235.936 235.323 235.7 236.301 235.7C237.812 235.7 239.032 236.223 239.961 237.269C240.898 238.315 241.366 239.706 241.366 241.442V241.576C241.366 242.656 241.158 243.626 240.741 244.488C240.331 245.342 239.739 246.009 238.967 246.487C238.201 246.966 237.319 247.205 236.321 247.205C234.817 247.205 233.597 246.682 232.661 245.636C231.731 244.59 231.266 243.206 231.266 241.483V241.35ZM233.173 241.576C233.173 242.806 233.457 243.794 234.024 244.539C234.599 245.284 235.364 245.657 236.321 245.657C237.285 245.657 238.051 245.281 238.618 244.529C239.186 243.77 239.469 242.71 239.469 241.35C239.469 240.133 239.179 239.149 238.598 238.397C238.023 237.638 237.258 237.259 236.301 237.259C235.364 237.259 234.609 237.631 234.035 238.376C233.46 239.122 233.173 240.188 233.173 241.576ZM249.108 237.607C248.821 237.56 248.51 237.536 248.175 237.536C246.931 237.536 246.086 238.065 245.642 239.125V247H243.745V235.905H245.591L245.622 237.187C246.244 236.196 247.125 235.7 248.267 235.7C248.636 235.7 248.917 235.748 249.108 235.844V237.607ZM253.948 233.219V235.905H256.019V237.372H253.948V244.252C253.948 244.696 254.04 245.031 254.225 245.257C254.409 245.476 254.724 245.585 255.168 245.585C255.387 245.585 255.688 245.544 256.07 245.462V247C255.571 247.137 255.086 247.205 254.614 247.205C253.767 247.205 253.127 246.949 252.697 246.436C252.266 245.923 252.051 245.195 252.051 244.252V237.372H250.031V235.905H252.051V233.219H253.948Z" fill="white"/>
<path d="M78.7314 300.263C78.5469 301.842 77.9624 303.062 76.978 303.923C76.0005 304.778 74.6982 305.205 73.0713 305.205C71.3076 305.205 69.8926 304.573 68.8262 303.308C67.7666 302.043 67.2368 300.352 67.2368 298.232V296.797C67.2368 295.409 67.4829 294.189 67.9751 293.136C68.4741 292.083 69.1782 291.277 70.0874 290.716C70.9966 290.149 72.0493 289.865 73.2456 289.865C74.8315 289.865 76.103 290.31 77.0601 291.198C78.0171 292.08 78.5742 293.304 78.7314 294.869H76.7524C76.5815 293.68 76.209 292.818 75.6348 292.285C75.0674 291.752 74.271 291.485 73.2456 291.485C71.9878 291.485 71 291.95 70.2822 292.88C69.5713 293.81 69.2158 295.132 69.2158 296.848V298.294C69.2158 299.914 69.5542 301.203 70.231 302.16C70.9077 303.117 71.8545 303.595 73.0713 303.595C74.165 303.595 75.0024 303.349 75.5835 302.857C76.1714 302.358 76.561 301.493 76.7524 300.263H78.7314ZM87.9805 303.903C87.2422 304.771 86.1587 305.205 84.73 305.205C83.5474 305.205 82.645 304.863 82.0229 304.18C81.4077 303.489 81.0967 302.471 81.0898 301.124V293.905H82.9868V301.073C82.9868 302.754 83.6704 303.595 85.0376 303.595C86.4868 303.595 87.4507 303.055 87.9292 301.975V293.905H89.8262V305H88.0215L87.9805 303.903ZM99.1777 302.057C99.1777 301.544 98.9829 301.148 98.5933 300.868C98.2104 300.581 97.5371 300.334 96.5732 300.129C95.6162 299.924 94.854 299.678 94.2866 299.391C93.7261 299.104 93.3091 298.762 93.0356 298.366C92.769 297.969 92.6357 297.498 92.6357 296.951C92.6357 296.042 93.0186 295.272 93.7842 294.644C94.5566 294.015 95.541 293.7 96.7373 293.7C97.9951 293.7 99.0137 294.025 99.793 294.674C100.579 295.324 100.972 296.154 100.972 297.166H99.0649C99.0649 296.646 98.8428 296.199 98.3984 295.823C97.9609 295.447 97.4072 295.259 96.7373 295.259C96.0469 295.259 95.5068 295.409 95.1172 295.71C94.7275 296.011 94.5327 296.404 94.5327 296.889C94.5327 297.347 94.7139 297.692 95.0762 297.925C95.4385 298.157 96.0913 298.379 97.0347 298.591C97.9849 298.803 98.7539 299.056 99.3418 299.35C99.9297 299.644 100.364 300 100.644 300.417C100.931 300.827 101.075 301.329 101.075 301.924C101.075 302.915 100.678 303.711 99.8853 304.313C99.0923 304.908 98.0635 305.205 96.7988 305.205C95.9102 305.205 95.124 305.048 94.4404 304.733C93.7568 304.419 93.2202 303.981 92.8306 303.421C92.4478 302.854 92.2563 302.242 92.2563 301.585H94.1533C94.1875 302.221 94.4404 302.727 94.9121 303.103C95.3906 303.472 96.0195 303.657 96.7988 303.657C97.5166 303.657 98.0908 303.513 98.5215 303.226C98.959 302.932 99.1777 302.542 99.1777 302.057ZM106.12 291.219V293.905H108.191V295.372H106.12V302.252C106.12 302.696 106.212 303.031 106.396 303.257C106.581 303.476 106.896 303.585 107.34 303.585C107.559 303.585 107.859 303.544 108.242 303.462V305C107.743 305.137 107.258 305.205 106.786 305.205C105.938 305.205 105.299 304.949 104.869 304.436C104.438 303.923 104.223 303.195 104.223 302.252V295.372H102.203V293.905H104.223V291.219H106.12ZM109.708 299.35C109.708 298.263 109.92 297.286 110.344 296.417C110.775 295.549 111.37 294.879 112.128 294.408C112.894 293.936 113.766 293.7 114.743 293.7C116.254 293.7 117.474 294.223 118.404 295.269C119.34 296.315 119.809 297.706 119.809 299.442V299.576C119.809 300.656 119.6 301.626 119.183 302.488C118.773 303.342 118.182 304.009 117.409 304.487C116.644 304.966 115.762 305.205 114.764 305.205C113.26 305.205 112.04 304.682 111.103 303.636C110.173 302.59 109.708 301.206 109.708 299.483V299.35ZM111.616 299.576C111.616 300.806 111.899 301.794 112.467 302.539C113.041 303.284 113.807 303.657 114.764 303.657C115.728 303.657 116.493 303.281 117.061 302.529C117.628 301.77 117.912 300.71 117.912 299.35C117.912 298.133 117.621 297.149 117.04 296.397C116.466 295.638 115.7 295.259 114.743 295.259C113.807 295.259 113.051 295.631 112.477 296.376C111.903 297.122 111.616 298.188 111.616 299.576ZM123.972 293.905L124.023 295.136C124.836 294.179 125.934 293.7 127.314 293.7C128.866 293.7 129.922 294.295 130.483 295.484C130.852 294.951 131.331 294.521 131.918 294.192C132.513 293.864 133.214 293.7 134.021 293.7C136.454 293.7 137.691 294.989 137.732 297.566V305H135.835V297.679C135.835 296.886 135.654 296.294 135.292 295.905C134.93 295.508 134.321 295.31 133.467 295.31C132.763 295.31 132.178 295.522 131.713 295.946C131.249 296.363 130.979 296.927 130.903 297.638V305H128.996V297.73C128.996 296.117 128.207 295.31 126.627 295.31C125.383 295.31 124.532 295.84 124.074 296.899V305H122.177V293.905H123.972ZM145.208 305.205C143.704 305.205 142.48 304.713 141.537 303.729C140.593 302.737 140.122 301.415 140.122 299.76V299.412C140.122 298.311 140.33 297.33 140.747 296.469C141.171 295.601 141.759 294.924 142.511 294.438C143.27 293.946 144.09 293.7 144.972 293.7C146.414 293.7 147.535 294.175 148.335 295.125C149.135 296.076 149.535 297.436 149.535 299.207V299.996H142.019C142.046 301.09 142.364 301.975 142.972 302.652C143.587 303.322 144.367 303.657 145.31 303.657C145.98 303.657 146.547 303.52 147.012 303.247C147.477 302.973 147.884 302.611 148.232 302.16L149.391 303.062C148.461 304.491 147.067 305.205 145.208 305.205ZM144.972 295.259C144.206 295.259 143.563 295.539 143.044 296.1C142.524 296.653 142.203 297.433 142.08 298.438H147.638V298.294C147.583 297.33 147.323 296.585 146.858 296.059C146.394 295.525 145.765 295.259 144.972 295.259ZM157.102 295.607C156.815 295.56 156.504 295.536 156.169 295.536C154.925 295.536 154.081 296.065 153.636 297.125V305H151.739V293.905H153.585L153.616 295.187C154.238 294.196 155.12 293.7 156.261 293.7C156.63 293.7 156.911 293.748 157.102 293.844V295.607ZM168.761 298.345C167.072 297.86 165.842 297.265 165.069 296.561C164.304 295.85 163.921 294.975 163.921 293.936C163.921 292.76 164.389 291.79 165.326 291.024C166.269 290.251 167.493 289.865 168.997 289.865C170.022 289.865 170.935 290.063 171.734 290.46C172.541 290.856 173.163 291.403 173.601 292.101C174.045 292.798 174.267 293.56 174.267 294.387H172.288C172.288 293.485 172.001 292.777 171.427 292.265C170.853 291.745 170.042 291.485 168.997 291.485C168.026 291.485 167.267 291.701 166.72 292.131C166.18 292.555 165.91 293.146 165.91 293.905C165.91 294.514 166.167 295.03 166.679 295.454C167.199 295.871 168.077 296.253 169.314 296.602C170.559 296.951 171.529 297.337 172.227 297.761C172.931 298.178 173.45 298.667 173.785 299.227C174.127 299.788 174.298 300.447 174.298 301.206C174.298 302.416 173.826 303.387 172.883 304.118C171.939 304.843 170.678 305.205 169.099 305.205C168.074 305.205 167.117 305.01 166.228 304.621C165.339 304.224 164.652 303.684 164.167 303C163.688 302.317 163.449 301.541 163.449 300.673H165.428C165.428 301.575 165.76 302.29 166.423 302.816C167.093 303.335 167.985 303.595 169.099 303.595C170.138 303.595 170.935 303.383 171.488 302.959C172.042 302.536 172.319 301.958 172.319 301.227C172.319 300.495 172.062 299.931 171.55 299.535C171.037 299.131 170.107 298.735 168.761 298.345ZM183.383 303.903C182.645 304.771 181.561 305.205 180.132 305.205C178.95 305.205 178.047 304.863 177.425 304.18C176.81 303.489 176.499 302.471 176.492 301.124V293.905H178.389V301.073C178.389 302.754 179.073 303.595 180.44 303.595C181.889 303.595 182.853 303.055 183.332 301.975V293.905H185.229V305H183.424L183.383 303.903ZM197.492 299.576C197.492 301.264 197.106 302.625 196.333 303.657C195.561 304.689 194.515 305.205 193.196 305.205C191.849 305.205 190.79 304.778 190.017 303.923V309.266H188.12V293.905H189.853L189.945 295.136C190.718 294.179 191.791 293.7 193.165 293.7C194.498 293.7 195.551 294.203 196.323 295.208C197.103 296.212 197.492 297.61 197.492 299.401V299.576ZM195.595 299.36C195.595 298.109 195.329 297.122 194.795 296.397C194.262 295.672 193.531 295.31 192.601 295.31C191.453 295.31 190.591 295.819 190.017 296.838V302.139C190.584 303.151 191.453 303.657 192.622 303.657C193.531 303.657 194.252 303.298 194.785 302.58C195.325 301.855 195.595 300.782 195.595 299.36ZM209.284 299.576C209.284 301.264 208.898 302.625 208.125 303.657C207.353 304.689 206.307 305.205 204.988 305.205C203.641 305.205 202.582 304.778 201.809 303.923V309.266H199.912V293.905H201.645L201.737 295.136C202.51 294.179 203.583 293.7 204.957 293.7C206.29 293.7 207.343 294.203 208.115 295.208C208.895 296.212 209.284 297.61 209.284 299.401V299.576ZM207.387 299.36C207.387 298.109 207.121 297.122 206.587 296.397C206.054 295.672 205.323 295.31 204.393 295.31C203.245 295.31 202.383 295.819 201.809 296.838V302.139C202.376 303.151 203.245 303.657 204.414 303.657C205.323 303.657 206.044 303.298 206.577 302.58C207.117 301.855 207.387 300.782 207.387 299.36ZM211.202 299.35C211.202 298.263 211.414 297.286 211.837 296.417C212.268 295.549 212.863 294.879 213.622 294.408C214.387 293.936 215.259 293.7 216.236 293.7C217.747 293.7 218.967 294.223 219.897 295.269C220.833 296.315 221.302 297.706 221.302 299.442V299.576C221.302 300.656 221.093 301.626 220.676 302.488C220.266 303.342 219.675 304.009 218.902 304.487C218.137 304.966 217.255 305.205 216.257 305.205C214.753 305.205 213.533 304.682 212.596 303.636C211.667 302.59 211.202 301.206 211.202 299.483V299.35ZM213.109 299.576C213.109 300.806 213.393 301.794 213.96 302.539C214.534 303.284 215.3 303.657 216.257 303.657C217.221 303.657 217.986 303.281 218.554 302.529C219.121 301.77 219.405 300.71 219.405 299.35C219.405 298.133 219.114 297.149 218.533 296.397C217.959 295.638 217.193 295.259 216.236 295.259C215.3 295.259 214.544 295.631 213.97 296.376C213.396 297.122 213.109 298.188 213.109 299.576ZM229.043 295.607C228.756 295.56 228.445 295.536 228.11 295.536C226.866 295.536 226.022 296.065 225.578 297.125V305H223.681V293.905H225.526L225.557 295.187C226.179 294.196 227.061 293.7 228.203 293.7C228.572 293.7 228.852 293.748 229.043 293.844V295.607ZM233.883 291.219V293.905H235.955V295.372H233.883V302.252C233.883 302.696 233.976 303.031 234.16 303.257C234.345 303.476 234.659 303.585 235.104 303.585C235.322 303.585 235.623 303.544 236.006 303.462V305C235.507 305.137 235.021 305.205 234.55 305.205C233.702 305.205 233.063 304.949 232.632 304.436C232.202 303.923 231.986 303.195 231.986 302.252V295.372H229.966V293.905H231.986V291.219H233.883ZM252.976 305H243.194V303.636L248.362 297.894C249.127 297.026 249.654 296.322 249.941 295.782C250.235 295.235 250.382 294.671 250.382 294.09C250.382 293.311 250.146 292.671 249.674 292.172C249.203 291.673 248.574 291.424 247.788 291.424C246.844 291.424 246.109 291.694 245.583 292.234C245.063 292.767 244.804 293.512 244.804 294.469H242.907C242.907 293.095 243.348 291.984 244.229 291.137C245.118 290.289 246.304 289.865 247.788 289.865C249.175 289.865 250.272 290.231 251.079 290.962C251.886 291.687 252.289 292.654 252.289 293.864C252.289 295.334 251.353 297.084 249.479 299.114L245.48 303.452H252.976V305ZM262.994 299.986H265.065V301.534H262.994V305H261.087V301.534H254.289V300.417L260.974 290.07H262.994V299.986ZM256.442 299.986H261.087V292.665L260.861 293.075L256.442 299.986ZM267.352 306.282H265.722L271.956 290.07H273.576L267.352 306.282ZM285.071 291.137L278.888 305H276.898L283.061 291.629H274.981V290.07H285.071V291.137Z" fill="white"/>
<path d="M80.9565 276V261.07H85.1709C86.4697 261.07 87.6182 261.357 88.6162 261.932C89.6143 262.506 90.3833 263.323 90.9233 264.382C91.4702 265.442 91.7471 266.659 91.7539 268.033V268.986C91.7539 270.395 91.4805 271.628 90.9336 272.688C90.3936 273.748 89.6177 274.561 88.606 275.128C87.6011 275.696 86.4287 275.986 85.0889 276H80.9565ZM82.9253 262.69V274.39H84.9966C86.5142 274.39 87.6934 273.918 88.5342 272.975C89.3818 272.032 89.8057 270.688 89.8057 268.945V268.074C89.8057 266.378 89.4058 265.062 88.606 264.126C87.813 263.183 86.6851 262.704 85.2222 262.69H82.9253ZM99.0444 276.205C97.5405 276.205 96.3169 275.713 95.3735 274.729C94.4302 273.737 93.9585 272.415 93.9585 270.76V270.412C93.9585 269.311 94.167 268.33 94.584 267.469C95.0078 266.601 95.5957 265.924 96.3477 265.438C97.1064 264.946 97.9268 264.7 98.8086 264.7C100.251 264.7 101.372 265.175 102.172 266.125C102.972 267.076 103.372 268.436 103.372 270.207V270.996H95.8555C95.8828 272.09 96.2007 272.975 96.8091 273.652C97.4243 274.322 98.2036 274.657 99.147 274.657C99.8169 274.657 100.384 274.52 100.849 274.247C101.314 273.973 101.721 273.611 102.069 273.16L103.228 274.062C102.298 275.491 100.904 276.205 99.0444 276.205ZM98.8086 266.259C98.043 266.259 97.4004 266.539 96.8809 267.1C96.3613 267.653 96.04 268.433 95.917 269.438H101.475V269.294C101.42 268.33 101.16 267.585 100.695 267.059C100.23 266.525 99.6016 266.259 98.8086 266.259ZM107.637 276H105.74V260.25H107.637V276ZM112.744 276H110.847V264.905H112.744V276ZM110.693 261.962C110.693 261.655 110.785 261.395 110.97 261.183C111.161 260.971 111.441 260.865 111.811 260.865C112.18 260.865 112.46 260.971 112.651 261.183C112.843 261.395 112.938 261.655 112.938 261.962C112.938 262.27 112.843 262.526 112.651 262.731C112.46 262.937 112.18 263.039 111.811 263.039C111.441 263.039 111.161 262.937 110.97 262.731C110.785 262.526 110.693 262.27 110.693 261.962ZM119.45 273.426L122.198 264.905H124.136L120.157 276H118.711L114.692 264.905H116.63L119.45 273.426ZM130.421 276.205C128.917 276.205 127.694 275.713 126.75 274.729C125.807 273.737 125.335 272.415 125.335 270.76V270.412C125.335 269.311 125.544 268.33 125.961 267.469C126.385 266.601 126.973 265.924 127.725 265.438C128.483 264.946 129.304 264.7 130.186 264.7C131.628 264.7 132.749 265.175 133.549 266.125C134.349 267.076 134.749 268.436 134.749 270.207V270.996H127.232C127.26 272.09 127.578 272.975 128.186 273.652C128.801 274.322 129.581 274.657 130.524 274.657C131.194 274.657 131.761 274.52 132.226 274.247C132.691 273.973 133.098 273.611 133.446 273.16L134.605 274.062C133.675 275.491 132.281 276.205 130.421 276.205ZM130.186 266.259C129.42 266.259 128.777 266.539 128.258 267.1C127.738 267.653 127.417 268.433 127.294 269.438H132.852V269.294C132.797 268.33 132.537 267.585 132.072 267.059C131.607 266.525 130.979 266.259 130.186 266.259ZM142.316 266.607C142.029 266.56 141.718 266.536 141.383 266.536C140.139 266.536 139.294 267.065 138.85 268.125V276H136.953V264.905H138.799L138.83 266.187C139.452 265.196 140.333 264.7 141.475 264.7C141.844 264.7 142.125 264.748 142.316 264.844V266.607ZM147.884 273.221L150.468 264.905H152.498L148.038 277.712C147.347 279.558 146.25 280.481 144.746 280.481L144.387 280.45L143.68 280.317V278.779L144.192 278.82C144.835 278.82 145.334 278.69 145.689 278.43C146.052 278.17 146.349 277.695 146.582 277.005L147.002 275.877L143.044 264.905H145.115L147.884 273.221ZM169.612 262.69H164.813V276H162.854V262.69H158.066V261.07H169.612V262.69ZM173.59 276H171.693V264.905H173.59V276ZM171.54 261.962C171.54 261.655 171.632 261.395 171.816 261.183C172.008 260.971 172.288 260.865 172.657 260.865C173.026 260.865 173.307 260.971 173.498 261.183C173.689 261.395 173.785 261.655 173.785 261.962C173.785 262.27 173.689 262.526 173.498 262.731C173.307 262.937 173.026 263.039 172.657 263.039C172.288 263.039 172.008 262.937 171.816 262.731C171.632 262.526 171.54 262.27 171.54 261.962ZM178.42 264.905L178.471 266.136C179.285 265.179 180.382 264.7 181.763 264.7C183.314 264.7 184.371 265.295 184.931 266.484C185.3 265.951 185.779 265.521 186.367 265.192C186.961 264.864 187.662 264.7 188.469 264.7C190.902 264.7 192.14 265.989 192.181 268.566V276H190.284V268.679C190.284 267.886 190.103 267.294 189.74 266.905C189.378 266.508 188.77 266.31 187.915 266.31C187.211 266.31 186.626 266.522 186.162 266.946C185.697 267.363 185.427 267.927 185.352 268.638V276H183.444V268.73C183.444 267.117 182.655 266.31 181.076 266.31C179.832 266.31 178.98 266.84 178.522 267.899V276H176.625V264.905H178.42ZM199.656 276.205C198.152 276.205 196.928 275.713 195.985 274.729C195.042 273.737 194.57 272.415 194.57 270.76V270.412C194.57 269.311 194.778 268.33 195.195 267.469C195.619 266.601 196.207 265.924 196.959 265.438C197.718 264.946 198.538 264.7 199.42 264.7C200.862 264.7 201.983 265.175 202.783 266.125C203.583 267.076 203.983 268.436 203.983 270.207V270.996H196.467C196.494 272.09 196.812 272.975 197.42 273.652C198.036 274.322 198.815 274.657 199.758 274.657C200.428 274.657 200.996 274.52 201.46 274.247C201.925 273.973 202.332 273.611 202.681 273.16L203.839 274.062C202.91 275.491 201.515 276.205 199.656 276.205ZM199.42 266.259C198.654 266.259 198.012 266.539 197.492 267.1C196.973 267.653 196.651 268.433 196.528 269.438H202.086V269.294C202.031 268.33 201.771 267.585 201.307 267.059C200.842 266.525 200.213 266.259 199.42 266.259ZM220.984 276H211.202V274.636L216.37 268.894C217.135 268.026 217.662 267.322 217.949 266.782C218.243 266.235 218.39 265.671 218.39 265.09C218.39 264.311 218.154 263.671 217.682 263.172C217.21 262.673 216.582 262.424 215.795 262.424C214.852 262.424 214.117 262.694 213.591 263.234C213.071 263.767 212.812 264.512 212.812 265.469H210.915C210.915 264.095 211.355 262.984 212.237 262.137C213.126 261.289 214.312 260.865 215.795 260.865C217.183 260.865 218.28 261.231 219.087 261.962C219.894 262.687 220.297 263.654 220.297 264.864C220.297 266.334 219.36 268.084 217.487 270.114L213.488 274.452H220.984V276ZM228.695 276V261.07H232.909C234.208 261.07 235.356 261.357 236.354 261.932C237.353 262.506 238.122 263.323 238.662 264.382C239.208 265.442 239.485 266.659 239.492 268.033V268.986C239.492 270.395 239.219 271.628 238.672 272.688C238.132 273.748 237.356 274.561 236.344 275.128C235.339 275.696 234.167 275.986 232.827 276H228.695ZM230.664 262.69V274.39H232.735C234.252 274.39 235.432 273.918 236.272 272.975C237.12 272.032 237.544 270.688 237.544 268.945V268.074C237.544 266.378 237.144 265.062 236.344 264.126C235.551 263.183 234.423 262.704 232.96 262.69H230.664ZM249.028 276C248.919 275.781 248.83 275.392 248.762 274.831C247.88 275.747 246.827 276.205 245.604 276.205C244.51 276.205 243.611 275.897 242.907 275.282C242.209 274.66 241.861 273.874 241.861 272.924C241.861 271.769 242.298 270.873 243.173 270.237C244.055 269.595 245.292 269.273 246.885 269.273H248.731V268.402C248.731 267.739 248.533 267.212 248.136 266.823C247.74 266.426 247.155 266.228 246.383 266.228C245.706 266.228 245.139 266.399 244.681 266.741C244.223 267.083 243.994 267.496 243.994 267.981H242.086C242.086 267.428 242.281 266.895 242.671 266.382C243.067 265.862 243.601 265.452 244.271 265.151C244.947 264.851 245.689 264.7 246.496 264.7C247.774 264.7 248.775 265.021 249.5 265.664C250.225 266.3 250.601 267.178 250.628 268.299V273.406C250.628 274.424 250.758 275.234 251.018 275.836V276H249.028ZM245.88 274.554C246.475 274.554 247.039 274.4 247.572 274.093C248.105 273.785 248.492 273.385 248.731 272.893V270.617H247.244C244.92 270.617 243.758 271.297 243.758 272.657C243.758 273.252 243.956 273.717 244.353 274.052C244.749 274.387 245.258 274.554 245.88 274.554ZM257.067 273.221L259.651 264.905H261.682L257.221 277.712C256.531 279.558 255.434 280.481 253.93 280.481L253.571 280.45L252.863 280.317V278.779L253.376 278.82C254.019 278.82 254.518 278.69 254.873 278.43C255.235 278.17 255.533 277.695 255.765 277.005L256.186 275.877L252.228 264.905H254.299L257.067 273.221ZM269.844 273.057C269.844 272.544 269.649 272.148 269.259 271.868C268.876 271.581 268.203 271.334 267.239 271.129C266.282 270.924 265.52 270.678 264.953 270.391C264.392 270.104 263.975 269.762 263.702 269.366C263.435 268.969 263.302 268.498 263.302 267.951C263.302 267.042 263.685 266.272 264.45 265.644C265.223 265.015 266.207 264.7 267.403 264.7C268.661 264.7 269.68 265.025 270.459 265.674C271.245 266.324 271.638 267.154 271.638 268.166H269.731C269.731 267.646 269.509 267.199 269.064 266.823C268.627 266.447 268.073 266.259 267.403 266.259C266.713 266.259 266.173 266.409 265.783 266.71C265.394 267.011 265.199 267.404 265.199 267.889C265.199 268.347 265.38 268.692 265.742 268.925C266.104 269.157 266.757 269.379 267.701 269.591C268.651 269.803 269.42 270.056 270.008 270.35C270.596 270.644 271.03 271 271.31 271.417C271.597 271.827 271.741 272.329 271.741 272.924C271.741 273.915 271.344 274.711 270.551 275.313C269.758 275.908 268.729 276.205 267.465 276.205C266.576 276.205 265.79 276.048 265.106 275.733C264.423 275.419 263.886 274.981 263.497 274.421C263.114 273.854 262.922 273.242 262.922 272.585H264.819C264.854 273.221 265.106 273.727 265.578 274.103C266.057 274.472 266.686 274.657 267.465 274.657C268.183 274.657 268.757 274.513 269.188 274.226C269.625 273.932 269.844 273.542 269.844 273.057Z" fill="white"/>
<defs>
<filter id="filter0_d_65_19" x="96.9458" y="33.1172" width="159.091" height="33.2246" filterUnits="userSpaceOnUse" color-interpolation-filters="sRGB">
<feFlood flood-opacity="0" result="BackgroundImageFix"/>
<feColorMatrix in="SourceAlpha" type="matrix" values="0 0 0 0 0 0 0 0 0 0 0 0 0 0 0 0 0 0 127 0" result="hardAlpha"/>
<feOffset dy="4"/>
<feGaussianBlur stdDeviation="2"/>
<feComposite in2="hardAlpha" operator="out"/>
<feColorMatrix type="matrix" values="0 0 0 0 0 0 0 0 0 0 0 0 0 0 0 0 0 0 0.25 0"/>
<feBlend mode="normal" in2="BackgroundImageFix" result="effect1_dropShadow_65_19"/>
<feBlend mode="normal" in="SourceGraphic" in2="effect1_dropShadow_65_19" result="shape"/>
</filter>
<linearGradient id="paint0_linear_65_19" x1="176.5" y1="106.452" x2="176.5" y2="-290.968" gradientUnits="userSpaceOnUse">
<stop stop-color="#5B5BD9"/>
<stop offset="1" stop-color="#5B5BD9" stop-opacity="0"/>
</linearGradient>
<linearGradient id="paint1_linear_65_19" x1="227.85" y1="352.363" x2="228.254" y2="492" gradientUnits="userSpaceOnUse">
<stop offset="0.5" stop-color="#5B5BD9"/>
<stop offset="1" stop-color="#5B5BD9" stop-opacity="0"/>
</linearGradient>
<linearGradient id="paint2_linear_65_19" x1="90.1588" y1="551.11" x2="90.1588" y2="405.477" gradientUnits="userSpaceOnUse">
<stop offset="0.59375" stop-color="#5656CA"/>
<stop offset="1" stop-color="#5656CA" stop-opacity="0"/>
</linearGradient>
</defs>
</svg>
