<svg width="388" height="558" viewBox="0 0 388 558" fill="none" xmlns="http://www.w3.org/2000/svg">
<rect width="388" height="558" fill="url(#paint0_linear_46_5)" fill-opacity="0.71"/>
<rect x="1" y="1" width="386" height="556" stroke="white" stroke-opacity="0.42" stroke-width="2"/>
<g filter="url(#filter0_d_46_5)">
<path d="M133.172 43.2256C130.438 42.4398 128.446 41.4769 127.195 40.3369C125.956 39.1859 125.336 37.7692 125.336 36.0869C125.336 34.1833 126.094 32.6117 127.61 31.3721C129.138 30.1214 131.119 29.4961 133.554 29.4961C135.214 29.4961 136.691 29.8171 137.986 30.459C139.292 31.1009 140.299 31.9863 141.008 33.1152C141.727 34.2441 142.087 35.4782 142.087 36.8174H138.883C138.883 35.3564 138.418 34.2109 137.488 33.3809C136.559 32.5397 135.247 32.1191 133.554 32.1191C131.982 32.1191 130.754 32.4678 129.868 33.165C128.994 33.8512 128.557 34.8086 128.557 36.0371C128.557 37.0221 128.972 37.8577 129.802 38.5439C130.643 39.2191 132.065 39.8389 134.068 40.4033C136.083 40.9678 137.654 41.5931 138.783 42.2793C139.923 42.9544 140.764 43.7458 141.307 44.6533C141.86 45.5609 142.137 46.6289 142.137 47.8574C142.137 49.8164 141.373 51.388 139.846 52.5723C138.318 53.7454 136.276 54.332 133.72 54.332C132.06 54.332 130.51 54.0166 129.071 53.3857C127.632 52.7438 126.52 51.8695 125.734 50.7627C124.96 49.6559 124.572 48.3997 124.572 46.9941H127.776C127.776 48.4551 128.313 49.6117 129.387 50.4639C130.471 51.305 131.916 51.7256 133.72 51.7256C135.402 51.7256 136.691 51.3825 137.588 50.6963C138.484 50.0101 138.933 49.0749 138.933 47.8906C138.933 46.7064 138.518 45.7933 137.688 45.1514C136.857 44.4984 135.352 43.8564 133.172 43.2256ZM162.938 32.4512H155.169V54H151.998V32.4512H144.245V29.8281H162.938V32.4512ZM178.544 47.6914H168.417L166.143 54H162.855L172.086 29.8281H174.875L184.122 54H180.852L178.544 47.6914ZM169.38 45.0684H177.598L173.48 33.7627L169.38 45.0684ZM196.241 44.2217H190.563V54H187.359V29.8281H195.361C198.084 29.8281 200.176 30.4479 201.637 31.6875C203.109 32.9271 203.845 34.7311 203.845 37.0996C203.845 38.6048 203.435 39.9163 202.616 41.0342C201.808 42.152 200.679 42.9876 199.229 43.541L204.907 53.8008V54H201.487L196.241 44.2217ZM190.563 41.6152H195.461C197.044 41.6152 198.3 41.2057 199.229 40.3867C200.17 39.5677 200.641 38.472 200.641 37.0996C200.641 35.6055 200.192 34.46 199.296 33.6631C198.41 32.8662 197.127 32.4622 195.444 32.4512H190.563V41.6152ZM223.7 32.4512H215.931V54H212.76V32.4512H205.007V29.8281H223.7V32.4512ZM240.949 42.8271H230.474V51.3936H242.643V54H227.286V29.8281H242.477V32.4512H230.474V40.2207H240.949V42.8271ZM255.476 44.2217H249.798V54H246.594V29.8281H254.596C257.318 29.8281 259.41 30.4479 260.871 31.6875C262.343 32.9271 263.079 34.7311 263.079 37.0996C263.079 38.6048 262.67 39.9163 261.851 41.0342C261.043 42.152 259.914 42.9876 258.464 43.541L264.142 53.8008V54H260.722L255.476 44.2217ZM249.798 41.6152H254.695C256.278 41.6152 257.534 41.2057 258.464 40.3867C259.405 39.5677 259.875 38.472 259.875 37.0996C259.875 35.6055 259.427 34.46 258.53 33.6631C257.645 32.8662 256.361 32.4622 254.679 32.4512H249.798V41.6152Z" fill="#DCAC65"/>
</g>
<path d="M386 393L132 542.603L117 556H386V393Z" fill="url(#paint1_linear_46_5)"/>
<path d="M194 556L2 466V556H194Z" fill="url(#paint2_linear_46_5)"/>
<line x1="73" y1="74.5" x2="315" y2="74.5" stroke="white"/>
<path d="M126.949 103.761C124.859 103.16 123.335 102.424 122.379 101.552C121.431 100.672 120.957 99.5882 120.957 98.3018C120.957 96.846 121.537 95.6442 122.696 94.6963C123.864 93.7399 125.379 93.2617 127.241 93.2617C128.511 93.2617 129.641 93.5072 130.631 93.998C131.63 94.4889 132.4 95.166 132.941 96.0293C133.492 96.8926 133.767 97.8363 133.767 98.8604H131.316C131.316 97.7432 130.961 96.8672 130.25 96.2324C129.539 95.5892 128.536 95.2676 127.241 95.2676C126.039 95.2676 125.1 95.5342 124.423 96.0674C123.754 96.5921 123.42 97.3242 123.42 98.2637C123.42 99.0169 123.737 99.6559 124.372 100.181C125.015 100.697 126.103 101.171 127.635 101.603C129.175 102.034 130.377 102.512 131.24 103.037C132.112 103.553 132.755 104.159 133.17 104.853C133.593 105.547 133.805 106.363 133.805 107.303C133.805 108.801 133.221 110.003 132.053 110.908C130.885 111.805 129.323 112.254 127.368 112.254C126.099 112.254 124.914 112.013 123.813 111.53C122.713 111.039 121.863 110.371 121.262 109.524C120.669 108.678 120.373 107.717 120.373 106.643H122.823C122.823 107.76 123.234 108.644 124.055 109.296C124.884 109.939 125.989 110.261 127.368 110.261C128.655 110.261 129.641 109.998 130.326 109.474C131.012 108.949 131.354 108.234 131.354 107.328C131.354 106.423 131.037 105.724 130.402 105.233C129.768 104.734 128.617 104.243 126.949 103.761ZM149.712 95.5215H143.771V112H141.346V95.5215H135.417V93.5156H149.712V95.5215ZM161.646 107.176H153.901L152.162 112H149.648L156.707 93.5156H158.84L165.911 112H163.41L161.646 107.176ZM154.638 105.17H160.922L157.773 96.5244L154.638 105.17ZM179.521 95.5215H173.579V112H171.154V95.5215H165.226V93.5156H179.521V95.5215ZM184.878 112H182.44V93.5156H184.878V112ZM202.943 106.135C202.715 108.09 201.991 109.601 200.772 110.667C199.562 111.725 197.95 112.254 195.936 112.254C193.752 112.254 192 111.471 190.68 109.905C189.368 108.34 188.712 106.245 188.712 103.621V101.844C188.712 100.126 189.017 98.6149 189.626 97.3115C190.244 96.0081 191.116 95.0094 192.241 94.3154C193.367 93.613 194.67 93.2617 196.151 93.2617C198.115 93.2617 199.689 93.8118 200.874 94.9121C202.059 96.0039 202.749 97.5189 202.943 99.457H200.493C200.282 97.9844 199.82 96.918 199.109 96.2578C198.407 95.5977 197.421 95.2676 196.151 95.2676C194.594 95.2676 193.371 95.8431 192.482 96.9941C191.602 98.1452 191.162 99.7829 191.162 101.907V103.697C191.162 105.703 191.581 107.299 192.419 108.483C193.257 109.668 194.429 110.261 195.936 110.261C197.29 110.261 198.326 109.956 199.046 109.347C199.774 108.729 200.256 107.658 200.493 106.135H202.943ZM216.718 106.173L217.073 108.61L217.594 106.414L221.25 93.5156H223.307L226.874 106.414L227.382 108.648L227.775 106.16L230.645 93.5156H233.095L228.613 112H226.392L222.583 98.5303L222.291 97.1211L221.999 98.5303L218.051 112H215.829L211.36 93.5156H213.798L216.718 106.173ZM246.26 103.456H238.249V110.007H247.555V112H235.812V93.5156H247.428V95.5215H238.249V101.463H246.26V103.456ZM250.589 112V93.5156H256.632C258.638 93.5156 260.144 93.9303 261.151 94.7598C262.167 95.5892 262.675 96.8164 262.675 98.4414C262.675 99.3047 262.429 100.071 261.938 100.739C261.448 101.399 260.779 101.911 259.933 102.275C260.931 102.555 261.718 103.088 262.294 103.875C262.878 104.654 263.17 105.585 263.17 106.668C263.17 108.327 262.632 109.63 261.558 110.578C260.483 111.526 258.964 112 257 112H250.589ZM253.026 103.354V110.007H257.051C258.185 110.007 259.078 109.715 259.729 109.131C260.39 108.538 260.72 107.726 260.72 106.693C260.72 104.467 259.509 103.354 257.089 103.354H253.026ZM253.026 101.399H256.708C257.774 101.399 258.625 101.133 259.26 100.6C259.903 100.066 260.225 99.3428 260.225 98.4287C260.225 97.4131 259.928 96.6768 259.336 96.2197C258.743 95.7542 257.842 95.5215 256.632 95.5215H253.026V101.399Z" fill="white"/>
<path d="M316.938 487.312L302.805 519H298.258L312.344 488.438H293.875V484.875H316.938V487.312ZM338.477 504C337.57 505.078 336.484 505.945 335.219 506.602C333.969 507.258 332.594 507.586 331.094 507.586C329.125 507.586 327.406 507.102 325.938 506.133C324.484 505.164 323.359 503.805 322.562 502.055C321.766 500.289 321.367 498.344 321.367 496.219C321.367 493.938 321.797 491.883 322.656 490.055C323.531 488.227 324.766 486.828 326.359 485.859C327.953 484.891 329.812 484.406 331.938 484.406C335.312 484.406 337.969 485.672 339.906 488.203C341.859 490.719 342.836 494.156 342.836 498.516V499.781C342.836 506.422 341.523 511.273 338.898 514.336C336.273 517.383 332.312 518.945 327.016 519.023H326.172V515.367H327.086C330.664 515.305 333.414 514.375 335.336 512.578C337.258 510.766 338.305 507.906 338.477 504ZM331.797 504C333.25 504 334.586 503.555 335.805 502.664C337.039 501.773 337.938 500.672 338.5 499.359V497.625C338.5 494.781 337.883 492.469 336.648 490.688C335.414 488.906 333.852 488.016 331.961 488.016C330.055 488.016 328.523 488.75 327.367 490.219C326.211 491.672 325.633 493.594 325.633 495.984C325.633 498.312 326.188 500.234 327.297 501.75C328.422 503.25 329.922 504 331.797 504ZM366.039 510.211C366.039 508.773 365.531 507.562 364.516 506.578C363.516 505.594 361.82 504.703 359.43 503.906C356.102 502.891 353.672 501.57 352.141 499.945C350.625 498.305 349.867 496.227 349.867 493.711C349.867 491.148 350.609 489.047 352.094 487.406C353.594 485.766 355.648 484.789 358.258 484.477V479.344H361.75V484.5C364.375 484.859 366.414 485.961 367.867 487.805C369.336 489.648 370.07 492.172 370.07 495.375H365.758C365.758 493.172 365.234 491.422 364.188 490.125C363.141 488.828 361.727 488.18 359.945 488.18C358.086 488.18 356.664 488.664 355.68 489.633C354.695 490.586 354.203 491.922 354.203 493.641C354.203 495.234 354.719 496.508 355.75 497.461C356.797 498.398 358.508 499.258 360.883 500.039C363.273 500.805 365.133 501.656 366.461 502.594C367.805 503.516 368.789 504.594 369.414 505.828C370.055 507.062 370.375 508.508 370.375 510.164C370.375 512.805 369.578 514.93 367.984 516.539C366.406 518.148 364.188 519.102 361.328 519.398V523.875H357.859V519.398C354.953 519.133 352.672 518.102 351.016 516.305C349.375 514.492 348.555 512.039 348.555 508.945H352.891C352.891 511.117 353.461 512.789 354.602 513.961C355.742 515.133 357.359 515.719 359.453 515.719C361.5 515.719 363.109 515.227 364.281 514.242C365.453 513.258 366.039 511.914 366.039 510.211Z" fill="#DCAC65"/>
<path d="M99.2422 164.16H107.328V166H96.9805V148.938H99.2422V164.16ZM108.98 159.543C108.98 158.301 109.223 157.184 109.707 156.191C110.199 155.199 110.879 154.434 111.746 153.895C112.621 153.355 113.617 153.086 114.734 153.086C116.461 153.086 117.855 153.684 118.918 154.879C119.988 156.074 120.523 157.664 120.523 159.648V159.801C120.523 161.035 120.285 162.145 119.809 163.129C119.34 164.105 118.664 164.867 117.781 165.414C116.906 165.961 115.898 166.234 114.758 166.234C113.039 166.234 111.645 165.637 110.574 164.441C109.512 163.246 108.98 161.664 108.98 159.695V159.543ZM111.16 159.801C111.16 161.207 111.484 162.336 112.133 163.188C112.789 164.039 113.664 164.465 114.758 164.465C115.859 164.465 116.734 164.035 117.383 163.176C118.031 162.309 118.355 161.098 118.355 159.543C118.355 158.152 118.023 157.027 117.359 156.168C116.703 155.301 115.828 154.867 114.734 154.867C113.664 154.867 112.801 155.293 112.145 156.145C111.488 156.996 111.16 158.215 111.16 159.801ZM129.371 155.266C129.043 155.211 128.688 155.184 128.305 155.184C126.883 155.184 125.918 155.789 125.41 157V166H123.242V153.32H125.352L125.387 154.785C126.098 153.652 127.105 153.086 128.41 153.086C128.832 153.086 129.152 153.141 129.371 153.25V155.266ZM136.402 166.234C134.684 166.234 133.285 165.672 132.207 164.547C131.129 163.414 130.59 161.902 130.59 160.012V159.613C130.59 158.355 130.828 157.234 131.305 156.25C131.789 155.258 132.461 154.484 133.32 153.93C134.188 153.367 135.125 153.086 136.133 153.086C137.781 153.086 139.062 153.629 139.977 154.715C140.891 155.801 141.348 157.355 141.348 159.379V160.281H132.758C132.789 161.531 133.152 162.543 133.848 163.316C134.551 164.082 135.441 164.465 136.52 164.465C137.285 164.465 137.934 164.309 138.465 163.996C138.996 163.684 139.461 163.27 139.859 162.754L141.184 163.785C140.121 165.418 138.527 166.234 136.402 166.234ZM136.133 154.867C135.258 154.867 134.523 155.188 133.93 155.828C133.336 156.461 132.969 157.352 132.828 158.5H139.18V158.336C139.117 157.234 138.82 156.383 138.289 155.781C137.758 155.172 137.039 154.867 136.133 154.867ZM145.906 153.32L145.965 154.727C146.895 153.633 148.148 153.086 149.727 153.086C151.5 153.086 152.707 153.766 153.348 155.125C153.77 154.516 154.316 154.023 154.988 153.648C155.668 153.273 156.469 153.086 157.391 153.086C160.172 153.086 161.586 154.559 161.633 157.504V166H159.465V157.633C159.465 156.727 159.258 156.051 158.844 155.605C158.43 155.152 157.734 154.926 156.758 154.926C155.953 154.926 155.285 155.168 154.754 155.652C154.223 156.129 153.914 156.773 153.828 157.586V166H151.648V157.691C151.648 155.848 150.746 154.926 148.941 154.926C147.52 154.926 146.547 155.531 146.023 156.742V166H143.855V153.32H145.906ZM173.223 166H171.055V153.32H173.223V166ZM170.879 149.957C170.879 149.605 170.984 149.309 171.195 149.066C171.414 148.824 171.734 148.703 172.156 148.703C172.578 148.703 172.898 148.824 173.117 149.066C173.336 149.309 173.445 149.605 173.445 149.957C173.445 150.309 173.336 150.602 173.117 150.836C172.898 151.07 172.578 151.188 172.156 151.188C171.734 151.188 171.414 151.07 171.195 150.836C170.984 150.602 170.879 150.309 170.879 149.957ZM187.414 159.801C187.414 161.73 186.973 163.285 186.09 164.465C185.207 165.645 184.012 166.234 182.504 166.234C180.965 166.234 179.754 165.746 178.871 164.77V170.875H176.703V153.32H178.684L178.789 154.727C179.672 153.633 180.898 153.086 182.469 153.086C183.992 153.086 185.195 153.66 186.078 154.809C186.969 155.957 187.414 157.555 187.414 159.602V159.801ZM185.246 159.555C185.246 158.125 184.941 156.996 184.332 156.168C183.723 155.34 182.887 154.926 181.824 154.926C180.512 154.926 179.527 155.508 178.871 156.672V162.73C179.52 163.887 180.512 164.465 181.848 164.465C182.887 164.465 183.711 164.055 184.32 163.234C184.938 162.406 185.246 161.18 185.246 159.555ZM197.562 162.637C197.562 162.051 197.34 161.598 196.895 161.277C196.457 160.949 195.688 160.668 194.586 160.434C193.492 160.199 192.621 159.918 191.973 159.59C191.332 159.262 190.855 158.871 190.543 158.418C190.238 157.965 190.086 157.426 190.086 156.801C190.086 155.762 190.523 154.883 191.398 154.164C192.281 153.445 193.406 153.086 194.773 153.086C196.211 153.086 197.375 153.457 198.266 154.199C199.164 154.941 199.613 155.891 199.613 157.047H197.434C197.434 156.453 197.18 155.941 196.672 155.512C196.172 155.082 195.539 154.867 194.773 154.867C193.984 154.867 193.367 155.039 192.922 155.383C192.477 155.727 192.254 156.176 192.254 156.73C192.254 157.254 192.461 157.648 192.875 157.914C193.289 158.18 194.035 158.434 195.113 158.676C196.199 158.918 197.078 159.207 197.75 159.543C198.422 159.879 198.918 160.285 199.238 160.762C199.566 161.23 199.73 161.805 199.73 162.484C199.73 163.617 199.277 164.527 198.371 165.215C197.465 165.895 196.289 166.234 194.844 166.234C193.828 166.234 192.93 166.055 192.148 165.695C191.367 165.336 190.754 164.836 190.309 164.195C189.871 163.547 189.652 162.848 189.652 162.098H191.82C191.859 162.824 192.148 163.402 192.688 163.832C193.234 164.254 193.953 164.465 194.844 164.465C195.664 164.465 196.32 164.301 196.812 163.973C197.312 163.637 197.562 163.191 197.562 162.637ZM210.383 164.746C209.539 165.738 208.301 166.234 206.668 166.234C205.316 166.234 204.285 165.844 203.574 165.062C202.871 164.273 202.516 163.109 202.508 161.57V153.32H204.676V161.512C204.676 163.434 205.457 164.395 207.02 164.395C208.676 164.395 209.777 163.777 210.324 162.543V153.32H212.492V166H210.43L210.383 164.746ZM217.836 153.32L217.895 154.727C218.824 153.633 220.078 153.086 221.656 153.086C223.43 153.086 224.637 153.766 225.277 155.125C225.699 154.516 226.246 154.023 226.918 153.648C227.598 153.273 228.398 153.086 229.32 153.086C232.102 153.086 233.516 154.559 233.562 157.504V166H231.395V157.633C231.395 156.727 231.188 156.051 230.773 155.605C230.359 155.152 229.664 154.926 228.688 154.926C227.883 154.926 227.215 155.168 226.684 155.652C226.152 156.129 225.844 156.773 225.758 157.586V166H223.578V157.691C223.578 155.848 222.676 154.926 220.871 154.926C219.449 154.926 218.477 155.531 217.953 156.742V166H215.785V153.32H217.836ZM242.27 159.555C242.27 157.609 242.73 156.047 243.652 154.867C244.574 153.68 245.781 153.086 247.273 153.086C248.758 153.086 249.934 153.594 250.801 154.609V148H252.969V166H250.977L250.871 164.641C250.004 165.703 248.797 166.234 247.25 166.234C245.781 166.234 244.582 165.633 243.652 164.43C242.73 163.227 242.27 161.656 242.27 159.719V159.555ZM244.438 159.801C244.438 161.238 244.734 162.363 245.328 163.176C245.922 163.988 246.742 164.395 247.789 164.395C249.164 164.395 250.168 163.777 250.801 162.543V156.719C250.152 155.523 249.156 154.926 247.812 154.926C246.75 154.926 245.922 155.336 245.328 156.156C244.734 156.977 244.438 158.191 244.438 159.801ZM255.77 159.543C255.77 158.301 256.012 157.184 256.496 156.191C256.988 155.199 257.668 154.434 258.535 153.895C259.41 153.355 260.406 153.086 261.523 153.086C263.25 153.086 264.645 153.684 265.707 154.879C266.777 156.074 267.312 157.664 267.312 159.648V159.801C267.312 161.035 267.074 162.145 266.598 163.129C266.129 164.105 265.453 164.867 264.57 165.414C263.695 165.961 262.688 166.234 261.547 166.234C259.828 166.234 258.434 165.637 257.363 164.441C256.301 163.246 255.77 161.664 255.77 159.695V159.543ZM257.949 159.801C257.949 161.207 258.273 162.336 258.922 163.188C259.578 164.039 260.453 164.465 261.547 164.465C262.648 164.465 263.523 164.035 264.172 163.176C264.82 162.309 265.145 161.098 265.145 159.543C265.145 158.152 264.812 157.027 264.148 156.168C263.492 155.301 262.617 154.867 261.523 154.867C260.453 154.867 259.59 155.293 258.934 156.145C258.277 156.996 257.949 158.215 257.949 159.801ZM272.387 166H270.219V148H272.387V166ZM275.293 159.543C275.293 158.301 275.535 157.184 276.02 156.191C276.512 155.199 277.191 154.434 278.059 153.895C278.934 153.355 279.93 153.086 281.047 153.086C282.773 153.086 284.168 153.684 285.23 154.879C286.301 156.074 286.836 157.664 286.836 159.648V159.801C286.836 161.035 286.598 162.145 286.121 163.129C285.652 164.105 284.977 164.867 284.094 165.414C283.219 165.961 282.211 166.234 281.07 166.234C279.352 166.234 277.957 165.637 276.887 164.441C275.824 163.246 275.293 161.664 275.293 159.695V159.543ZM277.473 159.801C277.473 161.207 277.797 162.336 278.445 163.188C279.102 164.039 279.977 164.465 281.07 164.465C282.172 164.465 283.047 164.035 283.695 163.176C284.344 162.309 284.668 161.098 284.668 159.543C284.668 158.152 284.336 157.027 283.672 156.168C283.016 155.301 282.141 154.867 281.047 154.867C279.977 154.867 279.113 155.293 278.457 156.145C277.801 156.996 277.473 158.215 277.473 159.801ZM295.684 155.266C295.355 155.211 295 155.184 294.617 155.184C293.195 155.184 292.23 155.789 291.723 157V166H289.555V153.32H291.664L291.699 154.785C292.41 153.652 293.418 153.086 294.723 153.086C295.145 153.086 295.465 153.141 295.684 153.25V155.266Z" fill="white"/>
<path d="M75.0234 201.637C75.0234 201.051 74.8008 200.598 74.3555 200.277C73.918 199.949 73.1484 199.668 72.0469 199.434C70.9531 199.199 70.082 198.918 69.4336 198.59C68.793 198.262 68.3164 197.871 68.0039 197.418C67.6992 196.965 67.5469 196.426 67.5469 195.801C67.5469 194.762 67.9844 193.883 68.8594 193.164C69.7422 192.445 70.8672 192.086 72.2344 192.086C73.6719 192.086 74.8359 192.457 75.7266 193.199C76.625 193.941 77.0742 194.891 77.0742 196.047H74.8945C74.8945 195.453 74.6406 194.941 74.1328 194.512C73.6328 194.082 73 193.867 72.2344 193.867C71.4453 193.867 70.8281 194.039 70.3828 194.383C69.9375 194.727 69.7148 195.176 69.7148 195.73C69.7148 196.254 69.9219 196.648 70.3359 196.914C70.75 197.18 71.4961 197.434 72.5742 197.676C73.6602 197.918 74.5391 198.207 75.2109 198.543C75.8828 198.879 76.3789 199.285 76.6992 199.762C77.0273 200.23 77.1914 200.805 77.1914 201.484C77.1914 202.617 76.7383 203.527 75.832 204.215C74.9258 204.895 73.75 205.234 72.3047 205.234C71.2891 205.234 70.3906 205.055 69.6094 204.695C68.8281 204.336 68.2148 203.836 67.7695 203.195C67.332 202.547 67.1133 201.848 67.1133 201.098H69.2812C69.3203 201.824 69.6094 202.402 70.1484 202.832C70.6953 203.254 71.4141 203.465 72.3047 203.465C73.125 203.465 73.7812 203.301 74.2734 202.973C74.7734 202.637 75.0234 202.191 75.0234 201.637ZM82.3711 205H80.2031V192.32H82.3711V205ZM80.0273 188.957C80.0273 188.605 80.1328 188.309 80.3438 188.066C80.5625 187.824 80.8828 187.703 81.3047 187.703C81.7266 187.703 82.0469 187.824 82.2656 188.066C82.4844 188.309 82.5938 188.605 82.5938 188.957C82.5938 189.309 82.4844 189.602 82.2656 189.836C82.0469 190.07 81.7266 190.188 81.3047 190.188C80.8828 190.188 80.5625 190.07 80.3438 189.836C80.1328 189.602 80.0273 189.309 80.0273 188.957ZM88.793 189.25V192.32H91.1602V193.996H88.793V201.859C88.793 202.367 88.8984 202.75 89.1094 203.008C89.3203 203.258 89.6797 203.383 90.1875 203.383C90.4375 203.383 90.7812 203.336 91.2188 203.242V205C90.6484 205.156 90.0938 205.234 89.5547 205.234C88.5859 205.234 87.8555 204.941 87.3633 204.355C86.8711 203.77 86.625 202.938 86.625 201.859V193.996H84.3164V192.32H86.625V189.25H88.793ZM107.484 205C107.359 204.75 107.258 204.305 107.18 203.664C106.172 204.711 104.969 205.234 103.57 205.234C102.32 205.234 101.293 204.883 100.488 204.18C99.6914 203.469 99.293 202.57 99.293 201.484C99.293 200.164 99.793 199.141 100.793 198.414C101.801 197.68 103.215 197.312 105.035 197.312H107.145V196.316C107.145 195.559 106.918 194.957 106.465 194.512C106.012 194.059 105.344 193.832 104.461 193.832C103.688 193.832 103.039 194.027 102.516 194.418C101.992 194.809 101.73 195.281 101.73 195.836H99.5508C99.5508 195.203 99.7734 194.594 100.219 194.008C100.672 193.414 101.281 192.945 102.047 192.602C102.82 192.258 103.668 192.086 104.59 192.086C106.051 192.086 107.195 192.453 108.023 193.188C108.852 193.914 109.281 194.918 109.312 196.199V202.035C109.312 203.199 109.461 204.125 109.758 204.812V205H107.484ZM103.887 203.348C104.566 203.348 105.211 203.172 105.82 202.82C106.43 202.469 106.871 202.012 107.145 201.449V198.848H105.445C102.789 198.848 101.461 199.625 101.461 201.18C101.461 201.859 101.688 202.391 102.141 202.773C102.594 203.156 103.176 203.348 103.887 203.348ZM114.75 192.32L114.809 193.727C115.738 192.633 116.992 192.086 118.57 192.086C120.344 192.086 121.551 192.766 122.191 194.125C122.613 193.516 123.16 193.023 123.832 192.648C124.512 192.273 125.312 192.086 126.234 192.086C129.016 192.086 130.43 193.559 130.477 196.504V205H128.309V196.633C128.309 195.727 128.102 195.051 127.688 194.605C127.273 194.152 126.578 193.926 125.602 193.926C124.797 193.926 124.129 194.168 123.598 194.652C123.066 195.129 122.758 195.773 122.672 196.586V205H120.492V196.691C120.492 194.848 119.59 193.926 117.785 193.926C116.363 193.926 115.391 194.531 114.867 195.742V205H112.699V192.32H114.75ZM139.02 205.234C137.301 205.234 135.902 204.672 134.824 203.547C133.746 202.414 133.207 200.902 133.207 199.012V198.613C133.207 197.355 133.445 196.234 133.922 195.25C134.406 194.258 135.078 193.484 135.938 192.93C136.805 192.367 137.742 192.086 138.75 192.086C140.398 192.086 141.68 192.629 142.594 193.715C143.508 194.801 143.965 196.355 143.965 198.379V199.281H135.375C135.406 200.531 135.77 201.543 136.465 202.316C137.168 203.082 138.059 203.465 139.137 203.465C139.902 203.465 140.551 203.309 141.082 202.996C141.613 202.684 142.078 202.27 142.477 201.754L143.801 202.785C142.738 204.418 141.145 205.234 139.02 205.234ZM138.75 193.867C137.875 193.867 137.141 194.188 136.547 194.828C135.953 195.461 135.586 196.352 135.445 197.5H141.797V197.336C141.734 196.234 141.438 195.383 140.906 194.781C140.375 194.172 139.656 193.867 138.75 193.867ZM149.426 189.25V192.32H151.793V193.996H149.426V201.859C149.426 202.367 149.531 202.75 149.742 203.008C149.953 203.258 150.312 203.383 150.82 203.383C151.07 203.383 151.414 203.336 151.852 203.242V205C151.281 205.156 150.727 205.234 150.188 205.234C149.219 205.234 148.488 204.941 147.996 204.355C147.504 203.77 147.258 202.938 147.258 201.859V193.996H144.949V192.32H147.258V189.25H149.426ZM154.266 208.398L153.035 207.555C153.77 206.531 154.152 205.477 154.184 204.391V202.434H156.305V204.133C156.305 204.922 156.109 205.711 155.719 206.5C155.336 207.289 154.852 207.922 154.266 208.398ZM170.086 203.465C170.859 203.465 171.535 203.23 172.113 202.762C172.691 202.293 173.012 201.707 173.074 201.004H175.125C175.086 201.73 174.836 202.422 174.375 203.078C173.914 203.734 173.297 204.258 172.523 204.648C171.758 205.039 170.945 205.234 170.086 205.234C168.359 205.234 166.984 204.66 165.961 203.512C164.945 202.355 164.438 200.777 164.438 198.777V198.414C164.438 197.18 164.664 196.082 165.117 195.121C165.57 194.16 166.219 193.414 167.062 192.883C167.914 192.352 168.918 192.086 170.074 192.086C171.496 192.086 172.676 192.512 173.613 193.363C174.559 194.215 175.062 195.32 175.125 196.68H173.074C173.012 195.859 172.699 195.188 172.137 194.664C171.582 194.133 170.895 193.867 170.074 193.867C168.973 193.867 168.117 194.266 167.508 195.062C166.906 195.852 166.605 196.996 166.605 198.496V198.906C166.605 200.367 166.906 201.492 167.508 202.281C168.109 203.07 168.969 203.465 170.086 203.465ZM176.988 198.543C176.988 197.301 177.23 196.184 177.715 195.191C178.207 194.199 178.887 193.434 179.754 192.895C180.629 192.355 181.625 192.086 182.742 192.086C184.469 192.086 185.863 192.684 186.926 193.879C187.996 195.074 188.531 196.664 188.531 198.648V198.801C188.531 200.035 188.293 201.145 187.816 202.129C187.348 203.105 186.672 203.867 185.789 204.414C184.914 204.961 183.906 205.234 182.766 205.234C181.047 205.234 179.652 204.637 178.582 203.441C177.52 202.246 176.988 200.664 176.988 198.695V198.543ZM179.168 198.801C179.168 200.207 179.492 201.336 180.141 202.188C180.797 203.039 181.672 203.465 182.766 203.465C183.867 203.465 184.742 203.035 185.391 202.176C186.039 201.309 186.363 200.098 186.363 198.543C186.363 197.152 186.031 196.027 185.367 195.168C184.711 194.301 183.836 193.867 182.742 193.867C181.672 193.867 180.809 194.293 180.152 195.145C179.496 195.996 179.168 197.215 179.168 198.801ZM193.301 192.32L193.371 193.914C194.34 192.695 195.605 192.086 197.168 192.086C199.848 192.086 201.199 193.598 201.223 196.621V205H199.055V196.609C199.047 195.695 198.836 195.02 198.422 194.582C198.016 194.145 197.379 193.926 196.512 193.926C195.809 193.926 195.191 194.113 194.66 194.488C194.129 194.863 193.715 195.355 193.418 195.965V205H191.25V192.32H193.301ZM211.875 201.637C211.875 201.051 211.652 200.598 211.207 200.277C210.77 199.949 210 199.668 208.898 199.434C207.805 199.199 206.934 198.918 206.285 198.59C205.645 198.262 205.168 197.871 204.855 197.418C204.551 196.965 204.398 196.426 204.398 195.801C204.398 194.762 204.836 193.883 205.711 193.164C206.594 192.445 207.719 192.086 209.086 192.086C210.523 192.086 211.688 192.457 212.578 193.199C213.477 193.941 213.926 194.891 213.926 196.047H211.746C211.746 195.453 211.492 194.941 210.984 194.512C210.484 194.082 209.852 193.867 209.086 193.867C208.297 193.867 207.68 194.039 207.234 194.383C206.789 194.727 206.566 195.176 206.566 195.73C206.566 196.254 206.773 196.648 207.188 196.914C207.602 197.18 208.348 197.434 209.426 197.676C210.512 197.918 211.391 198.207 212.062 198.543C212.734 198.879 213.23 199.285 213.551 199.762C213.879 200.23 214.043 200.805 214.043 201.484C214.043 202.617 213.59 203.527 212.684 204.215C211.777 204.895 210.602 205.234 209.156 205.234C208.141 205.234 207.242 205.055 206.461 204.695C205.68 204.336 205.066 203.836 204.621 203.195C204.184 202.547 203.965 201.848 203.965 201.098H206.133C206.172 201.824 206.461 202.402 207 202.832C207.547 203.254 208.266 203.465 209.156 203.465C209.977 203.465 210.633 203.301 211.125 202.973C211.625 202.637 211.875 202.191 211.875 201.637ZM222.129 205.234C220.41 205.234 219.012 204.672 217.934 203.547C216.855 202.414 216.316 200.902 216.316 199.012V198.613C216.316 197.355 216.555 196.234 217.031 195.25C217.516 194.258 218.188 193.484 219.047 192.93C219.914 192.367 220.852 192.086 221.859 192.086C223.508 192.086 224.789 192.629 225.703 193.715C226.617 194.801 227.074 196.355 227.074 198.379V199.281H218.484C218.516 200.531 218.879 201.543 219.574 202.316C220.277 203.082 221.168 203.465 222.246 203.465C223.012 203.465 223.66 203.309 224.191 202.996C224.723 202.684 225.188 202.27 225.586 201.754L226.91 202.785C225.848 204.418 224.254 205.234 222.129 205.234ZM221.859 193.867C220.984 193.867 220.25 194.188 219.656 194.828C219.062 195.461 218.695 196.352 218.555 197.5H224.906V197.336C224.844 196.234 224.547 195.383 224.016 194.781C223.484 194.172 222.766 193.867 221.859 193.867ZM234.68 203.465C235.453 203.465 236.129 203.23 236.707 202.762C237.285 202.293 237.605 201.707 237.668 201.004H239.719C239.68 201.73 239.43 202.422 238.969 203.078C238.508 203.734 237.891 204.258 237.117 204.648C236.352 205.039 235.539 205.234 234.68 205.234C232.953 205.234 231.578 204.66 230.555 203.512C229.539 202.355 229.031 200.777 229.031 198.777V198.414C229.031 197.18 229.258 196.082 229.711 195.121C230.164 194.16 230.812 193.414 231.656 192.883C232.508 192.352 233.512 192.086 234.668 192.086C236.09 192.086 237.27 192.512 238.207 193.363C239.152 194.215 239.656 195.32 239.719 196.68H237.668C237.605 195.859 237.293 195.188 236.73 194.664C236.176 194.133 235.488 193.867 234.668 193.867C233.566 193.867 232.711 194.266 232.102 195.062C231.5 195.852 231.199 196.996 231.199 198.496V198.906C231.199 200.367 231.5 201.492 232.102 202.281C232.703 203.07 233.562 203.465 234.68 203.465ZM245.098 189.25V192.32H247.465V193.996H245.098V201.859C245.098 202.367 245.203 202.75 245.414 203.008C245.625 203.258 245.984 203.383 246.492 203.383C246.742 203.383 247.086 203.336 247.523 203.242V205C246.953 205.156 246.398 205.234 245.859 205.234C244.891 205.234 244.16 204.941 243.668 204.355C243.176 203.77 242.93 202.938 242.93 201.859V193.996H240.621V192.32H242.93V189.25H245.098ZM255.27 205.234C253.551 205.234 252.152 204.672 251.074 203.547C249.996 202.414 249.457 200.902 249.457 199.012V198.613C249.457 197.355 249.695 196.234 250.172 195.25C250.656 194.258 251.328 193.484 252.188 192.93C253.055 192.367 253.992 192.086 255 192.086C256.648 192.086 257.93 192.629 258.844 193.715C259.758 194.801 260.215 196.355 260.215 198.379V199.281H251.625C251.656 200.531 252.02 201.543 252.715 202.316C253.418 203.082 254.309 203.465 255.387 203.465C256.152 203.465 256.801 203.309 257.332 202.996C257.863 202.684 258.328 202.27 258.727 201.754L260.051 202.785C258.988 204.418 257.395 205.234 255.27 205.234ZM255 193.867C254.125 193.867 253.391 194.188 252.797 194.828C252.203 195.461 251.836 196.352 251.695 197.5H258.047V197.336C257.984 196.234 257.688 195.383 257.156 194.781C256.625 194.172 255.906 193.867 255 193.867ZM265.676 189.25V192.32H268.043V193.996H265.676V201.859C265.676 202.367 265.781 202.75 265.992 203.008C266.203 203.258 266.562 203.383 267.07 203.383C267.32 203.383 267.664 203.336 268.102 203.242V205C267.531 205.156 266.977 205.234 266.438 205.234C265.469 205.234 264.738 204.941 264.246 204.355C263.754 203.77 263.508 202.938 263.508 201.859V193.996H261.199V192.32H263.508V189.25H265.676ZM278.414 203.746C277.57 204.738 276.332 205.234 274.699 205.234C273.348 205.234 272.316 204.844 271.605 204.062C270.902 203.273 270.547 202.109 270.539 200.57V192.32H272.707V200.512C272.707 202.434 273.488 203.395 275.051 203.395C276.707 203.395 277.809 202.777 278.355 201.543V192.32H280.523V205H278.461L278.414 203.746ZM289.957 194.266C289.629 194.211 289.273 194.184 288.891 194.184C287.469 194.184 286.504 194.789 285.996 196V205H283.828V192.32H285.938L285.973 193.785C286.684 192.652 287.691 192.086 288.996 192.086C289.418 192.086 289.738 192.141 289.957 192.25V194.266ZM305.742 205C305.617 204.75 305.516 204.305 305.438 203.664C304.43 204.711 303.227 205.234 301.828 205.234C300.578 205.234 299.551 204.883 298.746 204.18C297.949 203.469 297.551 202.57 297.551 201.484C297.551 200.164 298.051 199.141 299.051 198.414C300.059 197.68 301.473 197.312 303.293 197.312H305.402V196.316C305.402 195.559 305.176 194.957 304.723 194.512C304.27 194.059 303.602 193.832 302.719 193.832C301.945 193.832 301.297 194.027 300.773 194.418C300.25 194.809 299.988 195.281 299.988 195.836H297.809C297.809 195.203 298.031 194.594 298.477 194.008C298.93 193.414 299.539 192.945 300.305 192.602C301.078 192.258 301.926 192.086 302.848 192.086C304.309 192.086 305.453 192.453 306.281 193.188C307.109 193.914 307.539 194.918 307.57 196.199V202.035C307.57 203.199 307.719 204.125 308.016 204.812V205H305.742ZM302.145 203.348C302.824 203.348 303.469 203.172 304.078 202.82C304.688 202.469 305.129 202.012 305.402 201.449V198.848H303.703C301.047 198.848 299.719 199.625 299.719 201.18C299.719 201.859 299.945 202.391 300.398 202.773C300.852 203.156 301.434 203.348 302.145 203.348ZM310.441 198.555C310.441 196.609 310.902 195.047 311.824 193.867C312.746 192.68 313.953 192.086 315.445 192.086C316.93 192.086 318.105 192.594 318.973 193.609V187H321.141V205H319.148L319.043 203.641C318.176 204.703 316.969 205.234 315.422 205.234C313.953 205.234 312.754 204.633 311.824 203.43C310.902 202.227 310.441 200.656 310.441 198.719V198.555ZM312.609 198.801C312.609 200.238 312.906 201.363 313.5 202.176C314.094 202.988 314.914 203.395 315.961 203.395C317.336 203.395 318.34 202.777 318.973 201.543V195.719C318.324 194.523 317.328 193.926 315.984 193.926C314.922 193.926 314.094 194.336 313.5 195.156C312.906 195.977 312.609 197.191 312.609 198.801Z" fill="white"/>
<path d="M71.9961 244H69.8281V231.32H71.9961V244ZM69.6523 227.957C69.6523 227.605 69.7578 227.309 69.9688 227.066C70.1875 226.824 70.5078 226.703 70.9297 226.703C71.3516 226.703 71.6719 226.824 71.8906 227.066C72.1094 227.309 72.2188 227.605 72.2188 227.957C72.2188 228.309 72.1094 228.602 71.8906 228.836C71.6719 229.07 71.3516 229.188 70.9297 229.188C70.5078 229.188 70.1875 229.07 69.9688 228.836C69.7578 228.602 69.6523 228.309 69.6523 227.957ZM86.1875 237.801C86.1875 239.73 85.7461 241.285 84.8633 242.465C83.9805 243.645 82.7852 244.234 81.2773 244.234C79.7383 244.234 78.5273 243.746 77.6445 242.77V248.875H75.4766V231.32H77.457L77.5625 232.727C78.4453 231.633 79.6719 231.086 81.2422 231.086C82.7656 231.086 83.9688 231.66 84.8516 232.809C85.7422 233.957 86.1875 235.555 86.1875 237.602V237.801ZM84.0195 237.555C84.0195 236.125 83.7148 234.996 83.1055 234.168C82.4961 233.34 81.6602 232.926 80.5977 232.926C79.2852 232.926 78.3008 233.508 77.6445 234.672V240.73C78.293 241.887 79.2852 242.465 80.6211 242.465C81.6602 242.465 82.4844 242.055 83.0938 241.234C83.7109 240.406 84.0195 239.18 84.0195 237.555ZM91.3086 244H89.1406V231.32H91.3086V244ZM88.9648 227.957C88.9648 227.605 89.0703 227.309 89.2812 227.066C89.5 226.824 89.8203 226.703 90.2422 226.703C90.6641 226.703 90.9844 226.824 91.2031 227.066C91.4219 227.309 91.5312 227.605 91.5312 227.957C91.5312 228.309 91.4219 228.602 91.2031 228.836C90.9844 229.07 90.6641 229.188 90.2422 229.188C89.8203 229.188 89.5 229.07 89.2812 228.836C89.0703 228.602 88.9648 228.309 88.9648 227.957ZM102.172 240.637C102.172 240.051 101.949 239.598 101.504 239.277C101.066 238.949 100.297 238.668 99.1953 238.434C98.1016 238.199 97.2305 237.918 96.582 237.59C95.9414 237.262 95.4648 236.871 95.1523 236.418C94.8477 235.965 94.6953 235.426 94.6953 234.801C94.6953 233.762 95.1328 232.883 96.0078 232.164C96.8906 231.445 98.0156 231.086 99.3828 231.086C100.82 231.086 101.984 231.457 102.875 232.199C103.773 232.941 104.223 233.891 104.223 235.047H102.043C102.043 234.453 101.789 233.941 101.281 233.512C100.781 233.082 100.148 232.867 99.3828 232.867C98.5938 232.867 97.9766 233.039 97.5312 233.383C97.0859 233.727 96.8633 234.176 96.8633 234.73C96.8633 235.254 97.0703 235.648 97.4844 235.914C97.8984 236.18 98.6445 236.434 99.7227 236.676C100.809 236.918 101.688 237.207 102.359 237.543C103.031 237.879 103.527 238.285 103.848 238.762C104.176 239.23 104.34 239.805 104.34 240.484C104.34 241.617 103.887 242.527 102.98 243.215C102.074 243.895 100.898 244.234 99.4531 244.234C98.4375 244.234 97.5391 244.055 96.7578 243.695C95.9766 243.336 95.3633 242.836 94.918 242.195C94.4805 241.547 94.2617 240.848 94.2617 240.098H96.4297C96.4688 240.824 96.7578 241.402 97.2969 241.832C97.8438 242.254 98.5625 242.465 99.4531 242.465C100.273 242.465 100.93 242.301 101.422 241.973C101.922 241.637 102.172 241.191 102.172 240.637ZM112.25 242.465C113.023 242.465 113.699 242.23 114.277 241.762C114.855 241.293 115.176 240.707 115.238 240.004H117.289C117.25 240.73 117 241.422 116.539 242.078C116.078 242.734 115.461 243.258 114.688 243.648C113.922 244.039 113.109 244.234 112.25 244.234C110.523 244.234 109.148 243.66 108.125 242.512C107.109 241.355 106.602 239.777 106.602 237.777V237.414C106.602 236.18 106.828 235.082 107.281 234.121C107.734 233.16 108.383 232.414 109.227 231.883C110.078 231.352 111.082 231.086 112.238 231.086C113.66 231.086 114.84 231.512 115.777 232.363C116.723 233.215 117.227 234.32 117.289 235.68H115.238C115.176 234.859 114.863 234.188 114.301 233.664C113.746 233.133 113.059 232.867 112.238 232.867C111.137 232.867 110.281 233.266 109.672 234.062C109.07 234.852 108.77 235.996 108.77 237.496V237.906C108.77 239.367 109.07 240.492 109.672 241.281C110.273 242.07 111.133 242.465 112.25 242.465ZM122.082 244H119.914V231.32H122.082V244ZM119.738 227.957C119.738 227.605 119.844 227.309 120.055 227.066C120.273 226.824 120.594 226.703 121.016 226.703C121.438 226.703 121.758 226.824 121.977 227.066C122.195 227.309 122.305 227.605 122.305 227.957C122.305 228.309 122.195 228.602 121.977 228.836C121.758 229.07 121.438 229.188 121.016 229.188C120.594 229.188 120.273 229.07 120.055 228.836C119.844 228.602 119.738 228.309 119.738 227.957ZM127.613 231.32L127.684 232.914C128.652 231.695 129.918 231.086 131.48 231.086C134.16 231.086 135.512 232.598 135.535 235.621V244H133.367V235.609C133.359 234.695 133.148 234.02 132.734 233.582C132.328 233.145 131.691 232.926 130.824 232.926C130.121 232.926 129.504 233.113 128.973 233.488C128.441 233.863 128.027 234.355 127.73 234.965V244H125.562V231.32H127.613ZM138.289 237.555C138.289 235.578 138.746 234.008 139.66 232.844C140.574 231.672 141.785 231.086 143.293 231.086C144.84 231.086 146.047 231.633 146.914 232.727L147.02 231.32H149V243.695C149 245.336 148.512 246.629 147.535 247.574C146.566 248.52 145.262 248.992 143.621 248.992C142.707 248.992 141.812 248.797 140.938 248.406C140.062 248.016 139.395 247.48 138.934 246.801L140.059 245.5C140.988 246.648 142.125 247.223 143.469 247.223C144.523 247.223 145.344 246.926 145.93 246.332C146.523 245.738 146.82 244.902 146.82 243.824V242.734C145.953 243.734 144.77 244.234 143.27 244.234C141.785 244.234 140.582 243.637 139.66 242.441C138.746 241.246 138.289 239.617 138.289 237.555ZM140.469 237.801C140.469 239.23 140.762 240.355 141.348 241.176C141.934 241.988 142.754 242.395 143.809 242.395C145.176 242.395 146.18 241.773 146.82 240.531V234.742C146.156 233.531 145.16 232.926 143.832 232.926C142.777 232.926 141.953 233.336 141.359 234.156C140.766 234.977 140.469 236.191 140.469 237.801ZM163.496 244.234C161.777 244.234 160.379 243.672 159.301 242.547C158.223 241.414 157.684 239.902 157.684 238.012V237.613C157.684 236.355 157.922 235.234 158.398 234.25C158.883 233.258 159.555 232.484 160.414 231.93C161.281 231.367 162.219 231.086 163.227 231.086C164.875 231.086 166.156 231.629 167.07 232.715C167.984 233.801 168.441 235.355 168.441 237.379V238.281H159.852C159.883 239.531 160.246 240.543 160.941 241.316C161.645 242.082 162.535 242.465 163.613 242.465C164.379 242.465 165.027 242.309 165.559 241.996C166.09 241.684 166.555 241.27 166.953 240.754L168.277 241.785C167.215 243.418 165.621 244.234 163.496 244.234ZM163.227 232.867C162.352 232.867 161.617 233.188 161.023 233.828C160.43 234.461 160.062 235.352 159.922 236.5H166.273V236.336C166.211 235.234 165.914 234.383 165.383 233.781C164.852 233.172 164.133 232.867 163.227 232.867ZM173.316 244H171.148V226H173.316V244ZM179.152 244H176.984V231.32H179.152V244ZM176.809 227.957C176.809 227.605 176.914 227.309 177.125 227.066C177.344 226.824 177.664 226.703 178.086 226.703C178.508 226.703 178.828 226.824 179.047 227.066C179.266 227.309 179.375 227.605 179.375 227.957C179.375 228.309 179.266 228.602 179.047 228.836C178.828 229.07 178.508 229.188 178.086 229.188C177.664 229.188 177.344 229.07 177.125 228.836C176.914 228.602 176.809 228.309 176.809 227.957ZM185.574 228.25V231.32H187.941V232.996H185.574V240.859C185.574 241.367 185.68 241.75 185.891 242.008C186.102 242.258 186.461 242.383 186.969 242.383C187.219 242.383 187.562 242.336 188 242.242V244C187.43 244.156 186.875 244.234 186.336 244.234C185.367 244.234 184.637 243.941 184.145 243.355C183.652 242.77 183.406 241.938 183.406 240.859V232.996H181.098V231.32H183.406V228.25H185.574ZM190.414 247.398L189.184 246.555C189.918 245.531 190.301 244.477 190.332 243.391V241.434H192.453V243.133C192.453 243.922 192.258 244.711 191.867 245.5C191.484 246.289 191 246.922 190.414 247.398ZM208.531 240.637C208.531 240.051 208.309 239.598 207.863 239.277C207.426 238.949 206.656 238.668 205.555 238.434C204.461 238.199 203.59 237.918 202.941 237.59C202.301 237.262 201.824 236.871 201.512 236.418C201.207 235.965 201.055 235.426 201.055 234.801C201.055 233.762 201.492 232.883 202.367 232.164C203.25 231.445 204.375 231.086 205.742 231.086C207.18 231.086 208.344 231.457 209.234 232.199C210.133 232.941 210.582 233.891 210.582 235.047H208.402C208.402 234.453 208.148 233.941 207.641 233.512C207.141 233.082 206.508 232.867 205.742 232.867C204.953 232.867 204.336 233.039 203.891 233.383C203.445 233.727 203.223 234.176 203.223 234.73C203.223 235.254 203.43 235.648 203.844 235.914C204.258 236.18 205.004 236.434 206.082 236.676C207.168 236.918 208.047 237.207 208.719 237.543C209.391 237.879 209.887 238.285 210.207 238.762C210.535 239.23 210.699 239.805 210.699 240.484C210.699 241.617 210.246 242.527 209.34 243.215C208.434 243.895 207.258 244.234 205.812 244.234C204.797 244.234 203.898 244.055 203.117 243.695C202.336 243.336 201.723 242.836 201.277 242.195C200.84 241.547 200.621 240.848 200.621 240.098H202.789C202.828 240.824 203.117 241.402 203.656 241.832C204.203 242.254 204.922 242.465 205.812 242.465C206.633 242.465 207.289 242.301 207.781 241.973C208.281 241.637 208.531 241.191 208.531 240.637ZM218.785 244.234C217.066 244.234 215.668 243.672 214.59 242.547C213.512 241.414 212.973 239.902 212.973 238.012V237.613C212.973 236.355 213.211 235.234 213.688 234.25C214.172 233.258 214.844 232.484 215.703 231.93C216.57 231.367 217.508 231.086 218.516 231.086C220.164 231.086 221.445 231.629 222.359 232.715C223.273 233.801 223.73 235.355 223.73 237.379V238.281H215.141C215.172 239.531 215.535 240.543 216.23 241.316C216.934 242.082 217.824 242.465 218.902 242.465C219.668 242.465 220.316 242.309 220.848 241.996C221.379 241.684 221.844 241.27 222.242 240.754L223.566 241.785C222.504 243.418 220.91 244.234 218.785 244.234ZM218.516 232.867C217.641 232.867 216.906 233.188 216.312 233.828C215.719 234.461 215.352 235.352 215.211 236.5H221.562V236.336C221.5 235.234 221.203 234.383 220.672 233.781C220.141 233.172 219.422 232.867 218.516 232.867ZM225.723 237.555C225.723 235.609 226.184 234.047 227.105 232.867C228.027 231.68 229.234 231.086 230.727 231.086C232.211 231.086 233.387 231.594 234.254 232.609V226H236.422V244H234.43L234.324 242.641C233.457 243.703 232.25 244.234 230.703 244.234C229.234 244.234 228.035 243.633 227.105 242.43C226.184 241.227 225.723 239.656 225.723 237.719V237.555ZM227.891 237.801C227.891 239.238 228.188 240.363 228.781 241.176C229.375 241.988 230.195 242.395 231.242 242.395C232.617 242.395 233.621 241.777 234.254 240.543V234.719C233.605 233.523 232.609 232.926 231.266 232.926C230.203 232.926 229.375 233.336 228.781 234.156C228.188 234.977 227.891 236.191 227.891 237.801ZM245.223 237.555C245.223 235.609 245.684 234.047 246.605 232.867C247.527 231.68 248.734 231.086 250.227 231.086C251.711 231.086 252.887 231.594 253.754 232.609V226H255.922V244H253.93L253.824 242.641C252.957 243.703 251.75 244.234 250.203 244.234C248.734 244.234 247.535 243.633 246.605 242.43C245.684 241.227 245.223 239.656 245.223 237.719V237.555ZM247.391 237.801C247.391 239.238 247.688 240.363 248.281 241.176C248.875 241.988 249.695 242.395 250.742 242.395C252.117 242.395 253.121 241.777 253.754 240.543V234.719C253.105 233.523 252.109 232.926 250.766 232.926C249.703 232.926 248.875 233.336 248.281 234.156C247.688 234.977 247.391 236.191 247.391 237.801ZM258.723 237.543C258.723 236.301 258.965 235.184 259.449 234.191C259.941 233.199 260.621 232.434 261.488 231.895C262.363 231.355 263.359 231.086 264.477 231.086C266.203 231.086 267.598 231.684 268.66 232.879C269.73 234.074 270.266 235.664 270.266 237.648V237.801C270.266 239.035 270.027 240.145 269.551 241.129C269.082 242.105 268.406 242.867 267.523 243.414C266.648 243.961 265.641 244.234 264.5 244.234C262.781 244.234 261.387 243.637 260.316 242.441C259.254 241.246 258.723 239.664 258.723 237.695V237.543ZM260.902 237.801C260.902 239.207 261.227 240.336 261.875 241.188C262.531 242.039 263.406 242.465 264.5 242.465C265.602 242.465 266.477 242.035 267.125 241.176C267.773 240.309 268.098 239.098 268.098 237.543C268.098 236.152 267.766 235.027 267.102 234.168C266.445 233.301 265.57 232.867 264.477 232.867C263.406 232.867 262.543 233.293 261.887 234.145C261.23 234.996 260.902 236.215 260.902 237.801ZM284.199 244.234C282.48 244.234 281.082 243.672 280.004 242.547C278.926 241.414 278.387 239.902 278.387 238.012V237.613C278.387 236.355 278.625 235.234 279.102 234.25C279.586 233.258 280.258 232.484 281.117 231.93C281.984 231.367 282.922 231.086 283.93 231.086C285.578 231.086 286.859 231.629 287.773 232.715C288.688 233.801 289.145 235.355 289.145 237.379V238.281H280.555C280.586 239.531 280.949 240.543 281.645 241.316C282.348 242.082 283.238 242.465 284.316 242.465C285.082 242.465 285.73 242.309 286.262 241.996C286.793 241.684 287.258 241.27 287.656 240.754L288.98 241.785C287.918 243.418 286.324 244.234 284.199 244.234ZM283.93 232.867C283.055 232.867 282.32 233.188 281.727 233.828C281.133 234.461 280.766 235.352 280.625 236.5H286.977V236.336C286.914 235.234 286.617 234.383 286.086 233.781C285.555 233.172 284.836 232.867 283.93 232.867ZM294.02 244H291.852V231.32H294.02V244ZM291.676 227.957C291.676 227.605 291.781 227.309 291.992 227.066C292.211 226.824 292.531 226.703 292.953 226.703C293.375 226.703 293.695 226.824 293.914 227.066C294.133 227.309 294.242 227.605 294.242 227.957C294.242 228.309 294.133 228.602 293.914 228.836C293.695 229.07 293.375 229.188 292.953 229.188C292.531 229.188 292.211 229.07 291.992 228.836C291.781 228.602 291.676 228.309 291.676 227.957ZM305.328 242.746C304.484 243.738 303.246 244.234 301.613 244.234C300.262 244.234 299.23 243.844 298.52 243.062C297.816 242.273 297.461 241.109 297.453 239.57V231.32H299.621V239.512C299.621 241.434 300.402 242.395 301.965 242.395C303.621 242.395 304.723 241.777 305.27 240.543V231.32H307.438V244H305.375L305.328 242.746ZM318.125 240.637C318.125 240.051 317.902 239.598 317.457 239.277C317.02 238.949 316.25 238.668 315.148 238.434C314.055 238.199 313.184 237.918 312.535 237.59C311.895 237.262 311.418 236.871 311.105 236.418C310.801 235.965 310.648 235.426 310.648 234.801C310.648 233.762 311.086 232.883 311.961 232.164C312.844 231.445 313.969 231.086 315.336 231.086C316.773 231.086 317.938 231.457 318.828 232.199C319.727 232.941 320.176 233.891 320.176 235.047H317.996C317.996 234.453 317.742 233.941 317.234 233.512C316.734 233.082 316.102 232.867 315.336 232.867C314.547 232.867 313.93 233.039 313.484 233.383C313.039 233.727 312.816 234.176 312.816 234.73C312.816 235.254 313.023 235.648 313.438 235.914C313.852 236.18 314.598 236.434 315.676 236.676C316.762 236.918 317.641 237.207 318.312 237.543C318.984 237.879 319.48 238.285 319.801 238.762C320.129 239.23 320.293 239.805 320.293 240.484C320.293 241.617 319.84 242.527 318.934 243.215C318.027 243.895 316.852 244.234 315.406 244.234C314.391 244.234 313.492 244.055 312.711 243.695C311.93 243.336 311.316 242.836 310.871 242.195C310.434 241.547 310.215 240.848 310.215 240.098H312.383C312.422 240.824 312.711 241.402 313.25 241.832C313.797 242.254 314.516 242.465 315.406 242.465C316.227 242.465 316.883 242.301 317.375 241.973C317.875 241.637 318.125 241.191 318.125 240.637Z" fill="white"/>
<path d="M77.6797 270.32L77.7383 271.727C78.668 270.633 79.9219 270.086 81.5 270.086C83.2734 270.086 84.4805 270.766 85.1211 272.125C85.543 271.516 86.0898 271.023 86.7617 270.648C87.4414 270.273 88.2422 270.086 89.1641 270.086C91.9453 270.086 93.3594 271.559 93.4062 274.504V283H91.2383V274.633C91.2383 273.727 91.0312 273.051 90.6172 272.605C90.2031 272.152 89.5078 271.926 88.5312 271.926C87.7266 271.926 87.0586 272.168 86.5273 272.652C85.9961 273.129 85.6875 273.773 85.6016 274.586V283H83.4219V274.691C83.4219 272.848 82.5195 271.926 80.7148 271.926C79.293 271.926 78.3203 272.531 77.7969 273.742V283H75.6289V270.32H77.6797ZM96.1133 276.543C96.1133 275.301 96.3555 274.184 96.8398 273.191C97.332 272.199 98.0117 271.434 98.8789 270.895C99.7539 270.355 100.75 270.086 101.867 270.086C103.594 270.086 104.988 270.684 106.051 271.879C107.121 273.074 107.656 274.664 107.656 276.648V276.801C107.656 278.035 107.418 279.145 106.941 280.129C106.473 281.105 105.797 281.867 104.914 282.414C104.039 282.961 103.031 283.234 101.891 283.234C100.172 283.234 98.7773 282.637 97.707 281.441C96.6445 280.246 96.1133 278.664 96.1133 276.695V276.543ZM98.293 276.801C98.293 278.207 98.6172 279.336 99.2656 280.188C99.9219 281.039 100.797 281.465 101.891 281.465C102.992 281.465 103.867 281.035 104.516 280.176C105.164 279.309 105.488 278.098 105.488 276.543C105.488 275.152 105.156 274.027 104.492 273.168C103.836 272.301 102.961 271.867 101.867 271.867C100.797 271.867 99.9336 272.293 99.2773 273.145C98.6211 273.996 98.293 275.215 98.293 276.801ZM109.848 276.555C109.848 274.609 110.309 273.047 111.23 271.867C112.152 270.68 113.359 270.086 114.852 270.086C116.336 270.086 117.512 270.594 118.379 271.609V265H120.547V283H118.555L118.449 281.641C117.582 282.703 116.375 283.234 114.828 283.234C113.359 283.234 112.16 282.633 111.23 281.43C110.309 280.227 109.848 278.656 109.848 276.719V276.555ZM112.016 276.801C112.016 278.238 112.312 279.363 112.906 280.176C113.5 280.988 114.32 281.395 115.367 281.395C116.742 281.395 117.746 280.777 118.379 279.543V273.719C117.73 272.523 116.734 271.926 115.391 271.926C114.328 271.926 113.5 272.336 112.906 273.156C112.312 273.977 112.016 275.191 112.016 276.801ZM132.816 267.25V270.32H135.184V271.996H132.816V279.859C132.816 280.367 132.922 280.75 133.133 281.008C133.344 281.258 133.703 281.383 134.211 281.383C134.461 281.383 134.805 281.336 135.242 281.242V283C134.672 283.156 134.117 283.234 133.578 283.234C132.609 283.234 131.879 282.941 131.387 282.355C130.895 281.77 130.648 280.938 130.648 279.859V271.996H128.34V270.32H130.648V267.25H132.816ZM142.988 283.234C141.27 283.234 139.871 282.672 138.793 281.547C137.715 280.414 137.176 278.902 137.176 277.012V276.613C137.176 275.355 137.414 274.234 137.891 273.25C138.375 272.258 139.047 271.484 139.906 270.93C140.773 270.367 141.711 270.086 142.719 270.086C144.367 270.086 145.648 270.629 146.562 271.715C147.477 272.801 147.934 274.355 147.934 276.379V277.281H139.344C139.375 278.531 139.738 279.543 140.434 280.316C141.137 281.082 142.027 281.465 143.105 281.465C143.871 281.465 144.52 281.309 145.051 280.996C145.582 280.684 146.047 280.27 146.445 279.754L147.77 280.785C146.707 282.418 145.113 283.234 142.988 283.234ZM142.719 271.867C141.844 271.867 141.109 272.188 140.516 272.828C139.922 273.461 139.555 274.352 139.414 275.5H145.766V275.336C145.703 274.234 145.406 273.383 144.875 272.781C144.344 272.172 143.625 271.867 142.719 271.867ZM152.492 270.32L152.551 271.727C153.48 270.633 154.734 270.086 156.312 270.086C158.086 270.086 159.293 270.766 159.934 272.125C160.355 271.516 160.902 271.023 161.574 270.648C162.254 270.273 163.055 270.086 163.977 270.086C166.758 270.086 168.172 271.559 168.219 274.504V283H166.051V274.633C166.051 273.727 165.844 273.051 165.43 272.605C165.016 272.152 164.32 271.926 163.344 271.926C162.539 271.926 161.871 272.168 161.34 272.652C160.809 273.129 160.5 273.773 160.414 274.586V283H158.234V274.691C158.234 272.848 157.332 271.926 155.527 271.926C154.105 271.926 153.133 272.531 152.609 273.742V283H150.441V270.32H152.492ZM182.211 276.801C182.211 278.73 181.77 280.285 180.887 281.465C180.004 282.645 178.809 283.234 177.301 283.234C175.762 283.234 174.551 282.746 173.668 281.77V287.875H171.5V270.32H173.48L173.586 271.727C174.469 270.633 175.695 270.086 177.266 270.086C178.789 270.086 179.992 270.66 180.875 271.809C181.766 272.957 182.211 274.555 182.211 276.602V276.801ZM180.043 276.555C180.043 275.125 179.738 273.996 179.129 273.168C178.52 272.34 177.684 271.926 176.621 271.926C175.309 271.926 174.324 272.508 173.668 273.672V279.73C174.316 280.887 175.309 281.465 176.645 281.465C177.684 281.465 178.508 281.055 179.117 280.234C179.734 279.406 180.043 278.18 180.043 276.555ZM184.402 276.543C184.402 275.301 184.645 274.184 185.129 273.191C185.621 272.199 186.301 271.434 187.168 270.895C188.043 270.355 189.039 270.086 190.156 270.086C191.883 270.086 193.277 270.684 194.34 271.879C195.41 273.074 195.945 274.664 195.945 276.648V276.801C195.945 278.035 195.707 279.145 195.23 280.129C194.762 281.105 194.086 281.867 193.203 282.414C192.328 282.961 191.32 283.234 190.18 283.234C188.461 283.234 187.066 282.637 185.996 281.441C184.934 280.246 184.402 278.664 184.402 276.695V276.543ZM186.582 276.801C186.582 278.207 186.906 279.336 187.555 280.188C188.211 281.039 189.086 281.465 190.18 281.465C191.281 281.465 192.156 281.035 192.805 280.176C193.453 279.309 193.777 278.098 193.777 276.543C193.777 275.152 193.445 274.027 192.781 273.168C192.125 272.301 191.25 271.867 190.156 271.867C189.086 271.867 188.223 272.293 187.566 273.145C186.91 273.996 186.582 275.215 186.582 276.801ZM204.793 272.266C204.465 272.211 204.109 272.184 203.727 272.184C202.305 272.184 201.34 272.789 200.832 274V283H198.664V270.32H200.773L200.809 271.785C201.52 270.652 202.527 270.086 203.832 270.086C204.254 270.086 204.574 270.141 204.793 270.25V272.266ZM215.105 283H212.938V270.32H215.105V283ZM212.762 266.957C212.762 266.605 212.867 266.309 213.078 266.066C213.297 265.824 213.617 265.703 214.039 265.703C214.461 265.703 214.781 265.824 215 266.066C215.219 266.309 215.328 266.605 215.328 266.957C215.328 267.309 215.219 267.602 215 267.836C214.781 268.07 214.461 268.188 214.039 268.188C213.617 268.188 213.297 268.07 213.078 267.836C212.867 267.602 212.762 267.309 212.762 266.957ZM220.637 270.32L220.707 271.914C221.676 270.695 222.941 270.086 224.504 270.086C227.184 270.086 228.535 271.598 228.559 274.621V283H226.391V274.609C226.383 273.695 226.172 273.02 225.758 272.582C225.352 272.145 224.715 271.926 223.848 271.926C223.145 271.926 222.527 272.113 221.996 272.488C221.465 272.863 221.051 273.355 220.754 273.965V283H218.586V270.32H220.637ZM236.914 281.465C237.688 281.465 238.363 281.23 238.941 280.762C239.52 280.293 239.84 279.707 239.902 279.004H241.953C241.914 279.73 241.664 280.422 241.203 281.078C240.742 281.734 240.125 282.258 239.352 282.648C238.586 283.039 237.773 283.234 236.914 283.234C235.188 283.234 233.812 282.66 232.789 281.512C231.773 280.355 231.266 278.777 231.266 276.777V276.414C231.266 275.18 231.492 274.082 231.945 273.121C232.398 272.16 233.047 271.414 233.891 270.883C234.742 270.352 235.746 270.086 236.902 270.086C238.324 270.086 239.504 270.512 240.441 271.363C241.387 272.215 241.891 273.32 241.953 274.68H239.902C239.84 273.859 239.527 273.188 238.965 272.664C238.41 272.133 237.723 271.867 236.902 271.867C235.801 271.867 234.945 272.266 234.336 273.062C233.734 273.852 233.434 274.996 233.434 276.496V276.906C233.434 278.367 233.734 279.492 234.336 280.281C234.938 281.07 235.797 281.465 236.914 281.465ZM246.746 283H244.578V270.32H246.746V283ZM244.402 266.957C244.402 266.605 244.508 266.309 244.719 266.066C244.938 265.824 245.258 265.703 245.68 265.703C246.102 265.703 246.422 265.824 246.641 266.066C246.859 266.309 246.969 266.605 246.969 266.957C246.969 267.309 246.859 267.602 246.641 267.836C246.422 268.07 246.102 268.188 245.68 268.188C245.258 268.188 244.938 268.07 244.719 267.836C244.508 267.602 244.402 267.309 244.402 266.957ZM249.699 276.555C249.699 274.609 250.16 273.047 251.082 271.867C252.004 270.68 253.211 270.086 254.703 270.086C256.188 270.086 257.363 270.594 258.23 271.609V265H260.398V283H258.406L258.301 281.641C257.434 282.703 256.227 283.234 254.68 283.234C253.211 283.234 252.012 282.633 251.082 281.43C250.16 280.227 249.699 278.656 249.699 276.719V276.555ZM251.867 276.801C251.867 278.238 252.164 279.363 252.758 280.176C253.352 280.988 254.172 281.395 255.219 281.395C256.594 281.395 257.598 280.777 258.23 279.543V273.719C257.582 272.523 256.586 271.926 255.242 271.926C254.18 271.926 253.352 272.336 252.758 273.156C252.164 273.977 251.867 275.191 251.867 276.801ZM266.129 283H263.961V270.32H266.129V283ZM263.785 266.957C263.785 266.605 263.891 266.309 264.102 266.066C264.32 265.824 264.641 265.703 265.062 265.703C265.484 265.703 265.805 265.824 266.023 266.066C266.242 266.309 266.352 266.605 266.352 266.957C266.352 267.309 266.242 267.602 266.023 267.836C265.805 268.07 265.484 268.188 265.062 268.188C264.641 268.188 264.32 268.07 264.102 267.836C263.891 267.602 263.785 267.309 263.785 266.957ZM269.082 276.555C269.082 274.609 269.543 273.047 270.465 271.867C271.387 270.68 272.594 270.086 274.086 270.086C275.57 270.086 276.746 270.594 277.613 271.609V265H279.781V283H277.789L277.684 281.641C276.816 282.703 275.609 283.234 274.062 283.234C272.594 283.234 271.395 282.633 270.465 281.43C269.543 280.227 269.082 278.656 269.082 276.719V276.555ZM271.25 276.801C271.25 278.238 271.547 279.363 272.141 280.176C272.734 280.988 273.555 281.395 274.602 281.395C275.977 281.395 276.98 280.777 277.613 279.543V273.719C276.965 272.523 275.969 271.926 274.625 271.926C273.562 271.926 272.734 272.336 272.141 273.156C271.547 273.977 271.25 275.191 271.25 276.801ZM290.984 281.746C290.141 282.738 288.902 283.234 287.27 283.234C285.918 283.234 284.887 282.844 284.176 282.062C283.473 281.273 283.117 280.109 283.109 278.57V270.32H285.277V278.512C285.277 280.434 286.059 281.395 287.621 281.395C289.277 281.395 290.379 280.777 290.926 279.543V270.32H293.094V283H291.031L290.984 281.746ZM298.449 270.32L298.52 271.914C299.488 270.695 300.754 270.086 302.316 270.086C304.996 270.086 306.348 271.598 306.371 274.621V283H304.203V274.609C304.195 273.695 303.984 273.02 303.57 272.582C303.164 272.145 302.527 271.926 301.66 271.926C300.957 271.926 300.34 272.113 299.809 272.488C299.277 272.863 298.863 273.355 298.566 273.965V283H296.398V270.32H298.449ZM312.582 267.25V270.32H314.949V271.996H312.582V279.859C312.582 280.367 312.688 280.75 312.898 281.008C313.109 281.258 313.469 281.383 313.977 281.383C314.227 281.383 314.57 281.336 315.008 281.242V283C314.438 283.156 313.883 283.234 313.344 283.234C312.375 283.234 311.645 282.941 311.152 282.355C310.66 281.77 310.414 280.938 310.414 279.859V271.996H308.105V270.32H310.414V267.25H312.582Z" fill="white"/>
<path d="M80.4688 320.746C79.625 321.738 78.3867 322.234 76.7539 322.234C75.4023 322.234 74.3711 321.844 73.6602 321.062C72.957 320.273 72.6016 319.109 72.5938 317.57V309.32H74.7617V317.512C74.7617 319.434 75.543 320.395 77.1055 320.395C78.7617 320.395 79.8633 319.777 80.4102 318.543V309.32H82.5781V322H80.5156L80.4688 320.746ZM88.8242 306.25V309.32H91.1914V310.996H88.8242V318.859C88.8242 319.367 88.9297 319.75 89.1406 320.008C89.3516 320.258 89.7109 320.383 90.2188 320.383C90.4688 320.383 90.8125 320.336 91.25 320.242V322C90.6797 322.156 90.125 322.234 89.5859 322.234C88.6172 322.234 87.8867 321.941 87.3945 321.355C86.9023 320.77 86.6562 319.938 86.6562 318.859V310.996H84.3477V309.32H86.6562V306.25H88.8242ZM102.043 322H99.875V304H102.043V322ZM113.352 322C113.227 321.75 113.125 321.305 113.047 320.664C112.039 321.711 110.836 322.234 109.438 322.234C108.188 322.234 107.16 321.883 106.355 321.18C105.559 320.469 105.16 319.57 105.16 318.484C105.16 317.164 105.66 316.141 106.66 315.414C107.668 314.68 109.082 314.312 110.902 314.312H113.012V313.316C113.012 312.559 112.785 311.957 112.332 311.512C111.879 311.059 111.211 310.832 110.328 310.832C109.555 310.832 108.906 311.027 108.383 311.418C107.859 311.809 107.598 312.281 107.598 312.836H105.418C105.418 312.203 105.641 311.594 106.086 311.008C106.539 310.414 107.148 309.945 107.914 309.602C108.688 309.258 109.535 309.086 110.457 309.086C111.918 309.086 113.062 309.453 113.891 310.188C114.719 310.914 115.148 311.918 115.18 313.199V319.035C115.18 320.199 115.328 321.125 115.625 321.812V322H113.352ZM109.754 320.348C110.434 320.348 111.078 320.172 111.688 319.82C112.297 319.469 112.738 319.012 113.012 318.449V315.848H111.312C108.656 315.848 107.328 316.625 107.328 318.18C107.328 318.859 107.555 319.391 108.008 319.773C108.461 320.156 109.043 320.348 109.754 320.348ZM129.312 315.801C129.312 317.738 128.867 319.297 127.977 320.477C127.086 321.648 125.891 322.234 124.391 322.234C122.789 322.234 121.551 321.668 120.676 320.535L120.57 322H118.578V304H120.746V310.715C121.621 309.629 122.828 309.086 124.367 309.086C125.906 309.086 127.113 309.668 127.988 310.832C128.871 311.996 129.312 313.59 129.312 315.613V315.801ZM127.145 315.555C127.145 314.078 126.859 312.938 126.289 312.133C125.719 311.328 124.898 310.926 123.828 310.926C122.398 310.926 121.371 311.59 120.746 312.918V318.402C121.41 319.73 122.445 320.395 123.852 320.395C124.891 320.395 125.699 319.992 126.277 319.188C126.855 318.383 127.145 317.172 127.145 315.555ZM131.48 315.543C131.48 314.301 131.723 313.184 132.207 312.191C132.699 311.199 133.379 310.434 134.246 309.895C135.121 309.355 136.117 309.086 137.234 309.086C138.961 309.086 140.355 309.684 141.418 310.879C142.488 312.074 143.023 313.664 143.023 315.648V315.801C143.023 317.035 142.785 318.145 142.309 319.129C141.84 320.105 141.164 320.867 140.281 321.414C139.406 321.961 138.398 322.234 137.258 322.234C135.539 322.234 134.145 321.637 133.074 320.441C132.012 319.246 131.48 317.664 131.48 315.695V315.543ZM133.66 315.801C133.66 317.207 133.984 318.336 134.633 319.188C135.289 320.039 136.164 320.465 137.258 320.465C138.359 320.465 139.234 320.035 139.883 319.176C140.531 318.309 140.855 317.098 140.855 315.543C140.855 314.152 140.523 313.027 139.859 312.168C139.203 311.301 138.328 310.867 137.234 310.867C136.164 310.867 135.301 311.293 134.645 312.145C133.988 312.996 133.66 314.215 133.66 315.801ZM151.871 311.266C151.543 311.211 151.188 311.184 150.805 311.184C149.383 311.184 148.418 311.789 147.91 313V322H145.742V309.32H147.852L147.887 310.785C148.598 309.652 149.605 309.086 150.91 309.086C151.332 309.086 151.652 309.141 151.871 309.25V311.266ZM158.902 322.234C157.184 322.234 155.785 321.672 154.707 320.547C153.629 319.414 153.09 317.902 153.09 316.012V315.613C153.09 314.355 153.328 313.234 153.805 312.25C154.289 311.258 154.961 310.484 155.82 309.93C156.688 309.367 157.625 309.086 158.633 309.086C160.281 309.086 161.562 309.629 162.477 310.715C163.391 311.801 163.848 313.355 163.848 315.379V316.281H155.258C155.289 317.531 155.652 318.543 156.348 319.316C157.051 320.082 157.941 320.465 159.02 320.465C159.785 320.465 160.434 320.309 160.965 319.996C161.496 319.684 161.961 319.27 162.359 318.754L163.684 319.785C162.621 321.418 161.027 322.234 158.902 322.234ZM158.633 310.867C157.758 310.867 157.023 311.188 156.43 311.828C155.836 312.461 155.469 313.352 155.328 314.5H161.68V314.336C161.617 313.234 161.32 312.383 160.789 311.781C160.258 311.172 159.539 310.867 158.633 310.867ZM177.582 322.234C175.863 322.234 174.465 321.672 173.387 320.547C172.309 319.414 171.77 317.902 171.77 316.012V315.613C171.77 314.355 172.008 313.234 172.484 312.25C172.969 311.258 173.641 310.484 174.5 309.93C175.367 309.367 176.305 309.086 177.312 309.086C178.961 309.086 180.242 309.629 181.156 310.715C182.07 311.801 182.527 313.355 182.527 315.379V316.281H173.938C173.969 317.531 174.332 318.543 175.027 319.316C175.73 320.082 176.621 320.465 177.699 320.465C178.465 320.465 179.113 320.309 179.645 319.996C180.176 319.684 180.641 319.27 181.039 318.754L182.363 319.785C181.301 321.418 179.707 322.234 177.582 322.234ZM177.312 310.867C176.438 310.867 175.703 311.188 175.109 311.828C174.516 312.461 174.148 313.352 174.008 314.5H180.359V314.336C180.297 313.234 180 312.383 179.469 311.781C178.938 311.172 178.219 310.867 177.312 310.867ZM187.988 306.25V309.32H190.355V310.996H187.988V318.859C187.988 319.367 188.094 319.75 188.305 320.008C188.516 320.258 188.875 320.383 189.383 320.383C189.633 320.383 189.977 320.336 190.414 320.242V322C189.844 322.156 189.289 322.234 188.75 322.234C187.781 322.234 187.051 321.941 186.559 321.355C186.066 320.77 185.82 319.938 185.82 318.859V310.996H183.512V309.32H185.82V306.25H187.988ZM198.324 315.555C198.324 313.609 198.785 312.047 199.707 310.867C200.629 309.68 201.836 309.086 203.328 309.086C204.812 309.086 205.988 309.594 206.855 310.609V304H209.023V322H207.031L206.926 320.641C206.059 321.703 204.852 322.234 203.305 322.234C201.836 322.234 200.637 321.633 199.707 320.43C198.785 319.227 198.324 317.656 198.324 315.719V315.555ZM200.492 315.801C200.492 317.238 200.789 318.363 201.383 319.176C201.977 319.988 202.797 320.395 203.844 320.395C205.219 320.395 206.223 319.777 206.855 318.543V312.719C206.207 311.523 205.211 310.926 203.867 310.926C202.805 310.926 201.977 311.336 201.383 312.156C200.789 312.977 200.492 314.191 200.492 315.801ZM211.824 315.543C211.824 314.301 212.066 313.184 212.551 312.191C213.043 311.199 213.723 310.434 214.59 309.895C215.465 309.355 216.461 309.086 217.578 309.086C219.305 309.086 220.699 309.684 221.762 310.879C222.832 312.074 223.367 313.664 223.367 315.648V315.801C223.367 317.035 223.129 318.145 222.652 319.129C222.184 320.105 221.508 320.867 220.625 321.414C219.75 321.961 218.742 322.234 217.602 322.234C215.883 322.234 214.488 321.637 213.418 320.441C212.355 319.246 211.824 317.664 211.824 315.695V315.543ZM214.004 315.801C214.004 317.207 214.328 318.336 214.977 319.188C215.633 320.039 216.508 320.465 217.602 320.465C218.703 320.465 219.578 320.035 220.227 319.176C220.875 318.309 221.199 317.098 221.199 315.543C221.199 314.152 220.867 313.027 220.203 312.168C219.547 311.301 218.672 310.867 217.578 310.867C216.508 310.867 215.645 311.293 214.988 312.145C214.332 312.996 214.004 314.215 214.004 315.801ZM228.441 322H226.273V304H228.441V322ZM231.348 315.543C231.348 314.301 231.59 313.184 232.074 312.191C232.566 311.199 233.246 310.434 234.113 309.895C234.988 309.355 235.984 309.086 237.102 309.086C238.828 309.086 240.223 309.684 241.285 310.879C242.355 312.074 242.891 313.664 242.891 315.648V315.801C242.891 317.035 242.652 318.145 242.176 319.129C241.707 320.105 241.031 320.867 240.148 321.414C239.273 321.961 238.266 322.234 237.125 322.234C235.406 322.234 234.012 321.637 232.941 320.441C231.879 319.246 231.348 317.664 231.348 315.695V315.543ZM233.527 315.801C233.527 317.207 233.852 318.336 234.5 319.188C235.156 320.039 236.031 320.465 237.125 320.465C238.227 320.465 239.102 320.035 239.75 319.176C240.398 318.309 240.723 317.098 240.723 315.543C240.723 314.152 240.391 313.027 239.727 312.168C239.07 311.301 238.195 310.867 237.102 310.867C236.031 310.867 235.168 311.293 234.512 312.145C233.855 312.996 233.527 314.215 233.527 315.801ZM251.738 311.266C251.41 311.211 251.055 311.184 250.672 311.184C249.25 311.184 248.285 311.789 247.777 313V322H245.609V309.32H247.719L247.754 310.785C248.465 309.652 249.473 309.086 250.777 309.086C251.199 309.086 251.52 309.141 251.738 309.25V311.266ZM258.77 322.234C257.051 322.234 255.652 321.672 254.574 320.547C253.496 319.414 252.957 317.902 252.957 316.012V315.613C252.957 314.355 253.195 313.234 253.672 312.25C254.156 311.258 254.828 310.484 255.688 309.93C256.555 309.367 257.492 309.086 258.5 309.086C260.148 309.086 261.43 309.629 262.344 310.715C263.258 311.801 263.715 313.355 263.715 315.379V316.281H255.125C255.156 317.531 255.52 318.543 256.215 319.316C256.918 320.082 257.809 320.465 258.887 320.465C259.652 320.465 260.301 320.309 260.832 319.996C261.363 319.684 261.828 319.27 262.227 318.754L263.551 319.785C262.488 321.418 260.895 322.234 258.77 322.234ZM258.5 310.867C257.625 310.867 256.891 311.188 256.297 311.828C255.703 312.461 255.336 313.352 255.195 314.5H261.547V314.336C261.484 313.234 261.188 312.383 260.656 311.781C260.125 311.172 259.406 310.867 258.5 310.867ZM274.227 309.32L274.285 310.727C275.215 309.633 276.469 309.086 278.047 309.086C279.82 309.086 281.027 309.766 281.668 311.125C282.09 310.516 282.637 310.023 283.309 309.648C283.988 309.273 284.789 309.086 285.711 309.086C288.492 309.086 289.906 310.559 289.953 313.504V322H287.785V313.633C287.785 312.727 287.578 312.051 287.164 311.605C286.75 311.152 286.055 310.926 285.078 310.926C284.273 310.926 283.605 311.168 283.074 311.652C282.543 312.129 282.234 312.773 282.148 313.586V322H279.969V313.691C279.969 311.848 279.066 310.926 277.262 310.926C275.84 310.926 274.867 311.531 274.344 312.742V322H272.176V309.32H274.227ZM301.062 322C300.938 321.75 300.836 321.305 300.758 320.664C299.75 321.711 298.547 322.234 297.148 322.234C295.898 322.234 294.871 321.883 294.066 321.18C293.27 320.469 292.871 319.57 292.871 318.484C292.871 317.164 293.371 316.141 294.371 315.414C295.379 314.68 296.793 314.312 298.613 314.312H300.723V313.316C300.723 312.559 300.496 311.957 300.043 311.512C299.59 311.059 298.922 310.832 298.039 310.832C297.266 310.832 296.617 311.027 296.094 311.418C295.57 311.809 295.309 312.281 295.309 312.836H293.129C293.129 312.203 293.352 311.594 293.797 311.008C294.25 310.414 294.859 309.945 295.625 309.602C296.398 309.258 297.246 309.086 298.168 309.086C299.629 309.086 300.773 309.453 301.602 310.188C302.43 310.914 302.859 311.918 302.891 313.199V319.035C302.891 320.199 303.039 321.125 303.336 321.812V322H301.062ZM297.465 320.348C298.145 320.348 298.789 320.172 299.398 319.82C300.008 319.469 300.449 319.012 300.723 318.449V315.848H299.023C296.367 315.848 295.039 316.625 295.039 318.18C295.039 318.859 295.266 319.391 295.719 319.773C296.172 320.156 296.754 320.348 297.465 320.348ZM305.773 315.555C305.773 313.578 306.23 312.008 307.145 310.844C308.059 309.672 309.27 309.086 310.777 309.086C312.324 309.086 313.531 309.633 314.398 310.727L314.504 309.32H316.484V321.695C316.484 323.336 315.996 324.629 315.02 325.574C314.051 326.52 312.746 326.992 311.105 326.992C310.191 326.992 309.297 326.797 308.422 326.406C307.547 326.016 306.879 325.48 306.418 324.801L307.543 323.5C308.473 324.648 309.609 325.223 310.953 325.223C312.008 325.223 312.828 324.926 313.414 324.332C314.008 323.738 314.305 322.902 314.305 321.824V320.734C313.438 321.734 312.254 322.234 310.754 322.234C309.27 322.234 308.066 321.637 307.145 320.441C306.23 319.246 305.773 317.617 305.773 315.555ZM307.953 315.801C307.953 317.23 308.246 318.355 308.832 319.176C309.418 319.988 310.238 320.395 311.293 320.395C312.66 320.395 313.664 319.773 314.305 318.531V312.742C313.641 311.531 312.645 310.926 311.316 310.926C310.262 310.926 309.438 311.336 308.844 312.156C308.25 312.977 307.953 314.191 307.953 315.801Z" fill="white"/>
<path d="M109.469 359.746C108.625 360.738 107.387 361.234 105.754 361.234C104.402 361.234 103.371 360.844 102.66 360.062C101.957 359.273 101.602 358.109 101.594 356.57V348.32H103.762V356.512C103.762 358.434 104.543 359.395 106.105 359.395C107.762 359.395 108.863 358.777 109.41 357.543V348.32H111.578V361H109.516L109.469 359.746ZM117.238 361H115.07V343H117.238V361ZM123.074 361H120.906V343H123.074V361ZM134.383 361C134.258 360.75 134.156 360.305 134.078 359.664C133.07 360.711 131.867 361.234 130.469 361.234C129.219 361.234 128.191 360.883 127.387 360.18C126.59 359.469 126.191 358.57 126.191 357.484C126.191 356.164 126.691 355.141 127.691 354.414C128.699 353.68 130.113 353.312 131.934 353.312H134.043V352.316C134.043 351.559 133.816 350.957 133.363 350.512C132.91 350.059 132.242 349.832 131.359 349.832C130.586 349.832 129.938 350.027 129.414 350.418C128.891 350.809 128.629 351.281 128.629 351.836H126.449C126.449 351.203 126.672 350.594 127.117 350.008C127.57 349.414 128.18 348.945 128.945 348.602C129.719 348.258 130.566 348.086 131.488 348.086C132.949 348.086 134.094 348.453 134.922 349.188C135.75 349.914 136.18 350.918 136.211 352.199V358.035C136.211 359.199 136.359 360.125 136.656 360.812V361H134.383ZM130.785 359.348C131.465 359.348 132.109 359.172 132.719 358.82C133.328 358.469 133.77 358.012 134.043 357.449V354.848H132.344C129.688 354.848 128.359 355.625 128.359 357.18C128.359 357.859 128.586 358.391 129.039 358.773C129.492 359.156 130.074 359.348 130.785 359.348ZM141.648 348.32L141.707 349.727C142.637 348.633 143.891 348.086 145.469 348.086C147.242 348.086 148.449 348.766 149.09 350.125C149.512 349.516 150.059 349.023 150.73 348.648C151.41 348.273 152.211 348.086 153.133 348.086C155.914 348.086 157.328 349.559 157.375 352.504V361H155.207V352.633C155.207 351.727 155 351.051 154.586 350.605C154.172 350.152 153.477 349.926 152.5 349.926C151.695 349.926 151.027 350.168 150.496 350.652C149.965 351.129 149.656 351.773 149.57 352.586V361H147.391V352.691C147.391 350.848 146.488 349.926 144.684 349.926C143.262 349.926 142.289 350.531 141.766 351.742V361H139.598V348.32H141.648ZM165.742 359.465C166.516 359.465 167.191 359.23 167.77 358.762C168.348 358.293 168.668 357.707 168.73 357.004H170.781C170.742 357.73 170.492 358.422 170.031 359.078C169.57 359.734 168.953 360.258 168.18 360.648C167.414 361.039 166.602 361.234 165.742 361.234C164.016 361.234 162.641 360.66 161.617 359.512C160.602 358.355 160.094 356.777 160.094 354.777V354.414C160.094 353.18 160.32 352.082 160.773 351.121C161.227 350.16 161.875 349.414 162.719 348.883C163.57 348.352 164.574 348.086 165.73 348.086C167.152 348.086 168.332 348.512 169.27 349.363C170.215 350.215 170.719 351.32 170.781 352.68H168.73C168.668 351.859 168.355 351.188 167.793 350.664C167.238 350.133 166.551 349.867 165.73 349.867C164.629 349.867 163.773 350.266 163.164 351.062C162.562 351.852 162.262 352.996 162.262 354.496V354.906C162.262 356.367 162.562 357.492 163.164 358.281C163.766 359.07 164.625 359.465 165.742 359.465ZM172.645 354.543C172.645 353.301 172.887 352.184 173.371 351.191C173.863 350.199 174.543 349.434 175.41 348.895C176.285 348.355 177.281 348.086 178.398 348.086C180.125 348.086 181.52 348.684 182.582 349.879C183.652 351.074 184.188 352.664 184.188 354.648V354.801C184.188 356.035 183.949 357.145 183.473 358.129C183.004 359.105 182.328 359.867 181.445 360.414C180.57 360.961 179.562 361.234 178.422 361.234C176.703 361.234 175.309 360.637 174.238 359.441C173.176 358.246 172.645 356.664 172.645 354.695V354.543ZM174.824 354.801C174.824 356.207 175.148 357.336 175.797 358.188C176.453 359.039 177.328 359.465 178.422 359.465C179.523 359.465 180.398 359.035 181.047 358.176C181.695 357.309 182.02 356.098 182.02 354.543C182.02 353.152 181.688 352.027 181.023 351.168C180.367 350.301 179.492 349.867 178.398 349.867C177.328 349.867 176.465 350.293 175.809 351.145C175.152 351.996 174.824 353.215 174.824 354.801ZM195.215 361H193.047V343H195.215V361ZM206.523 361C206.398 360.75 206.297 360.305 206.219 359.664C205.211 360.711 204.008 361.234 202.609 361.234C201.359 361.234 200.332 360.883 199.527 360.18C198.73 359.469 198.332 358.57 198.332 357.484C198.332 356.164 198.832 355.141 199.832 354.414C200.84 353.68 202.254 353.312 204.074 353.312H206.184V352.316C206.184 351.559 205.957 350.957 205.504 350.512C205.051 350.059 204.383 349.832 203.5 349.832C202.727 349.832 202.078 350.027 201.555 350.418C201.031 350.809 200.77 351.281 200.77 351.836H198.59C198.59 351.203 198.812 350.594 199.258 350.008C199.711 349.414 200.32 348.945 201.086 348.602C201.859 348.258 202.707 348.086 203.629 348.086C205.09 348.086 206.234 348.453 207.062 349.188C207.891 349.914 208.32 350.918 208.352 352.199V358.035C208.352 359.199 208.5 360.125 208.797 360.812V361H206.523ZM202.926 359.348C203.605 359.348 204.25 359.172 204.859 358.82C205.469 358.469 205.91 358.012 206.184 357.449V354.848H204.484C201.828 354.848 200.5 355.625 200.5 357.18C200.5 357.859 200.727 358.391 201.18 358.773C201.633 359.156 202.215 359.348 202.926 359.348ZM222.484 354.801C222.484 356.738 222.039 358.297 221.148 359.477C220.258 360.648 219.062 361.234 217.562 361.234C215.961 361.234 214.723 360.668 213.848 359.535L213.742 361H211.75V343H213.918V349.715C214.793 348.629 216 348.086 217.539 348.086C219.078 348.086 220.285 348.668 221.16 349.832C222.043 350.996 222.484 352.59 222.484 354.613V354.801ZM220.316 354.555C220.316 353.078 220.031 351.938 219.461 351.133C218.891 350.328 218.07 349.926 217 349.926C215.57 349.926 214.543 350.59 213.918 351.918V357.402C214.582 358.73 215.617 359.395 217.023 359.395C218.062 359.395 218.871 358.992 219.449 358.188C220.027 357.383 220.316 356.172 220.316 354.555ZM224.652 354.543C224.652 353.301 224.895 352.184 225.379 351.191C225.871 350.199 226.551 349.434 227.418 348.895C228.293 348.355 229.289 348.086 230.406 348.086C232.133 348.086 233.527 348.684 234.59 349.879C235.66 351.074 236.195 352.664 236.195 354.648V354.801C236.195 356.035 235.957 357.145 235.48 358.129C235.012 359.105 234.336 359.867 233.453 360.414C232.578 360.961 231.57 361.234 230.43 361.234C228.711 361.234 227.316 360.637 226.246 359.441C225.184 358.246 224.652 356.664 224.652 354.695V354.543ZM226.832 354.801C226.832 356.207 227.156 357.336 227.805 358.188C228.461 359.039 229.336 359.465 230.43 359.465C231.531 359.465 232.406 359.035 233.055 358.176C233.703 357.309 234.027 356.098 234.027 354.543C234.027 353.152 233.695 352.027 233.031 351.168C232.375 350.301 231.5 349.867 230.406 349.867C229.336 349.867 228.473 350.293 227.816 351.145C227.16 351.996 226.832 353.215 226.832 354.801ZM245.043 350.266C244.715 350.211 244.359 350.184 243.977 350.184C242.555 350.184 241.59 350.789 241.082 352V361H238.914V348.32H241.023L241.059 349.785C241.77 348.652 242.777 348.086 244.082 348.086C244.504 348.086 244.824 348.141 245.043 348.25V350.266ZM249.402 361H247.234V348.32H249.402V361ZM247.059 344.957C247.059 344.605 247.164 344.309 247.375 344.066C247.594 343.824 247.914 343.703 248.336 343.703C248.758 343.703 249.078 343.824 249.297 344.066C249.516 344.309 249.625 344.605 249.625 344.957C249.625 345.309 249.516 345.602 249.297 345.836C249.078 346.07 248.758 346.188 248.336 346.188C247.914 346.188 247.594 346.07 247.375 345.836C247.164 345.602 247.059 345.309 247.059 344.957ZM260.266 357.637C260.266 357.051 260.043 356.598 259.598 356.277C259.16 355.949 258.391 355.668 257.289 355.434C256.195 355.199 255.324 354.918 254.676 354.59C254.035 354.262 253.559 353.871 253.246 353.418C252.941 352.965 252.789 352.426 252.789 351.801C252.789 350.762 253.227 349.883 254.102 349.164C254.984 348.445 256.109 348.086 257.477 348.086C258.914 348.086 260.078 348.457 260.969 349.199C261.867 349.941 262.316 350.891 262.316 352.047H260.137C260.137 351.453 259.883 350.941 259.375 350.512C258.875 350.082 258.242 349.867 257.477 349.867C256.688 349.867 256.07 350.039 255.625 350.383C255.18 350.727 254.957 351.176 254.957 351.73C254.957 352.254 255.164 352.648 255.578 352.914C255.992 353.18 256.738 353.434 257.816 353.676C258.902 353.918 259.781 354.207 260.453 354.543C261.125 354.879 261.621 355.285 261.941 355.762C262.27 356.23 262.434 356.805 262.434 357.484C262.434 358.617 261.98 359.527 261.074 360.215C260.168 360.895 258.992 361.234 257.547 361.234C256.531 361.234 255.633 361.055 254.852 360.695C254.07 360.336 253.457 359.836 253.012 359.195C252.574 358.547 252.355 357.848 252.355 357.098H254.523C254.562 357.824 254.852 358.402 255.391 358.832C255.938 359.254 256.656 359.465 257.547 359.465C258.367 359.465 259.023 359.301 259.516 358.973C260.016 358.637 260.266 358.191 260.266 357.637ZM273.262 348.32L273.332 349.914C274.301 348.695 275.566 348.086 277.129 348.086C279.809 348.086 281.16 349.598 281.184 352.621V361H279.016V352.609C279.008 351.695 278.797 351.02 278.383 350.582C277.977 350.145 277.34 349.926 276.473 349.926C275.77 349.926 275.152 350.113 274.621 350.488C274.09 350.863 273.676 351.355 273.379 351.965V361H271.211V348.32H273.262ZM286.809 361H284.641V348.32H286.809V361ZM284.465 344.957C284.465 344.605 284.57 344.309 284.781 344.066C285 343.824 285.32 343.703 285.742 343.703C286.164 343.703 286.484 343.824 286.703 344.066C286.922 344.309 287.031 344.605 287.031 344.957C287.031 345.309 286.922 345.602 286.703 345.836C286.484 346.07 286.164 346.188 285.742 346.188C285.32 346.188 285 346.07 284.781 345.836C284.57 345.602 284.465 345.309 284.465 344.957Z" fill="white"/>
<path d="M32.0938 409.219H34.2656C35.6302 409.198 36.7031 408.839 37.4844 408.141C38.2656 407.443 38.6562 406.5 38.6562 405.312C38.6562 402.646 37.3281 401.312 34.6719 401.312C33.4219 401.312 32.4219 401.672 31.6719 402.391C30.9323 403.099 30.5625 404.042 30.5625 405.219H27.6719C27.6719 403.417 28.3281 401.922 29.6406 400.734C30.9635 399.536 32.6406 398.938 34.6719 398.938C36.8177 398.938 38.5 399.505 39.7188 400.641C40.9375 401.776 41.5469 403.354 41.5469 405.375C41.5469 406.365 41.224 407.323 40.5781 408.25C39.9427 409.177 39.0729 409.87 37.9688 410.328C39.2188 410.724 40.1823 411.38 40.8594 412.297C41.5469 413.214 41.8906 414.333 41.8906 415.656C41.8906 417.698 41.224 419.318 39.8906 420.516C38.5573 421.714 36.8229 422.312 34.6875 422.312C32.5521 422.312 30.8125 421.734 29.4688 420.578C28.1354 419.422 27.4688 417.896 27.4688 416H30.375C30.375 417.198 30.7656 418.156 31.5469 418.875C32.3281 419.594 33.375 419.953 34.6875 419.953C36.0833 419.953 37.151 419.589 37.8906 418.859C38.6302 418.13 39 417.083 39 415.719C39 414.396 38.5938 413.38 37.7812 412.672C36.9688 411.964 35.7969 411.599 34.2656 411.578H32.0938V409.219ZM57.5469 413.094V422H54.5469V399.25H62.9375C65.4271 399.25 67.375 399.885 68.7812 401.156C70.1979 402.427 70.9062 404.109 70.9062 406.203C70.9062 408.411 70.2135 410.115 68.8281 411.312C67.4531 412.5 65.4792 413.094 62.9062 413.094H57.5469ZM57.5469 410.641H62.9375C64.5417 410.641 65.7708 410.266 66.625 409.516C67.4792 408.755 67.9062 407.661 67.9062 406.234C67.9062 404.88 67.4792 403.797 66.625 402.984C65.7708 402.172 64.599 401.75 63.1094 401.719H57.5469V410.641ZM85.1406 416.062H75.6094L73.4688 422H70.375L79.0625 399.25H81.6875L90.3906 422H87.3125L85.1406 416.062ZM76.5156 413.594H84.25L80.375 402.953L76.5156 413.594ZM110.062 419.016C109.292 420.12 108.214 420.948 106.828 421.5C105.453 422.042 103.849 422.312 102.016 422.312C100.161 422.312 98.5156 421.88 97.0781 421.016C95.6406 420.141 94.526 418.901 93.7344 417.297C92.9531 415.693 92.5521 413.833 92.5312 411.719V409.734C92.5312 406.307 93.3281 403.651 94.9219 401.766C96.526 399.88 98.776 398.938 101.672 398.938C104.047 398.938 105.958 399.547 107.406 400.766C108.854 401.974 109.74 403.693 110.062 405.922H107.062C106.5 402.911 104.708 401.406 101.688 401.406C99.6771 401.406 98.151 402.115 97.1094 403.531C96.0781 404.938 95.5573 406.979 95.5469 409.656V411.516C95.5469 414.068 96.1302 416.099 97.2969 417.609C98.4635 419.109 100.042 419.859 102.031 419.859C103.156 419.859 104.141 419.734 104.984 419.484C105.828 419.234 106.526 418.812 107.078 418.219V413.109H101.812V410.672H110.062V419.016ZM127.938 411.484H118.078V419.547H129.531V422H115.078V399.25H129.375V401.719H118.078V409.031H127.938V411.484ZM139.969 411.859C137.396 411.12 135.521 410.214 134.344 409.141C133.177 408.057 132.594 406.724 132.594 405.141C132.594 403.349 133.307 401.87 134.734 400.703C136.172 399.526 138.036 398.938 140.328 398.938C141.891 398.938 143.281 399.24 144.5 399.844C145.729 400.448 146.677 401.281 147.344 402.344C148.021 403.406 148.359 404.568 148.359 405.828H145.344C145.344 404.453 144.906 403.375 144.031 402.594C143.156 401.802 141.922 401.406 140.328 401.406C138.849 401.406 137.693 401.734 136.859 402.391C136.036 403.036 135.625 403.938 135.625 405.094C135.625 406.021 136.016 406.807 136.797 407.453C137.589 408.089 138.927 408.672 140.812 409.203C142.708 409.734 144.188 410.323 145.25 410.969C146.323 411.604 147.115 412.349 147.625 413.203C148.146 414.057 148.406 415.062 148.406 416.219C148.406 418.062 147.688 419.542 146.25 420.656C144.812 421.76 142.891 422.312 140.484 422.312C138.922 422.312 137.464 422.016 136.109 421.422C134.755 420.818 133.708 419.995 132.969 418.953C132.24 417.911 131.875 416.729 131.875 415.406H134.891C134.891 416.781 135.396 417.87 136.406 418.672C137.427 419.464 138.786 419.859 140.484 419.859C142.068 419.859 143.281 419.536 144.125 418.891C144.969 418.245 145.391 417.365 145.391 416.25C145.391 415.135 145 414.276 144.219 413.672C143.438 413.057 142.021 412.453 139.969 411.859Z" fill="#DCAC65"/>
<defs>
<filter id="filter0_d_46_5" x="120.572" y="29.4961" width="147.569" height="32.8359" filterUnits="userSpaceOnUse" color-interpolation-filters="sRGB">
<feFlood flood-opacity="0" result="BackgroundImageFix"/>
<feColorMatrix in="SourceAlpha" type="matrix" values="0 0 0 0 0 0 0 0 0 0 0 0 0 0 0 0 0 0 127 0" result="hardAlpha"/>
<feOffset dy="4"/>
<feGaussianBlur stdDeviation="2"/>
<feComposite in2="hardAlpha" operator="out"/>
<feColorMatrix type="matrix" values="0 0 0 0 0 0 0 0 0 0 0 0 0 0 0 0 0 0 0.25 0"/>
<feBlend mode="normal" in2="BackgroundImageFix" result="effect1_dropShadow_46_5"/>
<feBlend mode="normal" in="SourceGraphic" in2="effect1_dropShadow_46_5" result="shape"/>
</filter>
<linearGradient id="paint0_linear_46_5" x1="194" y1="120" x2="194" y2="-328" gradientUnits="userSpaceOnUse">
<stop stop-color="#5B5BD9"/>
<stop offset="1" stop-color="#5B5BD9" stop-opacity="0"/>
</linearGradient>
<linearGradient id="paint1_linear_46_5" x1="250.5" y1="393" x2="251" y2="556" gradientUnits="userSpaceOnUse">
<stop offset="0.5" stop-color="#5B5BD9"/>
<stop offset="1" stop-color="#5B5BD9" stop-opacity="0"/>
</linearGradient>
<linearGradient id="paint2_linear_46_5" x1="99" y1="625" x2="99" y2="455" gradientUnits="userSpaceOnUse">
<stop offset="0.59375" stop-color="#5656CA"/>
<stop offset="1" stop-color="#5656CA" stop-opacity="0"/>
</linearGradient>
</defs>
</svg>
