<svg width="388" height="558" viewBox="0 0 388 558" fill="none" xmlns="http://www.w3.org/2000/svg">
<rect width="388" height="558" fill="url(#paint0_linear_54_3)" fill-opacity="0.71"/>
<rect x="1" y="1" width="386" height="556" stroke="white" stroke-opacity="0.42" stroke-width="2"/>
<g filter="url(#filter0_d_54_3)">
<path d="M118.996 54V29.8281H126.898C129.521 29.8281 131.492 30.3704 132.809 31.4551C134.137 32.5397 134.801 34.1445 134.801 36.2695C134.801 37.3984 134.48 38.4001 133.838 39.2744C133.196 40.1377 132.322 40.8073 131.215 41.2832C132.521 41.6484 133.55 42.3457 134.303 43.375C135.066 44.3932 135.448 45.6107 135.448 47.0273C135.448 49.1966 134.745 50.901 133.34 52.1406C131.934 53.3802 129.948 54 127.38 54H118.996ZM122.184 42.6943V51.3936H127.446C128.929 51.3936 130.097 51.0117 130.949 50.248C131.812 49.4733 132.244 48.4108 132.244 47.0605C132.244 44.1497 130.661 42.6943 127.496 42.6943H122.184ZM122.184 40.1377H126.998C128.393 40.1377 129.505 39.7891 130.335 39.0918C131.176 38.3945 131.597 37.4482 131.597 36.2529C131.597 34.9248 131.209 33.9619 130.435 33.3643C129.66 32.7555 128.481 32.4512 126.898 32.4512H122.184V40.1377ZM157.196 29.8281V46.2637C157.185 48.5436 156.466 50.4085 155.038 51.8584C153.621 53.3083 151.696 54.1217 149.261 54.2988L148.414 54.332C145.769 54.332 143.66 53.6182 142.089 52.1904C140.517 50.7627 139.72 48.7982 139.698 46.2969V29.8281H142.853V46.1973C142.853 47.946 143.334 49.3073 144.297 50.2812C145.26 51.2441 146.632 51.7256 148.414 51.7256C150.218 51.7256 151.596 51.2441 152.548 50.2812C153.511 49.3184 153.992 47.9626 153.992 46.2139V29.8281H157.196ZM169.349 43.2256C166.615 42.4398 164.623 41.4769 163.372 40.3369C162.132 39.1859 161.513 37.7692 161.513 36.0869C161.513 34.1833 162.271 32.6117 163.787 31.3721C165.314 30.1214 167.296 29.4961 169.73 29.4961C171.391 29.4961 172.868 29.8171 174.163 30.459C175.469 31.1009 176.476 31.9863 177.185 33.1152C177.904 34.2441 178.264 35.4782 178.264 36.8174H175.06C175.06 35.3564 174.595 34.2109 173.665 33.3809C172.735 32.5397 171.424 32.1191 169.73 32.1191C168.159 32.1191 166.93 32.4678 166.045 33.165C165.171 33.8512 164.733 34.8086 164.733 36.0371C164.733 37.0221 165.148 37.8577 165.979 38.5439C166.82 39.2191 168.242 39.8389 170.245 40.4033C172.259 40.9678 173.831 41.5931 174.96 42.2793C176.1 42.9544 176.941 43.7458 177.483 44.6533C178.037 45.5609 178.313 46.6289 178.313 47.8574C178.313 49.8164 177.55 51.388 176.022 52.5723C174.495 53.7454 172.453 54.332 169.896 54.332C168.236 54.332 166.687 54.0166 165.248 53.3857C163.809 52.7438 162.697 51.8695 161.911 50.7627C161.136 49.6559 160.749 48.3997 160.749 46.9941H163.953C163.953 48.4551 164.49 49.6117 165.563 50.4639C166.648 51.305 168.092 51.7256 169.896 51.7256C171.579 51.7256 172.868 51.3825 173.765 50.6963C174.661 50.0101 175.109 49.0749 175.109 47.8906C175.109 46.7064 174.694 45.7933 173.864 45.1514C173.034 44.4984 171.529 43.8564 169.349 43.2256ZM185.834 54H182.646V29.8281H185.834V54ZM210.255 54H207.051L194.882 35.373V54H191.678V29.8281H194.882L207.084 48.5381V29.8281H210.255V54ZM229.579 42.8271H219.104V51.3936H231.272V54H215.916V29.8281H231.106V32.4512H219.104V40.2207H229.579V42.8271ZM242.362 43.2256C239.629 42.4398 237.636 41.4769 236.386 40.3369C235.146 39.1859 234.526 37.7692 234.526 36.0869C234.526 34.1833 235.285 32.6117 236.801 31.3721C238.328 30.1214 240.309 29.4961 242.744 29.4961C244.404 29.4961 245.882 29.8171 247.177 30.459C248.483 31.1009 249.49 31.9863 250.198 33.1152C250.918 34.2441 251.277 35.4782 251.277 36.8174H248.073C248.073 35.3564 247.608 34.2109 246.679 33.3809C245.749 32.5397 244.438 32.1191 242.744 32.1191C241.173 32.1191 239.944 32.4678 239.059 33.165C238.184 33.8512 237.747 34.8086 237.747 36.0371C237.747 37.0221 238.162 37.8577 238.992 38.5439C239.833 39.2191 241.256 39.8389 243.259 40.4033C245.273 40.9678 246.845 41.5931 247.974 42.2793C249.114 42.9544 249.955 43.7458 250.497 44.6533C251.05 45.5609 251.327 46.6289 251.327 47.8574C251.327 49.8164 250.563 51.388 249.036 52.5723C247.509 53.7454 245.467 54.332 242.91 54.332C241.25 54.332 239.701 54.0166 238.262 53.3857C236.823 52.7438 235.711 51.8695 234.925 50.7627C234.15 49.6559 233.763 48.3997 233.763 46.9941H236.967C236.967 48.4551 237.504 49.6117 238.577 50.4639C239.662 51.305 241.106 51.7256 242.91 51.7256C244.592 51.7256 245.882 51.3825 246.778 50.6963C247.675 50.0101 248.123 49.0749 248.123 47.8906C248.123 46.7064 247.708 45.7933 246.878 45.1514C246.048 44.4984 244.543 43.8564 242.362 43.2256ZM262.55 43.2256C259.816 42.4398 257.824 41.4769 256.573 40.3369C255.334 39.1859 254.714 37.7692 254.714 36.0869C254.714 34.1833 255.472 32.6117 256.988 31.3721C258.516 30.1214 260.497 29.4961 262.932 29.4961C264.592 29.4961 266.069 29.8171 267.364 30.459C268.67 31.1009 269.677 31.9863 270.386 33.1152C271.105 34.2441 271.465 35.4782 271.465 36.8174H268.261C268.261 35.3564 267.796 34.2109 266.866 33.3809C265.937 32.5397 264.625 32.1191 262.932 32.1191C261.36 32.1191 260.132 32.4678 259.246 33.165C258.372 33.8512 257.935 34.8086 257.935 36.0371C257.935 37.0221 258.35 37.8577 259.18 38.5439C260.021 39.2191 261.443 39.8389 263.446 40.4033C265.461 40.9678 267.032 41.5931 268.161 42.2793C269.301 42.9544 270.142 43.7458 270.685 44.6533C271.238 45.5609 271.515 46.6289 271.515 47.8574C271.515 49.8164 270.751 51.388 269.224 52.5723C267.696 53.7454 265.654 54.332 263.098 54.332C261.438 54.332 259.888 54.0166 258.449 53.3857C257.01 52.7438 255.898 51.8695 255.112 50.7627C254.338 49.6559 253.95 48.3997 253.95 46.9941H257.154C257.154 48.4551 257.691 49.6117 258.765 50.4639C259.849 51.305 261.294 51.7256 263.098 51.7256C264.78 51.7256 266.069 51.3825 266.966 50.6963C267.862 50.0101 268.311 49.0749 268.311 47.8906C268.311 46.7064 267.896 45.7933 267.065 45.1514C266.235 44.4984 264.73 43.8564 262.55 43.2256Z" fill="#DCAC65"/>
</g>
<path d="M386 392L133 541.603L118 556H386V392Z" fill="url(#paint1_linear_54_3)"/>
<path d="M195 556L2 465V556H195Z" fill="url(#paint2_linear_54_3)"/>
<line x1="73" y1="74.5" x2="315" y2="74.5" stroke="white"/>
<path d="M97.0918 103.456H89.0811V110.007H98.3867V112H86.6436V93.5156H98.2598V95.5215H89.0811V101.463H97.0918V103.456ZM115.018 106.135C114.789 108.09 114.065 109.601 112.847 110.667C111.636 111.725 110.024 112.254 108.01 112.254C105.826 112.254 104.074 111.471 102.754 109.905C101.442 108.34 100.786 106.245 100.786 103.621V101.844C100.786 100.126 101.091 98.6149 101.7 97.3115C102.318 96.0081 103.19 95.0094 104.315 94.3154C105.441 93.613 106.744 93.2617 108.226 93.2617C110.189 93.2617 111.763 93.8118 112.948 94.9121C114.133 96.0039 114.823 97.5189 115.018 99.457H112.567C112.356 97.9844 111.895 96.918 111.184 96.2578C110.481 95.5977 109.495 95.2676 108.226 95.2676C106.668 95.2676 105.445 95.8431 104.557 96.9941C103.676 98.1452 103.236 99.7829 103.236 101.907V103.697C103.236 105.703 103.655 107.299 104.493 108.483C105.331 109.668 106.503 110.261 108.01 110.261C109.364 110.261 110.401 109.956 111.12 109.347C111.848 108.729 112.33 107.658 112.567 106.135H115.018ZM132.575 103.354C132.575 105.166 132.271 106.748 131.661 108.103C131.052 109.448 130.188 110.477 129.071 111.188C127.954 111.898 126.651 112.254 125.161 112.254C123.705 112.254 122.415 111.898 121.289 111.188C120.163 110.468 119.287 109.448 118.661 108.128C118.043 106.799 117.726 105.263 117.709 103.52V102.187C117.709 100.409 118.018 98.8392 118.636 97.4766C119.254 96.1139 120.125 95.0729 121.251 94.3535C122.385 93.6257 123.68 93.2617 125.136 93.2617C126.617 93.2617 127.92 93.6214 129.046 94.3408C130.18 95.0518 131.052 96.0885 131.661 97.4512C132.271 98.8053 132.575 100.384 132.575 102.187V103.354ZM130.15 102.161C130.15 99.9691 129.71 98.2891 128.83 97.1211C127.95 95.9447 126.718 95.3564 125.136 95.3564C123.595 95.3564 122.381 95.9447 121.492 97.1211C120.612 98.2891 120.159 99.9141 120.134 101.996V103.354C120.134 105.479 120.578 107.15 121.467 108.369C122.364 109.579 123.595 110.185 125.161 110.185C126.735 110.185 127.954 109.613 128.817 108.471C129.681 107.32 130.125 105.674 130.15 103.532V102.161ZM139.38 93.5156L145.423 108.598L151.466 93.5156H154.627V112H152.189V104.802L152.418 97.0322L146.35 112H144.483L138.428 97.0703L138.669 104.802V112H136.231V93.5156H139.38ZM162.079 93.5156L168.122 108.598L174.165 93.5156H177.326V112H174.889V104.802L175.117 97.0322L169.049 112H167.183L161.127 97.0703L161.368 104.802V112H158.931V93.5156H162.079ZM192.078 103.456H184.067V110.007H193.373V112H181.63V93.5156H193.246V95.5215H184.067V101.463H192.078V103.456ZM203.187 104.522H198.845V112H196.395V93.5156H202.514C204.596 93.5156 206.195 93.9896 207.312 94.9375C208.438 95.8854 209.001 97.265 209.001 99.0762C209.001 100.227 208.688 101.23 208.062 102.085C207.444 102.94 206.58 103.579 205.472 104.002L209.813 111.848V112H207.198L203.187 104.522ZM198.845 102.529H202.59C203.8 102.529 204.761 102.216 205.472 101.59C206.191 100.964 206.551 100.126 206.551 99.0762C206.551 97.9336 206.208 97.0576 205.522 96.4482C204.845 95.8389 203.864 95.5299 202.577 95.5215H198.845V102.529ZM226.025 106.135C225.797 108.09 225.073 109.601 223.854 110.667C222.644 111.725 221.032 112.254 219.018 112.254C216.834 112.254 215.082 111.471 213.762 109.905C212.45 108.34 211.794 106.245 211.794 103.621V101.844C211.794 100.126 212.099 98.6149 212.708 97.3115C213.326 96.0081 214.198 95.0094 215.323 94.3154C216.449 93.613 217.752 93.2617 219.233 93.2617C221.197 93.2617 222.771 93.8118 223.956 94.9121C225.141 96.0039 225.831 97.5189 226.025 99.457H223.575C223.364 97.9844 222.902 96.918 222.191 96.2578C221.489 95.5977 220.503 95.2676 219.233 95.2676C217.676 95.2676 216.453 95.8431 215.564 96.9941C214.684 98.1452 214.244 99.7829 214.244 101.907V103.697C214.244 105.703 214.663 107.299 215.501 108.483C216.339 109.668 217.511 110.261 219.018 110.261C220.372 110.261 221.409 109.956 222.128 109.347C222.856 108.729 223.338 107.658 223.575 106.135H226.025ZM239.812 103.456H231.802V110.007H241.107V112H229.364V93.5156H240.98V95.5215H231.802V101.463H239.812V103.456ZM254.577 106.173L254.933 108.61L255.453 106.414L259.109 93.5156H261.166L264.733 106.414L265.241 108.648L265.635 106.16L268.504 93.5156H270.954L266.473 112H264.251L260.442 98.5303L260.15 97.1211L259.858 98.5303L255.91 112H253.688L249.22 93.5156H251.657L254.577 106.173ZM284.119 103.456H276.108V110.007H285.414V112H273.671V93.5156H285.287V95.5215H276.108V101.463H284.119V103.456ZM288.448 112V93.5156H294.491C296.497 93.5156 298.004 93.9303 299.011 94.7598C300.026 95.5892 300.534 96.8164 300.534 98.4414C300.534 99.3047 300.289 100.071 299.798 100.739C299.307 101.399 298.638 101.911 297.792 102.275C298.791 102.555 299.578 103.088 300.153 103.875C300.737 104.654 301.029 105.585 301.029 106.668C301.029 108.327 300.492 109.63 299.417 110.578C298.342 111.526 296.823 112 294.859 112H288.448ZM290.886 103.354V110.007H294.91C296.044 110.007 296.937 109.715 297.589 109.131C298.249 108.538 298.579 107.726 298.579 106.693C298.579 104.467 297.369 103.354 294.948 103.354H290.886ZM290.886 101.399H294.567C295.634 101.399 296.484 101.133 297.119 100.6C297.762 100.066 298.084 99.3428 298.084 98.4287C298.084 97.4131 297.788 96.6768 297.195 96.2197C296.603 95.7542 295.701 95.5215 294.491 95.5215H290.886V101.399Z" fill="white"/>
<path d="M278.234 499.828H281.492C283.539 499.797 285.148 499.258 286.32 498.211C287.492 497.164 288.078 495.75 288.078 493.969C288.078 489.969 286.086 487.969 282.102 487.969C280.227 487.969 278.727 488.508 277.602 489.586C276.492 490.648 275.938 492.062 275.938 493.828H271.602C271.602 491.125 272.586 488.883 274.555 487.102C276.539 485.305 279.055 484.406 282.102 484.406C285.32 484.406 287.844 485.258 289.672 486.961C291.5 488.664 292.414 491.031 292.414 494.062C292.414 495.547 291.93 496.984 290.961 498.375C290.008 499.766 288.703 500.805 287.047 501.492C288.922 502.086 290.367 503.07 291.383 504.445C292.414 505.82 292.93 507.5 292.93 509.484C292.93 512.547 291.93 514.977 289.93 516.773C287.93 518.57 285.328 519.469 282.125 519.469C278.922 519.469 276.312 518.602 274.297 516.867C272.297 515.133 271.297 512.844 271.297 510H275.656C275.656 511.797 276.242 513.234 277.414 514.312C278.586 515.391 280.156 515.93 282.125 515.93C284.219 515.93 285.82 515.383 286.93 514.289C288.039 513.195 288.594 511.625 288.594 509.578C288.594 507.594 287.984 506.07 286.766 505.008C285.547 503.945 283.789 503.398 281.492 503.367H278.234V499.828ZM315.5 504C314.594 505.078 313.508 505.945 312.242 506.602C310.992 507.258 309.617 507.586 308.117 507.586C306.148 507.586 304.43 507.102 302.961 506.133C301.508 505.164 300.383 503.805 299.586 502.055C298.789 500.289 298.391 498.344 298.391 496.219C298.391 493.938 298.82 491.883 299.68 490.055C300.555 488.227 301.789 486.828 303.383 485.859C304.977 484.891 306.836 484.406 308.961 484.406C312.336 484.406 314.992 485.672 316.93 488.203C318.883 490.719 319.859 494.156 319.859 498.516V499.781C319.859 506.422 318.547 511.273 315.922 514.336C313.297 517.383 309.336 518.945 304.039 519.023H303.195V515.367H304.109C307.688 515.305 310.438 514.375 312.359 512.578C314.281 510.766 315.328 507.906 315.5 504ZM308.82 504C310.273 504 311.609 503.555 312.828 502.664C314.062 501.773 314.961 500.672 315.523 499.359V497.625C315.523 494.781 314.906 492.469 313.672 490.688C312.438 488.906 310.875 488.016 308.984 488.016C307.078 488.016 305.547 488.75 304.391 490.219C303.234 491.672 302.656 493.594 302.656 495.984C302.656 498.312 303.211 500.234 304.32 501.75C305.445 503.25 306.945 504 308.82 504ZM342.453 504C341.547 505.078 340.461 505.945 339.195 506.602C337.945 507.258 336.57 507.586 335.07 507.586C333.102 507.586 331.383 507.102 329.914 506.133C328.461 505.164 327.336 503.805 326.539 502.055C325.742 500.289 325.344 498.344 325.344 496.219C325.344 493.938 325.773 491.883 326.633 490.055C327.508 488.227 328.742 486.828 330.336 485.859C331.93 484.891 333.789 484.406 335.914 484.406C339.289 484.406 341.945 485.672 343.883 488.203C345.836 490.719 346.812 494.156 346.812 498.516V499.781C346.812 506.422 345.5 511.273 342.875 514.336C340.25 517.383 336.289 518.945 330.992 519.023H330.148V515.367H331.062C334.641 515.305 337.391 514.375 339.312 512.578C341.234 510.766 342.281 507.906 342.453 504ZM335.773 504C337.227 504 338.562 503.555 339.781 502.664C341.016 501.773 341.914 500.672 342.477 499.359V497.625C342.477 494.781 341.859 492.469 340.625 490.688C339.391 488.906 337.828 488.016 335.938 488.016C334.031 488.016 332.5 488.75 331.344 490.219C330.188 491.672 329.609 493.594 329.609 495.984C329.609 498.312 330.164 500.234 331.273 501.75C332.398 503.25 333.898 504 335.773 504ZM370.016 510.211C370.016 508.773 369.508 507.562 368.492 506.578C367.492 505.594 365.797 504.703 363.406 503.906C360.078 502.891 357.648 501.57 356.117 499.945C354.602 498.305 353.844 496.227 353.844 493.711C353.844 491.148 354.586 489.047 356.07 487.406C357.57 485.766 359.625 484.789 362.234 484.477V479.344H365.727V484.5C368.352 484.859 370.391 485.961 371.844 487.805C373.312 489.648 374.047 492.172 374.047 495.375H369.734C369.734 493.172 369.211 491.422 368.164 490.125C367.117 488.828 365.703 488.18 363.922 488.18C362.062 488.18 360.641 488.664 359.656 489.633C358.672 490.586 358.18 491.922 358.18 493.641C358.18 495.234 358.695 496.508 359.727 497.461C360.773 498.398 362.484 499.258 364.859 500.039C367.25 500.805 369.109 501.656 370.438 502.594C371.781 503.516 372.766 504.594 373.391 505.828C374.031 507.062 374.352 508.508 374.352 510.164C374.352 512.805 373.555 514.93 371.961 516.539C370.383 518.148 368.164 519.102 365.305 519.398V523.875H361.836V519.398C358.93 519.133 356.648 518.102 354.992 516.305C353.352 514.492 352.531 512.039 352.531 508.945H356.867C356.867 511.117 357.438 512.789 358.578 513.961C359.719 515.133 361.336 515.719 363.43 515.719C365.477 515.719 367.086 515.227 368.258 514.242C369.43 513.258 370.016 511.914 370.016 510.211Z" fill="#DCAC65"/>
<path d="M98.2422 164.16H106.328V166H95.9805V148.938H98.2422V164.16ZM107.98 159.543C107.98 158.301 108.223 157.184 108.707 156.191C109.199 155.199 109.879 154.434 110.746 153.895C111.621 153.355 112.617 153.086 113.734 153.086C115.461 153.086 116.855 153.684 117.918 154.879C118.988 156.074 119.523 157.664 119.523 159.648V159.801C119.523 161.035 119.285 162.145 118.809 163.129C118.34 164.105 117.664 164.867 116.781 165.414C115.906 165.961 114.898 166.234 113.758 166.234C112.039 166.234 110.645 165.637 109.574 164.441C108.512 163.246 107.98 161.664 107.98 159.695V159.543ZM110.16 159.801C110.16 161.207 110.484 162.336 111.133 163.188C111.789 164.039 112.664 164.465 113.758 164.465C114.859 164.465 115.734 164.035 116.383 163.176C117.031 162.309 117.355 161.098 117.355 159.543C117.355 158.152 117.023 157.027 116.359 156.168C115.703 155.301 114.828 154.867 113.734 154.867C112.664 154.867 111.801 155.293 111.145 156.145C110.488 156.996 110.16 158.215 110.16 159.801ZM128.371 155.266C128.043 155.211 127.688 155.184 127.305 155.184C125.883 155.184 124.918 155.789 124.41 157V166H122.242V153.32H124.352L124.387 154.785C125.098 153.652 126.105 153.086 127.41 153.086C127.832 153.086 128.152 153.141 128.371 153.25V155.266ZM135.402 166.234C133.684 166.234 132.285 165.672 131.207 164.547C130.129 163.414 129.59 161.902 129.59 160.012V159.613C129.59 158.355 129.828 157.234 130.305 156.25C130.789 155.258 131.461 154.484 132.32 153.93C133.188 153.367 134.125 153.086 135.133 153.086C136.781 153.086 138.062 153.629 138.977 154.715C139.891 155.801 140.348 157.355 140.348 159.379V160.281H131.758C131.789 161.531 132.152 162.543 132.848 163.316C133.551 164.082 134.441 164.465 135.52 164.465C136.285 164.465 136.934 164.309 137.465 163.996C137.996 163.684 138.461 163.27 138.859 162.754L140.184 163.785C139.121 165.418 137.527 166.234 135.402 166.234ZM135.133 154.867C134.258 154.867 133.523 155.188 132.93 155.828C132.336 156.461 131.969 157.352 131.828 158.5H138.18V158.336C138.117 157.234 137.82 156.383 137.289 155.781C136.758 155.172 136.039 154.867 135.133 154.867ZM144.906 153.32L144.965 154.727C145.895 153.633 147.148 153.086 148.727 153.086C150.5 153.086 151.707 153.766 152.348 155.125C152.77 154.516 153.316 154.023 153.988 153.648C154.668 153.273 155.469 153.086 156.391 153.086C159.172 153.086 160.586 154.559 160.633 157.504V166H158.465V157.633C158.465 156.727 158.258 156.051 157.844 155.605C157.43 155.152 156.734 154.926 155.758 154.926C154.953 154.926 154.285 155.168 153.754 155.652C153.223 156.129 152.914 156.773 152.828 157.586V166H150.648V157.691C150.648 155.848 149.746 154.926 147.941 154.926C146.52 154.926 145.547 155.531 145.023 156.742V166H142.855V153.32H144.906ZM172.223 166H170.055V153.32H172.223V166ZM169.879 149.957C169.879 149.605 169.984 149.309 170.195 149.066C170.414 148.824 170.734 148.703 171.156 148.703C171.578 148.703 171.898 148.824 172.117 149.066C172.336 149.309 172.445 149.605 172.445 149.957C172.445 150.309 172.336 150.602 172.117 150.836C171.898 151.07 171.578 151.188 171.156 151.188C170.734 151.188 170.414 151.07 170.195 150.836C169.984 150.602 169.879 150.309 169.879 149.957ZM186.414 159.801C186.414 161.73 185.973 163.285 185.09 164.465C184.207 165.645 183.012 166.234 181.504 166.234C179.965 166.234 178.754 165.746 177.871 164.77V170.875H175.703V153.32H177.684L177.789 154.727C178.672 153.633 179.898 153.086 181.469 153.086C182.992 153.086 184.195 153.66 185.078 154.809C185.969 155.957 186.414 157.555 186.414 159.602V159.801ZM184.246 159.555C184.246 158.125 183.941 156.996 183.332 156.168C182.723 155.34 181.887 154.926 180.824 154.926C179.512 154.926 178.527 155.508 177.871 156.672V162.73C178.52 163.887 179.512 164.465 180.848 164.465C181.887 164.465 182.711 164.055 183.32 163.234C183.938 162.406 184.246 161.18 184.246 159.555ZM196.562 162.637C196.562 162.051 196.34 161.598 195.895 161.277C195.457 160.949 194.688 160.668 193.586 160.434C192.492 160.199 191.621 159.918 190.973 159.59C190.332 159.262 189.855 158.871 189.543 158.418C189.238 157.965 189.086 157.426 189.086 156.801C189.086 155.762 189.523 154.883 190.398 154.164C191.281 153.445 192.406 153.086 193.773 153.086C195.211 153.086 196.375 153.457 197.266 154.199C198.164 154.941 198.613 155.891 198.613 157.047H196.434C196.434 156.453 196.18 155.941 195.672 155.512C195.172 155.082 194.539 154.867 193.773 154.867C192.984 154.867 192.367 155.039 191.922 155.383C191.477 155.727 191.254 156.176 191.254 156.73C191.254 157.254 191.461 157.648 191.875 157.914C192.289 158.18 193.035 158.434 194.113 158.676C195.199 158.918 196.078 159.207 196.75 159.543C197.422 159.879 197.918 160.285 198.238 160.762C198.566 161.23 198.73 161.805 198.73 162.484C198.73 163.617 198.277 164.527 197.371 165.215C196.465 165.895 195.289 166.234 193.844 166.234C192.828 166.234 191.93 166.055 191.148 165.695C190.367 165.336 189.754 164.836 189.309 164.195C188.871 163.547 188.652 162.848 188.652 162.098H190.82C190.859 162.824 191.148 163.402 191.688 163.832C192.234 164.254 192.953 164.465 193.844 164.465C194.664 164.465 195.32 164.301 195.812 163.973C196.312 163.637 196.562 163.191 196.562 162.637ZM209.383 164.746C208.539 165.738 207.301 166.234 205.668 166.234C204.316 166.234 203.285 165.844 202.574 165.062C201.871 164.273 201.516 163.109 201.508 161.57V153.32H203.676V161.512C203.676 163.434 204.457 164.395 206.02 164.395C207.676 164.395 208.777 163.777 209.324 162.543V153.32H211.492V166H209.43L209.383 164.746ZM216.836 153.32L216.895 154.727C217.824 153.633 219.078 153.086 220.656 153.086C222.43 153.086 223.637 153.766 224.277 155.125C224.699 154.516 225.246 154.023 225.918 153.648C226.598 153.273 227.398 153.086 228.32 153.086C231.102 153.086 232.516 154.559 232.562 157.504V166H230.395V157.633C230.395 156.727 230.188 156.051 229.773 155.605C229.359 155.152 228.664 154.926 227.688 154.926C226.883 154.926 226.215 155.168 225.684 155.652C225.152 156.129 224.844 156.773 224.758 157.586V166H222.578V157.691C222.578 155.848 221.676 154.926 219.871 154.926C218.449 154.926 217.477 155.531 216.953 156.742V166H214.785V153.32H216.836ZM241.27 159.555C241.27 157.609 241.73 156.047 242.652 154.867C243.574 153.68 244.781 153.086 246.273 153.086C247.758 153.086 248.934 153.594 249.801 154.609V148H251.969V166H249.977L249.871 164.641C249.004 165.703 247.797 166.234 246.25 166.234C244.781 166.234 243.582 165.633 242.652 164.43C241.73 163.227 241.27 161.656 241.27 159.719V159.555ZM243.438 159.801C243.438 161.238 243.734 162.363 244.328 163.176C244.922 163.988 245.742 164.395 246.789 164.395C248.164 164.395 249.168 163.777 249.801 162.543V156.719C249.152 155.523 248.156 154.926 246.812 154.926C245.75 154.926 244.922 155.336 244.328 156.156C243.734 156.977 243.438 158.191 243.438 159.801ZM254.77 159.543C254.77 158.301 255.012 157.184 255.496 156.191C255.988 155.199 256.668 154.434 257.535 153.895C258.41 153.355 259.406 153.086 260.523 153.086C262.25 153.086 263.645 153.684 264.707 154.879C265.777 156.074 266.312 157.664 266.312 159.648V159.801C266.312 161.035 266.074 162.145 265.598 163.129C265.129 164.105 264.453 164.867 263.57 165.414C262.695 165.961 261.688 166.234 260.547 166.234C258.828 166.234 257.434 165.637 256.363 164.441C255.301 163.246 254.77 161.664 254.77 159.695V159.543ZM256.949 159.801C256.949 161.207 257.273 162.336 257.922 163.188C258.578 164.039 259.453 164.465 260.547 164.465C261.648 164.465 262.523 164.035 263.172 163.176C263.82 162.309 264.145 161.098 264.145 159.543C264.145 158.152 263.812 157.027 263.148 156.168C262.492 155.301 261.617 154.867 260.523 154.867C259.453 154.867 258.59 155.293 257.934 156.145C257.277 156.996 256.949 158.215 256.949 159.801ZM271.387 166H269.219V148H271.387V166ZM274.293 159.543C274.293 158.301 274.535 157.184 275.02 156.191C275.512 155.199 276.191 154.434 277.059 153.895C277.934 153.355 278.93 153.086 280.047 153.086C281.773 153.086 283.168 153.684 284.23 154.879C285.301 156.074 285.836 157.664 285.836 159.648V159.801C285.836 161.035 285.598 162.145 285.121 163.129C284.652 164.105 283.977 164.867 283.094 165.414C282.219 165.961 281.211 166.234 280.07 166.234C278.352 166.234 276.957 165.637 275.887 164.441C274.824 163.246 274.293 161.664 274.293 159.695V159.543ZM276.473 159.801C276.473 161.207 276.797 162.336 277.445 163.188C278.102 164.039 278.977 164.465 280.07 164.465C281.172 164.465 282.047 164.035 282.695 163.176C283.344 162.309 283.668 161.098 283.668 159.543C283.668 158.152 283.336 157.027 282.672 156.168C282.016 155.301 281.141 154.867 280.047 154.867C278.977 154.867 278.113 155.293 277.457 156.145C276.801 156.996 276.473 158.215 276.473 159.801ZM294.684 155.266C294.355 155.211 294 155.184 293.617 155.184C292.195 155.184 291.23 155.789 290.723 157V166H288.555V153.32H290.664L290.699 154.785C291.41 153.652 292.418 153.086 293.723 153.086C294.145 153.086 294.465 153.141 294.684 153.25V155.266Z" fill="white"/>
<path d="M74.0234 201.637C74.0234 201.051 73.8008 200.598 73.3555 200.277C72.918 199.949 72.1484 199.668 71.0469 199.434C69.9531 199.199 69.082 198.918 68.4336 198.59C67.793 198.262 67.3164 197.871 67.0039 197.418C66.6992 196.965 66.5469 196.426 66.5469 195.801C66.5469 194.762 66.9844 193.883 67.8594 193.164C68.7422 192.445 69.8672 192.086 71.2344 192.086C72.6719 192.086 73.8359 192.457 74.7266 193.199C75.625 193.941 76.0742 194.891 76.0742 196.047H73.8945C73.8945 195.453 73.6406 194.941 73.1328 194.512C72.6328 194.082 72 193.867 71.2344 193.867C70.4453 193.867 69.8281 194.039 69.3828 194.383C68.9375 194.727 68.7148 195.176 68.7148 195.73C68.7148 196.254 68.9219 196.648 69.3359 196.914C69.75 197.18 70.4961 197.434 71.5742 197.676C72.6602 197.918 73.5391 198.207 74.2109 198.543C74.8828 198.879 75.3789 199.285 75.6992 199.762C76.0273 200.23 76.1914 200.805 76.1914 201.484C76.1914 202.617 75.7383 203.527 74.832 204.215C73.9258 204.895 72.75 205.234 71.3047 205.234C70.2891 205.234 69.3906 205.055 68.6094 204.695C67.8281 204.336 67.2148 203.836 66.7695 203.195C66.332 202.547 66.1133 201.848 66.1133 201.098H68.2812C68.3203 201.824 68.6094 202.402 69.1484 202.832C69.6953 203.254 70.4141 203.465 71.3047 203.465C72.125 203.465 72.7812 203.301 73.2734 202.973C73.7734 202.637 74.0234 202.191 74.0234 201.637ZM81.3711 205H79.2031V192.32H81.3711V205ZM79.0273 188.957C79.0273 188.605 79.1328 188.309 79.3438 188.066C79.5625 187.824 79.8828 187.703 80.3047 187.703C80.7266 187.703 81.0469 187.824 81.2656 188.066C81.4844 188.309 81.5938 188.605 81.5938 188.957C81.5938 189.309 81.4844 189.602 81.2656 189.836C81.0469 190.07 80.7266 190.188 80.3047 190.188C79.8828 190.188 79.5625 190.07 79.3438 189.836C79.1328 189.602 79.0273 189.309 79.0273 188.957ZM87.793 189.25V192.32H90.1602V193.996H87.793V201.859C87.793 202.367 87.8984 202.75 88.1094 203.008C88.3203 203.258 88.6797 203.383 89.1875 203.383C89.4375 203.383 89.7812 203.336 90.2188 203.242V205C89.6484 205.156 89.0938 205.234 88.5547 205.234C87.5859 205.234 86.8555 204.941 86.3633 204.355C85.8711 203.77 85.625 202.938 85.625 201.859V193.996H83.3164V192.32H85.625V189.25H87.793ZM106.484 205C106.359 204.75 106.258 204.305 106.18 203.664C105.172 204.711 103.969 205.234 102.57 205.234C101.32 205.234 100.293 204.883 99.4883 204.18C98.6914 203.469 98.293 202.57 98.293 201.484C98.293 200.164 98.793 199.141 99.793 198.414C100.801 197.68 102.215 197.312 104.035 197.312H106.145V196.316C106.145 195.559 105.918 194.957 105.465 194.512C105.012 194.059 104.344 193.832 103.461 193.832C102.688 193.832 102.039 194.027 101.516 194.418C100.992 194.809 100.73 195.281 100.73 195.836H98.5508C98.5508 195.203 98.7734 194.594 99.2188 194.008C99.6719 193.414 100.281 192.945 101.047 192.602C101.82 192.258 102.668 192.086 103.59 192.086C105.051 192.086 106.195 192.453 107.023 193.188C107.852 193.914 108.281 194.918 108.312 196.199V202.035C108.312 203.199 108.461 204.125 108.758 204.812V205H106.484ZM102.887 203.348C103.566 203.348 104.211 203.172 104.82 202.82C105.43 202.469 105.871 202.012 106.145 201.449V198.848H104.445C101.789 198.848 100.461 199.625 100.461 201.18C100.461 201.859 100.688 202.391 101.141 202.773C101.594 203.156 102.176 203.348 102.887 203.348ZM113.75 192.32L113.809 193.727C114.738 192.633 115.992 192.086 117.57 192.086C119.344 192.086 120.551 192.766 121.191 194.125C121.613 193.516 122.16 193.023 122.832 192.648C123.512 192.273 124.312 192.086 125.234 192.086C128.016 192.086 129.43 193.559 129.477 196.504V205H127.309V196.633C127.309 195.727 127.102 195.051 126.688 194.605C126.273 194.152 125.578 193.926 124.602 193.926C123.797 193.926 123.129 194.168 122.598 194.652C122.066 195.129 121.758 195.773 121.672 196.586V205H119.492V196.691C119.492 194.848 118.59 193.926 116.785 193.926C115.363 193.926 114.391 194.531 113.867 195.742V205H111.699V192.32H113.75ZM138.02 205.234C136.301 205.234 134.902 204.672 133.824 203.547C132.746 202.414 132.207 200.902 132.207 199.012V198.613C132.207 197.355 132.445 196.234 132.922 195.25C133.406 194.258 134.078 193.484 134.938 192.93C135.805 192.367 136.742 192.086 137.75 192.086C139.398 192.086 140.68 192.629 141.594 193.715C142.508 194.801 142.965 196.355 142.965 198.379V199.281H134.375C134.406 200.531 134.77 201.543 135.465 202.316C136.168 203.082 137.059 203.465 138.137 203.465C138.902 203.465 139.551 203.309 140.082 202.996C140.613 202.684 141.078 202.27 141.477 201.754L142.801 202.785C141.738 204.418 140.145 205.234 138.02 205.234ZM137.75 193.867C136.875 193.867 136.141 194.188 135.547 194.828C134.953 195.461 134.586 196.352 134.445 197.5H140.797V197.336C140.734 196.234 140.438 195.383 139.906 194.781C139.375 194.172 138.656 193.867 137.75 193.867ZM148.426 189.25V192.32H150.793V193.996H148.426V201.859C148.426 202.367 148.531 202.75 148.742 203.008C148.953 203.258 149.312 203.383 149.82 203.383C150.07 203.383 150.414 203.336 150.852 203.242V205C150.281 205.156 149.727 205.234 149.188 205.234C148.219 205.234 147.488 204.941 146.996 204.355C146.504 203.77 146.258 202.938 146.258 201.859V193.996H143.949V192.32H146.258V189.25H148.426ZM153.266 208.398L152.035 207.555C152.77 206.531 153.152 205.477 153.184 204.391V202.434H155.305V204.133C155.305 204.922 155.109 205.711 154.719 206.5C154.336 207.289 153.852 207.922 153.266 208.398ZM169.086 203.465C169.859 203.465 170.535 203.23 171.113 202.762C171.691 202.293 172.012 201.707 172.074 201.004H174.125C174.086 201.73 173.836 202.422 173.375 203.078C172.914 203.734 172.297 204.258 171.523 204.648C170.758 205.039 169.945 205.234 169.086 205.234C167.359 205.234 165.984 204.66 164.961 203.512C163.945 202.355 163.438 200.777 163.438 198.777V198.414C163.438 197.18 163.664 196.082 164.117 195.121C164.57 194.16 165.219 193.414 166.062 192.883C166.914 192.352 167.918 192.086 169.074 192.086C170.496 192.086 171.676 192.512 172.613 193.363C173.559 194.215 174.062 195.32 174.125 196.68H172.074C172.012 195.859 171.699 195.188 171.137 194.664C170.582 194.133 169.895 193.867 169.074 193.867C167.973 193.867 167.117 194.266 166.508 195.062C165.906 195.852 165.605 196.996 165.605 198.496V198.906C165.605 200.367 165.906 201.492 166.508 202.281C167.109 203.07 167.969 203.465 169.086 203.465ZM175.988 198.543C175.988 197.301 176.23 196.184 176.715 195.191C177.207 194.199 177.887 193.434 178.754 192.895C179.629 192.355 180.625 192.086 181.742 192.086C183.469 192.086 184.863 192.684 185.926 193.879C186.996 195.074 187.531 196.664 187.531 198.648V198.801C187.531 200.035 187.293 201.145 186.816 202.129C186.348 203.105 185.672 203.867 184.789 204.414C183.914 204.961 182.906 205.234 181.766 205.234C180.047 205.234 178.652 204.637 177.582 203.441C176.52 202.246 175.988 200.664 175.988 198.695V198.543ZM178.168 198.801C178.168 200.207 178.492 201.336 179.141 202.188C179.797 203.039 180.672 203.465 181.766 203.465C182.867 203.465 183.742 203.035 184.391 202.176C185.039 201.309 185.363 200.098 185.363 198.543C185.363 197.152 185.031 196.027 184.367 195.168C183.711 194.301 182.836 193.867 181.742 193.867C180.672 193.867 179.809 194.293 179.152 195.145C178.496 195.996 178.168 197.215 178.168 198.801ZM192.301 192.32L192.371 193.914C193.34 192.695 194.605 192.086 196.168 192.086C198.848 192.086 200.199 193.598 200.223 196.621V205H198.055V196.609C198.047 195.695 197.836 195.02 197.422 194.582C197.016 194.145 196.379 193.926 195.512 193.926C194.809 193.926 194.191 194.113 193.66 194.488C193.129 194.863 192.715 195.355 192.418 195.965V205H190.25V192.32H192.301ZM210.875 201.637C210.875 201.051 210.652 200.598 210.207 200.277C209.77 199.949 209 199.668 207.898 199.434C206.805 199.199 205.934 198.918 205.285 198.59C204.645 198.262 204.168 197.871 203.855 197.418C203.551 196.965 203.398 196.426 203.398 195.801C203.398 194.762 203.836 193.883 204.711 193.164C205.594 192.445 206.719 192.086 208.086 192.086C209.523 192.086 210.688 192.457 211.578 193.199C212.477 193.941 212.926 194.891 212.926 196.047H210.746C210.746 195.453 210.492 194.941 209.984 194.512C209.484 194.082 208.852 193.867 208.086 193.867C207.297 193.867 206.68 194.039 206.234 194.383C205.789 194.727 205.566 195.176 205.566 195.73C205.566 196.254 205.773 196.648 206.188 196.914C206.602 197.18 207.348 197.434 208.426 197.676C209.512 197.918 210.391 198.207 211.062 198.543C211.734 198.879 212.23 199.285 212.551 199.762C212.879 200.23 213.043 200.805 213.043 201.484C213.043 202.617 212.59 203.527 211.684 204.215C210.777 204.895 209.602 205.234 208.156 205.234C207.141 205.234 206.242 205.055 205.461 204.695C204.68 204.336 204.066 203.836 203.621 203.195C203.184 202.547 202.965 201.848 202.965 201.098H205.133C205.172 201.824 205.461 202.402 206 202.832C206.547 203.254 207.266 203.465 208.156 203.465C208.977 203.465 209.633 203.301 210.125 202.973C210.625 202.637 210.875 202.191 210.875 201.637ZM221.129 205.234C219.41 205.234 218.012 204.672 216.934 203.547C215.855 202.414 215.316 200.902 215.316 199.012V198.613C215.316 197.355 215.555 196.234 216.031 195.25C216.516 194.258 217.188 193.484 218.047 192.93C218.914 192.367 219.852 192.086 220.859 192.086C222.508 192.086 223.789 192.629 224.703 193.715C225.617 194.801 226.074 196.355 226.074 198.379V199.281H217.484C217.516 200.531 217.879 201.543 218.574 202.316C219.277 203.082 220.168 203.465 221.246 203.465C222.012 203.465 222.66 203.309 223.191 202.996C223.723 202.684 224.188 202.27 224.586 201.754L225.91 202.785C224.848 204.418 223.254 205.234 221.129 205.234ZM220.859 193.867C219.984 193.867 219.25 194.188 218.656 194.828C218.062 195.461 217.695 196.352 217.555 197.5H223.906V197.336C223.844 196.234 223.547 195.383 223.016 194.781C222.484 194.172 221.766 193.867 220.859 193.867ZM233.68 203.465C234.453 203.465 235.129 203.23 235.707 202.762C236.285 202.293 236.605 201.707 236.668 201.004H238.719C238.68 201.73 238.43 202.422 237.969 203.078C237.508 203.734 236.891 204.258 236.117 204.648C235.352 205.039 234.539 205.234 233.68 205.234C231.953 205.234 230.578 204.66 229.555 203.512C228.539 202.355 228.031 200.777 228.031 198.777V198.414C228.031 197.18 228.258 196.082 228.711 195.121C229.164 194.16 229.812 193.414 230.656 192.883C231.508 192.352 232.512 192.086 233.668 192.086C235.09 192.086 236.27 192.512 237.207 193.363C238.152 194.215 238.656 195.32 238.719 196.68H236.668C236.605 195.859 236.293 195.188 235.73 194.664C235.176 194.133 234.488 193.867 233.668 193.867C232.566 193.867 231.711 194.266 231.102 195.062C230.5 195.852 230.199 196.996 230.199 198.496V198.906C230.199 200.367 230.5 201.492 231.102 202.281C231.703 203.07 232.562 203.465 233.68 203.465ZM244.098 189.25V192.32H246.465V193.996H244.098V201.859C244.098 202.367 244.203 202.75 244.414 203.008C244.625 203.258 244.984 203.383 245.492 203.383C245.742 203.383 246.086 203.336 246.523 203.242V205C245.953 205.156 245.398 205.234 244.859 205.234C243.891 205.234 243.16 204.941 242.668 204.355C242.176 203.77 241.93 202.938 241.93 201.859V193.996H239.621V192.32H241.93V189.25H244.098ZM254.27 205.234C252.551 205.234 251.152 204.672 250.074 203.547C248.996 202.414 248.457 200.902 248.457 199.012V198.613C248.457 197.355 248.695 196.234 249.172 195.25C249.656 194.258 250.328 193.484 251.188 192.93C252.055 192.367 252.992 192.086 254 192.086C255.648 192.086 256.93 192.629 257.844 193.715C258.758 194.801 259.215 196.355 259.215 198.379V199.281H250.625C250.656 200.531 251.02 201.543 251.715 202.316C252.418 203.082 253.309 203.465 254.387 203.465C255.152 203.465 255.801 203.309 256.332 202.996C256.863 202.684 257.328 202.27 257.727 201.754L259.051 202.785C257.988 204.418 256.395 205.234 254.27 205.234ZM254 193.867C253.125 193.867 252.391 194.188 251.797 194.828C251.203 195.461 250.836 196.352 250.695 197.5H257.047V197.336C256.984 196.234 256.688 195.383 256.156 194.781C255.625 194.172 254.906 193.867 254 193.867ZM264.676 189.25V192.32H267.043V193.996H264.676V201.859C264.676 202.367 264.781 202.75 264.992 203.008C265.203 203.258 265.562 203.383 266.07 203.383C266.32 203.383 266.664 203.336 267.102 203.242V205C266.531 205.156 265.977 205.234 265.438 205.234C264.469 205.234 263.738 204.941 263.246 204.355C262.754 203.77 262.508 202.938 262.508 201.859V193.996H260.199V192.32H262.508V189.25H264.676ZM277.414 203.746C276.57 204.738 275.332 205.234 273.699 205.234C272.348 205.234 271.316 204.844 270.605 204.062C269.902 203.273 269.547 202.109 269.539 200.57V192.32H271.707V200.512C271.707 202.434 272.488 203.395 274.051 203.395C275.707 203.395 276.809 202.777 277.355 201.543V192.32H279.523V205H277.461L277.414 203.746ZM288.957 194.266C288.629 194.211 288.273 194.184 287.891 194.184C286.469 194.184 285.504 194.789 284.996 196V205H282.828V192.32H284.938L284.973 193.785C285.684 192.652 286.691 192.086 287.996 192.086C288.418 192.086 288.738 192.141 288.957 192.25V194.266ZM304.742 205C304.617 204.75 304.516 204.305 304.438 203.664C303.43 204.711 302.227 205.234 300.828 205.234C299.578 205.234 298.551 204.883 297.746 204.18C296.949 203.469 296.551 202.57 296.551 201.484C296.551 200.164 297.051 199.141 298.051 198.414C299.059 197.68 300.473 197.312 302.293 197.312H304.402V196.316C304.402 195.559 304.176 194.957 303.723 194.512C303.27 194.059 302.602 193.832 301.719 193.832C300.945 193.832 300.297 194.027 299.773 194.418C299.25 194.809 298.988 195.281 298.988 195.836H296.809C296.809 195.203 297.031 194.594 297.477 194.008C297.93 193.414 298.539 192.945 299.305 192.602C300.078 192.258 300.926 192.086 301.848 192.086C303.309 192.086 304.453 192.453 305.281 193.188C306.109 193.914 306.539 194.918 306.57 196.199V202.035C306.57 203.199 306.719 204.125 307.016 204.812V205H304.742ZM301.145 203.348C301.824 203.348 302.469 203.172 303.078 202.82C303.688 202.469 304.129 202.012 304.402 201.449V198.848H302.703C300.047 198.848 298.719 199.625 298.719 201.18C298.719 201.859 298.945 202.391 299.398 202.773C299.852 203.156 300.434 203.348 301.145 203.348ZM309.441 198.555C309.441 196.609 309.902 195.047 310.824 193.867C311.746 192.68 312.953 192.086 314.445 192.086C315.93 192.086 317.105 192.594 317.973 193.609V187H320.141V205H318.148L318.043 203.641C317.176 204.703 315.969 205.234 314.422 205.234C312.953 205.234 311.754 204.633 310.824 203.43C309.902 202.227 309.441 200.656 309.441 198.719V198.555ZM311.609 198.801C311.609 200.238 311.906 201.363 312.5 202.176C313.094 202.988 313.914 203.395 314.961 203.395C316.336 203.395 317.34 202.777 317.973 201.543V195.719C317.324 194.523 316.328 193.926 314.984 193.926C313.922 193.926 313.094 194.336 312.5 195.156C311.906 195.977 311.609 197.191 311.609 198.801Z" fill="white"/>
<path d="M70.9961 244H68.8281V231.32H70.9961V244ZM68.6523 227.957C68.6523 227.605 68.7578 227.309 68.9688 227.066C69.1875 226.824 69.5078 226.703 69.9297 226.703C70.3516 226.703 70.6719 226.824 70.8906 227.066C71.1094 227.309 71.2188 227.605 71.2188 227.957C71.2188 228.309 71.1094 228.602 70.8906 228.836C70.6719 229.07 70.3516 229.188 69.9297 229.188C69.5078 229.188 69.1875 229.07 68.9688 228.836C68.7578 228.602 68.6523 228.309 68.6523 227.957ZM85.1875 237.801C85.1875 239.73 84.7461 241.285 83.8633 242.465C82.9805 243.645 81.7852 244.234 80.2773 244.234C78.7383 244.234 77.5273 243.746 76.6445 242.77V248.875H74.4766V231.32H76.457L76.5625 232.727C77.4453 231.633 78.6719 231.086 80.2422 231.086C81.7656 231.086 82.9688 231.66 83.8516 232.809C84.7422 233.957 85.1875 235.555 85.1875 237.602V237.801ZM83.0195 237.555C83.0195 236.125 82.7148 234.996 82.1055 234.168C81.4961 233.34 80.6602 232.926 79.5977 232.926C78.2852 232.926 77.3008 233.508 76.6445 234.672V240.73C77.293 241.887 78.2852 242.465 79.6211 242.465C80.6602 242.465 81.4844 242.055 82.0938 241.234C82.7109 240.406 83.0195 239.18 83.0195 237.555ZM90.3086 244H88.1406V231.32H90.3086V244ZM87.9648 227.957C87.9648 227.605 88.0703 227.309 88.2812 227.066C88.5 226.824 88.8203 226.703 89.2422 226.703C89.6641 226.703 89.9844 226.824 90.2031 227.066C90.4219 227.309 90.5312 227.605 90.5312 227.957C90.5312 228.309 90.4219 228.602 90.2031 228.836C89.9844 229.07 89.6641 229.188 89.2422 229.188C88.8203 229.188 88.5 229.07 88.2812 228.836C88.0703 228.602 87.9648 228.309 87.9648 227.957ZM101.172 240.637C101.172 240.051 100.949 239.598 100.504 239.277C100.066 238.949 99.2969 238.668 98.1953 238.434C97.1016 238.199 96.2305 237.918 95.582 237.59C94.9414 237.262 94.4648 236.871 94.1523 236.418C93.8477 235.965 93.6953 235.426 93.6953 234.801C93.6953 233.762 94.1328 232.883 95.0078 232.164C95.8906 231.445 97.0156 231.086 98.3828 231.086C99.8203 231.086 100.984 231.457 101.875 232.199C102.773 232.941 103.223 233.891 103.223 235.047H101.043C101.043 234.453 100.789 233.941 100.281 233.512C99.7812 233.082 99.1484 232.867 98.3828 232.867C97.5938 232.867 96.9766 233.039 96.5312 233.383C96.0859 233.727 95.8633 234.176 95.8633 234.73C95.8633 235.254 96.0703 235.648 96.4844 235.914C96.8984 236.18 97.6445 236.434 98.7227 236.676C99.8086 236.918 100.688 237.207 101.359 237.543C102.031 237.879 102.527 238.285 102.848 238.762C103.176 239.23 103.34 239.805 103.34 240.484C103.34 241.617 102.887 242.527 101.98 243.215C101.074 243.895 99.8984 244.234 98.4531 244.234C97.4375 244.234 96.5391 244.055 95.7578 243.695C94.9766 243.336 94.3633 242.836 93.918 242.195C93.4805 241.547 93.2617 240.848 93.2617 240.098H95.4297C95.4688 240.824 95.7578 241.402 96.2969 241.832C96.8438 242.254 97.5625 242.465 98.4531 242.465C99.2734 242.465 99.9297 242.301 100.422 241.973C100.922 241.637 101.172 241.191 101.172 240.637ZM111.25 242.465C112.023 242.465 112.699 242.23 113.277 241.762C113.855 241.293 114.176 240.707 114.238 240.004H116.289C116.25 240.73 116 241.422 115.539 242.078C115.078 242.734 114.461 243.258 113.688 243.648C112.922 244.039 112.109 244.234 111.25 244.234C109.523 244.234 108.148 243.66 107.125 242.512C106.109 241.355 105.602 239.777 105.602 237.777V237.414C105.602 236.18 105.828 235.082 106.281 234.121C106.734 233.16 107.383 232.414 108.227 231.883C109.078 231.352 110.082 231.086 111.238 231.086C112.66 231.086 113.84 231.512 114.777 232.363C115.723 233.215 116.227 234.32 116.289 235.68H114.238C114.176 234.859 113.863 234.188 113.301 233.664C112.746 233.133 112.059 232.867 111.238 232.867C110.137 232.867 109.281 233.266 108.672 234.062C108.07 234.852 107.77 235.996 107.77 237.496V237.906C107.77 239.367 108.07 240.492 108.672 241.281C109.273 242.07 110.133 242.465 111.25 242.465ZM121.082 244H118.914V231.32H121.082V244ZM118.738 227.957C118.738 227.605 118.844 227.309 119.055 227.066C119.273 226.824 119.594 226.703 120.016 226.703C120.438 226.703 120.758 226.824 120.977 227.066C121.195 227.309 121.305 227.605 121.305 227.957C121.305 228.309 121.195 228.602 120.977 228.836C120.758 229.07 120.438 229.188 120.016 229.188C119.594 229.188 119.273 229.07 119.055 228.836C118.844 228.602 118.738 228.309 118.738 227.957ZM126.613 231.32L126.684 232.914C127.652 231.695 128.918 231.086 130.48 231.086C133.16 231.086 134.512 232.598 134.535 235.621V244H132.367V235.609C132.359 234.695 132.148 234.02 131.734 233.582C131.328 233.145 130.691 232.926 129.824 232.926C129.121 232.926 128.504 233.113 127.973 233.488C127.441 233.863 127.027 234.355 126.73 234.965V244H124.562V231.32H126.613ZM137.289 237.555C137.289 235.578 137.746 234.008 138.66 232.844C139.574 231.672 140.785 231.086 142.293 231.086C143.84 231.086 145.047 231.633 145.914 232.727L146.02 231.32H148V243.695C148 245.336 147.512 246.629 146.535 247.574C145.566 248.52 144.262 248.992 142.621 248.992C141.707 248.992 140.812 248.797 139.938 248.406C139.062 248.016 138.395 247.48 137.934 246.801L139.059 245.5C139.988 246.648 141.125 247.223 142.469 247.223C143.523 247.223 144.344 246.926 144.93 246.332C145.523 245.738 145.82 244.902 145.82 243.824V242.734C144.953 243.734 143.77 244.234 142.27 244.234C140.785 244.234 139.582 243.637 138.66 242.441C137.746 241.246 137.289 239.617 137.289 237.555ZM139.469 237.801C139.469 239.23 139.762 240.355 140.348 241.176C140.934 241.988 141.754 242.395 142.809 242.395C144.176 242.395 145.18 241.773 145.82 240.531V234.742C145.156 233.531 144.16 232.926 142.832 232.926C141.777 232.926 140.953 233.336 140.359 234.156C139.766 234.977 139.469 236.191 139.469 237.801ZM162.496 244.234C160.777 244.234 159.379 243.672 158.301 242.547C157.223 241.414 156.684 239.902 156.684 238.012V237.613C156.684 236.355 156.922 235.234 157.398 234.25C157.883 233.258 158.555 232.484 159.414 231.93C160.281 231.367 161.219 231.086 162.227 231.086C163.875 231.086 165.156 231.629 166.07 232.715C166.984 233.801 167.441 235.355 167.441 237.379V238.281H158.852C158.883 239.531 159.246 240.543 159.941 241.316C160.645 242.082 161.535 242.465 162.613 242.465C163.379 242.465 164.027 242.309 164.559 241.996C165.09 241.684 165.555 241.27 165.953 240.754L167.277 241.785C166.215 243.418 164.621 244.234 162.496 244.234ZM162.227 232.867C161.352 232.867 160.617 233.188 160.023 233.828C159.43 234.461 159.062 235.352 158.922 236.5H165.273V236.336C165.211 235.234 164.914 234.383 164.383 233.781C163.852 233.172 163.133 232.867 162.227 232.867ZM172.316 244H170.148V226H172.316V244ZM178.152 244H175.984V231.32H178.152V244ZM175.809 227.957C175.809 227.605 175.914 227.309 176.125 227.066C176.344 226.824 176.664 226.703 177.086 226.703C177.508 226.703 177.828 226.824 178.047 227.066C178.266 227.309 178.375 227.605 178.375 227.957C178.375 228.309 178.266 228.602 178.047 228.836C177.828 229.07 177.508 229.188 177.086 229.188C176.664 229.188 176.344 229.07 176.125 228.836C175.914 228.602 175.809 228.309 175.809 227.957ZM184.574 228.25V231.32H186.941V232.996H184.574V240.859C184.574 241.367 184.68 241.75 184.891 242.008C185.102 242.258 185.461 242.383 185.969 242.383C186.219 242.383 186.562 242.336 187 242.242V244C186.43 244.156 185.875 244.234 185.336 244.234C184.367 244.234 183.637 243.941 183.145 243.355C182.652 242.77 182.406 241.938 182.406 240.859V232.996H180.098V231.32H182.406V228.25H184.574ZM189.414 247.398L188.184 246.555C188.918 245.531 189.301 244.477 189.332 243.391V241.434H191.453V243.133C191.453 243.922 191.258 244.711 190.867 245.5C190.484 246.289 190 246.922 189.414 247.398ZM207.531 240.637C207.531 240.051 207.309 239.598 206.863 239.277C206.426 238.949 205.656 238.668 204.555 238.434C203.461 238.199 202.59 237.918 201.941 237.59C201.301 237.262 200.824 236.871 200.512 236.418C200.207 235.965 200.055 235.426 200.055 234.801C200.055 233.762 200.492 232.883 201.367 232.164C202.25 231.445 203.375 231.086 204.742 231.086C206.18 231.086 207.344 231.457 208.234 232.199C209.133 232.941 209.582 233.891 209.582 235.047H207.402C207.402 234.453 207.148 233.941 206.641 233.512C206.141 233.082 205.508 232.867 204.742 232.867C203.953 232.867 203.336 233.039 202.891 233.383C202.445 233.727 202.223 234.176 202.223 234.73C202.223 235.254 202.43 235.648 202.844 235.914C203.258 236.18 204.004 236.434 205.082 236.676C206.168 236.918 207.047 237.207 207.719 237.543C208.391 237.879 208.887 238.285 209.207 238.762C209.535 239.23 209.699 239.805 209.699 240.484C209.699 241.617 209.246 242.527 208.34 243.215C207.434 243.895 206.258 244.234 204.812 244.234C203.797 244.234 202.898 244.055 202.117 243.695C201.336 243.336 200.723 242.836 200.277 242.195C199.84 241.547 199.621 240.848 199.621 240.098H201.789C201.828 240.824 202.117 241.402 202.656 241.832C203.203 242.254 203.922 242.465 204.812 242.465C205.633 242.465 206.289 242.301 206.781 241.973C207.281 241.637 207.531 241.191 207.531 240.637ZM217.785 244.234C216.066 244.234 214.668 243.672 213.59 242.547C212.512 241.414 211.973 239.902 211.973 238.012V237.613C211.973 236.355 212.211 235.234 212.688 234.25C213.172 233.258 213.844 232.484 214.703 231.93C215.57 231.367 216.508 231.086 217.516 231.086C219.164 231.086 220.445 231.629 221.359 232.715C222.273 233.801 222.73 235.355 222.73 237.379V238.281H214.141C214.172 239.531 214.535 240.543 215.23 241.316C215.934 242.082 216.824 242.465 217.902 242.465C218.668 242.465 219.316 242.309 219.848 241.996C220.379 241.684 220.844 241.27 221.242 240.754L222.566 241.785C221.504 243.418 219.91 244.234 217.785 244.234ZM217.516 232.867C216.641 232.867 215.906 233.188 215.312 233.828C214.719 234.461 214.352 235.352 214.211 236.5H220.562V236.336C220.5 235.234 220.203 234.383 219.672 233.781C219.141 233.172 218.422 232.867 217.516 232.867ZM224.723 237.555C224.723 235.609 225.184 234.047 226.105 232.867C227.027 231.68 228.234 231.086 229.727 231.086C231.211 231.086 232.387 231.594 233.254 232.609V226H235.422V244H233.43L233.324 242.641C232.457 243.703 231.25 244.234 229.703 244.234C228.234 244.234 227.035 243.633 226.105 242.43C225.184 241.227 224.723 239.656 224.723 237.719V237.555ZM226.891 237.801C226.891 239.238 227.188 240.363 227.781 241.176C228.375 241.988 229.195 242.395 230.242 242.395C231.617 242.395 232.621 241.777 233.254 240.543V234.719C232.605 233.523 231.609 232.926 230.266 232.926C229.203 232.926 228.375 233.336 227.781 234.156C227.188 234.977 226.891 236.191 226.891 237.801ZM244.223 237.555C244.223 235.609 244.684 234.047 245.605 232.867C246.527 231.68 247.734 231.086 249.227 231.086C250.711 231.086 251.887 231.594 252.754 232.609V226H254.922V244H252.93L252.824 242.641C251.957 243.703 250.75 244.234 249.203 244.234C247.734 244.234 246.535 243.633 245.605 242.43C244.684 241.227 244.223 239.656 244.223 237.719V237.555ZM246.391 237.801C246.391 239.238 246.688 240.363 247.281 241.176C247.875 241.988 248.695 242.395 249.742 242.395C251.117 242.395 252.121 241.777 252.754 240.543V234.719C252.105 233.523 251.109 232.926 249.766 232.926C248.703 232.926 247.875 233.336 247.281 234.156C246.688 234.977 246.391 236.191 246.391 237.801ZM257.723 237.543C257.723 236.301 257.965 235.184 258.449 234.191C258.941 233.199 259.621 232.434 260.488 231.895C261.363 231.355 262.359 231.086 263.477 231.086C265.203 231.086 266.598 231.684 267.66 232.879C268.73 234.074 269.266 235.664 269.266 237.648V237.801C269.266 239.035 269.027 240.145 268.551 241.129C268.082 242.105 267.406 242.867 266.523 243.414C265.648 243.961 264.641 244.234 263.5 244.234C261.781 244.234 260.387 243.637 259.316 242.441C258.254 241.246 257.723 239.664 257.723 237.695V237.543ZM259.902 237.801C259.902 239.207 260.227 240.336 260.875 241.188C261.531 242.039 262.406 242.465 263.5 242.465C264.602 242.465 265.477 242.035 266.125 241.176C266.773 240.309 267.098 239.098 267.098 237.543C267.098 236.152 266.766 235.027 266.102 234.168C265.445 233.301 264.57 232.867 263.477 232.867C262.406 232.867 261.543 233.293 260.887 234.145C260.23 234.996 259.902 236.215 259.902 237.801ZM283.199 244.234C281.48 244.234 280.082 243.672 279.004 242.547C277.926 241.414 277.387 239.902 277.387 238.012V237.613C277.387 236.355 277.625 235.234 278.102 234.25C278.586 233.258 279.258 232.484 280.117 231.93C280.984 231.367 281.922 231.086 282.93 231.086C284.578 231.086 285.859 231.629 286.773 232.715C287.688 233.801 288.145 235.355 288.145 237.379V238.281H279.555C279.586 239.531 279.949 240.543 280.645 241.316C281.348 242.082 282.238 242.465 283.316 242.465C284.082 242.465 284.73 242.309 285.262 241.996C285.793 241.684 286.258 241.27 286.656 240.754L287.98 241.785C286.918 243.418 285.324 244.234 283.199 244.234ZM282.93 232.867C282.055 232.867 281.32 233.188 280.727 233.828C280.133 234.461 279.766 235.352 279.625 236.5H285.977V236.336C285.914 235.234 285.617 234.383 285.086 233.781C284.555 233.172 283.836 232.867 282.93 232.867ZM293.02 244H290.852V231.32H293.02V244ZM290.676 227.957C290.676 227.605 290.781 227.309 290.992 227.066C291.211 226.824 291.531 226.703 291.953 226.703C292.375 226.703 292.695 226.824 292.914 227.066C293.133 227.309 293.242 227.605 293.242 227.957C293.242 228.309 293.133 228.602 292.914 228.836C292.695 229.07 292.375 229.188 291.953 229.188C291.531 229.188 291.211 229.07 290.992 228.836C290.781 228.602 290.676 228.309 290.676 227.957ZM304.328 242.746C303.484 243.738 302.246 244.234 300.613 244.234C299.262 244.234 298.23 243.844 297.52 243.062C296.816 242.273 296.461 241.109 296.453 239.57V231.32H298.621V239.512C298.621 241.434 299.402 242.395 300.965 242.395C302.621 242.395 303.723 241.777 304.27 240.543V231.32H306.438V244H304.375L304.328 242.746ZM317.125 240.637C317.125 240.051 316.902 239.598 316.457 239.277C316.02 238.949 315.25 238.668 314.148 238.434C313.055 238.199 312.184 237.918 311.535 237.59C310.895 237.262 310.418 236.871 310.105 236.418C309.801 235.965 309.648 235.426 309.648 234.801C309.648 233.762 310.086 232.883 310.961 232.164C311.844 231.445 312.969 231.086 314.336 231.086C315.773 231.086 316.938 231.457 317.828 232.199C318.727 232.941 319.176 233.891 319.176 235.047H316.996C316.996 234.453 316.742 233.941 316.234 233.512C315.734 233.082 315.102 232.867 314.336 232.867C313.547 232.867 312.93 233.039 312.484 233.383C312.039 233.727 311.816 234.176 311.816 234.73C311.816 235.254 312.023 235.648 312.438 235.914C312.852 236.18 313.598 236.434 314.676 236.676C315.762 236.918 316.641 237.207 317.312 237.543C317.984 237.879 318.48 238.285 318.801 238.762C319.129 239.23 319.293 239.805 319.293 240.484C319.293 241.617 318.84 242.527 317.934 243.215C317.027 243.895 315.852 244.234 314.406 244.234C313.391 244.234 312.492 244.055 311.711 243.695C310.93 243.336 310.316 242.836 309.871 242.195C309.434 241.547 309.215 240.848 309.215 240.098H311.383C311.422 240.824 311.711 241.402 312.25 241.832C312.797 242.254 313.516 242.465 314.406 242.465C315.227 242.465 315.883 242.301 316.375 241.973C316.875 241.637 317.125 241.191 317.125 240.637Z" fill="white"/>
<path d="M76.6797 270.32L76.7383 271.727C77.668 270.633 78.9219 270.086 80.5 270.086C82.2734 270.086 83.4805 270.766 84.1211 272.125C84.543 271.516 85.0898 271.023 85.7617 270.648C86.4414 270.273 87.2422 270.086 88.1641 270.086C90.9453 270.086 92.3594 271.559 92.4062 274.504V283H90.2383V274.633C90.2383 273.727 90.0312 273.051 89.6172 272.605C89.2031 272.152 88.5078 271.926 87.5312 271.926C86.7266 271.926 86.0586 272.168 85.5273 272.652C84.9961 273.129 84.6875 273.773 84.6016 274.586V283H82.4219V274.691C82.4219 272.848 81.5195 271.926 79.7148 271.926C78.293 271.926 77.3203 272.531 76.7969 273.742V283H74.6289V270.32H76.6797ZM95.1133 276.543C95.1133 275.301 95.3555 274.184 95.8398 273.191C96.332 272.199 97.0117 271.434 97.8789 270.895C98.7539 270.355 99.75 270.086 100.867 270.086C102.594 270.086 103.988 270.684 105.051 271.879C106.121 273.074 106.656 274.664 106.656 276.648V276.801C106.656 278.035 106.418 279.145 105.941 280.129C105.473 281.105 104.797 281.867 103.914 282.414C103.039 282.961 102.031 283.234 100.891 283.234C99.1719 283.234 97.7773 282.637 96.707 281.441C95.6445 280.246 95.1133 278.664 95.1133 276.695V276.543ZM97.293 276.801C97.293 278.207 97.6172 279.336 98.2656 280.188C98.9219 281.039 99.7969 281.465 100.891 281.465C101.992 281.465 102.867 281.035 103.516 280.176C104.164 279.309 104.488 278.098 104.488 276.543C104.488 275.152 104.156 274.027 103.492 273.168C102.836 272.301 101.961 271.867 100.867 271.867C99.7969 271.867 98.9336 272.293 98.2773 273.145C97.6211 273.996 97.293 275.215 97.293 276.801ZM108.848 276.555C108.848 274.609 109.309 273.047 110.23 271.867C111.152 270.68 112.359 270.086 113.852 270.086C115.336 270.086 116.512 270.594 117.379 271.609V265H119.547V283H117.555L117.449 281.641C116.582 282.703 115.375 283.234 113.828 283.234C112.359 283.234 111.16 282.633 110.23 281.43C109.309 280.227 108.848 278.656 108.848 276.719V276.555ZM111.016 276.801C111.016 278.238 111.312 279.363 111.906 280.176C112.5 280.988 113.32 281.395 114.367 281.395C115.742 281.395 116.746 280.777 117.379 279.543V273.719C116.73 272.523 115.734 271.926 114.391 271.926C113.328 271.926 112.5 272.336 111.906 273.156C111.312 273.977 111.016 275.191 111.016 276.801ZM131.816 267.25V270.32H134.184V271.996H131.816V279.859C131.816 280.367 131.922 280.75 132.133 281.008C132.344 281.258 132.703 281.383 133.211 281.383C133.461 281.383 133.805 281.336 134.242 281.242V283C133.672 283.156 133.117 283.234 132.578 283.234C131.609 283.234 130.879 282.941 130.387 282.355C129.895 281.77 129.648 280.938 129.648 279.859V271.996H127.34V270.32H129.648V267.25H131.816ZM141.988 283.234C140.27 283.234 138.871 282.672 137.793 281.547C136.715 280.414 136.176 278.902 136.176 277.012V276.613C136.176 275.355 136.414 274.234 136.891 273.25C137.375 272.258 138.047 271.484 138.906 270.93C139.773 270.367 140.711 270.086 141.719 270.086C143.367 270.086 144.648 270.629 145.562 271.715C146.477 272.801 146.934 274.355 146.934 276.379V277.281H138.344C138.375 278.531 138.738 279.543 139.434 280.316C140.137 281.082 141.027 281.465 142.105 281.465C142.871 281.465 143.52 281.309 144.051 280.996C144.582 280.684 145.047 280.27 145.445 279.754L146.77 280.785C145.707 282.418 144.113 283.234 141.988 283.234ZM141.719 271.867C140.844 271.867 140.109 272.188 139.516 272.828C138.922 273.461 138.555 274.352 138.414 275.5H144.766V275.336C144.703 274.234 144.406 273.383 143.875 272.781C143.344 272.172 142.625 271.867 141.719 271.867ZM151.492 270.32L151.551 271.727C152.48 270.633 153.734 270.086 155.312 270.086C157.086 270.086 158.293 270.766 158.934 272.125C159.355 271.516 159.902 271.023 160.574 270.648C161.254 270.273 162.055 270.086 162.977 270.086C165.758 270.086 167.172 271.559 167.219 274.504V283H165.051V274.633C165.051 273.727 164.844 273.051 164.43 272.605C164.016 272.152 163.32 271.926 162.344 271.926C161.539 271.926 160.871 272.168 160.34 272.652C159.809 273.129 159.5 273.773 159.414 274.586V283H157.234V274.691C157.234 272.848 156.332 271.926 154.527 271.926C153.105 271.926 152.133 272.531 151.609 273.742V283H149.441V270.32H151.492ZM181.211 276.801C181.211 278.73 180.77 280.285 179.887 281.465C179.004 282.645 177.809 283.234 176.301 283.234C174.762 283.234 173.551 282.746 172.668 281.77V287.875H170.5V270.32H172.48L172.586 271.727C173.469 270.633 174.695 270.086 176.266 270.086C177.789 270.086 178.992 270.66 179.875 271.809C180.766 272.957 181.211 274.555 181.211 276.602V276.801ZM179.043 276.555C179.043 275.125 178.738 273.996 178.129 273.168C177.52 272.34 176.684 271.926 175.621 271.926C174.309 271.926 173.324 272.508 172.668 273.672V279.73C173.316 280.887 174.309 281.465 175.645 281.465C176.684 281.465 177.508 281.055 178.117 280.234C178.734 279.406 179.043 278.18 179.043 276.555ZM183.402 276.543C183.402 275.301 183.645 274.184 184.129 273.191C184.621 272.199 185.301 271.434 186.168 270.895C187.043 270.355 188.039 270.086 189.156 270.086C190.883 270.086 192.277 270.684 193.34 271.879C194.41 273.074 194.945 274.664 194.945 276.648V276.801C194.945 278.035 194.707 279.145 194.23 280.129C193.762 281.105 193.086 281.867 192.203 282.414C191.328 282.961 190.32 283.234 189.18 283.234C187.461 283.234 186.066 282.637 184.996 281.441C183.934 280.246 183.402 278.664 183.402 276.695V276.543ZM185.582 276.801C185.582 278.207 185.906 279.336 186.555 280.188C187.211 281.039 188.086 281.465 189.18 281.465C190.281 281.465 191.156 281.035 191.805 280.176C192.453 279.309 192.777 278.098 192.777 276.543C192.777 275.152 192.445 274.027 191.781 273.168C191.125 272.301 190.25 271.867 189.156 271.867C188.086 271.867 187.223 272.293 186.566 273.145C185.91 273.996 185.582 275.215 185.582 276.801ZM203.793 272.266C203.465 272.211 203.109 272.184 202.727 272.184C201.305 272.184 200.34 272.789 199.832 274V283H197.664V270.32H199.773L199.809 271.785C200.52 270.652 201.527 270.086 202.832 270.086C203.254 270.086 203.574 270.141 203.793 270.25V272.266ZM214.105 283H211.938V270.32H214.105V283ZM211.762 266.957C211.762 266.605 211.867 266.309 212.078 266.066C212.297 265.824 212.617 265.703 213.039 265.703C213.461 265.703 213.781 265.824 214 266.066C214.219 266.309 214.328 266.605 214.328 266.957C214.328 267.309 214.219 267.602 214 267.836C213.781 268.07 213.461 268.188 213.039 268.188C212.617 268.188 212.297 268.07 212.078 267.836C211.867 267.602 211.762 267.309 211.762 266.957ZM219.637 270.32L219.707 271.914C220.676 270.695 221.941 270.086 223.504 270.086C226.184 270.086 227.535 271.598 227.559 274.621V283H225.391V274.609C225.383 273.695 225.172 273.02 224.758 272.582C224.352 272.145 223.715 271.926 222.848 271.926C222.145 271.926 221.527 272.113 220.996 272.488C220.465 272.863 220.051 273.355 219.754 273.965V283H217.586V270.32H219.637ZM235.914 281.465C236.688 281.465 237.363 281.23 237.941 280.762C238.52 280.293 238.84 279.707 238.902 279.004H240.953C240.914 279.73 240.664 280.422 240.203 281.078C239.742 281.734 239.125 282.258 238.352 282.648C237.586 283.039 236.773 283.234 235.914 283.234C234.188 283.234 232.812 282.66 231.789 281.512C230.773 280.355 230.266 278.777 230.266 276.777V276.414C230.266 275.18 230.492 274.082 230.945 273.121C231.398 272.16 232.047 271.414 232.891 270.883C233.742 270.352 234.746 270.086 235.902 270.086C237.324 270.086 238.504 270.512 239.441 271.363C240.387 272.215 240.891 273.32 240.953 274.68H238.902C238.84 273.859 238.527 273.188 237.965 272.664C237.41 272.133 236.723 271.867 235.902 271.867C234.801 271.867 233.945 272.266 233.336 273.062C232.734 273.852 232.434 274.996 232.434 276.496V276.906C232.434 278.367 232.734 279.492 233.336 280.281C233.938 281.07 234.797 281.465 235.914 281.465ZM245.746 283H243.578V270.32H245.746V283ZM243.402 266.957C243.402 266.605 243.508 266.309 243.719 266.066C243.938 265.824 244.258 265.703 244.68 265.703C245.102 265.703 245.422 265.824 245.641 266.066C245.859 266.309 245.969 266.605 245.969 266.957C245.969 267.309 245.859 267.602 245.641 267.836C245.422 268.07 245.102 268.188 244.68 268.188C244.258 268.188 243.938 268.07 243.719 267.836C243.508 267.602 243.402 267.309 243.402 266.957ZM248.699 276.555C248.699 274.609 249.16 273.047 250.082 271.867C251.004 270.68 252.211 270.086 253.703 270.086C255.188 270.086 256.363 270.594 257.23 271.609V265H259.398V283H257.406L257.301 281.641C256.434 282.703 255.227 283.234 253.68 283.234C252.211 283.234 251.012 282.633 250.082 281.43C249.16 280.227 248.699 278.656 248.699 276.719V276.555ZM250.867 276.801C250.867 278.238 251.164 279.363 251.758 280.176C252.352 280.988 253.172 281.395 254.219 281.395C255.594 281.395 256.598 280.777 257.23 279.543V273.719C256.582 272.523 255.586 271.926 254.242 271.926C253.18 271.926 252.352 272.336 251.758 273.156C251.164 273.977 250.867 275.191 250.867 276.801ZM265.129 283H262.961V270.32H265.129V283ZM262.785 266.957C262.785 266.605 262.891 266.309 263.102 266.066C263.32 265.824 263.641 265.703 264.062 265.703C264.484 265.703 264.805 265.824 265.023 266.066C265.242 266.309 265.352 266.605 265.352 266.957C265.352 267.309 265.242 267.602 265.023 267.836C264.805 268.07 264.484 268.188 264.062 268.188C263.641 268.188 263.32 268.07 263.102 267.836C262.891 267.602 262.785 267.309 262.785 266.957ZM268.082 276.555C268.082 274.609 268.543 273.047 269.465 271.867C270.387 270.68 271.594 270.086 273.086 270.086C274.57 270.086 275.746 270.594 276.613 271.609V265H278.781V283H276.789L276.684 281.641C275.816 282.703 274.609 283.234 273.062 283.234C271.594 283.234 270.395 282.633 269.465 281.43C268.543 280.227 268.082 278.656 268.082 276.719V276.555ZM270.25 276.801C270.25 278.238 270.547 279.363 271.141 280.176C271.734 280.988 272.555 281.395 273.602 281.395C274.977 281.395 275.98 280.777 276.613 279.543V273.719C275.965 272.523 274.969 271.926 273.625 271.926C272.562 271.926 271.734 272.336 271.141 273.156C270.547 273.977 270.25 275.191 270.25 276.801ZM289.984 281.746C289.141 282.738 287.902 283.234 286.27 283.234C284.918 283.234 283.887 282.844 283.176 282.062C282.473 281.273 282.117 280.109 282.109 278.57V270.32H284.277V278.512C284.277 280.434 285.059 281.395 286.621 281.395C288.277 281.395 289.379 280.777 289.926 279.543V270.32H292.094V283H290.031L289.984 281.746ZM297.449 270.32L297.52 271.914C298.488 270.695 299.754 270.086 301.316 270.086C303.996 270.086 305.348 271.598 305.371 274.621V283H303.203V274.609C303.195 273.695 302.984 273.02 302.57 272.582C302.164 272.145 301.527 271.926 300.66 271.926C299.957 271.926 299.34 272.113 298.809 272.488C298.277 272.863 297.863 273.355 297.566 273.965V283H295.398V270.32H297.449ZM311.582 267.25V270.32H313.949V271.996H311.582V279.859C311.582 280.367 311.688 280.75 311.898 281.008C312.109 281.258 312.469 281.383 312.977 281.383C313.227 281.383 313.57 281.336 314.008 281.242V283C313.438 283.156 312.883 283.234 312.344 283.234C311.375 283.234 310.645 282.941 310.152 282.355C309.66 281.77 309.414 280.938 309.414 279.859V271.996H307.105V270.32H309.414V267.25H311.582Z" fill="white"/>
<path d="M79.4688 320.746C78.625 321.738 77.3867 322.234 75.7539 322.234C74.4023 322.234 73.3711 321.844 72.6602 321.062C71.957 320.273 71.6016 319.109 71.5938 317.57V309.32H73.7617V317.512C73.7617 319.434 74.543 320.395 76.1055 320.395C77.7617 320.395 78.8633 319.777 79.4102 318.543V309.32H81.5781V322H79.5156L79.4688 320.746ZM87.8242 306.25V309.32H90.1914V310.996H87.8242V318.859C87.8242 319.367 87.9297 319.75 88.1406 320.008C88.3516 320.258 88.7109 320.383 89.2188 320.383C89.4688 320.383 89.8125 320.336 90.25 320.242V322C89.6797 322.156 89.125 322.234 88.5859 322.234C87.6172 322.234 86.8867 321.941 86.3945 321.355C85.9023 320.77 85.6562 319.938 85.6562 318.859V310.996H83.3477V309.32H85.6562V306.25H87.8242ZM101.043 322H98.875V304H101.043V322ZM112.352 322C112.227 321.75 112.125 321.305 112.047 320.664C111.039 321.711 109.836 322.234 108.438 322.234C107.188 322.234 106.16 321.883 105.355 321.18C104.559 320.469 104.16 319.57 104.16 318.484C104.16 317.164 104.66 316.141 105.66 315.414C106.668 314.68 108.082 314.312 109.902 314.312H112.012V313.316C112.012 312.559 111.785 311.957 111.332 311.512C110.879 311.059 110.211 310.832 109.328 310.832C108.555 310.832 107.906 311.027 107.383 311.418C106.859 311.809 106.598 312.281 106.598 312.836H104.418C104.418 312.203 104.641 311.594 105.086 311.008C105.539 310.414 106.148 309.945 106.914 309.602C107.688 309.258 108.535 309.086 109.457 309.086C110.918 309.086 112.062 309.453 112.891 310.188C113.719 310.914 114.148 311.918 114.18 313.199V319.035C114.18 320.199 114.328 321.125 114.625 321.812V322H112.352ZM108.754 320.348C109.434 320.348 110.078 320.172 110.688 319.82C111.297 319.469 111.738 319.012 112.012 318.449V315.848H110.312C107.656 315.848 106.328 316.625 106.328 318.18C106.328 318.859 106.555 319.391 107.008 319.773C107.461 320.156 108.043 320.348 108.754 320.348ZM128.312 315.801C128.312 317.738 127.867 319.297 126.977 320.477C126.086 321.648 124.891 322.234 123.391 322.234C121.789 322.234 120.551 321.668 119.676 320.535L119.57 322H117.578V304H119.746V310.715C120.621 309.629 121.828 309.086 123.367 309.086C124.906 309.086 126.113 309.668 126.988 310.832C127.871 311.996 128.312 313.59 128.312 315.613V315.801ZM126.145 315.555C126.145 314.078 125.859 312.938 125.289 312.133C124.719 311.328 123.898 310.926 122.828 310.926C121.398 310.926 120.371 311.59 119.746 312.918V318.402C120.41 319.73 121.445 320.395 122.852 320.395C123.891 320.395 124.699 319.992 125.277 319.188C125.855 318.383 126.145 317.172 126.145 315.555ZM130.48 315.543C130.48 314.301 130.723 313.184 131.207 312.191C131.699 311.199 132.379 310.434 133.246 309.895C134.121 309.355 135.117 309.086 136.234 309.086C137.961 309.086 139.355 309.684 140.418 310.879C141.488 312.074 142.023 313.664 142.023 315.648V315.801C142.023 317.035 141.785 318.145 141.309 319.129C140.84 320.105 140.164 320.867 139.281 321.414C138.406 321.961 137.398 322.234 136.258 322.234C134.539 322.234 133.145 321.637 132.074 320.441C131.012 319.246 130.48 317.664 130.48 315.695V315.543ZM132.66 315.801C132.66 317.207 132.984 318.336 133.633 319.188C134.289 320.039 135.164 320.465 136.258 320.465C137.359 320.465 138.234 320.035 138.883 319.176C139.531 318.309 139.855 317.098 139.855 315.543C139.855 314.152 139.523 313.027 138.859 312.168C138.203 311.301 137.328 310.867 136.234 310.867C135.164 310.867 134.301 311.293 133.645 312.145C132.988 312.996 132.66 314.215 132.66 315.801ZM150.871 311.266C150.543 311.211 150.188 311.184 149.805 311.184C148.383 311.184 147.418 311.789 146.91 313V322H144.742V309.32H146.852L146.887 310.785C147.598 309.652 148.605 309.086 149.91 309.086C150.332 309.086 150.652 309.141 150.871 309.25V311.266ZM157.902 322.234C156.184 322.234 154.785 321.672 153.707 320.547C152.629 319.414 152.09 317.902 152.09 316.012V315.613C152.09 314.355 152.328 313.234 152.805 312.25C153.289 311.258 153.961 310.484 154.82 309.93C155.688 309.367 156.625 309.086 157.633 309.086C159.281 309.086 160.562 309.629 161.477 310.715C162.391 311.801 162.848 313.355 162.848 315.379V316.281H154.258C154.289 317.531 154.652 318.543 155.348 319.316C156.051 320.082 156.941 320.465 158.02 320.465C158.785 320.465 159.434 320.309 159.965 319.996C160.496 319.684 160.961 319.27 161.359 318.754L162.684 319.785C161.621 321.418 160.027 322.234 157.902 322.234ZM157.633 310.867C156.758 310.867 156.023 311.188 155.43 311.828C154.836 312.461 154.469 313.352 154.328 314.5H160.68V314.336C160.617 313.234 160.32 312.383 159.789 311.781C159.258 311.172 158.539 310.867 157.633 310.867ZM176.582 322.234C174.863 322.234 173.465 321.672 172.387 320.547C171.309 319.414 170.77 317.902 170.77 316.012V315.613C170.77 314.355 171.008 313.234 171.484 312.25C171.969 311.258 172.641 310.484 173.5 309.93C174.367 309.367 175.305 309.086 176.312 309.086C177.961 309.086 179.242 309.629 180.156 310.715C181.07 311.801 181.527 313.355 181.527 315.379V316.281H172.938C172.969 317.531 173.332 318.543 174.027 319.316C174.73 320.082 175.621 320.465 176.699 320.465C177.465 320.465 178.113 320.309 178.645 319.996C179.176 319.684 179.641 319.27 180.039 318.754L181.363 319.785C180.301 321.418 178.707 322.234 176.582 322.234ZM176.312 310.867C175.438 310.867 174.703 311.188 174.109 311.828C173.516 312.461 173.148 313.352 173.008 314.5H179.359V314.336C179.297 313.234 179 312.383 178.469 311.781C177.938 311.172 177.219 310.867 176.312 310.867ZM186.988 306.25V309.32H189.355V310.996H186.988V318.859C186.988 319.367 187.094 319.75 187.305 320.008C187.516 320.258 187.875 320.383 188.383 320.383C188.633 320.383 188.977 320.336 189.414 320.242V322C188.844 322.156 188.289 322.234 187.75 322.234C186.781 322.234 186.051 321.941 185.559 321.355C185.066 320.77 184.82 319.938 184.82 318.859V310.996H182.512V309.32H184.82V306.25H186.988ZM197.324 315.555C197.324 313.609 197.785 312.047 198.707 310.867C199.629 309.68 200.836 309.086 202.328 309.086C203.812 309.086 204.988 309.594 205.855 310.609V304H208.023V322H206.031L205.926 320.641C205.059 321.703 203.852 322.234 202.305 322.234C200.836 322.234 199.637 321.633 198.707 320.43C197.785 319.227 197.324 317.656 197.324 315.719V315.555ZM199.492 315.801C199.492 317.238 199.789 318.363 200.383 319.176C200.977 319.988 201.797 320.395 202.844 320.395C204.219 320.395 205.223 319.777 205.855 318.543V312.719C205.207 311.523 204.211 310.926 202.867 310.926C201.805 310.926 200.977 311.336 200.383 312.156C199.789 312.977 199.492 314.191 199.492 315.801ZM210.824 315.543C210.824 314.301 211.066 313.184 211.551 312.191C212.043 311.199 212.723 310.434 213.59 309.895C214.465 309.355 215.461 309.086 216.578 309.086C218.305 309.086 219.699 309.684 220.762 310.879C221.832 312.074 222.367 313.664 222.367 315.648V315.801C222.367 317.035 222.129 318.145 221.652 319.129C221.184 320.105 220.508 320.867 219.625 321.414C218.75 321.961 217.742 322.234 216.602 322.234C214.883 322.234 213.488 321.637 212.418 320.441C211.355 319.246 210.824 317.664 210.824 315.695V315.543ZM213.004 315.801C213.004 317.207 213.328 318.336 213.977 319.188C214.633 320.039 215.508 320.465 216.602 320.465C217.703 320.465 218.578 320.035 219.227 319.176C219.875 318.309 220.199 317.098 220.199 315.543C220.199 314.152 219.867 313.027 219.203 312.168C218.547 311.301 217.672 310.867 216.578 310.867C215.508 310.867 214.645 311.293 213.988 312.145C213.332 312.996 213.004 314.215 213.004 315.801ZM227.441 322H225.273V304H227.441V322ZM230.348 315.543C230.348 314.301 230.59 313.184 231.074 312.191C231.566 311.199 232.246 310.434 233.113 309.895C233.988 309.355 234.984 309.086 236.102 309.086C237.828 309.086 239.223 309.684 240.285 310.879C241.355 312.074 241.891 313.664 241.891 315.648V315.801C241.891 317.035 241.652 318.145 241.176 319.129C240.707 320.105 240.031 320.867 239.148 321.414C238.273 321.961 237.266 322.234 236.125 322.234C234.406 322.234 233.012 321.637 231.941 320.441C230.879 319.246 230.348 317.664 230.348 315.695V315.543ZM232.527 315.801C232.527 317.207 232.852 318.336 233.5 319.188C234.156 320.039 235.031 320.465 236.125 320.465C237.227 320.465 238.102 320.035 238.75 319.176C239.398 318.309 239.723 317.098 239.723 315.543C239.723 314.152 239.391 313.027 238.727 312.168C238.07 311.301 237.195 310.867 236.102 310.867C235.031 310.867 234.168 311.293 233.512 312.145C232.855 312.996 232.527 314.215 232.527 315.801ZM250.738 311.266C250.41 311.211 250.055 311.184 249.672 311.184C248.25 311.184 247.285 311.789 246.777 313V322H244.609V309.32H246.719L246.754 310.785C247.465 309.652 248.473 309.086 249.777 309.086C250.199 309.086 250.52 309.141 250.738 309.25V311.266ZM257.77 322.234C256.051 322.234 254.652 321.672 253.574 320.547C252.496 319.414 251.957 317.902 251.957 316.012V315.613C251.957 314.355 252.195 313.234 252.672 312.25C253.156 311.258 253.828 310.484 254.688 309.93C255.555 309.367 256.492 309.086 257.5 309.086C259.148 309.086 260.43 309.629 261.344 310.715C262.258 311.801 262.715 313.355 262.715 315.379V316.281H254.125C254.156 317.531 254.52 318.543 255.215 319.316C255.918 320.082 256.809 320.465 257.887 320.465C258.652 320.465 259.301 320.309 259.832 319.996C260.363 319.684 260.828 319.27 261.227 318.754L262.551 319.785C261.488 321.418 259.895 322.234 257.77 322.234ZM257.5 310.867C256.625 310.867 255.891 311.188 255.297 311.828C254.703 312.461 254.336 313.352 254.195 314.5H260.547V314.336C260.484 313.234 260.188 312.383 259.656 311.781C259.125 311.172 258.406 310.867 257.5 310.867ZM273.227 309.32L273.285 310.727C274.215 309.633 275.469 309.086 277.047 309.086C278.82 309.086 280.027 309.766 280.668 311.125C281.09 310.516 281.637 310.023 282.309 309.648C282.988 309.273 283.789 309.086 284.711 309.086C287.492 309.086 288.906 310.559 288.953 313.504V322H286.785V313.633C286.785 312.727 286.578 312.051 286.164 311.605C285.75 311.152 285.055 310.926 284.078 310.926C283.273 310.926 282.605 311.168 282.074 311.652C281.543 312.129 281.234 312.773 281.148 313.586V322H278.969V313.691C278.969 311.848 278.066 310.926 276.262 310.926C274.84 310.926 273.867 311.531 273.344 312.742V322H271.176V309.32H273.227ZM300.062 322C299.938 321.75 299.836 321.305 299.758 320.664C298.75 321.711 297.547 322.234 296.148 322.234C294.898 322.234 293.871 321.883 293.066 321.18C292.27 320.469 291.871 319.57 291.871 318.484C291.871 317.164 292.371 316.141 293.371 315.414C294.379 314.68 295.793 314.312 297.613 314.312H299.723V313.316C299.723 312.559 299.496 311.957 299.043 311.512C298.59 311.059 297.922 310.832 297.039 310.832C296.266 310.832 295.617 311.027 295.094 311.418C294.57 311.809 294.309 312.281 294.309 312.836H292.129C292.129 312.203 292.352 311.594 292.797 311.008C293.25 310.414 293.859 309.945 294.625 309.602C295.398 309.258 296.246 309.086 297.168 309.086C298.629 309.086 299.773 309.453 300.602 310.188C301.43 310.914 301.859 311.918 301.891 313.199V319.035C301.891 320.199 302.039 321.125 302.336 321.812V322H300.062ZM296.465 320.348C297.145 320.348 297.789 320.172 298.398 319.82C299.008 319.469 299.449 319.012 299.723 318.449V315.848H298.023C295.367 315.848 294.039 316.625 294.039 318.18C294.039 318.859 294.266 319.391 294.719 319.773C295.172 320.156 295.754 320.348 296.465 320.348ZM304.773 315.555C304.773 313.578 305.23 312.008 306.145 310.844C307.059 309.672 308.27 309.086 309.777 309.086C311.324 309.086 312.531 309.633 313.398 310.727L313.504 309.32H315.484V321.695C315.484 323.336 314.996 324.629 314.02 325.574C313.051 326.52 311.746 326.992 310.105 326.992C309.191 326.992 308.297 326.797 307.422 326.406C306.547 326.016 305.879 325.48 305.418 324.801L306.543 323.5C307.473 324.648 308.609 325.223 309.953 325.223C311.008 325.223 311.828 324.926 312.414 324.332C313.008 323.738 313.305 322.902 313.305 321.824V320.734C312.438 321.734 311.254 322.234 309.754 322.234C308.27 322.234 307.066 321.637 306.145 320.441C305.23 319.246 304.773 317.617 304.773 315.555ZM306.953 315.801C306.953 317.23 307.246 318.355 307.832 319.176C308.418 319.988 309.238 320.395 310.293 320.395C311.66 320.395 312.664 319.773 313.305 318.531V312.742C312.641 311.531 311.645 310.926 310.316 310.926C309.262 310.926 308.438 311.336 307.844 312.156C307.25 312.977 306.953 314.191 306.953 315.801Z" fill="white"/>
<path d="M108.469 359.746C107.625 360.738 106.387 361.234 104.754 361.234C103.402 361.234 102.371 360.844 101.66 360.062C100.957 359.273 100.602 358.109 100.594 356.57V348.32H102.762V356.512C102.762 358.434 103.543 359.395 105.105 359.395C106.762 359.395 107.863 358.777 108.41 357.543V348.32H110.578V361H108.516L108.469 359.746ZM116.238 361H114.07V343H116.238V361ZM122.074 361H119.906V343H122.074V361ZM133.383 361C133.258 360.75 133.156 360.305 133.078 359.664C132.07 360.711 130.867 361.234 129.469 361.234C128.219 361.234 127.191 360.883 126.387 360.18C125.59 359.469 125.191 358.57 125.191 357.484C125.191 356.164 125.691 355.141 126.691 354.414C127.699 353.68 129.113 353.312 130.934 353.312H133.043V352.316C133.043 351.559 132.816 350.957 132.363 350.512C131.91 350.059 131.242 349.832 130.359 349.832C129.586 349.832 128.938 350.027 128.414 350.418C127.891 350.809 127.629 351.281 127.629 351.836H125.449C125.449 351.203 125.672 350.594 126.117 350.008C126.57 349.414 127.18 348.945 127.945 348.602C128.719 348.258 129.566 348.086 130.488 348.086C131.949 348.086 133.094 348.453 133.922 349.188C134.75 349.914 135.18 350.918 135.211 352.199V358.035C135.211 359.199 135.359 360.125 135.656 360.812V361H133.383ZM129.785 359.348C130.465 359.348 131.109 359.172 131.719 358.82C132.328 358.469 132.77 358.012 133.043 357.449V354.848H131.344C128.688 354.848 127.359 355.625 127.359 357.18C127.359 357.859 127.586 358.391 128.039 358.773C128.492 359.156 129.074 359.348 129.785 359.348ZM140.648 348.32L140.707 349.727C141.637 348.633 142.891 348.086 144.469 348.086C146.242 348.086 147.449 348.766 148.09 350.125C148.512 349.516 149.059 349.023 149.73 348.648C150.41 348.273 151.211 348.086 152.133 348.086C154.914 348.086 156.328 349.559 156.375 352.504V361H154.207V352.633C154.207 351.727 154 351.051 153.586 350.605C153.172 350.152 152.477 349.926 151.5 349.926C150.695 349.926 150.027 350.168 149.496 350.652C148.965 351.129 148.656 351.773 148.57 352.586V361H146.391V352.691C146.391 350.848 145.488 349.926 143.684 349.926C142.262 349.926 141.289 350.531 140.766 351.742V361H138.598V348.32H140.648ZM164.742 359.465C165.516 359.465 166.191 359.23 166.77 358.762C167.348 358.293 167.668 357.707 167.73 357.004H169.781C169.742 357.73 169.492 358.422 169.031 359.078C168.57 359.734 167.953 360.258 167.18 360.648C166.414 361.039 165.602 361.234 164.742 361.234C163.016 361.234 161.641 360.66 160.617 359.512C159.602 358.355 159.094 356.777 159.094 354.777V354.414C159.094 353.18 159.32 352.082 159.773 351.121C160.227 350.16 160.875 349.414 161.719 348.883C162.57 348.352 163.574 348.086 164.73 348.086C166.152 348.086 167.332 348.512 168.27 349.363C169.215 350.215 169.719 351.32 169.781 352.68H167.73C167.668 351.859 167.355 351.188 166.793 350.664C166.238 350.133 165.551 349.867 164.73 349.867C163.629 349.867 162.773 350.266 162.164 351.062C161.562 351.852 161.262 352.996 161.262 354.496V354.906C161.262 356.367 161.562 357.492 162.164 358.281C162.766 359.07 163.625 359.465 164.742 359.465ZM171.645 354.543C171.645 353.301 171.887 352.184 172.371 351.191C172.863 350.199 173.543 349.434 174.41 348.895C175.285 348.355 176.281 348.086 177.398 348.086C179.125 348.086 180.52 348.684 181.582 349.879C182.652 351.074 183.188 352.664 183.188 354.648V354.801C183.188 356.035 182.949 357.145 182.473 358.129C182.004 359.105 181.328 359.867 180.445 360.414C179.57 360.961 178.562 361.234 177.422 361.234C175.703 361.234 174.309 360.637 173.238 359.441C172.176 358.246 171.645 356.664 171.645 354.695V354.543ZM173.824 354.801C173.824 356.207 174.148 357.336 174.797 358.188C175.453 359.039 176.328 359.465 177.422 359.465C178.523 359.465 179.398 359.035 180.047 358.176C180.695 357.309 181.02 356.098 181.02 354.543C181.02 353.152 180.688 352.027 180.023 351.168C179.367 350.301 178.492 349.867 177.398 349.867C176.328 349.867 175.465 350.293 174.809 351.145C174.152 351.996 173.824 353.215 173.824 354.801ZM194.215 361H192.047V343H194.215V361ZM205.523 361C205.398 360.75 205.297 360.305 205.219 359.664C204.211 360.711 203.008 361.234 201.609 361.234C200.359 361.234 199.332 360.883 198.527 360.18C197.73 359.469 197.332 358.57 197.332 357.484C197.332 356.164 197.832 355.141 198.832 354.414C199.84 353.68 201.254 353.312 203.074 353.312H205.184V352.316C205.184 351.559 204.957 350.957 204.504 350.512C204.051 350.059 203.383 349.832 202.5 349.832C201.727 349.832 201.078 350.027 200.555 350.418C200.031 350.809 199.77 351.281 199.77 351.836H197.59C197.59 351.203 197.812 350.594 198.258 350.008C198.711 349.414 199.32 348.945 200.086 348.602C200.859 348.258 201.707 348.086 202.629 348.086C204.09 348.086 205.234 348.453 206.062 349.188C206.891 349.914 207.32 350.918 207.352 352.199V358.035C207.352 359.199 207.5 360.125 207.797 360.812V361H205.523ZM201.926 359.348C202.605 359.348 203.25 359.172 203.859 358.82C204.469 358.469 204.91 358.012 205.184 357.449V354.848H203.484C200.828 354.848 199.5 355.625 199.5 357.18C199.5 357.859 199.727 358.391 200.18 358.773C200.633 359.156 201.215 359.348 201.926 359.348ZM221.484 354.801C221.484 356.738 221.039 358.297 220.148 359.477C219.258 360.648 218.062 361.234 216.562 361.234C214.961 361.234 213.723 360.668 212.848 359.535L212.742 361H210.75V343H212.918V349.715C213.793 348.629 215 348.086 216.539 348.086C218.078 348.086 219.285 348.668 220.16 349.832C221.043 350.996 221.484 352.59 221.484 354.613V354.801ZM219.316 354.555C219.316 353.078 219.031 351.938 218.461 351.133C217.891 350.328 217.07 349.926 216 349.926C214.57 349.926 213.543 350.59 212.918 351.918V357.402C213.582 358.73 214.617 359.395 216.023 359.395C217.062 359.395 217.871 358.992 218.449 358.188C219.027 357.383 219.316 356.172 219.316 354.555ZM223.652 354.543C223.652 353.301 223.895 352.184 224.379 351.191C224.871 350.199 225.551 349.434 226.418 348.895C227.293 348.355 228.289 348.086 229.406 348.086C231.133 348.086 232.527 348.684 233.59 349.879C234.66 351.074 235.195 352.664 235.195 354.648V354.801C235.195 356.035 234.957 357.145 234.48 358.129C234.012 359.105 233.336 359.867 232.453 360.414C231.578 360.961 230.57 361.234 229.43 361.234C227.711 361.234 226.316 360.637 225.246 359.441C224.184 358.246 223.652 356.664 223.652 354.695V354.543ZM225.832 354.801C225.832 356.207 226.156 357.336 226.805 358.188C227.461 359.039 228.336 359.465 229.43 359.465C230.531 359.465 231.406 359.035 232.055 358.176C232.703 357.309 233.027 356.098 233.027 354.543C233.027 353.152 232.695 352.027 232.031 351.168C231.375 350.301 230.5 349.867 229.406 349.867C228.336 349.867 227.473 350.293 226.816 351.145C226.16 351.996 225.832 353.215 225.832 354.801ZM244.043 350.266C243.715 350.211 243.359 350.184 242.977 350.184C241.555 350.184 240.59 350.789 240.082 352V361H237.914V348.32H240.023L240.059 349.785C240.77 348.652 241.777 348.086 243.082 348.086C243.504 348.086 243.824 348.141 244.043 348.25V350.266ZM248.402 361H246.234V348.32H248.402V361ZM246.059 344.957C246.059 344.605 246.164 344.309 246.375 344.066C246.594 343.824 246.914 343.703 247.336 343.703C247.758 343.703 248.078 343.824 248.297 344.066C248.516 344.309 248.625 344.605 248.625 344.957C248.625 345.309 248.516 345.602 248.297 345.836C248.078 346.07 247.758 346.188 247.336 346.188C246.914 346.188 246.594 346.07 246.375 345.836C246.164 345.602 246.059 345.309 246.059 344.957ZM259.266 357.637C259.266 357.051 259.043 356.598 258.598 356.277C258.16 355.949 257.391 355.668 256.289 355.434C255.195 355.199 254.324 354.918 253.676 354.59C253.035 354.262 252.559 353.871 252.246 353.418C251.941 352.965 251.789 352.426 251.789 351.801C251.789 350.762 252.227 349.883 253.102 349.164C253.984 348.445 255.109 348.086 256.477 348.086C257.914 348.086 259.078 348.457 259.969 349.199C260.867 349.941 261.316 350.891 261.316 352.047H259.137C259.137 351.453 258.883 350.941 258.375 350.512C257.875 350.082 257.242 349.867 256.477 349.867C255.688 349.867 255.07 350.039 254.625 350.383C254.18 350.727 253.957 351.176 253.957 351.73C253.957 352.254 254.164 352.648 254.578 352.914C254.992 353.18 255.738 353.434 256.816 353.676C257.902 353.918 258.781 354.207 259.453 354.543C260.125 354.879 260.621 355.285 260.941 355.762C261.27 356.23 261.434 356.805 261.434 357.484C261.434 358.617 260.98 359.527 260.074 360.215C259.168 360.895 257.992 361.234 256.547 361.234C255.531 361.234 254.633 361.055 253.852 360.695C253.07 360.336 252.457 359.836 252.012 359.195C251.574 358.547 251.355 357.848 251.355 357.098H253.523C253.562 357.824 253.852 358.402 254.391 358.832C254.938 359.254 255.656 359.465 256.547 359.465C257.367 359.465 258.023 359.301 258.516 358.973C259.016 358.637 259.266 358.191 259.266 357.637ZM272.262 348.32L272.332 349.914C273.301 348.695 274.566 348.086 276.129 348.086C278.809 348.086 280.16 349.598 280.184 352.621V361H278.016V352.609C278.008 351.695 277.797 351.02 277.383 350.582C276.977 350.145 276.34 349.926 275.473 349.926C274.77 349.926 274.152 350.113 273.621 350.488C273.09 350.863 272.676 351.355 272.379 351.965V361H270.211V348.32H272.262ZM285.809 361H283.641V348.32H285.809V361ZM283.465 344.957C283.465 344.605 283.57 344.309 283.781 344.066C284 343.824 284.32 343.703 284.742 343.703C285.164 343.703 285.484 343.824 285.703 344.066C285.922 344.309 286.031 344.605 286.031 344.957C286.031 345.309 285.922 345.602 285.703 345.836C285.484 346.07 285.164 346.188 284.742 346.188C284.32 346.188 284 346.07 283.781 345.836C283.57 345.602 283.465 345.309 283.465 344.957Z" fill="white"/>
<path d="M40.3906 421H37.4844V401.734L31.6562 403.875V401.25L39.9375 398.141H40.3906V421ZM63.7656 421H48.8594V418.922L56.7344 410.172C57.901 408.849 58.7031 407.776 59.1406 406.953C59.5885 406.12 59.8125 405.26 59.8125 404.375C59.8125 403.188 59.4531 402.214 58.7344 401.453C58.0156 400.693 57.0573 400.312 55.8594 400.312C54.4219 400.312 53.3021 400.724 52.5 401.547C51.7083 402.359 51.3125 403.495 51.3125 404.953H48.4219C48.4219 402.859 49.0938 401.167 50.4375 399.875C51.7917 398.583 53.599 397.938 55.8594 397.938C57.974 397.938 59.6458 398.495 60.875 399.609C62.1042 400.714 62.7188 402.188 62.7188 404.031C62.7188 406.271 61.2917 408.938 58.4375 412.031L52.3438 418.641H63.7656V421ZM78.5156 412.094V421H75.5156V398.25H83.9062C86.3958 398.25 88.3438 398.885 89.75 400.156C91.1667 401.427 91.875 403.109 91.875 405.203C91.875 407.411 91.1823 409.115 89.7969 410.312C88.4219 411.5 86.4479 412.094 83.875 412.094H78.5156ZM78.5156 409.641H83.9062C85.5104 409.641 86.7396 409.266 87.5938 408.516C88.4479 407.755 88.875 406.661 88.875 405.234C88.875 403.88 88.4479 402.797 87.5938 401.984C86.7396 401.172 85.5677 400.75 84.0781 400.719H78.5156V409.641ZM106.109 415.062H96.5781L94.4375 421H91.3438L100.031 398.25H102.656L111.359 421H108.281L106.109 415.062ZM97.4844 412.594H105.219L101.344 401.953L97.4844 412.594ZM131.031 418.016C130.26 419.12 129.182 419.948 127.797 420.5C126.422 421.042 124.818 421.312 122.984 421.312C121.13 421.312 119.484 420.88 118.047 420.016C116.609 419.141 115.495 417.901 114.703 416.297C113.922 414.693 113.521 412.833 113.5 410.719V408.734C113.5 405.307 114.297 402.651 115.891 400.766C117.495 398.88 119.745 397.938 122.641 397.938C125.016 397.938 126.927 398.547 128.375 399.766C129.823 400.974 130.708 402.693 131.031 404.922H128.031C127.469 401.911 125.677 400.406 122.656 400.406C120.646 400.406 119.12 401.115 118.078 402.531C117.047 403.938 116.526 405.979 116.516 408.656V410.516C116.516 413.068 117.099 415.099 118.266 416.609C119.432 418.109 121.01 418.859 123 418.859C124.125 418.859 125.109 418.734 125.953 418.484C126.797 418.234 127.495 417.812 128.047 417.219V412.109H122.781V409.672H131.031V418.016ZM148.906 410.484H139.047V418.547H150.5V421H136.047V398.25H150.344V400.719H139.047V408.031H148.906V410.484ZM160.938 410.859C158.365 410.12 156.49 409.214 155.312 408.141C154.146 407.057 153.562 405.724 153.562 404.141C153.562 402.349 154.276 400.87 155.703 399.703C157.141 398.526 159.005 397.938 161.297 397.938C162.859 397.938 164.25 398.24 165.469 398.844C166.698 399.448 167.646 400.281 168.312 401.344C168.99 402.406 169.328 403.568 169.328 404.828H166.312C166.312 403.453 165.875 402.375 165 401.594C164.125 400.802 162.891 400.406 161.297 400.406C159.818 400.406 158.661 400.734 157.828 401.391C157.005 402.036 156.594 402.938 156.594 404.094C156.594 405.021 156.984 405.807 157.766 406.453C158.557 407.089 159.896 407.672 161.781 408.203C163.677 408.734 165.156 409.323 166.219 409.969C167.292 410.604 168.083 411.349 168.594 412.203C169.115 413.057 169.375 414.062 169.375 415.219C169.375 417.062 168.656 418.542 167.219 419.656C165.781 420.76 163.859 421.312 161.453 421.312C159.891 421.312 158.432 421.016 157.078 420.422C155.724 419.818 154.677 418.995 153.938 417.953C153.208 416.911 152.844 415.729 152.844 414.406H155.859C155.859 415.781 156.365 416.87 157.375 417.672C158.396 418.464 159.755 418.859 161.453 418.859C163.036 418.859 164.25 418.536 165.094 417.891C165.938 417.245 166.359 416.365 166.359 415.25C166.359 414.135 165.969 413.276 165.188 412.672C164.406 412.057 162.99 411.453 160.938 410.859Z" fill="#DCAC65"/>
<defs>
<filter id="filter0_d_54_3" x="114.996" y="29.4961" width="160.519" height="32.8359" filterUnits="userSpaceOnUse" color-interpolation-filters="sRGB">
<feFlood flood-opacity="0" result="BackgroundImageFix"/>
<feColorMatrix in="SourceAlpha" type="matrix" values="0 0 0 0 0 0 0 0 0 0 0 0 0 0 0 0 0 0 127 0" result="hardAlpha"/>
<feOffset dy="4"/>
<feGaussianBlur stdDeviation="2"/>
<feComposite in2="hardAlpha" operator="out"/>
<feColorMatrix type="matrix" values="0 0 0 0 0 0 0 0 0 0 0 0 0 0 0 0 0 0 0.25 0"/>
<feBlend mode="normal" in2="BackgroundImageFix" result="effect1_dropShadow_54_3"/>
<feBlend mode="normal" in="SourceGraphic" in2="effect1_dropShadow_54_3" result="shape"/>
</filter>
<linearGradient id="paint0_linear_54_3" x1="194" y1="146" x2="194" y2="-320" gradientUnits="userSpaceOnUse">
<stop stop-color="#5B5BD9"/>
<stop offset="1" stop-color="#5B5BD9" stop-opacity="0"/>
</linearGradient>
<linearGradient id="paint1_linear_54_3" x1="251.5" y1="392" x2="252" y2="555" gradientUnits="userSpaceOnUse">
<stop offset="0.5" stop-color="#5B5BD9"/>
<stop offset="1" stop-color="#5B5BD9" stop-opacity="0"/>
</linearGradient>
<linearGradient id="paint2_linear_54_3" x1="100" y1="624" x2="100" y2="454" gradientUnits="userSpaceOnUse">
<stop offset="0.59375" stop-color="#5656CA"/>
<stop offset="1" stop-color="#5656CA" stop-opacity="0"/>
</linearGradient>
</defs>
</svg>
