<svg width="434" height="624" viewBox="0 0 434 624" fill="none" xmlns="http://www.w3.org/2000/svg">
<rect width="434" height="624" fill="url(#paint0_linear_54_6)" fill-opacity="0.71"/>
<rect x="1" y="1" width="432" height="622" stroke="white" stroke-opacity="0.42" stroke-width="2"/>
<g filter="url(#filter0_d_54_6)">
<path d="M143.662 44.9805V55H140.287V29.4062H149.727C152.527 29.4062 154.719 30.1211 156.301 31.5508C157.895 32.9805 158.691 34.873 158.691 37.2285C158.691 39.7129 157.912 41.6289 156.354 42.9766C154.807 44.3125 152.586 44.9805 149.691 44.9805H143.662ZM143.662 42.2207H149.727C151.531 42.2207 152.914 41.7988 153.875 40.9551C154.836 40.0996 155.316 38.8691 155.316 37.2637C155.316 35.7402 154.836 34.5215 153.875 33.6074C152.914 32.6934 151.596 32.2188 149.92 32.1836H143.662V42.2207ZM172.385 44.6465H166.373V55H162.98V29.4062H171.453C174.336 29.4062 176.551 30.0625 178.098 31.375C179.656 32.6875 180.436 34.5977 180.436 37.1055C180.436 38.6992 180.002 40.0879 179.135 41.2715C178.279 42.4551 177.084 43.3398 175.549 43.9258L181.561 54.7891V55H177.939L172.385 44.6465ZM166.373 41.8867H171.559C173.234 41.8867 174.564 41.4531 175.549 40.5859C176.545 39.7188 177.043 38.5586 177.043 37.1055C177.043 35.5234 176.568 34.3105 175.619 33.4668C174.682 32.623 173.322 32.1953 171.541 32.1836H166.373V41.8867ZM199.648 43.1699H188.557V52.2402H201.441V55H185.182V29.4062H201.266V32.1836H188.557V40.4102H199.648V43.1699ZM210.002 29.4062L218.369 50.2891L226.736 29.4062H231.113V55H227.738V45.0332L228.055 34.2754L219.652 55H217.068L208.684 34.3281L209.018 45.0332V55H205.643V29.4062H210.002ZM240.693 55H237.318V29.4062H240.693V55ZM264.898 29.4062V46.8086C264.887 49.2227 264.125 51.1973 262.613 52.7324C261.113 54.2676 259.074 55.1289 256.496 55.3164L255.6 55.3516C252.799 55.3516 250.566 54.5957 248.902 53.084C247.238 51.5723 246.395 49.4922 246.371 46.8438V29.4062H249.711V46.7383C249.711 48.5898 250.221 50.0312 251.24 51.0625C252.26 52.082 253.713 52.5918 255.6 52.5918C257.51 52.5918 258.969 52.082 259.977 51.0625C260.996 50.043 261.506 48.6074 261.506 46.7559V29.4062H264.898ZM274.584 29.4062L282.951 50.2891L291.318 29.4062H295.695V55H292.32V45.0332L292.637 34.2754L284.234 55H281.65L273.266 34.3281L273.6 45.0332V55H270.225V29.4062H274.584Z" fill="#DCAC65"/>
</g>
<path d="M432 442L143.516 607.205L127 623H432V442Z" fill="url(#paint1_linear_54_6)"/>
<path d="M212.05 622L2 528.301V622H212.05Z" fill="url(#paint2_linear_54_6)"/>
<line x1="58" y1="75.5" x2="366" y2="75.5" stroke="white"/>
<path d="M120.543 118V98.0938H126.162C127.894 98.0938 129.425 98.4766 130.756 99.2422C132.087 100.008 133.112 101.097 133.832 102.51C134.561 103.923 134.93 105.545 134.939 107.377V108.648C134.939 110.526 134.575 112.171 133.846 113.584C133.126 114.997 132.091 116.081 130.742 116.838C129.402 117.594 127.839 117.982 126.053 118H120.543ZM123.168 100.254V115.854H125.93C127.953 115.854 129.525 115.225 130.646 113.967C131.777 112.709 132.342 110.918 132.342 108.594V107.432C132.342 105.171 131.809 103.417 130.742 102.168C129.685 100.91 128.181 100.272 126.23 100.254H123.168ZM144.387 108.088L149.582 98.0938H152.562L145.699 110.576V118H143.074V110.576L136.211 98.0938H139.219L144.387 108.088ZM170.432 118H167.793L157.771 102.66V118H155.133V98.0938H157.771L167.82 113.502V98.0938H170.432V118ZM186.332 112.805H177.992L176.119 118H173.412L181.014 98.0938H183.311L190.926 118H188.232L186.332 112.805ZM178.785 110.645H185.553L182.162 101.334L178.785 110.645ZM196.996 98.0938L203.504 114.336L210.012 98.0938H213.416V118H210.791V110.248L211.037 101.881L204.502 118H202.492L195.971 101.922L196.23 110.248V118H193.605V98.0938H196.996ZM220.867 118H218.242V98.0938H220.867V118ZM240.322 111.684C240.076 113.789 239.297 115.416 237.984 116.564C236.681 117.704 234.945 118.273 232.775 118.273C230.424 118.273 228.537 117.43 227.115 115.744C225.702 114.058 224.996 111.802 224.996 108.977V107.062C224.996 105.212 225.324 103.585 225.98 102.182C226.646 100.778 227.585 99.7025 228.797 98.9551C230.009 98.1986 231.413 97.8203 233.008 97.8203C235.122 97.8203 236.818 98.4128 238.094 99.5977C239.37 100.773 240.113 102.405 240.322 104.492H237.684C237.456 102.906 236.959 101.758 236.193 101.047C235.437 100.336 234.375 99.9805 233.008 99.9805C231.331 99.9805 230.014 100.6 229.057 101.84C228.109 103.079 227.635 104.843 227.635 107.131V109.059C227.635 111.219 228.086 112.937 228.988 114.213C229.891 115.489 231.153 116.127 232.775 116.127C234.234 116.127 235.35 115.799 236.125 115.143C236.909 114.477 237.428 113.324 237.684 111.684H240.322ZM255.156 111.725L255.539 114.35L256.1 111.984L260.037 98.0938H262.252L266.094 111.984L266.641 114.391L267.064 111.711L270.154 98.0938H272.793L267.967 118H265.574L261.473 103.494L261.158 101.977L260.844 103.494L256.592 118H254.199L249.387 98.0938H252.012L255.156 111.725ZM286.971 108.799H278.344V115.854H288.365V118H275.719V98.0938H288.229V100.254H278.344V106.652H286.971V108.799ZM291.633 118V98.0938H298.141C300.301 98.0938 301.923 98.5404 303.008 99.4336C304.102 100.327 304.648 101.648 304.648 103.398C304.648 104.328 304.384 105.153 303.855 105.873C303.327 106.584 302.607 107.135 301.695 107.527C302.771 107.828 303.618 108.402 304.238 109.25C304.867 110.089 305.182 111.091 305.182 112.258C305.182 114.044 304.603 115.448 303.445 116.469C302.288 117.49 300.652 118 298.537 118H291.633ZM294.258 108.689V115.854H298.592C299.813 115.854 300.775 115.539 301.477 114.91C302.188 114.272 302.543 113.397 302.543 112.285C302.543 109.888 301.24 108.689 298.633 108.689H294.258ZM294.258 106.584H298.223C299.371 106.584 300.287 106.297 300.971 105.723C301.663 105.148 302.01 104.369 302.01 103.385C302.01 102.291 301.691 101.498 301.053 101.006C300.415 100.505 299.444 100.254 298.141 100.254H294.258V106.584Z" fill="white"/>
<path d="M334.995 579H311.238V575.688L323.789 561.743C325.648 559.634 326.926 557.924 327.624 556.613C328.337 555.285 328.694 553.915 328.694 552.504C328.694 550.611 328.122 549.059 326.976 547.847C325.831 546.635 324.303 546.029 322.394 546.029C320.103 546.029 318.318 546.685 317.04 547.997C315.778 549.292 315.147 551.101 315.147 553.425H310.541C310.541 550.088 311.611 547.391 313.753 545.332C315.911 543.273 318.792 542.244 322.394 542.244C325.764 542.244 328.429 543.132 330.388 544.909C332.347 546.668 333.326 549.018 333.326 551.956C333.326 555.525 331.052 559.775 326.503 564.706L316.791 575.24H334.995V579ZM346.574 558.63H350.036C352.21 558.597 353.92 558.024 355.166 556.912C356.411 555.799 357.033 554.297 357.033 552.404C357.033 548.154 354.917 546.029 350.683 546.029C348.691 546.029 347.097 546.602 345.902 547.748C344.723 548.876 344.134 550.379 344.134 552.255H339.527C339.527 549.383 340.573 547 342.665 545.108C344.773 543.199 347.446 542.244 350.683 542.244C354.103 542.244 356.784 543.149 358.727 544.958C360.669 546.768 361.64 549.283 361.64 552.504C361.64 554.081 361.125 555.608 360.096 557.086C359.083 558.563 357.697 559.667 355.938 560.398C357.93 561.029 359.465 562.075 360.544 563.536C361.64 564.997 362.188 566.781 362.188 568.89C362.188 572.144 361.125 574.725 359 576.634C356.875 578.543 354.111 579.498 350.708 579.498C347.305 579.498 344.532 578.577 342.391 576.734C340.266 574.891 339.203 572.459 339.203 569.438H343.835C343.835 571.347 344.458 572.874 345.703 574.02C346.948 575.165 348.616 575.738 350.708 575.738C352.933 575.738 354.634 575.157 355.813 573.995C356.992 572.833 357.581 571.164 357.581 568.989C357.581 566.881 356.934 565.262 355.639 564.133C354.344 563.004 352.476 562.423 350.036 562.39H346.574V558.63ZM386.169 563.062C385.206 564.208 384.052 565.129 382.708 565.827C381.379 566.524 379.918 566.873 378.325 566.873C376.233 566.873 374.407 566.358 372.846 565.329C371.302 564.299 370.107 562.855 369.26 560.996C368.414 559.12 367.99 557.053 367.99 554.795C367.99 552.371 368.447 550.188 369.36 548.246C370.29 546.303 371.601 544.817 373.294 543.788C374.988 542.759 376.963 542.244 379.221 542.244C382.807 542.244 385.629 543.589 387.688 546.278C389.763 548.951 390.801 552.604 390.801 557.235V558.58C390.801 565.636 389.406 570.791 386.617 574.044C383.828 577.282 379.62 578.942 373.992 579.025H373.095V575.14H374.066C377.868 575.074 380.79 574.086 382.832 572.177C384.874 570.251 385.986 567.213 386.169 563.062ZM379.072 563.062C380.616 563.062 382.035 562.589 383.33 561.643C384.642 560.697 385.596 559.526 386.194 558.132V556.289C386.194 553.268 385.538 550.811 384.227 548.918C382.915 547.025 381.255 546.079 379.246 546.079C377.221 546.079 375.594 546.859 374.365 548.42C373.137 549.964 372.522 552.006 372.522 554.546C372.522 557.02 373.112 559.062 374.291 560.672C375.486 562.266 377.08 563.062 379.072 563.062ZM415.454 569.662C415.454 568.134 414.915 566.848 413.835 565.802C412.773 564.756 410.972 563.81 408.432 562.963C404.896 561.884 402.314 560.481 400.687 558.754C399.077 557.011 398.271 554.803 398.271 552.13C398.271 549.408 399.06 547.175 400.637 545.432C402.231 543.688 404.414 542.651 407.187 542.319V536.865H410.897V542.344C413.686 542.726 415.853 543.896 417.396 545.855C418.957 547.814 419.737 550.495 419.737 553.898H415.155C415.155 551.558 414.599 549.698 413.487 548.32C412.375 546.942 410.872 546.253 408.979 546.253C407.004 546.253 405.493 546.768 404.447 547.797C403.401 548.81 402.878 550.229 402.878 552.056C402.878 553.749 403.426 555.102 404.522 556.115C405.634 557.111 407.452 558.024 409.976 558.854C412.516 559.667 414.491 560.572 415.902 561.568C417.33 562.548 418.376 563.693 419.04 565.005C419.721 566.316 420.061 567.852 420.061 569.612C420.061 572.417 419.214 574.675 417.521 576.385C415.844 578.095 413.487 579.108 410.449 579.423V584.18H406.763V579.423C403.675 579.141 401.251 578.045 399.492 576.136C397.749 574.21 396.877 571.604 396.877 568.317H401.484C401.484 570.625 402.09 572.401 403.302 573.646C404.514 574.891 406.232 575.514 408.457 575.514C410.631 575.514 412.341 574.991 413.586 573.945C414.832 572.899 415.454 571.471 415.454 569.662Z" fill="#DCAC65"/>
<path d="M100.772 185.93H109.869V188H98.228V168.805H100.772V185.93ZM111.728 180.736C111.728 179.338 112 178.082 112.545 176.965C113.099 175.849 113.864 174.988 114.839 174.381C115.824 173.775 116.944 173.472 118.201 173.472C120.144 173.472 121.712 174.144 122.908 175.489C124.112 176.833 124.714 178.622 124.714 180.854V181.026C124.714 182.415 124.446 183.663 123.91 184.77C123.382 185.869 122.622 186.726 121.629 187.341C120.645 187.956 119.511 188.264 118.228 188.264C116.294 188.264 114.725 187.591 113.521 186.247C112.326 184.902 111.728 183.122 111.728 180.907V180.736ZM114.18 181.026C114.18 182.608 114.545 183.878 115.274 184.836C116.013 185.794 116.997 186.273 118.228 186.273C119.467 186.273 120.451 185.79 121.181 184.823C121.91 183.847 122.275 182.485 122.275 180.736C122.275 179.171 121.901 177.906 121.154 176.939C120.416 175.963 119.432 175.476 118.201 175.476C116.997 175.476 116.026 175.955 115.288 176.913C114.549 177.871 114.18 179.242 114.18 181.026ZM134.667 175.924C134.298 175.862 133.898 175.832 133.468 175.832C131.868 175.832 130.783 176.513 130.211 177.875V188H127.772V173.735H130.146L130.185 175.383C130.985 174.109 132.119 173.472 133.586 173.472C134.061 173.472 134.421 173.533 134.667 173.656V175.924ZM142.578 188.264C140.644 188.264 139.071 187.631 137.858 186.365C136.645 185.091 136.039 183.39 136.039 181.263V180.815C136.039 179.4 136.307 178.139 136.843 177.031C137.388 175.915 138.144 175.045 139.11 174.421C140.086 173.788 141.141 173.472 142.274 173.472C144.129 173.472 145.57 174.083 146.599 175.304C147.627 176.526 148.141 178.275 148.141 180.551V181.566H138.478C138.513 182.973 138.921 184.111 139.704 184.981C140.495 185.842 141.497 186.273 142.709 186.273C143.571 186.273 144.3 186.097 144.898 185.746C145.496 185.394 146.019 184.928 146.467 184.348L147.957 185.508C146.761 187.345 144.968 188.264 142.578 188.264ZM142.274 175.476C141.29 175.476 140.464 175.836 139.796 176.557C139.128 177.269 138.715 178.271 138.557 179.562H145.702V179.378C145.632 178.139 145.298 177.181 144.7 176.504C144.103 175.818 143.294 175.476 142.274 175.476ZM153.27 173.735L153.335 175.317C154.381 174.087 155.792 173.472 157.567 173.472C159.562 173.472 160.92 174.236 161.641 175.766C162.116 175.08 162.731 174.526 163.487 174.104C164.251 173.683 165.152 173.472 166.189 173.472C169.318 173.472 170.909 175.128 170.962 178.442V188H168.523V178.587C168.523 177.567 168.29 176.807 167.824 176.306C167.358 175.796 166.576 175.542 165.478 175.542C164.572 175.542 163.821 175.814 163.223 176.359C162.625 176.895 162.278 177.62 162.182 178.534V188H159.729V178.653C159.729 176.579 158.714 175.542 156.684 175.542C155.084 175.542 153.99 176.223 153.401 177.585V188H150.962V173.735H153.27ZM184 188H181.562V173.735H184V188ZM181.364 169.952C181.364 169.556 181.482 169.222 181.72 168.95C181.966 168.677 182.326 168.541 182.801 168.541C183.275 168.541 183.636 168.677 183.882 168.95C184.128 169.222 184.251 169.556 184.251 169.952C184.251 170.347 184.128 170.677 183.882 170.94C183.636 171.204 183.275 171.336 182.801 171.336C182.326 171.336 181.966 171.204 181.72 170.94C181.482 170.677 181.364 170.347 181.364 169.952ZM199.966 181.026C199.966 183.197 199.469 184.946 198.476 186.273C197.483 187.6 196.138 188.264 194.442 188.264C192.71 188.264 191.348 187.714 190.355 186.616V193.484H187.916V173.735H190.144L190.263 175.317C191.256 174.087 192.636 173.472 194.402 173.472C196.116 173.472 197.47 174.118 198.463 175.41C199.465 176.702 199.966 178.499 199.966 180.802V181.026ZM197.527 180.749C197.527 179.141 197.184 177.871 196.499 176.939C195.813 176.007 194.873 175.542 193.677 175.542C192.201 175.542 191.093 176.196 190.355 177.506V184.322C191.084 185.623 192.201 186.273 193.704 186.273C194.873 186.273 195.8 185.812 196.485 184.889C197.18 183.957 197.527 182.577 197.527 180.749ZM211.383 184.216C211.383 183.557 211.132 183.047 210.631 182.687C210.139 182.318 209.273 182.001 208.034 181.738C206.804 181.474 205.824 181.158 205.094 180.789C204.374 180.419 203.837 179.98 203.486 179.47C203.143 178.96 202.972 178.354 202.972 177.651C202.972 176.482 203.464 175.493 204.448 174.685C205.441 173.876 206.707 173.472 208.245 173.472C209.862 173.472 211.172 173.889 212.174 174.724C213.185 175.559 213.69 176.627 213.69 177.928H211.238C211.238 177.26 210.952 176.684 210.381 176.201C209.818 175.717 209.106 175.476 208.245 175.476C207.357 175.476 206.663 175.669 206.162 176.056C205.661 176.442 205.411 176.948 205.411 177.572C205.411 178.161 205.644 178.604 206.109 178.903C206.575 179.202 207.415 179.488 208.627 179.76C209.849 180.033 210.838 180.358 211.594 180.736C212.35 181.114 212.908 181.571 213.268 182.107C213.637 182.634 213.822 183.28 213.822 184.045C213.822 185.319 213.312 186.343 212.292 187.117C211.273 187.881 209.95 188.264 208.324 188.264C207.182 188.264 206.171 188.062 205.292 187.657C204.413 187.253 203.723 186.69 203.222 185.97C202.73 185.24 202.484 184.454 202.484 183.61H204.923C204.967 184.427 205.292 185.078 205.898 185.561C206.514 186.036 207.322 186.273 208.324 186.273C209.247 186.273 209.985 186.088 210.539 185.719C211.102 185.341 211.383 184.84 211.383 184.216ZM225.806 186.589C224.856 187.706 223.463 188.264 221.626 188.264C220.106 188.264 218.946 187.824 218.146 186.945C217.355 186.058 216.955 184.748 216.946 183.017V173.735H219.385V182.951C219.385 185.113 220.264 186.194 222.022 186.194C223.885 186.194 225.125 185.5 225.74 184.111V173.735H228.179V188H225.858L225.806 186.589ZM234.19 173.735L234.256 175.317C235.302 174.087 236.713 173.472 238.488 173.472C240.483 173.472 241.841 174.236 242.562 175.766C243.037 175.08 243.652 174.526 244.408 174.104C245.172 173.683 246.073 173.472 247.11 173.472C250.239 173.472 251.83 175.128 251.883 178.442V188H249.444V178.587C249.444 177.567 249.211 176.807 248.745 176.306C248.279 175.796 247.497 175.542 246.398 175.542C245.493 175.542 244.742 175.814 244.144 176.359C243.546 176.895 243.199 177.62 243.103 178.534V188H240.65V178.653C240.65 176.579 239.635 175.542 237.605 175.542C236.005 175.542 234.911 176.223 234.322 177.585V188H231.883V173.735H234.19ZM261.678 180.749C261.678 178.561 262.197 176.803 263.234 175.476C264.271 174.14 265.629 173.472 267.308 173.472C268.978 173.472 270.3 174.043 271.276 175.186V167.75H273.715V188H271.474L271.355 186.471C270.379 187.666 269.021 188.264 267.281 188.264C265.629 188.264 264.28 187.587 263.234 186.233C262.197 184.88 261.678 183.113 261.678 180.934V180.749ZM264.117 181.026C264.117 182.643 264.451 183.909 265.119 184.823C265.787 185.737 266.71 186.194 267.888 186.194C269.435 186.194 270.564 185.5 271.276 184.111V177.559C270.546 176.214 269.426 175.542 267.914 175.542C266.719 175.542 265.787 176.003 265.119 176.926C264.451 177.849 264.117 179.215 264.117 181.026ZM276.866 180.736C276.866 179.338 277.138 178.082 277.683 176.965C278.237 175.849 279.001 174.988 279.977 174.381C280.961 173.775 282.082 173.472 283.339 173.472C285.281 173.472 286.85 174.144 288.045 175.489C289.25 176.833 289.852 178.622 289.852 180.854V181.026C289.852 182.415 289.583 183.663 289.047 184.77C288.52 185.869 287.76 186.726 286.767 187.341C285.782 187.956 284.648 188.264 283.365 188.264C281.432 188.264 279.863 187.591 278.659 186.247C277.463 184.902 276.866 183.122 276.866 180.907V180.736ZM279.318 181.026C279.318 182.608 279.683 183.878 280.412 184.836C281.15 185.794 282.135 186.273 283.365 186.273C284.604 186.273 285.589 185.79 286.318 184.823C287.048 183.847 287.413 182.485 287.413 180.736C287.413 179.171 287.039 177.906 286.292 176.939C285.554 175.963 284.569 175.476 283.339 175.476C282.135 175.476 281.164 175.955 280.425 176.913C279.687 177.871 279.318 179.242 279.318 181.026ZM295.56 188H293.121V167.75H295.56V188ZM298.83 180.736C298.83 179.338 299.102 178.082 299.647 176.965C300.201 175.849 300.965 174.988 301.941 174.381C302.925 173.775 304.046 173.472 305.303 173.472C307.245 173.472 308.814 174.144 310.009 175.489C311.213 176.833 311.815 178.622 311.815 180.854V181.026C311.815 182.415 311.547 183.663 311.011 184.77C310.484 185.869 309.724 186.726 308.73 187.341C307.746 187.956 306.612 188.264 305.329 188.264C303.396 188.264 301.827 187.591 300.623 186.247C299.427 184.902 298.83 183.122 298.83 180.907V180.736ZM301.282 181.026C301.282 182.608 301.646 183.878 302.376 184.836C303.114 185.794 304.099 186.273 305.329 186.273C306.568 186.273 307.553 185.79 308.282 184.823C309.012 183.847 309.376 182.485 309.376 180.736C309.376 179.171 309.003 177.906 308.256 176.939C307.518 175.963 306.533 175.476 305.303 175.476C304.099 175.476 303.127 175.955 302.389 176.913C301.651 177.871 301.282 179.242 301.282 181.026ZM321.769 175.924C321.4 175.862 321 175.832 320.569 175.832C318.97 175.832 317.884 176.513 317.313 177.875V188H314.874V173.735H317.247L317.287 175.383C318.086 174.109 319.22 173.472 320.688 173.472C321.163 173.472 321.523 173.533 321.769 173.656V175.924Z" fill="white"/>
<path d="M77.1514 223.216C77.1514 222.557 76.9009 222.047 76.3999 221.687C75.9077 221.318 75.042 221.001 73.8027 220.738C72.5723 220.474 71.5923 220.158 70.8628 219.789C70.1421 219.419 69.606 218.98 69.2544 218.47C68.9116 217.96 68.7402 217.354 68.7402 216.651C68.7402 215.482 69.2324 214.493 70.2168 213.685C71.21 212.876 72.4756 212.472 74.0137 212.472C75.6309 212.472 76.9404 212.889 77.9424 213.724C78.9531 214.559 79.4585 215.627 79.4585 216.928H77.0063C77.0063 216.26 76.7207 215.684 76.1494 215.201C75.5869 214.717 74.875 214.476 74.0137 214.476C73.126 214.476 72.4316 214.669 71.9307 215.056C71.4297 215.442 71.1792 215.948 71.1792 216.572C71.1792 217.161 71.4121 217.604 71.8779 217.903C72.3438 218.202 73.1831 218.488 74.396 218.76C75.6177 219.033 76.6064 219.358 77.3623 219.736C78.1182 220.114 78.6763 220.571 79.0366 221.107C79.4058 221.634 79.5903 222.28 79.5903 223.045C79.5903 224.319 79.0806 225.343 78.061 226.117C77.0415 226.881 75.7188 227.264 74.0928 227.264C72.9502 227.264 71.9395 227.062 71.0605 226.657C70.1816 226.253 69.4917 225.69 68.9907 224.97C68.4985 224.24 68.2524 223.454 68.2524 222.61H70.6914C70.7354 223.427 71.0605 224.078 71.667 224.561C72.2822 225.036 73.0908 225.273 74.0928 225.273C75.0156 225.273 75.7539 225.088 76.3076 224.719C76.8701 224.341 77.1514 223.84 77.1514 223.216ZM85.4175 227H82.9785V212.735H85.4175V227ZM82.7808 208.952C82.7808 208.556 82.8994 208.222 83.1367 207.95C83.3828 207.677 83.7432 207.541 84.2178 207.541C84.6924 207.541 85.0527 207.677 85.2988 207.95C85.5449 208.222 85.668 208.556 85.668 208.952C85.668 209.347 85.5449 209.677 85.2988 209.94C85.0527 210.204 84.6924 210.336 84.2178 210.336C83.7432 210.336 83.3828 210.204 83.1367 209.94C82.8994 209.677 82.7808 209.347 82.7808 208.952ZM92.6421 209.281V212.735H95.3052V214.621H92.6421V223.467C92.6421 224.038 92.7607 224.469 92.998 224.759C93.2354 225.04 93.6396 225.181 94.2109 225.181C94.4922 225.181 94.8789 225.128 95.3711 225.022V227C94.7295 227.176 94.1055 227.264 93.499 227.264C92.4092 227.264 91.5874 226.934 91.0337 226.275C90.48 225.616 90.2031 224.68 90.2031 223.467V214.621H87.606V212.735H90.2031V209.281H92.6421ZM113.67 227C113.529 226.719 113.415 226.218 113.327 225.497C112.193 226.675 110.84 227.264 109.267 227.264C107.86 227.264 106.705 226.868 105.799 226.077C104.903 225.277 104.455 224.267 104.455 223.045C104.455 221.56 105.017 220.408 106.142 219.591C107.276 218.765 108.867 218.352 110.915 218.352H113.288V217.231C113.288 216.378 113.033 215.702 112.523 215.201C112.013 214.691 111.262 214.436 110.269 214.436C109.398 214.436 108.669 214.656 108.08 215.095C107.491 215.535 107.197 216.066 107.197 216.69H104.745C104.745 215.979 104.995 215.293 105.496 214.634C106.006 213.966 106.691 213.438 107.553 213.052C108.423 212.665 109.376 212.472 110.414 212.472C112.057 212.472 113.345 212.885 114.276 213.711C115.208 214.528 115.691 215.658 115.727 217.099V223.665C115.727 224.974 115.894 226.016 116.228 226.789V227H113.67ZM109.623 225.141C110.387 225.141 111.112 224.943 111.798 224.548C112.483 224.152 112.98 223.638 113.288 223.005V220.079H111.376C108.388 220.079 106.894 220.953 106.894 222.702C106.894 223.467 107.148 224.064 107.658 224.495C108.168 224.926 108.823 225.141 109.623 225.141ZM121.844 212.735L121.91 214.317C122.956 213.087 124.366 212.472 126.142 212.472C128.137 212.472 129.495 213.236 130.215 214.766C130.69 214.08 131.305 213.526 132.061 213.104C132.826 212.683 133.727 212.472 134.764 212.472C137.893 212.472 139.483 214.128 139.536 217.442V227H137.097V217.587C137.097 216.567 136.864 215.807 136.398 215.306C135.933 214.796 135.15 214.542 134.052 214.542C133.146 214.542 132.395 214.814 131.797 215.359C131.2 215.895 130.853 216.62 130.756 217.534V227H128.304V217.653C128.304 215.579 127.289 214.542 125.258 214.542C123.659 214.542 122.564 215.223 121.976 216.585V227H119.537V212.735H121.844ZM149.147 227.264C147.213 227.264 145.64 226.631 144.427 225.365C143.214 224.091 142.608 222.39 142.608 220.263V219.815C142.608 218.4 142.876 217.139 143.412 216.031C143.957 214.915 144.713 214.045 145.68 213.421C146.655 212.788 147.71 212.472 148.844 212.472C150.698 212.472 152.14 213.083 153.168 214.304C154.196 215.526 154.71 217.275 154.71 219.551V220.566H145.047C145.082 221.973 145.491 223.111 146.273 223.981C147.064 224.842 148.066 225.273 149.279 225.273C150.14 225.273 150.87 225.097 151.467 224.746C152.065 224.394 152.588 223.928 153.036 223.348L154.526 224.508C153.331 226.345 151.538 227.264 149.147 227.264ZM148.844 214.476C147.859 214.476 147.033 214.836 146.365 215.557C145.697 216.269 145.284 217.271 145.126 218.562H152.271V218.378C152.201 217.139 151.867 216.181 151.27 215.504C150.672 214.818 149.863 214.476 148.844 214.476ZM160.854 209.281V212.735H163.517V214.621H160.854V223.467C160.854 224.038 160.973 224.469 161.21 224.759C161.447 225.04 161.852 225.181 162.423 225.181C162.704 225.181 163.091 225.128 163.583 225.022V227C162.941 227.176 162.317 227.264 161.711 227.264C160.621 227.264 159.799 226.934 159.246 226.275C158.692 225.616 158.415 224.68 158.415 223.467V214.621H155.818V212.735H158.415V209.281H160.854ZM166.299 230.823L164.915 229.874C165.741 228.723 166.171 227.536 166.207 226.314V224.113H168.593V226.024C168.593 226.912 168.373 227.8 167.934 228.688C167.503 229.575 166.958 230.287 166.299 230.823ZM184.097 225.273C184.967 225.273 185.727 225.009 186.377 224.482C187.028 223.955 187.388 223.295 187.458 222.504H189.766C189.722 223.322 189.44 224.1 188.922 224.838C188.403 225.576 187.709 226.165 186.839 226.604C185.978 227.044 185.063 227.264 184.097 227.264C182.154 227.264 180.607 226.618 179.456 225.326C178.313 224.025 177.742 222.25 177.742 220V219.591C177.742 218.202 177.997 216.967 178.507 215.886C179.017 214.805 179.746 213.966 180.695 213.368C181.653 212.771 182.783 212.472 184.083 212.472C185.683 212.472 187.01 212.951 188.065 213.909C189.128 214.867 189.695 216.11 189.766 217.64H187.458C187.388 216.717 187.037 215.961 186.404 215.372C185.78 214.774 185.006 214.476 184.083 214.476C182.844 214.476 181.882 214.924 181.196 215.82C180.52 216.708 180.181 217.996 180.181 219.683V220.145C180.181 221.788 180.52 223.054 181.196 223.941C181.873 224.829 182.84 225.273 184.097 225.273ZM191.862 219.736C191.862 218.338 192.134 217.082 192.679 215.965C193.233 214.849 193.998 213.988 194.973 213.381C195.958 212.775 197.078 212.472 198.335 212.472C200.277 212.472 201.846 213.144 203.042 214.489C204.246 215.833 204.848 217.622 204.848 219.854V220.026C204.848 221.415 204.58 222.663 204.043 223.77C203.516 224.869 202.756 225.726 201.763 226.341C200.778 226.956 199.645 227.264 198.361 227.264C196.428 227.264 194.859 226.591 193.655 225.247C192.459 223.902 191.862 222.122 191.862 219.907V219.736ZM194.314 220.026C194.314 221.608 194.679 222.878 195.408 223.836C196.146 224.794 197.131 225.273 198.361 225.273C199.601 225.273 200.585 224.79 201.314 223.823C202.044 222.847 202.409 221.485 202.409 219.736C202.409 218.171 202.035 216.906 201.288 215.939C200.55 214.963 199.565 214.476 198.335 214.476C197.131 214.476 196.16 214.955 195.421 215.913C194.683 216.871 194.314 218.242 194.314 220.026ZM210.213 212.735L210.292 214.528C211.382 213.157 212.806 212.472 214.564 212.472C217.579 212.472 219.099 214.172 219.125 217.574V227H216.687V217.561C216.678 216.532 216.44 215.772 215.975 215.28C215.518 214.788 214.801 214.542 213.826 214.542C213.035 214.542 212.34 214.752 211.743 215.174C211.145 215.596 210.679 216.15 210.345 216.835V227H207.906V212.735H210.213ZM231.109 223.216C231.109 222.557 230.859 222.047 230.358 221.687C229.866 221.318 229 221.001 227.761 220.738C226.53 220.474 225.55 220.158 224.821 219.789C224.1 219.419 223.564 218.98 223.212 218.47C222.87 217.96 222.698 217.354 222.698 216.651C222.698 215.482 223.19 214.493 224.175 213.685C225.168 212.876 226.434 212.472 227.972 212.472C229.589 212.472 230.898 212.889 231.9 213.724C232.911 214.559 233.417 215.627 233.417 216.928H230.964C230.964 216.26 230.679 215.684 230.107 215.201C229.545 214.717 228.833 214.476 227.972 214.476C227.084 214.476 226.39 214.669 225.889 215.056C225.388 215.442 225.137 215.948 225.137 216.572C225.137 217.161 225.37 217.604 225.836 217.903C226.302 218.202 227.141 218.488 228.354 218.76C229.576 219.033 230.564 219.358 231.32 219.736C232.076 220.114 232.634 220.571 232.995 221.107C233.364 221.634 233.548 222.28 233.548 223.045C233.548 224.319 233.039 225.343 232.019 226.117C231 226.881 229.677 227.264 228.051 227.264C226.908 227.264 225.897 227.062 225.019 226.657C224.14 226.253 223.45 225.69 222.949 224.97C222.457 224.24 222.21 223.454 222.21 222.61H224.649C224.693 223.427 225.019 224.078 225.625 224.561C226.24 225.036 227.049 225.273 228.051 225.273C228.974 225.273 229.712 225.088 230.266 224.719C230.828 224.341 231.109 223.84 231.109 223.216ZM242.645 227.264C240.711 227.264 239.138 226.631 237.925 225.365C236.712 224.091 236.106 222.39 236.106 220.263V219.815C236.106 218.4 236.374 217.139 236.91 216.031C237.455 214.915 238.211 214.045 239.178 213.421C240.153 212.788 241.208 212.472 242.342 212.472C244.196 212.472 245.638 213.083 246.666 214.304C247.694 215.526 248.208 217.275 248.208 219.551V220.566H238.545C238.58 221.973 238.989 223.111 239.771 223.981C240.562 224.842 241.564 225.273 242.777 225.273C243.638 225.273 244.368 225.097 244.965 224.746C245.563 224.394 246.086 223.928 246.534 223.348L248.024 224.508C246.829 226.345 245.036 227.264 242.645 227.264ZM242.342 214.476C241.357 214.476 240.531 214.836 239.863 215.557C239.195 216.269 238.782 217.271 238.624 218.562H245.77V218.378C245.699 217.139 245.365 216.181 244.768 215.504C244.17 214.818 243.361 214.476 242.342 214.476ZM256.765 225.273C257.635 225.273 258.395 225.009 259.045 224.482C259.696 223.955 260.056 223.295 260.126 222.504H262.434C262.39 223.322 262.108 224.1 261.59 224.838C261.071 225.576 260.377 226.165 259.507 226.604C258.646 227.044 257.731 227.264 256.765 227.264C254.822 227.264 253.275 226.618 252.124 225.326C250.981 224.025 250.41 222.25 250.41 220V219.591C250.41 218.202 250.665 216.967 251.175 215.886C251.685 214.805 252.414 213.966 253.363 213.368C254.321 212.771 255.451 212.472 256.751 212.472C258.351 212.472 259.678 212.951 260.733 213.909C261.796 214.867 262.363 216.11 262.434 217.64H260.126C260.056 216.717 259.705 215.961 259.072 215.372C258.448 214.774 257.674 214.476 256.751 214.476C255.512 214.476 254.55 214.924 253.864 215.82C253.188 216.708 252.849 217.996 252.849 219.683V220.145C252.849 221.788 253.188 223.054 253.864 223.941C254.541 224.829 255.508 225.273 256.765 225.273ZM268.485 209.281V212.735H271.148V214.621H268.485V223.467C268.485 224.038 268.604 224.469 268.841 224.759C269.078 225.04 269.482 225.181 270.054 225.181C270.335 225.181 270.722 225.128 271.214 225.022V227C270.572 227.176 269.948 227.264 269.342 227.264C268.252 227.264 267.43 226.934 266.876 226.275C266.323 225.616 266.046 224.68 266.046 223.467V214.621H263.449V212.735H266.046V209.281H268.485ZM279.928 227.264C277.995 227.264 276.421 226.631 275.208 225.365C273.996 224.091 273.389 222.39 273.389 220.263V219.815C273.389 218.4 273.657 217.139 274.193 216.031C274.738 214.915 275.494 214.045 276.461 213.421C277.437 212.788 278.491 212.472 279.625 212.472C281.479 212.472 282.921 213.083 283.949 214.304C284.978 215.526 285.492 217.275 285.492 219.551V220.566H275.828C275.863 221.973 276.272 223.111 277.054 223.981C277.845 224.842 278.847 225.273 280.06 225.273C280.921 225.273 281.651 225.097 282.249 224.746C282.846 224.394 283.369 223.928 283.817 223.348L285.307 224.508C284.112 226.345 282.319 227.264 279.928 227.264ZM279.625 214.476C278.641 214.476 277.814 214.836 277.146 215.557C276.479 216.269 276.065 217.271 275.907 218.562H283.053V218.378C282.982 217.139 282.648 216.181 282.051 215.504C281.453 214.818 280.645 214.476 279.625 214.476ZM291.635 209.281V212.735H294.298V214.621H291.635V223.467C291.635 224.038 291.754 224.469 291.991 224.759C292.229 225.04 292.633 225.181 293.204 225.181C293.485 225.181 293.872 225.128 294.364 225.022V227C293.723 227.176 293.099 227.264 292.492 227.264C291.402 227.264 290.581 226.934 290.027 226.275C289.473 225.616 289.196 224.68 289.196 223.467V214.621H286.599V212.735H289.196V209.281H291.635ZM305.966 225.589C305.017 226.706 303.624 227.264 301.787 227.264C300.266 227.264 299.106 226.824 298.306 225.945C297.515 225.058 297.115 223.748 297.106 222.017V212.735H299.545V221.951C299.545 224.113 300.424 225.194 302.182 225.194C304.045 225.194 305.285 224.5 305.9 223.111V212.735H308.339V227H306.019L305.966 225.589ZM318.952 214.924C318.583 214.862 318.183 214.832 317.752 214.832C316.152 214.832 315.067 215.513 314.496 216.875V227H312.057V212.735H314.43L314.469 214.383C315.269 213.109 316.403 212.472 317.871 212.472C318.345 212.472 318.706 212.533 318.952 212.656V214.924ZM336.71 227C336.569 226.719 336.455 226.218 336.367 225.497C335.233 226.675 333.88 227.264 332.307 227.264C330.9 227.264 329.745 226.868 328.839 226.077C327.943 225.277 327.495 224.267 327.495 223.045C327.495 221.56 328.057 220.408 329.182 219.591C330.316 218.765 331.907 218.352 333.955 218.352H336.328V217.231C336.328 216.378 336.073 215.702 335.563 215.201C335.053 214.691 334.302 214.436 333.309 214.436C332.438 214.436 331.709 214.656 331.12 215.095C330.531 215.535 330.237 216.066 330.237 216.69H327.785C327.785 215.979 328.035 215.293 328.536 214.634C329.046 213.966 329.731 213.438 330.593 213.052C331.463 212.665 332.417 212.472 333.454 212.472C335.097 212.472 336.385 212.885 337.316 213.711C338.248 214.528 338.731 215.658 338.767 217.099V223.665C338.767 224.974 338.934 226.016 339.268 226.789V227H336.71ZM332.663 225.141C333.427 225.141 334.152 224.943 334.838 224.548C335.523 224.152 336.02 223.638 336.328 223.005V220.079H334.416C331.428 220.079 329.934 220.953 329.934 222.702C329.934 223.467 330.188 224.064 330.698 224.495C331.208 224.926 331.863 225.141 332.663 225.141ZM341.997 219.749C341.997 217.561 342.515 215.803 343.552 214.476C344.589 213.14 345.947 212.472 347.626 212.472C349.296 212.472 350.619 213.043 351.594 214.186V206.75H354.033V227H351.792L351.673 225.471C350.698 226.666 349.34 227.264 347.6 227.264C345.947 227.264 344.598 226.587 343.552 225.233C342.515 223.88 341.997 222.113 341.997 219.934V219.749ZM344.436 220.026C344.436 221.643 344.77 222.909 345.438 223.823C346.105 224.737 347.028 225.194 348.206 225.194C349.753 225.194 350.882 224.5 351.594 223.111V216.559C350.865 215.214 349.744 214.542 348.232 214.542C347.037 214.542 346.105 215.003 345.438 215.926C344.77 216.849 344.436 218.215 344.436 220.026Z" fill="white"/>
<path d="M73.4956 266H71.0566V251.735H73.4956V266ZM70.8589 247.952C70.8589 247.556 70.9775 247.222 71.2148 246.95C71.4609 246.677 71.8213 246.541 72.2959 246.541C72.7705 246.541 73.1309 246.677 73.377 246.95C73.623 247.222 73.7461 247.556 73.7461 247.952C73.7461 248.347 73.623 248.677 73.377 248.94C73.1309 249.204 72.7705 249.336 72.2959 249.336C71.8213 249.336 71.4609 249.204 71.2148 248.94C70.9775 248.677 70.8589 248.347 70.8589 247.952ZM89.4609 259.026C89.4609 261.197 88.9644 262.946 87.9712 264.273C86.978 265.6 85.6333 266.264 83.937 266.264C82.2056 266.264 80.8433 265.714 79.8501 264.616V271.484H77.4111V251.735H79.6392L79.7578 253.317C80.751 252.087 82.1309 251.472 83.8975 251.472C85.6113 251.472 86.9648 252.118 87.958 253.41C88.96 254.702 89.4609 256.499 89.4609 258.802V259.026ZM87.022 258.749C87.022 257.141 86.6792 255.871 85.9937 254.939C85.3081 254.007 84.3677 253.542 83.1724 253.542C81.6958 253.542 80.5884 254.196 79.8501 255.506V262.322C80.5796 263.623 81.6958 264.273 83.1987 264.273C84.3677 264.273 85.2949 263.812 85.9805 262.889C86.6748 261.957 87.022 260.577 87.022 258.749ZM95.2222 266H92.7832V251.735H95.2222V266ZM92.5854 247.952C92.5854 247.556 92.7041 247.222 92.9414 246.95C93.1875 246.677 93.5479 246.541 94.0225 246.541C94.4971 246.541 94.8574 246.677 95.1035 246.95C95.3496 247.222 95.4727 247.556 95.4727 247.952C95.4727 248.347 95.3496 248.677 95.1035 248.94C94.8574 249.204 94.4971 249.336 94.0225 249.336C93.5479 249.336 93.1875 249.204 92.9414 248.94C92.7041 248.677 92.5854 248.347 92.5854 247.952ZM107.443 262.216C107.443 261.557 107.193 261.047 106.692 260.687C106.2 260.318 105.334 260.001 104.095 259.738C102.864 259.474 101.884 259.158 101.155 258.789C100.434 258.419 99.8979 257.98 99.5464 257.47C99.2036 256.96 99.0322 256.354 99.0322 255.651C99.0322 254.482 99.5244 253.493 100.509 252.685C101.502 251.876 102.768 251.472 104.306 251.472C105.923 251.472 107.232 251.889 108.234 252.724C109.245 253.559 109.75 254.627 109.75 255.928H107.298C107.298 255.26 107.013 254.684 106.441 254.201C105.879 253.717 105.167 253.476 104.306 253.476C103.418 253.476 102.724 253.669 102.223 254.056C101.722 254.442 101.471 254.948 101.471 255.572C101.471 256.161 101.704 256.604 102.17 256.903C102.636 257.202 103.475 257.488 104.688 257.76C105.91 258.033 106.898 258.358 107.654 258.736C108.41 259.114 108.968 259.571 109.329 260.107C109.698 260.634 109.882 261.28 109.882 262.045C109.882 263.319 109.373 264.343 108.353 265.117C107.333 265.881 106.011 266.264 104.385 266.264C103.242 266.264 102.231 266.062 101.353 265.657C100.474 265.253 99.7837 264.69 99.2827 263.97C98.7905 263.24 98.5444 262.454 98.5444 261.61H100.983C101.027 262.427 101.353 263.078 101.959 263.561C102.574 264.036 103.383 264.273 104.385 264.273C105.308 264.273 106.046 264.088 106.6 263.719C107.162 263.341 107.443 262.84 107.443 262.216ZM118.781 264.273C119.651 264.273 120.412 264.009 121.062 263.482C121.712 262.955 122.073 262.295 122.143 261.504H124.45C124.406 262.322 124.125 263.1 123.606 263.838C123.088 264.576 122.394 265.165 121.523 265.604C120.662 266.044 119.748 266.264 118.781 266.264C116.839 266.264 115.292 265.618 114.141 264.326C112.998 263.025 112.427 261.25 112.427 259V258.591C112.427 257.202 112.682 255.967 113.191 254.886C113.701 253.805 114.431 252.966 115.38 252.368C116.338 251.771 117.467 251.472 118.768 251.472C120.368 251.472 121.695 251.951 122.75 252.909C123.813 253.867 124.38 255.11 124.45 256.64H122.143C122.073 255.717 121.721 254.961 121.088 254.372C120.464 253.774 119.691 253.476 118.768 253.476C117.529 253.476 116.566 253.924 115.881 254.82C115.204 255.708 114.866 256.996 114.866 258.683V259.145C114.866 260.788 115.204 262.054 115.881 262.941C116.558 263.829 117.524 264.273 118.781 264.273ZM129.842 266H127.403V251.735H129.842V266ZM127.206 247.952C127.206 247.556 127.324 247.222 127.562 246.95C127.808 246.677 128.168 246.541 128.643 246.541C129.117 246.541 129.478 246.677 129.724 246.95C129.97 247.222 130.093 247.556 130.093 247.952C130.093 248.347 129.97 248.677 129.724 248.94C129.478 249.204 129.117 249.336 128.643 249.336C128.168 249.336 127.808 249.204 127.562 248.94C127.324 248.677 127.206 248.347 127.206 247.952ZM136.065 251.735L136.144 253.528C137.234 252.157 138.658 251.472 140.416 251.472C143.43 251.472 144.951 253.172 144.977 256.574V266H142.538V256.561C142.529 255.532 142.292 254.772 141.826 254.28C141.369 253.788 140.653 253.542 139.677 253.542C138.886 253.542 138.192 253.752 137.594 254.174C136.997 254.596 136.531 255.15 136.197 255.835V266H133.758V251.735H136.065ZM148.075 258.749C148.075 256.525 148.589 254.759 149.618 253.449C150.646 252.131 152.008 251.472 153.705 251.472C155.445 251.472 156.803 252.087 157.778 253.317L157.897 251.735H160.125V265.657C160.125 267.503 159.576 268.958 158.477 270.021C157.387 271.084 155.919 271.616 154.074 271.616C153.045 271.616 152.039 271.396 151.055 270.957C150.07 270.518 149.319 269.916 148.8 269.151L150.066 267.688C151.112 268.979 152.391 269.625 153.902 269.625C155.089 269.625 156.012 269.292 156.671 268.624C157.339 267.956 157.673 267.015 157.673 265.802V264.576C156.697 265.701 155.366 266.264 153.678 266.264C152.008 266.264 150.655 265.591 149.618 264.247C148.589 262.902 148.075 261.069 148.075 258.749ZM150.527 259.026C150.527 260.634 150.857 261.9 151.516 262.823C152.175 263.737 153.098 264.194 154.285 264.194C155.823 264.194 156.952 263.495 157.673 262.098V255.585C156.926 254.223 155.805 253.542 154.311 253.542C153.125 253.542 152.197 254.003 151.529 254.926C150.861 255.849 150.527 257.215 150.527 259.026ZM176.433 266.264C174.5 266.264 172.926 265.631 171.713 264.365C170.5 263.091 169.894 261.39 169.894 259.263V258.815C169.894 257.4 170.162 256.139 170.698 255.031C171.243 253.915 171.999 253.045 172.966 252.421C173.941 251.788 174.996 251.472 176.13 251.472C177.984 251.472 179.426 252.083 180.454 253.304C181.482 254.526 181.997 256.275 181.997 258.551V259.566H172.333C172.368 260.973 172.777 262.111 173.559 262.981C174.35 263.842 175.352 264.273 176.565 264.273C177.426 264.273 178.156 264.097 178.753 263.746C179.351 263.394 179.874 262.928 180.322 262.348L181.812 263.508C180.617 265.345 178.824 266.264 176.433 266.264ZM176.13 253.476C175.146 253.476 174.319 253.836 173.651 254.557C172.983 255.269 172.57 256.271 172.412 257.562H179.558V257.378C179.487 256.139 179.153 255.181 178.556 254.504C177.958 253.818 177.149 253.476 176.13 253.476ZM187.481 266H185.042V245.75H187.481V266ZM194.046 266H191.607V251.735H194.046V266ZM191.41 247.952C191.41 247.556 191.528 247.222 191.766 246.95C192.012 246.677 192.372 246.541 192.847 246.541C193.321 246.541 193.682 246.677 193.928 246.95C194.174 247.222 194.297 247.556 194.297 247.952C194.297 248.347 194.174 248.677 193.928 248.94C193.682 249.204 193.321 249.336 192.847 249.336C192.372 249.336 192.012 249.204 191.766 248.94C191.528 248.677 191.41 248.347 191.41 247.952ZM201.271 248.281V251.735H203.934V253.621H201.271V262.467C201.271 263.038 201.39 263.469 201.627 263.759C201.864 264.04 202.269 264.181 202.84 264.181C203.121 264.181 203.508 264.128 204 264.022V266C203.358 266.176 202.734 266.264 202.128 266.264C201.038 266.264 200.216 265.934 199.663 265.275C199.109 264.616 198.832 263.68 198.832 262.467V253.621H196.235V251.735H198.832V248.281H201.271ZM206.716 269.823L205.332 268.874C206.158 267.723 206.588 266.536 206.624 265.314V263.113H209.01V265.024C209.01 265.912 208.79 266.8 208.351 267.688C207.92 268.575 207.375 269.287 206.716 269.823ZM227.098 262.216C227.098 261.557 226.847 261.047 226.346 260.687C225.854 260.318 224.988 260.001 223.749 259.738C222.519 259.474 221.539 259.158 220.809 258.789C220.088 258.419 219.552 257.98 219.201 257.47C218.858 256.96 218.687 256.354 218.687 255.651C218.687 254.482 219.179 253.493 220.163 252.685C221.156 251.876 222.422 251.472 223.96 251.472C225.577 251.472 226.887 251.889 227.889 252.724C228.899 253.559 229.405 254.627 229.405 255.928H226.953C226.953 255.26 226.667 254.684 226.096 254.201C225.533 253.717 224.821 253.476 223.96 253.476C223.072 253.476 222.378 253.669 221.877 254.056C221.376 254.442 221.125 254.948 221.125 255.572C221.125 256.161 221.358 256.604 221.824 256.903C222.29 257.202 223.129 257.488 224.342 257.76C225.564 258.033 226.553 258.358 227.309 258.736C228.064 259.114 228.623 259.571 228.983 260.107C229.352 260.634 229.537 261.28 229.537 262.045C229.537 263.319 229.027 264.343 228.007 265.117C226.988 265.881 225.665 266.264 224.039 266.264C222.896 266.264 221.886 266.062 221.007 265.657C220.128 265.253 219.438 264.69 218.937 263.97C218.445 263.24 218.199 262.454 218.199 261.61H220.638C220.682 262.427 221.007 263.078 221.613 263.561C222.229 264.036 223.037 264.273 224.039 264.273C224.962 264.273 225.7 264.088 226.254 263.719C226.816 263.341 227.098 262.84 227.098 262.216ZM238.633 266.264C236.7 266.264 235.126 265.631 233.914 264.365C232.701 263.091 232.094 261.39 232.094 259.263V258.815C232.094 257.4 232.362 256.139 232.898 255.031C233.443 253.915 234.199 253.045 235.166 252.421C236.142 251.788 237.196 251.472 238.33 251.472C240.185 251.472 241.626 252.083 242.654 253.304C243.683 254.526 244.197 256.275 244.197 258.551V259.566H234.533C234.568 260.973 234.977 262.111 235.759 262.981C236.55 263.842 237.552 264.273 238.765 264.273C239.626 264.273 240.356 264.097 240.954 263.746C241.551 263.394 242.074 262.928 242.522 262.348L244.012 263.508C242.817 265.345 241.024 266.264 238.633 266.264ZM238.33 253.476C237.346 253.476 236.52 253.836 235.852 254.557C235.184 255.269 234.771 256.271 234.612 257.562H241.758V257.378C241.688 256.139 241.354 255.181 240.756 254.504C240.158 253.818 239.35 253.476 238.33 253.476ZM246.438 258.749C246.438 256.561 246.957 254.803 247.994 253.476C249.031 252.14 250.389 251.472 252.067 251.472C253.737 251.472 255.06 252.043 256.036 253.186V245.75H258.475V266H256.233L256.115 264.471C255.139 265.666 253.781 266.264 252.041 266.264C250.389 266.264 249.04 265.587 247.994 264.233C246.957 262.88 246.438 261.113 246.438 258.934V258.749ZM248.877 259.026C248.877 260.643 249.211 261.909 249.879 262.823C250.547 263.737 251.47 264.194 252.647 264.194C254.194 264.194 255.324 263.5 256.036 262.111V255.559C255.306 254.214 254.186 253.542 252.674 253.542C251.479 253.542 250.547 254.003 249.879 254.926C249.211 255.849 248.877 257.215 248.877 259.026ZM268.375 258.749C268.375 256.561 268.894 254.803 269.931 253.476C270.968 252.14 272.326 251.472 274.005 251.472C275.675 251.472 276.998 252.043 277.973 253.186V245.75H280.412V266H278.171L278.052 264.471C277.077 265.666 275.719 266.264 273.979 266.264C272.326 266.264 270.977 265.587 269.931 264.233C268.894 262.88 268.375 261.113 268.375 258.934V258.749ZM270.814 259.026C270.814 260.643 271.148 261.909 271.816 262.823C272.484 263.737 273.407 264.194 274.585 264.194C276.132 264.194 277.261 263.5 277.973 262.111V255.559C277.244 254.214 276.123 253.542 274.611 253.542C273.416 253.542 272.484 254.003 271.816 254.926C271.148 255.849 270.814 257.215 270.814 259.026ZM283.563 258.736C283.563 257.338 283.835 256.082 284.38 254.965C284.934 253.849 285.699 252.988 286.674 252.381C287.659 251.775 288.779 251.472 290.036 251.472C291.979 251.472 293.547 252.144 294.743 253.489C295.947 254.833 296.549 256.622 296.549 258.854V259.026C296.549 260.415 296.281 261.663 295.745 262.77C295.217 263.869 294.457 264.726 293.464 265.341C292.479 265.956 291.346 266.264 290.062 266.264C288.129 266.264 286.56 265.591 285.356 264.247C284.161 262.902 283.563 261.122 283.563 258.907V258.736ZM286.015 259.026C286.015 260.608 286.38 261.878 287.109 262.836C287.848 263.794 288.832 264.273 290.062 264.273C291.302 264.273 292.286 263.79 293.016 262.823C293.745 261.847 294.11 260.485 294.11 258.736C294.11 257.171 293.736 255.906 292.989 254.939C292.251 253.963 291.267 253.476 290.036 253.476C288.832 253.476 287.861 253.955 287.123 254.913C286.384 255.871 286.015 257.242 286.015 259.026ZM312.224 266.264C310.291 266.264 308.717 265.631 307.504 264.365C306.292 263.091 305.685 261.39 305.685 259.263V258.815C305.685 257.4 305.953 256.139 306.489 255.031C307.034 253.915 307.79 253.045 308.757 252.421C309.732 251.788 310.787 251.472 311.921 251.472C313.775 251.472 315.217 252.083 316.245 253.304C317.273 254.526 317.788 256.275 317.788 258.551V259.566H308.124C308.159 260.973 308.568 262.111 309.35 262.981C310.141 263.842 311.143 264.273 312.356 264.273C313.217 264.273 313.947 264.097 314.544 263.746C315.142 263.394 315.665 262.928 316.113 262.348L317.603 263.508C316.408 265.345 314.615 266.264 312.224 266.264ZM311.921 253.476C310.937 253.476 310.11 253.836 309.442 254.557C308.774 255.269 308.361 256.271 308.203 257.562H315.349V257.378C315.278 256.139 314.944 255.181 314.347 254.504C313.749 253.818 312.94 253.476 311.921 253.476ZM323.272 266H320.833V251.735H323.272V266ZM320.635 247.952C320.635 247.556 320.754 247.222 320.991 246.95C321.237 246.677 321.598 246.541 322.072 246.541C322.547 246.541 322.907 246.677 323.153 246.95C323.399 247.222 323.522 247.556 323.522 247.952C323.522 248.347 323.399 248.677 323.153 248.94C322.907 249.204 322.547 249.336 322.072 249.336C321.598 249.336 321.237 249.204 320.991 248.94C320.754 248.677 320.635 248.347 320.635 247.952ZM335.994 264.589C335.045 265.706 333.652 266.264 331.815 266.264C330.294 266.264 329.134 265.824 328.334 264.945C327.543 264.058 327.144 262.748 327.135 261.017V251.735H329.574V260.951C329.574 263.113 330.453 264.194 332.21 264.194C334.074 264.194 335.313 263.5 335.928 262.111V251.735H338.367V266H336.047L335.994 264.589ZM350.391 262.216C350.391 261.557 350.14 261.047 349.639 260.687C349.147 260.318 348.281 260.001 347.042 259.738C345.812 259.474 344.832 259.158 344.102 258.789C343.381 258.419 342.845 257.98 342.494 257.47C342.151 256.96 341.979 256.354 341.979 255.651C341.979 254.482 342.472 253.493 343.456 252.685C344.449 251.876 345.715 251.472 347.253 251.472C348.87 251.472 350.18 251.889 351.182 252.724C352.192 253.559 352.698 254.627 352.698 255.928H350.246C350.246 255.26 349.96 254.684 349.389 254.201C348.826 253.717 348.114 253.476 347.253 253.476C346.365 253.476 345.671 253.669 345.17 254.056C344.669 254.442 344.418 254.948 344.418 255.572C344.418 256.161 344.651 256.604 345.117 256.903C345.583 257.202 346.422 257.488 347.635 257.76C348.857 258.033 349.846 258.358 350.602 258.736C351.357 259.114 351.916 259.571 352.276 260.107C352.645 260.634 352.83 261.28 352.83 262.045C352.83 263.319 352.32 264.343 351.3 265.117C350.281 265.881 348.958 266.264 347.332 266.264C346.189 266.264 345.179 266.062 344.3 265.657C343.421 265.253 342.731 264.69 342.23 263.97C341.738 263.24 341.492 262.454 341.492 261.61H343.931C343.975 262.427 344.3 263.078 344.906 263.561C345.521 264.036 346.33 264.273 347.332 264.273C348.255 264.273 348.993 264.088 349.547 263.719C350.109 263.341 350.391 262.84 350.391 262.216Z" fill="white"/>
<path d="M79.1396 290.735L79.2056 292.317C80.2515 291.087 81.6621 290.472 83.4375 290.472C85.4326 290.472 86.7905 291.236 87.5112 292.766C87.9858 292.08 88.6011 291.526 89.3569 291.104C90.1216 290.683 91.0225 290.472 92.0596 290.472C95.1885 290.472 96.7793 292.128 96.832 295.442V305H94.3931V295.587C94.3931 294.567 94.1602 293.807 93.6943 293.306C93.2285 292.796 92.4463 292.542 91.3477 292.542C90.4424 292.542 89.6909 292.814 89.0933 293.359C88.4956 293.895 88.1484 294.62 88.0518 295.534V305H85.5996V295.653C85.5996 293.579 84.5845 292.542 82.5542 292.542C80.9546 292.542 79.8604 293.223 79.2715 294.585V305H76.8325V290.735H79.1396ZM99.8774 297.736C99.8774 296.338 100.15 295.082 100.695 293.965C101.249 292.849 102.013 291.988 102.989 291.381C103.973 290.775 105.094 290.472 106.351 290.472C108.293 290.472 109.862 291.144 111.057 292.489C112.261 293.833 112.863 295.622 112.863 297.854V298.026C112.863 299.415 112.595 300.663 112.059 301.77C111.532 302.869 110.771 303.726 109.778 304.341C108.794 304.956 107.66 305.264 106.377 305.264C104.443 305.264 102.875 304.591 101.67 303.247C100.475 301.902 99.8774 300.122 99.8774 297.907V297.736ZM102.33 298.026C102.33 299.608 102.694 300.878 103.424 301.836C104.162 302.794 105.146 303.273 106.377 303.273C107.616 303.273 108.601 302.79 109.33 301.823C110.06 300.847 110.424 299.485 110.424 297.736C110.424 296.171 110.051 294.906 109.304 293.939C108.565 292.963 107.581 292.476 106.351 292.476C105.146 292.476 104.175 292.955 103.437 293.913C102.699 294.871 102.33 296.242 102.33 298.026ZM115.329 297.749C115.329 295.561 115.847 293.803 116.884 292.476C117.921 291.14 119.279 290.472 120.958 290.472C122.628 290.472 123.951 291.043 124.926 292.186V284.75H127.365V305H125.124L125.005 303.471C124.03 304.666 122.672 305.264 120.932 305.264C119.279 305.264 117.93 304.587 116.884 303.233C115.847 301.88 115.329 300.113 115.329 297.934V297.749ZM117.768 298.026C117.768 299.643 118.102 300.909 118.77 301.823C119.438 302.737 120.36 303.194 121.538 303.194C123.085 303.194 124.214 302.5 124.926 301.111V294.559C124.197 293.214 123.076 292.542 121.564 292.542C120.369 292.542 119.438 293.003 118.77 293.926C118.102 294.849 117.768 296.215 117.768 298.026ZM141.168 287.281V290.735H143.832V292.621H141.168V301.467C141.168 302.038 141.287 302.469 141.524 302.759C141.762 303.04 142.166 303.181 142.737 303.181C143.019 303.181 143.405 303.128 143.897 303.022V305C143.256 305.176 142.632 305.264 142.025 305.264C140.936 305.264 140.114 304.934 139.56 304.275C139.006 303.616 138.729 302.68 138.729 301.467V292.621H136.132V290.735H138.729V287.281H141.168ZM152.612 305.264C150.678 305.264 149.105 304.631 147.892 303.365C146.679 302.091 146.073 300.39 146.073 298.263V297.815C146.073 296.4 146.341 295.139 146.877 294.031C147.422 292.915 148.178 292.045 149.145 291.421C150.12 290.788 151.175 290.472 152.309 290.472C154.163 290.472 155.604 291.083 156.633 292.304C157.661 293.526 158.175 295.275 158.175 297.551V298.566H148.512C148.547 299.973 148.956 301.111 149.738 301.981C150.529 302.842 151.531 303.273 152.744 303.273C153.605 303.273 154.334 303.097 154.932 302.746C155.53 302.394 156.053 301.928 156.501 301.348L157.991 302.508C156.795 304.345 155.002 305.264 152.612 305.264ZM152.309 292.476C151.324 292.476 150.498 292.836 149.83 293.557C149.162 294.269 148.749 295.271 148.591 296.562H155.736V296.378C155.666 295.139 155.332 294.181 154.734 293.504C154.137 292.818 153.328 292.476 152.309 292.476ZM163.304 290.735L163.37 292.317C164.416 291.087 165.826 290.472 167.602 290.472C169.597 290.472 170.955 291.236 171.675 292.766C172.15 292.08 172.765 291.526 173.521 291.104C174.286 290.683 175.187 290.472 176.224 290.472C179.353 290.472 180.943 292.128 180.996 295.442V305H178.557V295.587C178.557 294.567 178.324 293.807 177.858 293.306C177.393 292.796 176.61 292.542 175.512 292.542C174.606 292.542 173.855 292.814 173.257 293.359C172.66 293.895 172.312 294.62 172.216 295.534V305H169.764V295.653C169.764 293.579 168.749 292.542 166.718 292.542C165.119 292.542 164.024 293.223 163.436 294.585V305H160.997V290.735H163.304ZM196.737 298.026C196.737 300.197 196.241 301.946 195.248 303.273C194.254 304.6 192.91 305.264 191.213 305.264C189.482 305.264 188.12 304.714 187.126 303.616V310.484H184.688V290.735H186.916L187.034 292.317C188.027 291.087 189.407 290.472 191.174 290.472C192.888 290.472 194.241 291.118 195.234 292.41C196.236 293.702 196.737 295.499 196.737 297.802V298.026ZM194.298 297.749C194.298 296.141 193.956 294.871 193.27 293.939C192.584 293.007 191.644 292.542 190.449 292.542C188.972 292.542 187.865 293.196 187.126 294.506V301.322C187.856 302.623 188.972 303.273 190.475 303.273C191.644 303.273 192.571 302.812 193.257 301.889C193.951 300.957 194.298 299.577 194.298 297.749ZM199.203 297.736C199.203 296.338 199.475 295.082 200.02 293.965C200.574 292.849 201.338 291.988 202.314 291.381C203.298 290.775 204.419 290.472 205.676 290.472C207.618 290.472 209.187 291.144 210.382 292.489C211.586 293.833 212.188 295.622 212.188 297.854V298.026C212.188 299.415 211.92 300.663 211.384 301.77C210.857 302.869 210.097 303.726 209.104 304.341C208.119 304.956 206.985 305.264 205.702 305.264C203.769 305.264 202.2 304.591 200.996 303.247C199.8 301.902 199.203 300.122 199.203 297.907V297.736ZM201.655 298.026C201.655 299.608 202.02 300.878 202.749 301.836C203.487 302.794 204.472 303.273 205.702 303.273C206.941 303.273 207.926 302.79 208.655 301.823C209.385 300.847 209.75 299.485 209.75 297.736C209.75 296.171 209.376 294.906 208.629 293.939C207.891 292.963 206.906 292.476 205.676 292.476C204.472 292.476 203.5 292.955 202.762 293.913C202.024 294.871 201.655 296.242 201.655 298.026ZM222.142 292.924C221.773 292.862 221.373 292.832 220.942 292.832C219.343 292.832 218.257 293.513 217.686 294.875V305H215.247V290.735H217.62L217.66 292.383C218.459 291.109 219.593 290.472 221.061 290.472C221.536 290.472 221.896 290.533 222.142 290.656V292.924ZM233.744 305H231.305V290.735H233.744V305ZM231.107 286.952C231.107 286.556 231.226 286.222 231.463 285.95C231.709 285.677 232.069 285.541 232.544 285.541C233.019 285.541 233.379 285.677 233.625 285.95C233.871 286.222 233.994 286.556 233.994 286.952C233.994 287.347 233.871 287.677 233.625 287.94C233.379 288.204 233.019 288.336 232.544 288.336C232.069 288.336 231.709 288.204 231.463 287.94C231.226 287.677 231.107 287.347 231.107 286.952ZM239.966 290.735L240.045 292.528C241.135 291.157 242.559 290.472 244.317 290.472C247.332 290.472 248.852 292.172 248.878 295.574V305H246.439V295.561C246.431 294.532 246.193 293.772 245.728 293.28C245.271 292.788 244.554 292.542 243.579 292.542C242.788 292.542 242.093 292.752 241.496 293.174C240.898 293.596 240.432 294.15 240.098 294.835V305H237.659V290.735H239.966ZM258.278 303.273C259.148 303.273 259.909 303.009 260.559 302.482C261.209 301.955 261.57 301.295 261.64 300.504H263.947C263.903 301.322 263.622 302.1 263.104 302.838C262.585 303.576 261.891 304.165 261.021 304.604C260.159 305.044 259.245 305.264 258.278 305.264C256.336 305.264 254.789 304.618 253.638 303.326C252.495 302.025 251.924 300.25 251.924 298V297.591C251.924 296.202 252.179 294.967 252.688 293.886C253.198 292.805 253.928 291.966 254.877 291.368C255.835 290.771 256.964 290.472 258.265 290.472C259.865 290.472 261.192 290.951 262.247 291.909C263.31 292.867 263.877 294.11 263.947 295.64H261.64C261.57 294.717 261.218 293.961 260.585 293.372C259.961 292.774 259.188 292.476 258.265 292.476C257.026 292.476 256.063 292.924 255.378 293.82C254.701 294.708 254.363 295.996 254.363 297.683V298.145C254.363 299.788 254.701 301.054 255.378 301.941C256.055 302.829 257.021 303.273 258.278 303.273ZM269.339 305H266.9V290.735H269.339V305ZM266.703 286.952C266.703 286.556 266.821 286.222 267.059 285.95C267.305 285.677 267.665 285.541 268.14 285.541C268.614 285.541 268.975 285.677 269.221 285.95C269.467 286.222 269.59 286.556 269.59 286.952C269.59 287.347 269.467 287.677 269.221 287.94C268.975 288.204 268.614 288.336 268.14 288.336C267.665 288.336 267.305 288.204 267.059 287.94C266.821 287.677 266.703 287.347 266.703 286.952ZM272.662 297.749C272.662 295.561 273.18 293.803 274.217 292.476C275.254 291.14 276.612 290.472 278.291 290.472C279.961 290.472 281.284 291.043 282.259 292.186V284.75H284.698V305H282.457L282.338 303.471C281.363 304.666 280.005 305.264 278.265 305.264C276.612 305.264 275.263 304.587 274.217 303.233C273.18 301.88 272.662 300.113 272.662 297.934V297.749ZM275.101 298.026C275.101 299.643 275.435 300.909 276.103 301.823C276.771 302.737 277.693 303.194 278.871 303.194C280.418 303.194 281.547 302.5 282.259 301.111V294.559C281.53 293.214 280.409 292.542 278.897 292.542C277.702 292.542 276.771 293.003 276.103 293.926C275.435 294.849 275.101 296.215 275.101 298.026ZM291.145 305H288.706V290.735H291.145V305ZM288.508 286.952C288.508 286.556 288.627 286.222 288.864 285.95C289.11 285.677 289.471 285.541 289.945 285.541C290.42 285.541 290.78 285.677 291.026 285.95C291.272 286.222 291.396 286.556 291.396 286.952C291.396 287.347 291.272 287.677 291.026 287.94C290.78 288.204 290.42 288.336 289.945 288.336C289.471 288.336 289.11 288.204 288.864 287.94C288.627 287.677 288.508 287.347 288.508 286.952ZM294.467 297.749C294.467 295.561 294.986 293.803 296.023 292.476C297.06 291.14 298.418 290.472 300.097 290.472C301.767 290.472 303.089 291.043 304.065 292.186V284.75H306.504V305H304.263L304.144 303.471C303.168 304.666 301.811 305.264 300.07 305.264C298.418 305.264 297.069 304.587 296.023 303.233C294.986 301.88 294.467 300.113 294.467 297.934V297.749ZM296.906 298.026C296.906 299.643 297.24 300.909 297.908 301.823C298.576 302.737 299.499 303.194 300.677 303.194C302.224 303.194 303.353 302.5 304.065 301.111V294.559C303.335 293.214 302.215 292.542 300.703 292.542C299.508 292.542 298.576 293.003 297.908 293.926C297.24 294.849 296.906 296.215 296.906 298.026ZM319.107 303.589C318.158 304.706 316.765 305.264 314.928 305.264C313.408 305.264 312.248 304.824 311.448 303.945C310.657 303.058 310.257 301.748 310.248 300.017V290.735H312.687V299.951C312.687 302.113 313.566 303.194 315.324 303.194C317.187 303.194 318.426 302.5 319.042 301.111V290.735H321.48V305H319.16L319.107 303.589ZM327.505 290.735L327.584 292.528C328.674 291.157 330.098 290.472 331.856 290.472C334.871 290.472 336.391 292.172 336.417 295.574V305H333.979V295.561C333.97 294.532 333.732 293.772 333.267 293.28C332.81 292.788 332.093 292.542 331.118 292.542C330.327 292.542 329.632 292.752 329.035 293.174C328.437 293.596 327.971 294.15 327.637 294.835V305H325.198V290.735H327.505ZM343.405 287.281V290.735H346.068V292.621H343.405V301.467C343.405 302.038 343.523 302.469 343.761 302.759C343.998 303.04 344.402 303.181 344.974 303.181C345.255 303.181 345.642 303.128 346.134 303.022V305C345.492 305.176 344.868 305.264 344.262 305.264C343.172 305.264 342.35 304.934 341.796 304.275C341.243 303.616 340.966 302.68 340.966 301.467V292.621H338.369V290.735H340.966V287.281H343.405Z" fill="white"/>
<path d="M82.6523 342.589C81.7031 343.706 80.3101 344.264 78.4731 344.264C76.9526 344.264 75.7925 343.824 74.9927 342.945C74.2017 342.058 73.8018 340.748 73.793 339.017V329.735H76.2319V338.951C76.2319 341.113 77.1108 342.194 78.8687 342.194C80.7319 342.194 81.9712 341.5 82.5864 340.111V329.735H85.0254V344H82.7051L82.6523 342.589ZM92.0522 326.281V329.735H94.7153V331.621H92.0522V340.467C92.0522 341.038 92.1709 341.469 92.4082 341.759C92.6455 342.04 93.0498 342.181 93.6211 342.181C93.9023 342.181 94.2891 342.128 94.7812 342.022V344C94.1396 344.176 93.5156 344.264 92.9092 344.264C91.8193 344.264 90.9976 343.934 90.4438 343.275C89.8901 342.616 89.6133 341.68 89.6133 340.467V331.621H87.0161V329.735H89.6133V326.281H92.0522ZM106.923 344H104.484V323.75H106.923V344ZM119.646 344C119.505 343.719 119.391 343.218 119.303 342.497C118.169 343.675 116.815 344.264 115.242 344.264C113.836 344.264 112.68 343.868 111.775 343.077C110.878 342.277 110.43 341.267 110.43 340.045C110.43 338.56 110.993 337.408 112.118 336.591C113.251 335.765 114.842 335.352 116.89 335.352H119.263V334.231C119.263 333.378 119.008 332.702 118.499 332.201C117.989 331.691 117.237 331.436 116.244 331.436C115.374 331.436 114.645 331.656 114.056 332.095C113.467 332.535 113.172 333.066 113.172 333.69H110.72C110.72 332.979 110.971 332.293 111.472 331.634C111.981 330.966 112.667 330.438 113.528 330.052C114.398 329.665 115.352 329.472 116.389 329.472C118.033 329.472 119.32 329.885 120.252 330.711C121.184 331.528 121.667 332.658 121.702 334.099V340.665C121.702 341.974 121.869 343.016 122.203 343.789V344H119.646ZM115.598 342.141C116.363 342.141 117.088 341.943 117.773 341.548C118.459 341.152 118.956 340.638 119.263 340.005V337.079H117.352C114.363 337.079 112.869 337.953 112.869 339.702C112.869 340.467 113.124 341.064 113.634 341.495C114.144 341.926 114.798 342.141 115.598 342.141ZM137.602 337.026C137.602 339.206 137.101 340.959 136.099 342.286C135.097 343.604 133.752 344.264 132.064 344.264C130.263 344.264 128.87 343.626 127.885 342.352L127.767 344H125.525V323.75H127.964V331.304C128.949 330.083 130.307 329.472 132.038 329.472C133.77 329.472 135.127 330.126 136.112 331.436C137.105 332.746 137.602 334.539 137.602 336.815V337.026ZM135.163 336.749C135.163 335.088 134.842 333.805 134.2 332.899C133.559 331.994 132.636 331.542 131.432 331.542C129.823 331.542 128.667 332.289 127.964 333.783V339.953C128.711 341.447 129.876 342.194 131.458 342.194C132.627 342.194 133.537 341.741 134.187 340.836C134.837 339.931 135.163 338.568 135.163 336.749ZM140.041 336.736C140.041 335.338 140.313 334.082 140.858 332.965C141.412 331.849 142.176 330.988 143.152 330.381C144.136 329.775 145.257 329.472 146.514 329.472C148.456 329.472 150.025 330.144 151.22 331.489C152.424 332.833 153.026 334.622 153.026 336.854V337.026C153.026 338.415 152.758 339.663 152.222 340.77C151.695 341.869 150.935 342.726 149.941 343.341C148.957 343.956 147.823 344.264 146.54 344.264C144.606 344.264 143.038 343.591 141.833 342.247C140.638 340.902 140.041 339.122 140.041 336.907V336.736ZM142.493 337.026C142.493 338.608 142.857 339.878 143.587 340.836C144.325 341.794 145.31 342.273 146.54 342.273C147.779 342.273 148.764 341.79 149.493 340.823C150.223 339.847 150.587 338.485 150.587 336.736C150.587 335.171 150.214 333.906 149.467 332.939C148.729 331.963 147.744 331.476 146.514 331.476C145.31 331.476 144.338 331.955 143.6 332.913C142.862 333.871 142.493 335.242 142.493 337.026ZM162.98 331.924C162.611 331.862 162.211 331.832 161.78 331.832C160.181 331.832 159.095 332.513 158.524 333.875V344H156.085V329.735H158.458L158.498 331.383C159.297 330.109 160.431 329.472 161.899 329.472C162.374 329.472 162.734 329.533 162.98 329.656V331.924ZM170.89 344.264C168.957 344.264 167.383 343.631 166.17 342.365C164.958 341.091 164.351 339.39 164.351 337.263V336.815C164.351 335.4 164.619 334.139 165.155 333.031C165.7 331.915 166.456 331.045 167.423 330.421C168.398 329.788 169.453 329.472 170.587 329.472C172.441 329.472 173.883 330.083 174.911 331.304C175.939 332.526 176.454 334.275 176.454 336.551V337.566H166.79C166.825 338.973 167.234 340.111 168.016 340.981C168.807 341.842 169.809 342.273 171.022 342.273C171.883 342.273 172.613 342.097 173.21 341.746C173.808 341.394 174.331 340.928 174.779 340.348L176.269 341.508C175.074 343.345 173.281 344.264 170.89 344.264ZM170.587 331.476C169.603 331.476 168.776 331.836 168.108 332.557C167.44 333.269 167.027 334.271 166.869 335.562H174.015V335.378C173.944 334.139 173.61 333.181 173.013 332.504C172.415 331.818 171.606 331.476 170.587 331.476ZM191.905 344.264C189.971 344.264 188.398 343.631 187.185 342.365C185.972 341.091 185.366 339.39 185.366 337.263V336.815C185.366 335.4 185.634 334.139 186.17 333.031C186.715 331.915 187.471 331.045 188.438 330.421C189.413 329.788 190.468 329.472 191.602 329.472C193.456 329.472 194.897 330.083 195.926 331.304C196.954 332.526 197.468 334.275 197.468 336.551V337.566H187.805C187.84 338.973 188.249 340.111 189.031 340.981C189.822 341.842 190.824 342.273 192.037 342.273C192.898 342.273 193.627 342.097 194.225 341.746C194.823 341.394 195.346 340.928 195.794 340.348L197.284 341.508C196.088 343.345 194.295 344.264 191.905 344.264ZM191.602 331.476C190.617 331.476 189.791 331.836 189.123 332.557C188.455 333.269 188.042 334.271 187.884 335.562H195.029V335.378C194.959 334.139 194.625 333.181 194.027 332.504C193.43 331.818 192.621 331.476 191.602 331.476ZM203.612 326.281V329.735H206.275V331.621H203.612V340.467C203.612 341.038 203.73 341.469 203.968 341.759C204.205 342.04 204.609 342.181 205.181 342.181C205.462 342.181 205.849 342.128 206.341 342.022V344C205.699 344.176 205.075 344.264 204.469 344.264C203.379 344.264 202.557 343.934 202.003 343.275C201.45 342.616 201.173 341.68 201.173 340.467V331.621H198.576V329.735H201.173V326.281H203.612ZM215.24 336.749C215.24 334.561 215.758 332.803 216.795 331.476C217.833 330.14 219.19 329.472 220.869 329.472C222.539 329.472 223.862 330.043 224.837 331.186V323.75H227.276V344H225.035L224.917 342.471C223.941 343.666 222.583 344.264 220.843 344.264C219.19 344.264 217.841 343.587 216.795 342.233C215.758 340.88 215.24 339.113 215.24 336.934V336.749ZM217.679 337.026C217.679 338.643 218.013 339.909 218.681 340.823C219.349 341.737 220.271 342.194 221.449 342.194C222.996 342.194 224.125 341.5 224.837 340.111V333.559C224.108 332.214 222.987 331.542 221.476 331.542C220.28 331.542 219.349 332.003 218.681 332.926C218.013 333.849 217.679 335.215 217.679 337.026ZM230.427 336.736C230.427 335.338 230.7 334.082 231.245 332.965C231.798 331.849 232.563 330.988 233.539 330.381C234.523 329.775 235.644 329.472 236.9 329.472C238.843 329.472 240.412 330.144 241.607 331.489C242.811 332.833 243.413 334.622 243.413 336.854V337.026C243.413 338.415 243.145 339.663 242.609 340.77C242.082 341.869 241.321 342.726 240.328 343.341C239.344 343.956 238.21 344.264 236.927 344.264C234.993 344.264 233.424 343.591 232.22 342.247C231.025 340.902 230.427 339.122 230.427 336.907V336.736ZM232.879 337.026C232.879 338.608 233.244 339.878 233.974 340.836C234.712 341.794 235.696 342.273 236.927 342.273C238.166 342.273 239.15 341.79 239.88 340.823C240.609 339.847 240.974 338.485 240.974 336.736C240.974 335.171 240.601 333.906 239.854 332.939C239.115 331.963 238.131 331.476 236.9 331.476C235.696 331.476 234.725 331.955 233.987 332.913C233.249 333.871 232.879 335.242 232.879 337.026ZM249.122 344H246.683V323.75H249.122V344ZM252.391 336.736C252.391 335.338 252.664 334.082 253.208 332.965C253.762 331.849 254.527 330.988 255.502 330.381C256.487 329.775 257.607 329.472 258.864 329.472C260.807 329.472 262.375 330.144 263.571 331.489C264.775 332.833 265.377 334.622 265.377 336.854V337.026C265.377 338.415 265.109 339.663 264.573 340.77C264.045 341.869 263.285 342.726 262.292 343.341C261.308 343.956 260.174 344.264 258.891 344.264C256.957 344.264 255.388 343.591 254.184 342.247C252.989 340.902 252.391 339.122 252.391 336.907V336.736ZM254.843 337.026C254.843 338.608 255.208 339.878 255.938 340.836C256.676 341.794 257.66 342.273 258.891 342.273C260.13 342.273 261.114 341.79 261.844 340.823C262.573 339.847 262.938 338.485 262.938 336.736C262.938 335.171 262.564 333.906 261.817 332.939C261.079 331.963 260.095 331.476 258.864 331.476C257.66 331.476 256.689 331.955 255.951 332.913C255.212 333.871 254.843 335.242 254.843 337.026ZM275.331 331.924C274.961 331.862 274.562 331.832 274.131 331.832C272.531 331.832 271.446 332.513 270.875 333.875V344H268.436V329.735H270.809L270.848 331.383C271.648 330.109 272.782 329.472 274.25 329.472C274.724 329.472 275.084 329.533 275.331 329.656V331.924ZM283.241 344.264C281.307 344.264 279.734 343.631 278.521 342.365C277.308 341.091 276.702 339.39 276.702 337.263V336.815C276.702 335.4 276.97 334.139 277.506 333.031C278.051 331.915 278.807 331.045 279.773 330.421C280.749 329.788 281.804 329.472 282.938 329.472C284.792 329.472 286.233 330.083 287.262 331.304C288.29 332.526 288.804 334.275 288.804 336.551V337.566H279.141C279.176 338.973 279.584 340.111 280.367 340.981C281.158 341.842 282.16 342.273 283.373 342.273C284.234 342.273 284.963 342.097 285.561 341.746C286.159 341.394 286.682 340.928 287.13 340.348L288.62 341.508C287.424 343.345 285.631 344.264 283.241 344.264ZM282.938 331.476C281.953 331.476 281.127 331.836 280.459 332.557C279.791 333.269 279.378 334.271 279.22 335.562H286.365V335.378C286.295 334.139 285.961 333.181 285.363 332.504C284.766 331.818 283.957 331.476 282.938 331.476ZM300.63 329.735L300.696 331.317C301.742 330.087 303.152 329.472 304.928 329.472C306.923 329.472 308.281 330.236 309.001 331.766C309.476 331.08 310.091 330.526 310.847 330.104C311.612 329.683 312.513 329.472 313.55 329.472C316.679 329.472 318.27 331.128 318.322 334.442V344H315.883V334.587C315.883 333.567 315.65 332.807 315.185 332.306C314.719 331.796 313.937 331.542 312.838 331.542C311.933 331.542 311.181 331.814 310.583 332.359C309.986 332.895 309.639 333.62 309.542 334.534V344H307.09V334.653C307.09 332.579 306.075 331.542 304.044 331.542C302.445 331.542 301.351 332.223 300.762 333.585V344H298.323V329.735H300.63ZM330.82 344C330.68 343.719 330.565 343.218 330.478 342.497C329.344 343.675 327.99 344.264 326.417 344.264C325.011 344.264 323.855 343.868 322.95 343.077C322.053 342.277 321.605 341.267 321.605 340.045C321.605 338.56 322.167 337.408 323.292 336.591C324.426 335.765 326.017 335.352 328.065 335.352H330.438V334.231C330.438 333.378 330.183 332.702 329.673 332.201C329.164 331.691 328.412 331.436 327.419 331.436C326.549 331.436 325.819 331.656 325.23 332.095C324.642 332.535 324.347 333.066 324.347 333.69H321.895C321.895 332.979 322.146 332.293 322.646 331.634C323.156 330.966 323.842 330.438 324.703 330.052C325.573 329.665 326.527 329.472 327.564 329.472C329.208 329.472 330.495 329.885 331.427 330.711C332.358 331.528 332.842 332.658 332.877 334.099V340.665C332.877 341.974 333.044 343.016 333.378 343.789V344H330.82ZM326.773 342.141C327.538 342.141 328.263 341.943 328.948 341.548C329.634 341.152 330.13 340.638 330.438 340.005V337.079H328.526C325.538 337.079 324.044 337.953 324.044 339.702C324.044 340.467 324.299 341.064 324.809 341.495C325.318 341.926 325.973 342.141 326.773 342.141ZM336.12 336.749C336.12 334.525 336.634 332.759 337.663 331.449C338.691 330.131 340.053 329.472 341.75 329.472C343.49 329.472 344.848 330.087 345.823 331.317L345.942 329.735H348.17V343.657C348.17 345.503 347.621 346.958 346.522 348.021C345.432 349.084 343.964 349.616 342.119 349.616C341.09 349.616 340.084 349.396 339.1 348.957C338.115 348.518 337.364 347.916 336.845 347.151L338.111 345.688C339.157 346.979 340.436 347.625 341.947 347.625C343.134 347.625 344.057 347.292 344.716 346.624C345.384 345.956 345.718 345.015 345.718 343.802V342.576C344.742 343.701 343.411 344.264 341.723 344.264C340.053 344.264 338.7 343.591 337.663 342.247C336.634 340.902 336.12 339.069 336.12 336.749ZM338.572 337.026C338.572 338.634 338.902 339.9 339.561 340.823C340.22 341.737 341.143 342.194 342.33 342.194C343.868 342.194 344.997 341.495 345.718 340.098V333.585C344.971 332.223 343.85 331.542 342.356 331.542C341.169 331.542 340.242 332.003 339.574 332.926C338.906 333.849 338.572 335.215 338.572 337.026Z" fill="white"/>
<path d="M111.652 381.589C110.703 382.706 109.31 383.264 107.473 383.264C105.953 383.264 104.792 382.824 103.993 381.945C103.202 381.058 102.802 379.748 102.793 378.017V368.735H105.232V377.951C105.232 380.113 106.111 381.194 107.869 381.194C109.732 381.194 110.971 380.5 111.586 379.111V368.735H114.025V383H111.705L111.652 381.589ZM120.393 383H117.954V362.75H120.393V383ZM126.958 383H124.52V362.75H126.958V383ZM139.681 383C139.54 382.719 139.426 382.218 139.338 381.497C138.204 382.675 136.851 383.264 135.277 383.264C133.871 383.264 132.715 382.868 131.81 382.077C130.914 381.277 130.465 380.267 130.465 379.045C130.465 377.56 131.028 376.408 132.153 375.591C133.287 374.765 134.877 374.352 136.925 374.352H139.298V373.231C139.298 372.378 139.043 371.702 138.534 371.201C138.024 370.691 137.272 370.436 136.279 370.436C135.409 370.436 134.68 370.656 134.091 371.095C133.502 371.535 133.208 372.066 133.208 372.69H130.755C130.755 371.979 131.006 371.293 131.507 370.634C132.017 369.966 132.702 369.438 133.563 369.052C134.434 368.665 135.387 368.472 136.424 368.472C138.068 368.472 139.355 368.885 140.287 369.711C141.219 370.528 141.702 371.658 141.737 373.099V379.665C141.737 380.974 141.904 382.016 142.238 382.789V383H139.681ZM135.633 381.141C136.398 381.141 137.123 380.943 137.809 380.548C138.494 380.152 138.991 379.638 139.298 379.005V376.079H137.387C134.398 376.079 132.904 376.953 132.904 378.702C132.904 379.467 133.159 380.064 133.669 380.495C134.179 380.926 134.833 381.141 135.633 381.141ZM147.854 368.735L147.92 370.317C148.966 369.087 150.377 368.472 152.152 368.472C154.147 368.472 155.505 369.236 156.226 370.766C156.701 370.08 157.316 369.526 158.072 369.104C158.836 368.683 159.737 368.472 160.774 368.472C163.903 368.472 165.494 370.128 165.547 373.442V383H163.108V373.587C163.108 372.567 162.875 371.807 162.409 371.306C161.943 370.796 161.161 370.542 160.062 370.542C159.157 370.542 158.406 370.814 157.808 371.359C157.21 371.895 156.863 372.62 156.767 373.534V383H154.314V373.653C154.314 371.579 153.299 370.542 151.269 370.542C149.669 370.542 148.575 371.223 147.986 372.585V383H145.547V368.735H147.854ZM174.96 381.273C175.83 381.273 176.59 381.009 177.241 380.482C177.891 379.955 178.251 379.295 178.322 378.504H180.629C180.585 379.322 180.304 380.1 179.785 380.838C179.267 381.576 178.572 382.165 177.702 382.604C176.841 383.044 175.927 383.264 174.96 383.264C173.018 383.264 171.471 382.618 170.319 381.326C169.177 380.025 168.605 378.25 168.605 376V375.591C168.605 374.202 168.86 372.967 169.37 371.886C169.88 370.805 170.609 369.966 171.559 369.368C172.517 368.771 173.646 368.472 174.947 368.472C176.546 368.472 177.874 368.951 178.928 369.909C179.992 370.867 180.559 372.11 180.629 373.64H178.322C178.251 372.717 177.9 371.961 177.267 371.372C176.643 370.774 175.87 370.476 174.947 370.476C173.708 370.476 172.745 370.924 172.06 371.82C171.383 372.708 171.044 373.996 171.044 375.683V376.145C171.044 377.788 171.383 379.054 172.06 379.941C172.736 380.829 173.703 381.273 174.96 381.273ZM182.725 375.736C182.725 374.338 182.998 373.082 183.542 371.965C184.096 370.849 184.861 369.988 185.836 369.381C186.821 368.775 187.941 368.472 189.198 368.472C191.141 368.472 192.709 369.144 193.905 370.489C195.109 371.833 195.711 373.622 195.711 375.854V376.026C195.711 377.415 195.443 378.663 194.907 379.77C194.379 380.869 193.619 381.726 192.626 382.341C191.642 382.956 190.508 383.264 189.225 383.264C187.291 383.264 185.722 382.591 184.518 381.247C183.323 379.902 182.725 378.122 182.725 375.907V375.736ZM185.177 376.026C185.177 377.608 185.542 378.878 186.271 379.836C187.01 380.794 187.994 381.273 189.225 381.273C190.464 381.273 191.448 380.79 192.178 379.823C192.907 378.847 193.272 377.485 193.272 375.736C193.272 374.171 192.898 372.906 192.151 371.939C191.413 370.963 190.429 370.476 189.198 370.476C187.994 370.476 187.023 370.955 186.285 371.913C185.546 372.871 185.177 374.242 185.177 376.026ZM208.117 383H205.678V362.75H208.117V383ZM220.839 383C220.698 382.719 220.584 382.218 220.496 381.497C219.362 382.675 218.009 383.264 216.436 383.264C215.029 383.264 213.874 382.868 212.968 382.077C212.072 381.277 211.624 380.267 211.624 379.045C211.624 377.56 212.186 376.408 213.311 375.591C214.445 374.765 216.036 374.352 218.083 374.352H220.457V373.231C220.457 372.378 220.202 371.702 219.692 371.201C219.182 370.691 218.431 370.436 217.438 370.436C216.567 370.436 215.838 370.656 215.249 371.095C214.66 371.535 214.366 372.066 214.366 372.69H211.914C211.914 371.979 212.164 371.293 212.665 370.634C213.175 369.966 213.86 369.438 214.722 369.052C215.592 368.665 216.545 368.472 217.583 368.472C219.226 368.472 220.514 368.885 221.445 369.711C222.377 370.528 222.86 371.658 222.896 373.099V379.665C222.896 380.974 223.062 382.016 223.396 382.789V383H220.839ZM216.792 381.141C217.556 381.141 218.281 380.943 218.967 380.548C219.652 380.152 220.149 379.638 220.457 379.005V376.079H218.545C215.557 376.079 214.062 376.953 214.062 378.702C214.062 379.467 214.317 380.064 214.827 380.495C215.337 380.926 215.992 381.141 216.792 381.141ZM238.795 376.026C238.795 378.206 238.294 379.959 237.292 381.286C236.29 382.604 234.945 383.264 233.258 383.264C231.456 383.264 230.063 382.626 229.079 381.352L228.96 383H226.719V362.75H229.158V370.304C230.142 369.083 231.5 368.472 233.231 368.472C234.963 368.472 236.321 369.126 237.305 370.436C238.298 371.746 238.795 373.539 238.795 375.815V376.026ZM236.356 375.749C236.356 374.088 236.035 372.805 235.394 371.899C234.752 370.994 233.829 370.542 232.625 370.542C231.017 370.542 229.861 371.289 229.158 372.783V378.953C229.905 380.447 231.069 381.194 232.651 381.194C233.82 381.194 234.73 380.741 235.38 379.836C236.031 378.931 236.356 377.568 236.356 375.749ZM241.234 375.736C241.234 374.338 241.506 373.082 242.051 371.965C242.605 370.849 243.37 369.988 244.345 369.381C245.33 368.775 246.45 368.472 247.707 368.472C249.649 368.472 251.218 369.144 252.414 370.489C253.618 371.833 254.22 373.622 254.22 375.854V376.026C254.22 377.415 253.952 378.663 253.416 379.77C252.888 380.869 252.128 381.726 251.135 382.341C250.15 382.956 249.017 383.264 247.733 383.264C245.8 383.264 244.231 382.591 243.027 381.247C241.832 379.902 241.234 378.122 241.234 375.907V375.736ZM243.686 376.026C243.686 377.608 244.051 378.878 244.78 379.836C245.519 380.794 246.503 381.273 247.733 381.273C248.973 381.273 249.957 380.79 250.687 379.823C251.416 378.847 251.781 377.485 251.781 375.736C251.781 374.171 251.407 372.906 250.66 371.939C249.922 370.963 248.938 370.476 247.707 370.476C246.503 370.476 245.532 370.955 244.793 371.913C244.055 372.871 243.686 374.242 243.686 376.026ZM264.173 370.924C263.804 370.862 263.404 370.832 262.974 370.832C261.374 370.832 260.289 371.513 259.717 372.875V383H257.278V368.735H259.651L259.691 370.383C260.491 369.109 261.625 368.472 263.092 368.472C263.567 368.472 263.927 368.533 264.173 368.656V370.924ZM269.078 383H266.639V368.735H269.078V383ZM266.441 364.952C266.441 364.556 266.56 364.222 266.797 363.95C267.043 363.677 267.403 363.541 267.878 363.541C268.353 363.541 268.713 363.677 268.959 363.95C269.205 364.222 269.328 364.556 269.328 364.952C269.328 365.347 269.205 365.677 268.959 365.94C268.713 366.204 268.353 366.336 267.878 366.336C267.403 366.336 267.043 366.204 266.797 365.94C266.56 365.677 266.441 365.347 266.441 364.952ZM281.299 379.216C281.299 378.557 281.048 378.047 280.547 377.687C280.055 377.318 279.189 377.001 277.95 376.738C276.72 376.474 275.74 376.158 275.01 375.789C274.29 375.419 273.753 374.98 273.402 374.47C273.059 373.96 272.888 373.354 272.888 372.651C272.888 371.482 273.38 370.493 274.364 369.685C275.357 368.876 276.623 368.472 278.161 368.472C279.778 368.472 281.088 368.889 282.09 369.724C283.101 370.559 283.606 371.627 283.606 372.928H281.154C281.154 372.26 280.868 371.684 280.297 371.201C279.734 370.717 279.022 370.476 278.161 370.476C277.273 370.476 276.579 370.669 276.078 371.056C275.577 371.442 275.327 371.948 275.327 372.572C275.327 373.161 275.56 373.604 276.025 373.903C276.491 374.202 277.331 374.488 278.543 374.76C279.765 375.033 280.754 375.358 281.51 375.736C282.266 376.114 282.824 376.571 283.184 377.107C283.553 377.634 283.738 378.28 283.738 379.045C283.738 380.319 283.228 381.343 282.208 382.117C281.189 382.881 279.866 383.264 278.24 383.264C277.098 383.264 276.087 383.062 275.208 382.657C274.329 382.253 273.639 381.69 273.138 380.97C272.646 380.24 272.4 379.454 272.4 378.61H274.839C274.883 379.427 275.208 380.078 275.814 380.561C276.43 381.036 277.238 381.273 278.24 381.273C279.163 381.273 279.901 381.088 280.455 380.719C281.018 380.341 281.299 379.84 281.299 379.216ZM295.919 368.735L295.999 370.528C297.088 369.157 298.512 368.472 300.27 368.472C303.285 368.472 304.805 370.172 304.832 373.574V383H302.393V373.561C302.384 372.532 302.146 371.772 301.681 371.28C301.224 370.788 300.507 370.542 299.532 370.542C298.741 370.542 298.046 370.752 297.449 371.174C296.851 371.596 296.385 372.15 296.051 372.835V383H293.612V368.735H295.919ZM311.16 383H308.721V368.735H311.16V383ZM308.523 364.952C308.523 364.556 308.642 364.222 308.879 363.95C309.125 363.677 309.485 363.541 309.96 363.541C310.435 363.541 310.795 363.677 311.041 363.95C311.287 364.222 311.41 364.556 311.41 364.952C311.41 365.347 311.287 365.677 311.041 365.94C310.795 366.204 310.435 366.336 309.96 366.336C309.485 366.336 309.125 366.204 308.879 365.94C308.642 365.677 308.523 365.347 308.523 364.952Z" fill="white"/>
<path d="M37.1582 448.611C37.1582 449.853 36.8278 450.958 36.167 451.927C35.5176 452.895 34.6346 453.653 33.5181 454.2C34.8169 454.758 35.8423 455.573 36.5942 456.644C37.3576 457.715 37.7393 458.928 37.7393 460.284C37.7393 462.437 37.0101 464.152 35.5518 465.428C34.1048 466.704 32.1965 467.342 29.8267 467.342C27.4341 467.342 25.5143 466.704 24.0674 465.428C22.6318 464.14 21.9141 462.426 21.9141 460.284C21.9141 458.939 22.2786 457.726 23.0078 456.644C23.7484 455.561 24.7681 454.741 26.0669 454.183C24.9618 453.636 24.0902 452.878 23.4521 451.91C22.8141 450.941 22.4951 449.842 22.4951 448.611C22.4951 446.515 23.1673 444.852 24.5117 443.621C25.8561 442.391 27.6278 441.775 29.8267 441.775C32.0142 441.775 33.7801 442.391 35.1245 443.621C36.4803 444.852 37.1582 446.515 37.1582 448.611ZM34.5776 460.215C34.5776 458.825 34.1333 457.692 33.2446 456.814C32.3674 455.937 31.2166 455.499 29.7925 455.499C28.3683 455.499 27.2233 455.931 26.3574 456.797C25.5029 457.663 25.0757 458.803 25.0757 460.215C25.0757 461.628 25.4915 462.739 26.3232 463.548C27.1663 464.357 28.3341 464.761 29.8267 464.761C31.3078 464.761 32.4699 464.357 33.313 463.548C34.1561 462.728 34.5776 461.617 34.5776 460.215ZM29.8267 444.373C28.5848 444.373 27.5765 444.76 26.8018 445.535C26.0384 446.299 25.6567 447.341 25.6567 448.663C25.6567 449.927 26.0327 450.953 26.7847 451.739C27.548 452.514 28.562 452.901 29.8267 452.901C31.0913 452.901 32.0996 452.514 32.8516 451.739C33.6149 450.953 33.9966 449.927 33.9966 448.663C33.9966 447.398 33.6035 446.367 32.8174 445.569C32.0312 444.772 31.0343 444.373 29.8267 444.373ZM54.5044 457.259V467H51.2231V442.117H60.4004C63.1234 442.117 65.2539 442.812 66.792 444.202C68.3415 445.592 69.1162 447.432 69.1162 449.722C69.1162 452.138 68.3586 454 66.8433 455.311C65.3394 456.609 63.1803 457.259 60.3662 457.259H54.5044ZM54.5044 454.576H60.4004C62.1549 454.576 63.4993 454.166 64.4336 453.345C65.3678 452.514 65.835 451.317 65.835 449.756C65.835 448.275 65.3678 447.09 64.4336 446.202C63.4993 445.313 62.2176 444.852 60.5884 444.817H54.5044V454.576ZM84.6851 460.506H74.2603L71.9189 467H68.5352L78.0371 442.117H80.9082L90.4272 467H87.0605L84.6851 460.506ZM75.2515 457.806H83.7109L79.4727 446.167L75.2515 457.806ZM111.943 463.736C111.1 464.944 109.921 465.849 108.406 466.453C106.902 467.046 105.147 467.342 103.142 467.342C101.114 467.342 99.314 466.869 97.7417 465.923C96.1694 464.966 94.9504 463.611 94.0845 461.856C93.23 460.101 92.7913 458.068 92.7686 455.755V453.584C92.7686 449.836 93.6401 446.931 95.3833 444.869C97.1379 442.806 99.5988 441.775 102.766 441.775C105.364 441.775 107.454 442.442 109.038 443.775C110.622 445.097 111.59 446.976 111.943 449.415H108.662C108.047 446.122 106.087 444.476 102.783 444.476C100.584 444.476 98.9152 445.25 97.7759 446.8C96.6479 448.338 96.0783 450.571 96.0669 453.499V455.533C96.0669 458.324 96.7049 460.546 97.981 462.198C99.257 463.838 100.983 464.659 103.159 464.659C104.39 464.659 105.466 464.522 106.389 464.249C107.312 463.975 108.075 463.514 108.679 462.864V457.276H102.92V454.61H111.943V463.736ZM131.494 455.499H120.71V464.317H133.237V467H117.429V442.117H133.066V444.817H120.71V452.815H131.494V455.499ZM144.653 455.909C141.839 455.1 139.788 454.109 138.501 452.935C137.225 451.75 136.587 450.292 136.587 448.56C136.587 446.6 137.367 444.983 138.928 443.707C140.5 442.419 142.54 441.775 145.046 441.775C146.755 441.775 148.276 442.106 149.609 442.767C150.954 443.427 151.991 444.339 152.72 445.501C153.46 446.663 153.831 447.933 153.831 449.312H150.532C150.532 447.808 150.054 446.629 149.097 445.774C148.14 444.909 146.79 444.476 145.046 444.476C143.429 444.476 142.164 444.834 141.252 445.552C140.352 446.259 139.902 447.244 139.902 448.509C139.902 449.523 140.33 450.383 141.184 451.089C142.05 451.784 143.514 452.422 145.576 453.003C147.65 453.584 149.268 454.228 150.43 454.935C151.603 455.63 152.469 456.444 153.027 457.378C153.597 458.313 153.882 459.412 153.882 460.677C153.882 462.693 153.096 464.311 151.523 465.53C149.951 466.738 147.849 467.342 145.217 467.342C143.508 467.342 141.913 467.017 140.432 466.368C138.951 465.707 137.806 464.807 136.997 463.667C136.2 462.528 135.801 461.235 135.801 459.788H139.099C139.099 461.292 139.652 462.483 140.757 463.36C141.873 464.226 143.36 464.659 145.217 464.659C146.949 464.659 148.276 464.306 149.199 463.599C150.122 462.893 150.583 461.93 150.583 460.711C150.583 459.492 150.156 458.552 149.302 457.891C148.447 457.219 146.898 456.558 144.653 455.909Z" fill="#DCAC65"/>
<defs>
<filter id="filter0_d_54_6" x="136.287" y="29.4062" width="163.408" height="33.9453" filterUnits="userSpaceOnUse" color-interpolation-filters="sRGB">
<feFlood flood-opacity="0" result="BackgroundImageFix"/>
<feColorMatrix in="SourceAlpha" type="matrix" values="0 0 0 0 0 0 0 0 0 0 0 0 0 0 0 0 0 0 127 0" result="hardAlpha"/>
<feOffset dy="4"/>
<feGaussianBlur stdDeviation="2"/>
<feComposite in2="hardAlpha" operator="out"/>
<feColorMatrix type="matrix" values="0 0 0 0 0 0 0 0 0 0 0 0 0 0 0 0 0 0 0.25 0"/>
<feBlend mode="normal" in2="BackgroundImageFix" result="effect1_dropShadow_54_6"/>
<feBlend mode="normal" in="SourceGraphic" in2="effect1_dropShadow_54_6" result="shape"/>
</filter>
<linearGradient id="paint0_linear_54_6" x1="217" y1="141" x2="217" y2="-309" gradientUnits="userSpaceOnUse">
<stop stop-color="#5B5BD9"/>
<stop offset="1" stop-color="#5B5BD9" stop-opacity="0"/>
</linearGradient>
<linearGradient id="paint1_linear_54_6" x1="279" y1="442" x2="279" y2="622" gradientUnits="userSpaceOnUse">
<stop offset="0.515625" stop-color="#5B5BD9"/>
<stop offset="1" stop-color="#5B5BD9" stop-opacity="0"/>
</linearGradient>
<linearGradient id="paint2_linear_54_6" x1="107" y1="679" x2="107" y2="493" gradientUnits="userSpaceOnUse">
<stop offset="0.151042" stop-color="#5B5BD9"/>
<stop offset="1" stop-color="#5B5BD9" stop-opacity="0"/>
</linearGradient>
</defs>
</svg>
