<svg xmlns="http://www.w3.org/2000/svg" viewBox="0 0 175 142.8"><defs><style>.cls-1{fill:#5b5bd9;}</style></defs><title>Asset 12</title><g id="Layer_2" data-name="Layer 2"><g id="Layer_1-2" data-name="Layer 1"><path class="cls-1" d="M85.9,43.36S80.56,8.14,113.64.68c0,0,18.68-4.81,34.68,11.2a73.15,73.15,0,0,0,22.41-9.6S168.6,13,155.79,21.48c0,0,4.27,1.07,19.21-4.27,0,0-3.2,6.41-17.07,18.15-.33.27,0,3.18,0,3.6-.11,3.28-.38,6.56-.76,9.82A128.05,128.05,0,0,1,149.46,80,99.51,99.51,0,0,1,127,114.92c-12.45,12.3-28.29,20.4-45.19,24.61A106.17,106.17,0,0,1,4,129.44q-2-1.11-4-2.32s31,3.2,52.29-14.94c0,0-25.61-2.13-33.08-25.61,0,0,11.74,1.07,16-1.06,0,0-26.67-4.27-28.81-35.22,0,0,10.67,4.27,16,4.27,0,0-26.68-19.2-10.67-48C11.74,6.54,38.41,40.69,85.9,43.36Z"/></g></g></svg>